<?xml version="1.0" encoding="UTF-8" standalone="no"?>
<svg
    xmlns:dc="http://purl.org/dc/elements/1.1/"
    xmlns:cc="http://creativecommons.org/ns#"
    xmlns:rdf="http://www.w3.org/1999/02/22-rdf-syntax-ns#"
    xmlns:svg="http://www.w3.org/2000/svg"
    xmlns="http://www.w3.org/2000/svg"
    xmlns:sodipodi="http://sodipodi.sourceforge.net/DTD/sodipodi-0.dtd"
    xmlns:inkscape="http://www.inkscape.org/namespaces/inkscape"
    width="1278.7345mm"
    height="542.53687mm"
    viewBox="0 0 1278.7345 542.53685"
    version="1.1"
    id="svg75"
    inkscape:version="1.0.2 (e86c870879, 2021-01-15)"
    sodipodi:docname="sbpm-workflow.svg">
    <defs
        id="defs69" />
    <sodipodi:namedview
        id="base"
        pagecolor="#ffffff"
        bordercolor="#666666"
        borderopacity="1.0"
        inkscape:pageopacity="0.0"
        inkscape:pageshadow="2"
        inkscape:zoom="0.34905767"
        inkscape:cx="1438.1577"
        inkscape:cy="1025.2665"
        inkscape:document-units="mm"
        inkscape:current-layer="layer1"
        inkscape:document-rotation="0"
        showgrid="false"
        inkscape:window-width="3840"
        inkscape:window-height="2068"
        inkscape:window-x="0"
        inkscape:window-y="37"
        inkscape:window-maximized="1" />
    <metadata
        id="metadata72">
        <rdf:RDF>
            <cc:Work
                rdf:about="">
                <dc:format>image/svg+xml</dc:format>
                <dc:type
                    rdf:resource="http://purl.org/dc/dcmitype/StillImage" />
                <dc:title />
            </cc:Work>
        </rdf:RDF>
    </metadata>
    <g
        inkscape:label="Ebene 1"
        inkscape:groupmode="layer"
        id="layer1"
        transform="translate(1294.4,844.17017)">
        <g
            inkscape:label="Actor"
            id="actor-7"
            transform="translate(-1288.2164,-572.66033)">
            <path
                style="fill:#000000;fill-opacity:1;fill-rule:nonzero;stroke:none;stroke-width:0.264583"
                id="path20-5"
                d="m 94.241688,52.760387 c -0.391602,-0.318344 -1.390992,-1.154472 -1.721718,-1.270526 -2.336758,-0.819997 -7.073255,-1.524429 -9.237506,-1.817085 -5.048086,-0.682611 -7.362524,-0.78991 -12.433213,-1.183584 -4.51762,-0.144894 -9.079394,-0.8343 -13.578898,-0.02861 -0.991238,0.177493 -2.026671,0.321003 -2.913885,0.797351 -1.927805,1.035044 -3.80509,2.221992 -5.432965,3.6841 -0.830323,0.745771 -1.204717,1.879121 -1.807075,2.818683 -1.481839,2.754154 -2.19569,5.714971 -2.38198,8.818973 -0.05099,0.849569 -0.09061,1.705655 -0.01357,2.553263 0.198006,2.178728 0.77408,3.811884 1.370898,5.911588 0.399685,1.039262 0.712036,2.116474 1.199052,3.117787 0.59521,1.223756 1.308839,2.388409 2.037914,3.537455 0.767699,1.209916 1.56682,2.403737 2.448507,3.533288 2.632985,3.373181 5.779444,6.275261 8.902602,9.176642 0.817065,0.710218 1.576853,1.492273 2.451195,2.130657 1.031473,0.75311 2.137341,1.401985 3.248806,2.031082 3.429899,1.941357 7.154439,3.538129 11.017342,4.380029 1.476311,0.32175 2.985077,0.47053 4.477615,0.7058 4.546341,0.36891 4.313698,0.41332 8.740902,0.53489 2.704341,0.0743 4.192199,0.10471 6.849594,-0.13248 2.543855,-0.22705 2.927315,-0.38234 5.347405,-0.9001 4.62081,-2.23099 8.90453,-4.651914 11.82287,-8.965289 1.29139,-1.908699 1.23131,-2.141781 2.01225,-4.272878 0.46168,-2.415225 0.54058,-4.9135 0.0166,-7.331223 -0.59065,-2.725597 -1.7816,-5.444799 -2.83261,-8.019494 -0.33828,-0.73996 -0.64313,-1.496132 -1.01482,-2.219886 -0.40371,-0.786122 -0.86166,-1.543344 -1.30916,-2.305394 -1.66753,-2.839667 -3.53542,-5.52469 -5.46648,-8.188642 -1.45784,-1.896711 -2.97962,-3.743434 -4.55038,-5.547466 -0.25697,-0.29513 -0.50236,-0.601067 -0.77475,-0.882034 -0.28883,-0.297931 -0.60465,-0.568454 -0.906968,-0.852683 -1.602618,-1.501545 -3.456344,-2.644188 -5.428022,-3.586914 -1.773745,-0.884034 -3.699793,-1.300078 -5.634733,-1.646467 0,0 -3.134434,2.197965 -3.134434,2.197965 v 0 c 1.913305,0.305178 3.81187,0.699084 5.563208,1.566 1.939362,0.927541 3.800954,2.001321 5.386292,3.473553 2.320256,2.178468 4.359537,4.651708 6.342477,7.1346 2.93383,3.982982 5.7937,8.062564 7.8,12.608611 1.73494,4.150095 3.42389,8.163808 3.02956,12.77608 -0.0679,0.794623 -0.26064,1.573602 -0.39096,2.360404 -0.27508,0.71365 -0.49154,1.452766 -0.82526,2.140952 -0.65895,1.358871 -1.78015,2.949983 -2.79496,4.045678 -0.63313,0.683588 -1.48196,1.163706 -2.04342,1.907283 -0.11739,0.155477 0.74249,-0.08748 0.5839,0.02567 -0.79717,0.568727 -1.72172,0.9335 -2.58257,1.400252 -2.41206,0.561035 -2.85868,0.738886 -5.40021,1.008914 -5.192759,0.551708 -10.516546,0.198768 -15.702022,-0.229195 -1.464922,-0.238107 -2.945318,-0.395259 -4.394761,-0.714322 -4.975918,-1.095349 -9.96197,-3.368202 -14.085097,-6.355837 -0.880837,-0.63826 -1.679852,-1.382419 -2.51978,-2.073629 -2.24994,-1.998068 -3.876974,-3.353941 -5.955461,-5.592662 -2.91964,-3.144719 -5.479341,-6.643881 -7.284736,-10.553745 -0.462844,-1.002358 -0.772522,-2.068573 -1.158785,-3.102859 -0.642901,-2.397045 -1.039466,-3.422155 -1.23974,-5.871731 -0.215722,-2.638536 0.16714,-5.71804 1.050483,-8.205578 0.357886,-1.007822 0.87955,-1.949755 1.319324,-2.924633 0.627674,-0.911894 1.4508,-1.716508 1.883024,-2.735678 0.08683,-0.204753 -0.831898,-0.118994 -0.631481,-0.215416 0.930288,-0.447564 1.951011,-0.695177 2.961682,-0.90565 4.570516,-0.951809 9.248341,-0.368154 13.859819,-0.253759 5.0296,0.383961 7.328525,0.460282 12.309483,1.234191 1.743274,0.270859 3.481036,0.590545 5.198023,0.995905 2.808211,0.662982 3.28635,0.668732 4.969568,2.350275 0,0 3.381965,-2.07247 3.381965,-2.07247 z" />
            <path
                style="fill:#000000;fill-opacity:1;fill-rule:nonzero;stroke:none;stroke-width:0.264583"
                id="path22-3"
                d="m 76.103767,103.58108 c 0.210476,1.18025 0.213352,1.25316 0.497803,2.55338 0.247941,1.13334 0.520745,2.26122 0.760609,3.39629 0.612539,2.89865 1.235162,6.25003 1.822971,9.14177 0.348834,1.7161 0.715415,3.42854 1.073121,5.14281 1.348512,6.77222 3.0032,13.47845 4.384773,20.24336 0.875532,4.28709 0.866563,4.41603 1.578289,8.55087 1.107549,6.50099 1.165646,13.11401 1.03205,19.68855 -0.02761,3.18474 -0.46414,6.34804 -0.906989,9.49656 -0.189854,1.52236 -0.441727,3.0377 -0.585121,4.56558 -0.118144,1.92291 -0.06692,3.85215 -0.055,5.77742 -0.01437,1.98704 0.04948,3.97773 7.94e-4,5.9645 -0.01254,0.51092 -0.125603,2.29405 -0.155784,2.79077 -0.07796,1.30688 -0.165156,2.61317 -0.252418,3.91945 0,0 3.420721,-1.71867 3.420721,-1.71867 v 0 c 0.06005,-1.30016 0.124069,-2.60017 0.215233,-3.89861 0.0595,-0.95095 0.12663,-1.85945 0.145905,-2.81209 0.04022,-1.98773 -0.06071,-3.97737 0.0034,-5.96518 0.02294,-1.9339 0.0326,-3.87137 0.180544,-5.80064 0.147428,-1.50597 0.359616,-3.0047 0.503065,-4.51121 0.362352,-3.14456 0.836158,-6.29685 0.750128,-9.47023 -0.06421,-3.98202 -0.150174,-7.96627 -0.42105,-11.94073 -0.08997,-1.32012 -0.16992,-2.64212 -0.323897,-3.95631 -0.145796,-1.24435 -0.383228,-2.47626 -0.574842,-3.71438 -0.666509,-3.4315 -0.952031,-4.99222 -1.710002,-8.49319 -1.459661,-6.74201 -3.044142,-13.45755 -4.422857,-20.21732 -0.9398,-4.79081 -1.909609,-9.57948 -2.652318,-14.40619 -0.181409,-1.17895 -0.313814,-2.36496 -0.483142,-3.5457 -0.38171,-2.6617 -0.128405,-0.42096 -0.354674,-2.59819 0,0 -3.471209,1.81733 -3.471209,1.81733 z" />
            <path
                style="fill:#000000;fill-opacity:1;fill-rule:nonzero;stroke:none;stroke-width:0.264583"
                id="path24-5"
                d="m 82.996504,207.18392 c -0.267956,0.23537 -0.532225,0.475 -0.803872,0.7061 -1.776611,1.51141 -0.50268,0.3832 -2.653012,2.14303 -2.322287,1.90055 -4.602885,3.85366 -6.874753,5.81374 -5.830755,5.13601 -11.888915,9.99651 -18.010838,14.77769 -2.223995,1.80588 -4.588047,3.43119 -6.819903,5.22687 -0.839155,0.67516 -1.651511,1.38299 -2.481723,2.06911 -0.314542,0.2481 -0.629084,0.49619 -0.943626,0.74429 0,0 3.548306,-1.42452 3.548306,-1.42452 v 0 c 0.299913,-0.24482 0.599827,-0.48965 0.89974,-0.73447 0.319891,-0.26942 2.181775,-1.83952 2.416868,-2.02855 2.197528,-1.76695 4.519623,-3.37495 6.689026,-5.17798 6.041403,-4.8194 12.045543,-9.68445 17.889583,-14.74324 2.881413,-2.43023 5.791165,-4.81415 8.740272,-7.16067 0.638325,-0.5079 1.397143,-1.14907 2.033719,-1.68236 0,0 -3.629787,1.47096 -3.629787,1.47096 z" />
            <path
                style="fill:#000000;fill-opacity:1;fill-rule:nonzero;stroke:none;stroke-width:0.264583"
                id="path26-6"
                d="m 85.917557,206.60792 c 3.665194,4.77033 7.243599,9.64237 11.348128,14.05314 0.936699,1.00658 1.935816,1.95322 2.903725,2.92983 0.97086,0.84103 1.92911,1.69685 2.9126,2.52308 1.91668,1.61023 3.89568,3.14499 5.82443,4.74075 2.87337,2.37732 5.7237,4.78145 8.6058,7.14847 2.18487,1.82649 4.37389,3.64857 6.597,5.42842 0,0 3.19616,-2.01773 3.19616,-2.01773 v 0 c -2.32615,-1.69345 -4.59658,-3.46189 -6.83709,-5.26706 -2.51443,-1.96751 -3.02196,-2.33897 -5.57873,-4.45416 -2.08366,-1.72379 -4.09865,-3.52976 -6.18967,-5.24462 -0.89308,-0.73242 -1.83305,-1.40626 -2.7285,-2.13578 -0.99281,-0.80884 -1.95686,-1.65234 -2.9353,-2.47852 -0.97629,-0.96335 -1.98496,-1.89496 -2.92888,-2.89005 -4.116779,-4.33996 -7.782523,-9.14704 -10.782937,-14.32228 0,0 -3.406736,1.98651 -3.406736,1.98651 z" />
            <path
                style="fill:#000000;fill-opacity:1;fill-rule:nonzero;stroke:none;stroke-width:0.264583"
                id="path28-2"
                d="m 42.0547,137.72493 c 9.361363,-0.24284 18.727499,-0.26895 28.091611,-0.25935 8.670026,-0.10817 17.34226,-0.12818 26.011277,-0.30631 3.994342,-0.0659 7.969822,-0.47893 11.959122,-0.65987 3.57813,-0.13795 7.15137,-0.36722 10.72494,-0.58886 0,0 2.98386,-2.1984 2.98386,-2.1984 v 0 c -3.57822,0.25495 -7.15906,0.49798 -10.74481,0.61525 -0.88945,0.0323 -3.13596,0.10637 -4.06294,0.1678 -2.65865,0.1762 -5.30684,0.54152 -7.976242,0.55572 -8.810239,0.3385 -17.627145,0.52476 -26.442892,0.63296 -9.126067,0.009 -18.254596,-0.009 -27.377678,-0.25935 0,0 -3.166248,2.30041 -3.166248,2.30041 z" />
            <path
                style="fill:#000000;fill-opacity:1;fill-rule:nonzero;stroke:none;stroke-width:0.264583"
                id="path30-9"
                d="m 42.231577,135.7964 c -1.810623,0.72743 -2.517611,0.99355 -4.446111,1.86569 -1.071044,0.48437 -2.165456,0.92608 -3.192598,1.49768 -2.603,1.44856 -5.154843,2.98887 -7.687551,4.5571 -2.43244,1.50614 -9.069153,6.00219 -11.392245,7.56434 -6.1433585,4.06379 -12.3655331,8.00666 -18.6476587,11.8518 0,0 3.1445553,-1.21768 3.1445553,-1.21768 v 0 c 6.1268653,-3.81367 12.1937834,-7.7226 18.2175474,-11.69723 5.960395,-3.99584 5.56538,-3.7798 11.585839,-7.6227 0.683438,-0.43624 1.351291,-0.90172 2.068836,-1.27924 2.324256,-1.22287 4.797136,-2.17276 7.246143,-3.10886 0,0 3.103243,-2.4109 3.103243,-2.4109 z" />
            <path
                style="fill:#000000;fill-opacity:1;fill-rule:nonzero;stroke:none;stroke-width:0.264583"
                id="path32-1"
                d="m 119.52312,137.24939 c 0.16763,0.49628 0.28128,1.0142 0.50288,1.48884 1.55026,3.32034 3.84494,6.18586 6.24779,8.9187 1.65349,1.88056 4.74269,5.10822 6.47089,6.93256 2.98111,3.03706 5.83926,6.20059 8.88202,9.17743 2.41967,2.36724 4.97155,4.59734 7.52917,6.81246 3.74346,3.2115 7.37436,6.54973 11.21578,9.6452 0.53911,0.39296 1.07822,0.78591 1.61733,1.17886 0,0 3.11689,-1.98381 3.11689,-1.98381 v 0 c -0.5514,-0.37756 -1.10279,-0.75511 -1.65419,-1.13267 -1.84349,-1.42299 -2.08674,-1.56865 -3.90437,-3.15611 -2.45781,-2.14657 -4.7464,-4.48662 -7.37318,-6.43727 -2.0231,-1.64824 -2.81211,-2.25425 -4.827,-4.06435 -4.13333,-3.71321 -7.92413,-7.77556 -11.80922,-11.74149 -2.27464,-2.3903 -4.27232,-4.42163 -6.40936,-6.94107 -2.33338,-2.75092 -4.5065,-5.61237 -5.79977,-9.01301 -0.18459,-0.48539 -0.25734,-1.00621 -0.38601,-1.50931 0,0 -3.41965,1.82504 -3.41965,1.82504 z" />
        </g>
        <text
            xml:space="preserve"
            style="font-style:normal;font-weight:normal;font-size:25.4px;line-height:1.25;font-family:sans-serif;fill:#000000;fill-opacity:1;stroke:none;stroke-width:0.264583"
            x="-1277.5597"
            y="-624.41669"
            id="text369"><tspan
            sodipodi:role="line"
            id="tspan367"
            x="-1277.5597"
            y="-624.41669"
            style="font-size:25.4px;stroke-width:0.264583">Mitarbeiter</tspan></text>
        <text
            xml:space="preserve"
            style="font-style:normal;font-weight:normal;font-size:25.4px;line-height:1.25;font-family:sans-serif;fill:#000000;fill-opacity:1;stroke:none;stroke-width:0.264583"
            x="-1289.6549"
            y="-306.91672"
            id="text373"><tspan
            sodipodi:role="line"
            id="tspan371"
            x="-1289.6549"
            y="-306.91672"
            style="font-size:25.4px;stroke-width:0.264583">Vorgesetzter</tspan></text>
        <text
            xml:space="preserve"
            style="font-style:normal;font-weight:normal;font-size:25.4px;line-height:1.25;font-family:sans-serif;fill:#000000;fill-opacity:1;stroke:none;stroke-width:0.264583"
            x="-668.26184"
            y="-783.16669"
            id="text377"><tspan
            sodipodi:role="line"
            x="-668.26184"
            y="-783.16669"
            style="font-size:25.4px;stroke-width:0.264583"
            id="tspan442">Dienstreiseantrag</tspan></text>
        <text
            xml:space="preserve"
            style="font-style:normal;font-weight:normal;font-size:25.4px;line-height:1.25;font-family:sans-serif;fill:#000000;fill-opacity:1;stroke:none;stroke-width:0.264583"
            x="-901.90356"
            y="-678.05121"
            id="text381"><tspan
            sodipodi:role="line"
            id="tspan379"
            x="-901.90356"
            y="-678.05121"
            style="font-size:25.4px;stroke-width:0.264583">Antrag ausfüllen</tspan></text>
        <text
            xml:space="preserve"
            style="font-style:normal;font-weight:normal;font-size:25.4px;line-height:1.25;font-family:sans-serif;fill:#000000;fill-opacity:1;stroke:none;stroke-width:0.264583"
            x="-819.59125"
            y="-426.9834"
            id="text385"><tspan
            sodipodi:role="line"
            id="tspan383"
            x="-819.59125"
            y="-426.9834"
            style="font-size:25.4px;stroke-width:0.264583">Antrag prüfen</tspan></text>
        <path
            id="path420"
            d="m -719.73321,-481.10824 c -1.43088,-0.49213 -5.48751,-1.91503 -6.71596,-2.20232 -10.30173,-2.40921 -20.95168,-2.88898 -31.41052,-3.512 -3.25295,-0.10181 -6.50628,-0.42209 -9.75887,-0.3054 -12.58432,0.45135 -25.25768,3.69575 -36.96059,9.03623 -2.52107,1.15044 -4.95855,2.5337 -7.43784,3.80058 -7.94265,4.2295 -15.00241,10.27023 -21.72322,16.67574 -3.78682,3.6092 -6.64647,6.44197 -9.91341,10.65011 -1.32936,1.71236 -2.50077,3.58143 -3.75116,5.37213 -3.13504,5.04436 -5.02848,10.80272 -6.47843,16.73865 -0.37737,1.54474 -0.81583,3.08568 -0.98482,4.67929 -0.41877,3.94869 0.0847,6.07385 0.58446,9.93508 0.44734,1.49235 0.73204,3.06443 1.34199,4.47704 2.57124,5.95474 7.73282,10.89877 13.1163,13.08182 2.18365,0.88548 4.46599,1.40067 6.69897,2.10103 7.01783,1.49299 11.25139,2.61858 18.60893,3.11949 4.93868,0.3362 9.89135,0.32065 14.83847,0.35046 17.21364,0.10375 34.35436,-1.14681 51.5299,-2.30237 24.39838,-2.04417 48.74702,-4.74089 73.18045,-6.17845 7.83709,-0.64807 15.71918,-0.25519 23.54119,-1.16252 4.69601,-0.54473 4.73745,-0.69676 9.36798,-1.79155 1.76933,-0.60161 6.14135,-1.97731 7.89832,-2.98373 2.0457,-1.17179 3.99964,-2.55397 5.93295,-3.95955 1.14992,-0.83603 2.28394,-1.72085 3.30561,-2.75725 2.42177,-2.4567 3.27302,-4.17515 5.11553,-7.14523 1.60111,-4.38406 3.10981,-9.23083 2.98532,-14.09409 -0.15061,-5.88367 -1.99101,-11.28363 -3.9267,-16.60665 -4.18604,-6.94237 -9.57778,-12.97024 -15.65153,-17.69157 -3.52286,-2.73844 -5.14194,-3.40937 -8.92494,-5.44656 -9.00852,-4.24061 -18.5136,-6.92306 -28.016,-9.19932 -9.11889,-2.16133 -18.4056,-2.72555 -27.68185,-3.03477 -9.28273,-0.17532 -18.54054,-0.86268 -27.73251,-2.37826 -5.53951,-1.30882 -11.152,-1.96874 -16.7635,-2.69418 0,0 -2.06663,1.70114 -2.06663,1.70114 v 0 c 5.57592,0.76923 11.15751,1.47315 16.66765,2.76265 9.19884,1.5417 18.46781,2.18768 27.75833,2.39982 9.27,0.30057 18.55251,0.84662 27.66932,2.97974 9.48863,2.2619 18.96932,4.95453 27.97619,9.14636 3.79532,2.02131 5.36759,2.65575 8.90157,5.38601 6.04787,4.67244 11.42766,10.64591 15.57161,17.56151 1.94842,5.34363 3.72854,10.56002 3.84563,16.48095 0.0956,4.83126 -1.38728,9.62564 -3.0476,13.95084 -0.76126,1.20891 -1.45015,2.48391 -2.28377,3.6267 -4.57614,6.2733 -8.79099,8.06344 -15.43771,10.15201 -4.58441,1.10434 -4.70145,1.27452 -9.35776,1.83041 -7.84592,0.93671 -15.75783,0.55076 -23.61902,1.2386 -24.50347,1.48423 -48.91586,4.2678 -73.38394,6.3497 -17.14675,1.16332 -34.26592,2.40814 -51.45193,2.26301 -4.90976,-0.0415 -9.82488,-0.0604 -14.72536,-0.41285 -7.33208,-0.52734 -11.51553,-1.64719 -18.50638,-3.14868 -2.20638,-0.69958 -4.46009,-1.22245 -6.61911,-2.09873 -5.33384,-2.16474 -10.44757,-6.96708 -12.9952,-12.88269 -0.60131,-1.39618 -0.88187,-2.94926 -1.32279,-4.42391 -0.49814,-3.91996 -0.97299,-5.8261 -0.53603,-9.83041 0.1727,-1.58247 0.59903,-3.11534 0.97399,-4.64995 1.44299,-5.90616 3.35746,-11.61555 6.49089,-16.62075 1.24912,-1.77922 2.42022,-3.63625 3.74737,-5.33765 4.79934,-6.15276 10.49641,-11.26506 16.13128,-16.32268 1.52624,-1.36985 2.98878,-2.85334 4.62756,-4.03511 2.08411,-1.50288 4.33789,-2.66276 6.50681,-3.99417 2.47927,-1.27651 4.91629,-2.66991 7.4378,-3.82958 11.68602,-5.37448 24.34932,-8.67664 36.9301,-9.14223 3.25159,-0.12033 6.50427,0.19881 9.75642,0.29819 10.40248,0.6505 21.00293,1.12456 31.24309,3.57021 1.35181,0.32287 5.1296,1.68769 6.65141,2.2248 0,0 2.25169,-1.76514 2.25169,-1.76514 z"
            style="stroke-width:0.245584" />
        <path
            id="path420-7"
            d="m -775.9992,-743.72135 c -1.66082,-0.49213 -6.36937,-1.91503 -7.79523,-2.20232 -11.95727,-2.40921 -24.31871,-2.88898 -36.45834,-3.512 -3.77571,-0.10181 -7.55187,-0.42209 -11.32716,-0.3054 -14.60669,0.45135 -29.31671,3.69575 -42.90034,9.03623 -2.92621,1.15044 -5.75542,2.5337 -8.63314,3.80058 -9.21906,4.2295 -17.41336,10.27023 -25.21423,16.67574 -4.39539,3.6092 -7.71459,6.44197 -11.50655,10.65011 -1.54299,1.71236 -2.90266,3.58143 -4.35398,5.37213 -3.63887,5.04436 -5.83658,10.80272 -7.51956,16.73865 -0.438,1.54474 -0.94692,3.08568 -1.14308,4.67929 -0.48607,3.94869 0.0983,6.07385 0.67839,9.93508 0.51922,1.49235 0.84968,3.06443 1.55765,4.47704 2.98445,5.95474 8.97552,10.89877 15.22415,13.08182 2.53458,0.88548 5.18369,1.40067 7.77553,2.10103 8.14562,1.49299 13.05954,2.61858 21.59947,3.11949 5.73235,0.3362 11.48093,0.32065 17.22308,0.35046 19.97995,0.10375 39.87527,-1.14681 59.81099,-2.30237 28.31933,-2.04417 56.58091,-4.74089 84.94091,-6.17845 9.09653,-0.64807 18.24532,-0.25519 27.32436,-1.16252 5.45068,-0.54473 5.49878,-0.69676 10.87345,-1.79155 2.05367,-0.60161 7.1283,-1.97731 9.16763,-2.98373 2.37445,-1.17179 4.6424,-2.55397 6.88639,-3.95955 1.33472,-0.83603 2.65099,-1.72085 3.83685,-2.75725 2.81096,-2.4567 3.799,-4.17515 5.93762,-7.14523 1.85841,-4.38406 3.60956,-9.23083 3.46507,-14.09409 -0.17481,-5.88367 -2.31098,-11.28363 -4.55774,-16.60665 -4.85876,-6.94237 -11.11697,-12.97024 -18.1668,-17.69157 -4.089,-2.73844 -5.96828,-3.40937 -10.35923,-5.44656 -10.45623,-4.24061 -21.48882,-6.92306 -32.51829,-9.19932 -10.58434,-2.16133 -21.36347,-2.72555 -32.13045,-3.03477 -10.77452,-0.17532 -21.5201,-0.86268 -32.18926,-2.37826 -6.42974,-1.30882 -12.94418,-1.96874 -19.45748,-2.69418 0,0 -2.39874,1.70114 -2.39874,1.70114 v 0 c 6.472,0.76923 12.95058,1.47315 19.34622,2.76265 10.67713,1.5417 21.43567,2.18768 32.21922,2.39982 10.75973,0.30057 21.53398,0.84662 32.11591,2.97974 11.0135,2.2619 22.01778,4.95453 32.4721,9.14636 4.40524,2.02131 6.23018,2.65575 10.33209,5.38601 7.01979,4.67244 13.26414,10.64591 18.07403,17.56151 2.26155,5.34363 4.32774,10.56002 4.46365,16.48095 0.11094,4.83126 -1.61022,9.62564 -3.53737,13.95084 -0.8836,1.20891 -1.6832,2.48391 -2.65078,3.6267 -5.31154,6.2733 -10.20374,8.06344 -17.91862,10.15201 -5.32114,1.10434 -5.457,1.27452 -10.86159,1.83041 -9.1068,0.93671 -18.2902,0.55076 -27.41472,1.2386 -28.44128,1.48423 -56.77686,4.2678 -85.17708,6.3497 -19.9023,1.16332 -39.77261,2.40814 -59.7205,2.26301 -5.69878,-0.0415 -11.40378,-0.0604 -17.09179,-0.41285 -8.51038,-0.52734 -13.36612,-1.64719 -21.48044,-3.14868 -2.56095,-0.69958 -5.17684,-1.22245 -7.68284,-2.09873 -6.19101,-2.16474 -12.12654,-6.96708 -15.08358,-12.88269 -0.69794,-1.39618 -1.02359,-2.94926 -1.53537,-4.42391 -0.5782,-3.91996 -1.12935,-5.8261 -0.62217,-9.83041 0.20045,-1.58247 0.6953,-3.11534 1.13051,-4.64995 1.67489,-5.90616 3.89702,-11.61555 7.53401,-16.62075 1.44986,-1.77922 2.80916,-3.63625 4.34959,-5.33765 5.57062,-6.15276 12.18324,-11.26506 18.72366,-16.32268 1.7715,-1.36985 3.46909,-2.85334 5.37123,-4.03511 2.41903,-1.50288 5.035,-2.66276 7.55248,-3.99417 2.87769,-1.27651 5.70635,-2.66991 8.63309,-3.82958 13.56402,-5.37448 28.26237,-8.67664 42.86493,-9.14223 3.77415,-0.12033 7.54954,0.19881 11.32433,0.29819 12.07421,0.6505 24.3782,1.12456 36.264,3.57021 1.56906,0.32287 5.95395,1.68769 7.72033,2.2248 0,0 2.61353,-1.76514 2.61353,-1.76514 z"
            style="stroke-width:0.264583" />
        <text
            xml:space="preserve"
            style="font-style:normal;font-weight:normal;font-size:25.4px;line-height:1.25;font-family:sans-serif;fill:#000000;fill-opacity:1;stroke:none;stroke-width:0.264583"
            x="-609.06964"
            y="-558.8808"
            id="text381-5"><tspan
            sodipodi:role="line"
            id="tspan379-3"
            x="-609.06964"
            y="-558.8808"
            style="font-size:25.4px;stroke-width:0.264583">Konto aktualisieren</tspan></text>
        <path
            id="path420-7-5"
            d="m -470.24726,-613.9676 c -1.8614,-0.49213 -7.13863,-1.91503 -8.7367,-2.20232 -13.40141,-2.40921 -27.2558,-2.88898 -40.8616,-3.512 -4.23172,-0.10181 -8.46394,-0.42209 -12.69519,-0.3054 -16.37082,0.45135 -32.85744,3.69575 -48.08163,9.03623 -3.27963,1.15044 -6.45053,2.5337 -9.67581,3.80058 -10.33249,4.2295 -19.51646,10.27023 -28.25948,16.67574 -4.92624,3.6092 -8.64632,6.44197 -12.89625,10.65011 -1.72935,1.71236 -3.25323,3.58143 -4.87984,5.37213 -4.07835,5.04436 -6.54149,10.80272 -8.42773,16.73865 -0.4909,1.54474 -1.06129,3.08568 -1.28114,4.67929 -0.54477,3.94869 0.11018,6.07385 0.76033,9.93508 0.58192,1.49235 0.9523,3.06443 1.74577,4.47704 3.3449,5.95474 10.05954,10.89877 17.06285,13.08182 2.84069,0.88548 5.80975,1.40067 8.71462,2.10103 9.12941,1.49299 14.6368,2.61858 24.20814,3.11949 6.42468,0.3362 12.86754,0.32065 19.3032,0.35046 22.39303,0.10375 44.69121,-1.14681 67.03467,-2.30237 31.73959,-2.04417 63.41447,-4.74089 95.19965,-6.17845 10.19516,-0.64807 20.4489,-0.25519 30.62446,-1.16252 6.10898,-0.54473 6.16289,-0.69676 12.18669,-1.79155 2.3017,-0.60161 7.98922,-1.97731 10.27485,-2.98373 2.66122,-1.17179 5.20309,-2.55397 7.71809,-3.95955 1.49592,-0.83603 2.97117,-1.72085 4.30025,-2.75725 3.15045,-2.4567 4.25782,-4.17515 6.65474,-7.14523 2.08285,-4.38406 4.0455,-9.23083 3.88356,-14.09409 -0.19592,-5.88367 -2.59009,-11.28363 -5.1082,-16.60665 -5.44558,-6.94237 -12.45962,-12.97024 -20.3609,-17.69157 -4.58285,-2.73844 -6.6891,-3.40937 -11.61036,-5.44656 -11.71909,-4.24061 -24.08414,-6.92306 -36.44569,-9.19932 -11.86267,-2.16133 -23.94365,-2.72555 -36.01101,-3.03477 -12.07581,-0.17532 -24.11919,-0.86268 -36.07692,-2.37826 -7.20629,-1.30882 -14.50751,-1.96874 -21.80745,-2.69418 0,0 -2.68845,1.70114 -2.68845,1.70114 v 0 c 7.25365,0.76923 14.51469,1.47315 21.68276,2.76265 11.96666,1.5417 24.02456,2.18768 36.1105,2.39982 12.05923,0.30057 24.13474,0.84662 35.99471,2.97974 12.34365,2.2619 24.67697,4.95453 36.39391,9.14636 4.93729,2.02131 6.98263,2.65575 11.57995,5.38601 7.86761,4.67244 14.86612,10.64591 20.25692,17.56151 2.53469,5.34363 4.85043,10.56002 5.00275,16.48095 0.12434,4.83126 -1.80469,9.62564 -3.96459,13.95084 -0.99032,1.20891 -1.88649,2.48391 -2.97093,3.6267 -5.95304,6.2733 -11.4361,8.06344 -20.08274,10.15201 -5.9638,1.10434 -6.11607,1.27452 -12.1734,1.83041 -10.20668,0.93671 -20.4992,0.55076 -30.72574,1.2386 -31.87627,1.48423 -63.63408,4.2678 -95.46434,6.3497 -22.306,1.16332 -44.57615,2.40814 -66.93325,2.26301 -6.38705,-0.0415 -12.78107,-0.0604 -19.15605,-0.41285 -9.53822,-0.52734 -14.98041,-1.64719 -24.07474,-3.14868 -2.87025,-0.69958 -5.80207,-1.22245 -8.61073,-2.09873 -6.93873,-2.16474 -13.59113,-6.96708 -16.9053,-12.88269 -0.78224,-1.39618 -1.14722,-2.94926 -1.72081,-4.42391 -0.64803,-3.91996 -1.26574,-5.8261 -0.69731,-9.83041 0.22466,-1.58247 0.77928,-3.11534 1.26705,-4.64995 1.87717,-5.90616 4.36768,-11.61555 8.44393,-16.62075 1.62497,-1.77922 3.14843,-3.63625 4.87491,-5.33765 6.24341,-6.15276 13.65467,-11.26506 20.98501,-16.32268 1.98545,-1.36985 3.88807,-2.85334 6.01994,-4.03511 2.71119,-1.50288 5.6431,-2.66276 8.46463,-3.99417 3.22525,-1.27651 6.39554,-2.66991 9.67575,-3.82958 15.20222,-5.37448 31.67576,-8.67664 48.04195,-9.14223 4.22997,-0.12033 8.46133,0.19881 12.69202,0.29819 13.53248,0.6505 27.32248,1.12456 40.64379,3.57021 1.75856,0.32287 6.67304,1.68769 8.65275,2.2248 0,0 2.92918,-1.76514 2.92918,-1.76514 z"
            style="stroke-width:0.280105" />
        <text
            xml:space="preserve"
            style="font-style:normal;font-weight:normal;font-size:25.4px;line-height:1.25;font-family:sans-serif;fill:#000000;fill-opacity:1;stroke:none;stroke-width:0.264583"
            x="-169.63589"
            y="-480.89587"
            id="text373-2"><tspan
            sodipodi:role="line"
            id="tspan371-9"
            x="-169.63589"
            y="-480.89587"
            style="font-size:25.4px;stroke-width:0.264583">Reisestelle</tspan></text>
        <path
            id="path583"
            d="m -1009.0411,-797.78699 c 4.7569,54.18755 6.0029,108.54352 7.3355,162.84816 1.3084,61.16379 1.75947,122.33721 1.85734,183.50969 0.44086,26.63743 0.32822,53.29684 1.44553,79.92364 0.62853,2.13401 0.70784,4.4352 1.8856,6.40201 7.36875,12.30523 39.79082,11.19078 51.30605,11.6133 10.36536,0.38036 20.74147,0.5179 31.11221,0.77683 75.48797,1.50994 151.00623,1.54881 226.512,1.60988 63.96277,0.088 127.92559,0.09 191.88837,0.14636 29.64285,0.0417 59.28572,0.0454 88.92859,0.0385 13.71597,0.0149 27.43188,-0.0116 41.14786,-0.008 5.25779,0.003 18.56483,0.28291 24.23363,-0.66887 3.09267,-0.51925 5.93492,-1.78199 8.90237,-2.67301 3.68263,-2.4212 7.95474,-4.32722 11.04784,-7.26362 6.60573,-6.27111 9.01824,-21.37875 10.21115,-29.23463 0.96251,-6.3385 7.35851,-55.37551 7.71449,-58.08818 9.10621,-71.6683 15.45804,-143.54571 20.09841,-215.50149 1.99733,-30.89029 2.59626,-61.8215 2.73095,-92.75013 0.0343,-8.98203 0.007,-17.96403 -0.0215,-26.94601 -0.0105,-3.30516 0.1424,-10.18222 -0.45943,-13.68663 -0.28263,-1.64584 -0.97143,-3.2255 -1.45715,-4.83825 -0.95728,-1.19876 -1.29175,-3.00893 -2.87183,-3.59627 -4.71591,-1.75299 -9.97179,-2.2891 -15.05232,-3.06648 -8.04499,-1.23096 -35.51387,-3.86685 -42.96934,-4.65469 -9.76677,-1.03211 -19.52455,-2.12214 -29.28685,-3.18321 -10.39647,-1.09742 -20.79297,-2.19482 -31.18946,-3.29224 -16.27003,-1.52811 -45.61977,-4.44165 -62.07137,-5.37023 -12.71725,-0.71779 -25.46097,-1.07697 -38.19895,-1.4655 -34.9897,-1.06724 -70.00256,-1.3206 -105.01054,-1.57156 -56.12554,0.57702 -111.46055,8.40799 -166.31054,17.60892 -18.86714,3.68488 -37.30855,6.85898 -56.79402,6.37324 -10.82094,-0.26972 -17.26569,-1.20074 -28.02998,-2.36801 -28.10732,-4.02204 -56.54008,-5.77669 -84.97951,-7.15926 -12.09847,-0.44577 -24.20628,-1.25746 -36.30648,-0.56132 -5.76966,0.54356 -11.48761,1.32331 -17.15006,2.38352 0,0 -4.15836,2.63175 -4.15836,2.63175 v 0 c 5.65491,-1.08095 11.36013,-1.88411 17.12561,-2.45118 12.14559,-0.73279 24.3016,-0.0258 36.45203,0.40667 28.45604,1.30006 56.89489,3.07386 85.01192,7.10276 10.94006,1.206 17.07213,2.11657 28.0694,2.41439 10.09376,0.27337 18.04694,-0.0186 28.0019,-1.3126 2.19358,-0.28513 28.77013,-5.05088 28.99656,-5.09121 54.88503,-9.34195 110.28546,-17.22446 166.47965,-17.8116 68.51326,0.34291 137.25359,0.57468 205.2607,8.36511 10.38111,1.10565 20.7622,2.21129 31.14327,3.31694 9.71145,1.09245 19.41666,2.22407 29.13435,3.27737 8.8793,0.9624 33.42207,3.28854 42.76591,4.71676 4.92777,0.75319 10.02762,1.25064 14.61126,2.93264 1.53029,0.56158 1.87052,2.30581 2.8058,3.45871 0.48332,1.58392 1.16638,3.13478 1.44992,4.75177 0.61899,3.52978 0.49143,10.30269 0.50906,13.63835 0.0473,8.96755 0.0982,17.9351 0.11738,26.90271 -0.0344,30.85964 -0.53955,61.72278 -2.31021,92.55186 -4.19608,71.93652 -10.29769,143.80277 -19.89633,215.39344 -1.49881,10.89882 -2.9326,21.80392 -4.49643,32.69646 -1.2281,8.55404 -2.47382,17.10714 -3.87919,25.64233 -1.09312,6.6388 -2.61753,15.02287 -5.56727,21.37056 -1.79468,3.86207 -4.61794,7.29885 -7.2994,10.74602 -2.95144,0.92944 -5.76714,2.24308 -8.85434,2.78834 -5.74058,1.01387 -18.93451,0.73713 -24.28461,0.73881 -13.70957,0.004 -27.41909,-0.0216 -41.12865,-0.004 -29.71372,0 -59.42743,0.0206 -89.14105,0.0897 -64.11128,0.10524 -128.22273,0.16017 -192.33414,0.1238 -75.41752,-0.15779 -150.84731,-0.14316 -226.24553,-1.75723 -10.32673,-0.28013 -20.66027,-0.42283 -30.98033,-0.84039 -10.72731,-0.43403 -43.54053,0.20804 -50.55871,-11.40259 -1.1694,-1.93492 -1.25785,-4.2028 -1.88667,-6.30418 -1.27087,-26.55003 -1.28759,-53.13902 -1.9308,-79.70178 -0.31033,-61.10472 -0.82409,-122.20988 -2.35844,-183.30353 -1.26777,-54.46473 -2.55012,-108.94258 -6.15182,-163.34226 0,0 -4.671,1.97845 -4.671,1.97845 z"
            style="stroke-width:0.282297" />
        <path
            id="path585"
            d="m -1102.5987,-676.02422 c 19.2848,-0.0925 38.5701,-0.0755 57.855,-0.0704 27.2893,-0.0175 54.57364,-0.69017 81.85945,-1.09879 12.2887,-0.38936 6.44375,-0.16883 17.53548,-0.64198 0,0 3.22944,-2.5404 3.22944,-2.5404 v 0 c -11.14044,0.52297 -5.27197,0.27882 -17.60616,0.71133 -27.27821,0.48575 -54.55821,1.18446 -81.84121,1.09249 -19.2247,0.005 -38.4497,0.0225 -57.6743,-0.0704 0,0 -3.3577,2.61821 -3.3577,2.61821 z"
            style="stroke-width:0.255391" />
        <path
            id="path587"
            d="m -1097.4535,-375.31225 c 24.1066,-1.62874 47.5627,-8.03508 70.8983,-13.68596 33.03969,-8.3502 66.56635,-14.63603 100.24268,-20.06081 15.83091,-2.44143 31.64889,-4.95918 47.63242,-6.26694 4.03452,-0.59337 8.75655,-0.42248 12.52028,-2.26036 4.25301,-2.0768 4.8177,-1.00659 3.65308,-2.60124 -1.88921,-0.008 -3.7575,0.48304 -5.60635,0.81285 0,0 -3.12112,2.26079 -3.12112,2.26079 v 0 c 1.80454,-0.31066 3.63329,-0.61445 5.4118,-0.98748 -0.27584,-1.36233 -0.0412,0.29832 2.75717,-1.80011 0.42302,-0.31723 -1.00189,0.37228 -1.51411,0.52645 -3.58152,1.07787 -7.27402,1.68732 -11.0262,1.86568 -16.05744,1.33526 -31.94378,3.89346 -47.8437,6.38238 -33.71482,5.45363 -67.27394,11.80022 -100.36495,20.11606 -23.1944,5.57994 -46.5157,12.02706 -70.4897,13.45967 0,0 -3.1496,2.23902 -3.1496,2.23902 z"
            style="stroke-width:0.226807" />
        <path
            id="path589"
            d="m -191.80895,-538.20633 c -8.77239,-0.7156 -17.56927,-1.0036 -26.37101,-1.14576 -15.98554,0.43834 -31.82647,-1.65039 -47.6675,-3.30348 -13.20945,-0.63143 -25.91205,-4.14446 -38.55871,-7.42606 -10.40237,-2.69925 -11.68794,-3.01119 -21.97594,-5.62226 0,0 -3.79052,2.40286 -3.79052,2.40286 v 0 c 13.45927,3.40159 8.27091,2.06283 21.95113,5.6337 12.64687,3.30115 25.36088,6.86009 38.57427,7.50141 15.82822,1.65407 31.65088,3.79995 47.62451,3.38201 8.76021,0.16343 17.5206,0.42852 26.24933,1.17618 0,0 3.96444,-2.5986 3.96444,-2.5986 z"
            style="stroke-width:0.275322" />
        <g
            inkscape:label="Actor"
            id="actor"
            transform="translate(-1292.7644,-887.98551)">
            <path
                style="fill:#000000;fill-opacity:1;fill-rule:nonzero;stroke:none;stroke-width:0.264583"
                id="path20"
                d="m 94.241688,52.760387 c -0.391602,-0.318344 -1.390992,-1.154472 -1.721718,-1.270526 -2.336758,-0.819997 -7.073255,-1.524429 -9.237506,-1.817085 -5.048086,-0.682611 -7.362524,-0.78991 -12.433213,-1.183584 -4.51762,-0.144894 -9.079394,-0.8343 -13.578898,-0.02861 -0.991238,0.177493 -2.026671,0.321003 -2.913885,0.797351 -1.927805,1.035044 -3.80509,2.221992 -5.432965,3.6841 -0.830323,0.745771 -1.204717,1.879121 -1.807075,2.818683 -1.481839,2.754154 -2.19569,5.714971 -2.38198,8.818973 -0.05099,0.849569 -0.09061,1.705655 -0.01357,2.553263 0.198006,2.178728 0.77408,3.811884 1.370898,5.911588 0.399685,1.039262 0.712036,2.116474 1.199052,3.117787 0.59521,1.223756 1.308839,2.388409 2.037914,3.537455 0.767699,1.209916 1.56682,2.403737 2.448507,3.533288 2.632985,3.373181 5.779444,6.275261 8.902602,9.176642 0.817065,0.710218 1.576853,1.492273 2.451195,2.130657 1.031473,0.75311 2.137341,1.401985 3.248806,2.031082 3.429899,1.941357 7.154439,3.538129 11.017342,4.380029 1.476311,0.32175 2.985077,0.47053 4.477615,0.7058 4.546341,0.36891 4.313698,0.41332 8.740902,0.53489 2.704341,0.0743 4.192199,0.10471 6.849594,-0.13248 2.543855,-0.22705 2.927315,-0.38234 5.347405,-0.9001 4.62081,-2.23099 8.90453,-4.651914 11.82287,-8.965289 1.29139,-1.908699 1.23131,-2.141781 2.01225,-4.272878 0.46168,-2.415225 0.54058,-4.9135 0.0166,-7.331223 -0.59065,-2.725597 -1.7816,-5.444799 -2.83261,-8.019494 -0.33828,-0.73996 -0.64313,-1.496132 -1.01482,-2.219886 -0.40371,-0.786122 -0.86166,-1.543344 -1.30916,-2.305394 -1.66753,-2.839667 -3.53542,-5.52469 -5.46648,-8.188642 -1.45784,-1.896711 -2.97962,-3.743434 -4.55038,-5.547466 -0.25697,-0.29513 -0.50236,-0.601067 -0.77475,-0.882034 -0.28883,-0.297931 -0.60465,-0.568454 -0.906968,-0.852683 -1.602618,-1.501545 -3.456344,-2.644188 -5.428022,-3.586914 -1.773745,-0.884034 -3.699793,-1.300078 -5.634733,-1.646467 0,0 -3.134434,2.197965 -3.134434,2.197965 v 0 c 1.913305,0.305178 3.81187,0.699084 5.563208,1.566 1.939362,0.927541 3.800954,2.001321 5.386292,3.473553 2.320256,2.178468 4.359537,4.651708 6.342477,7.1346 2.93383,3.982982 5.7937,8.062564 7.8,12.608611 1.73494,4.150095 3.42389,8.163808 3.02956,12.77608 -0.0679,0.794623 -0.26064,1.573602 -0.39096,2.360404 -0.27508,0.71365 -0.49154,1.452766 -0.82526,2.140952 -0.65895,1.358871 -1.78015,2.949983 -2.79496,4.045678 -0.63313,0.683588 -1.48196,1.163706 -2.04342,1.907283 -0.11739,0.155477 0.74249,-0.08748 0.5839,0.02567 -0.79717,0.568727 -1.72172,0.9335 -2.58257,1.400252 -2.41206,0.561035 -2.85868,0.738886 -5.40021,1.008914 -5.192759,0.551708 -10.516546,0.198768 -15.702022,-0.229195 -1.464922,-0.238107 -2.945318,-0.395259 -4.394761,-0.714322 -4.975918,-1.095349 -9.96197,-3.368202 -14.085097,-6.355837 -0.880837,-0.63826 -1.679852,-1.382419 -2.51978,-2.073629 -2.24994,-1.998068 -3.876974,-3.353941 -5.955461,-5.592662 -2.91964,-3.144719 -5.479341,-6.643881 -7.284736,-10.553745 -0.462844,-1.002358 -0.772522,-2.068573 -1.158785,-3.102859 -0.642901,-2.397045 -1.039466,-3.422155 -1.23974,-5.871731 -0.215722,-2.638536 0.16714,-5.71804 1.050483,-8.205578 0.357886,-1.007822 0.87955,-1.949755 1.319324,-2.924633 0.627674,-0.911894 1.4508,-1.716508 1.883024,-2.735678 0.08683,-0.204753 -0.831898,-0.118994 -0.631481,-0.215416 0.930288,-0.447564 1.951011,-0.695177 2.961682,-0.90565 4.570516,-0.951809 9.248341,-0.368154 13.859819,-0.253759 5.0296,0.383961 7.328525,0.460282 12.309483,1.234191 1.743274,0.270859 3.481036,0.590545 5.198023,0.995905 2.808211,0.662982 3.28635,0.668732 4.969568,2.350275 0,0 3.381965,-2.07247 3.381965,-2.07247 z" />
            <path
                style="fill:#000000;fill-opacity:1;fill-rule:nonzero;stroke:none;stroke-width:0.264583"
                id="path22"
                d="m 76.103767,103.58108 c 0.210476,1.18025 0.213352,1.25316 0.497803,2.55338 0.247941,1.13334 0.520745,2.26122 0.760609,3.39629 0.612539,2.89865 1.235162,6.25003 1.822971,9.14177 0.348834,1.7161 0.715415,3.42854 1.073121,5.14281 1.348512,6.77222 3.0032,13.47845 4.384773,20.24336 0.875532,4.28709 0.866563,4.41603 1.578289,8.55087 1.107549,6.50099 1.165646,13.11401 1.03205,19.68855 -0.02761,3.18474 -0.46414,6.34804 -0.906989,9.49656 -0.189854,1.52236 -0.441727,3.0377 -0.585121,4.56558 -0.118144,1.92291 -0.06692,3.85215 -0.055,5.77742 -0.01437,1.98704 0.04948,3.97773 7.94e-4,5.9645 -0.01254,0.51092 -0.125603,2.29405 -0.155784,2.79077 -0.07796,1.30688 -0.165156,2.61317 -0.252418,3.91945 0,0 3.420721,-1.71867 3.420721,-1.71867 v 0 c 0.06005,-1.30016 0.124069,-2.60017 0.215233,-3.89861 0.0595,-0.95095 0.12663,-1.85945 0.145905,-2.81209 0.04022,-1.98773 -0.06071,-3.97737 0.0034,-5.96518 0.02294,-1.9339 0.0326,-3.87137 0.180544,-5.80064 0.147428,-1.50597 0.359616,-3.0047 0.503065,-4.51121 0.362352,-3.14456 0.836158,-6.29685 0.750128,-9.47023 -0.06421,-3.98202 -0.150174,-7.96627 -0.42105,-11.94073 -0.08997,-1.32012 -0.16992,-2.64212 -0.323897,-3.95631 -0.145796,-1.24435 -0.383228,-2.47626 -0.574842,-3.71438 -0.666509,-3.4315 -0.952031,-4.99222 -1.710002,-8.49319 -1.459661,-6.74201 -3.044142,-13.45755 -4.422857,-20.21732 -0.9398,-4.79081 -1.909609,-9.57948 -2.652318,-14.40619 -0.181409,-1.17895 -0.313814,-2.36496 -0.483142,-3.5457 -0.38171,-2.6617 -0.128405,-0.42096 -0.354674,-2.59819 0,0 -3.471209,1.81733 -3.471209,1.81733 z" />
            <path
                style="fill:#000000;fill-opacity:1;fill-rule:nonzero;stroke:none;stroke-width:0.264583"
                id="path24"
                d="m 82.996504,207.18392 c -0.267956,0.23537 -0.532225,0.475 -0.803872,0.7061 -1.776611,1.51141 -0.50268,0.3832 -2.653012,2.14303 -2.322287,1.90055 -4.602885,3.85366 -6.874753,5.81374 -5.830755,5.13601 -11.888915,9.99651 -18.010838,14.77769 -2.223995,1.80588 -4.588047,3.43119 -6.819903,5.22687 -0.839155,0.67516 -1.651511,1.38299 -2.481723,2.06911 -0.314542,0.2481 -0.629084,0.49619 -0.943626,0.74429 0,0 3.548306,-1.42452 3.548306,-1.42452 v 0 c 0.299913,-0.24482 0.599827,-0.48965 0.89974,-0.73447 0.319891,-0.26942 2.181775,-1.83952 2.416868,-2.02855 2.197528,-1.76695 4.519623,-3.37495 6.689026,-5.17798 6.041403,-4.8194 12.045543,-9.68445 17.889583,-14.74324 2.881413,-2.43023 5.791165,-4.81415 8.740272,-7.16067 0.638325,-0.5079 1.397143,-1.14907 2.033719,-1.68236 0,0 -3.629787,1.47096 -3.629787,1.47096 z" />
            <path
                style="fill:#000000;fill-opacity:1;fill-rule:nonzero;stroke:none;stroke-width:0.264583"
                id="path26"
                d="m 85.917557,206.60792 c 3.665194,4.77033 7.243599,9.64237 11.348128,14.05314 0.936699,1.00658 1.935816,1.95322 2.903725,2.92983 0.97086,0.84103 1.92911,1.69685 2.9126,2.52308 1.91668,1.61023 3.89568,3.14499 5.82443,4.74075 2.87337,2.37732 5.7237,4.78145 8.6058,7.14847 2.18487,1.82649 4.37389,3.64857 6.597,5.42842 0,0 3.19616,-2.01773 3.19616,-2.01773 v 0 c -2.32615,-1.69345 -4.59658,-3.46189 -6.83709,-5.26706 -2.51443,-1.96751 -3.02196,-2.33897 -5.57873,-4.45416 -2.08366,-1.72379 -4.09865,-3.52976 -6.18967,-5.24462 -0.89308,-0.73242 -1.83305,-1.40626 -2.7285,-2.13578 -0.99281,-0.80884 -1.95686,-1.65234 -2.9353,-2.47852 -0.97629,-0.96335 -1.98496,-1.89496 -2.92888,-2.89005 -4.116779,-4.33996 -7.782523,-9.14704 -10.782937,-14.32228 0,0 -3.406736,1.98651 -3.406736,1.98651 z" />
            <path
                style="fill:#000000;fill-opacity:1;fill-rule:nonzero;stroke:none;stroke-width:0.264583"
                id="path28"
                d="m 42.0547,137.72493 c 9.361363,-0.24284 18.727499,-0.26895 28.091611,-0.25935 8.670026,-0.10817 17.34226,-0.12818 26.011277,-0.30631 3.994342,-0.0659 7.969822,-0.47893 11.959122,-0.65987 3.57813,-0.13795 7.15137,-0.36722 10.72494,-0.58886 0,0 2.98386,-2.1984 2.98386,-2.1984 v 0 c -3.57822,0.25495 -7.15906,0.49798 -10.74481,0.61525 -0.88945,0.0323 -3.13596,0.10637 -4.06294,0.1678 -2.65865,0.1762 -5.30684,0.54152 -7.976242,0.55572 -8.810239,0.3385 -17.627145,0.52476 -26.442892,0.63296 -9.126067,0.009 -18.254596,-0.009 -27.377678,-0.25935 0,0 -3.166248,2.30041 -3.166248,2.30041 z" />
            <path
                style="fill:#000000;fill-opacity:1;fill-rule:nonzero;stroke:none;stroke-width:0.264583"
                id="path30"
                d="m 42.231577,135.7964 c -1.810623,0.72743 -2.517611,0.99355 -4.446111,1.86569 -1.071044,0.48437 -2.165456,0.92608 -3.192598,1.49768 -2.603,1.44856 -5.154843,2.98887 -7.687551,4.5571 -2.43244,1.50614 -9.069153,6.00219 -11.392245,7.56434 -6.1433585,4.06379 -12.3655331,8.00666 -18.6476587,11.8518 0,0 3.1445553,-1.21768 3.1445553,-1.21768 v 0 c 6.1268653,-3.81367 12.1937834,-7.7226 18.2175474,-11.69723 5.960395,-3.99584 5.56538,-3.7798 11.585839,-7.6227 0.683438,-0.43624 1.351291,-0.90172 2.068836,-1.27924 2.324256,-1.22287 4.797136,-2.17276 7.246143,-3.10886 0,0 3.103243,-2.4109 3.103243,-2.4109 z" />
            <path
                style="fill:#000000;fill-opacity:1;fill-rule:nonzero;stroke:none;stroke-width:0.264583"
                id="path32"
                d="m 119.52312,137.24939 c 0.16763,0.49628 0.28128,1.0142 0.50288,1.48884 1.55026,3.32034 3.84494,6.18586 6.24779,8.9187 1.65349,1.88056 4.74269,5.10822 6.47089,6.93256 2.98111,3.03706 5.83926,6.20059 8.88202,9.17743 2.41967,2.36724 4.97155,4.59734 7.52917,6.81246 3.74346,3.2115 7.37436,6.54973 11.21578,9.6452 0.53911,0.39296 1.07822,0.78591 1.61733,1.17886 0,0 3.11689,-1.98381 3.11689,-1.98381 v 0 c -0.5514,-0.37756 -1.10279,-0.75511 -1.65419,-1.13267 -1.84349,-1.42299 -2.08674,-1.56865 -3.90437,-3.15611 -2.45781,-2.14657 -4.7464,-4.48662 -7.37318,-6.43727 -2.0231,-1.64824 -2.81211,-2.25425 -4.827,-4.06435 -4.13333,-3.71321 -7.92413,-7.77556 -11.80922,-11.74149 -2.27464,-2.3903 -4.27232,-4.42163 -6.40936,-6.94107 -2.33338,-2.75092 -4.5065,-5.61237 -5.79977,-9.01301 -0.18459,-0.48539 -0.25734,-1.00621 -0.38601,-1.50931 0,0 -3.41965,1.82504 -3.41965,1.82504 z" />
        </g>
        <g
            inkscape:label="Actor"
            id="actor-7-2"
            transform="translate(-189.12636,-746.24077)">
            <path
                style="fill:#000000;fill-opacity:1;fill-rule:nonzero;stroke:none;stroke-width:0.264583"
                id="path20-5-7"
                d="m 94.241688,52.760387 c -0.391602,-0.318344 -1.390992,-1.154472 -1.721718,-1.270526 -2.336758,-0.819997 -7.073255,-1.524429 -9.237506,-1.817085 -5.048086,-0.682611 -7.362524,-0.78991 -12.433213,-1.183584 -4.51762,-0.144894 -9.079394,-0.8343 -13.578898,-0.02861 -0.991238,0.177493 -2.026671,0.321003 -2.913885,0.797351 -1.927805,1.035044 -3.80509,2.221992 -5.432965,3.6841 -0.830323,0.745771 -1.204717,1.879121 -1.807075,2.818683 -1.481839,2.754154 -2.19569,5.714971 -2.38198,8.818973 -0.05099,0.849569 -0.09061,1.705655 -0.01357,2.553263 0.198006,2.178728 0.77408,3.811884 1.370898,5.911588 0.399685,1.039262 0.712036,2.116474 1.199052,3.117787 0.59521,1.223756 1.308839,2.388409 2.037914,3.537455 0.767699,1.209916 1.56682,2.403737 2.448507,3.533288 2.632985,3.373181 5.779444,6.275261 8.902602,9.176642 0.817065,0.710218 1.576853,1.492273 2.451195,2.130657 1.031473,0.75311 2.137341,1.401985 3.248806,2.031082 3.429899,1.941357 7.154439,3.538129 11.017342,4.380029 1.476311,0.32175 2.985077,0.47053 4.477615,0.7058 4.546341,0.36891 4.313698,0.41332 8.740902,0.53489 2.704341,0.0743 4.192199,0.10471 6.849594,-0.13248 2.543855,-0.22705 2.927315,-0.38234 5.347405,-0.9001 4.62081,-2.23099 8.90453,-4.651914 11.82287,-8.965289 1.29139,-1.908699 1.23131,-2.141781 2.01225,-4.272878 0.46168,-2.415225 0.54058,-4.9135 0.0166,-7.331223 -0.59065,-2.725597 -1.7816,-5.444799 -2.83261,-8.019494 -0.33828,-0.73996 -0.64313,-1.496132 -1.01482,-2.219886 -0.40371,-0.786122 -0.86166,-1.543344 -1.30916,-2.305394 -1.66753,-2.839667 -3.53542,-5.52469 -5.46648,-8.188642 -1.45784,-1.896711 -2.97962,-3.743434 -4.55038,-5.547466 -0.25697,-0.29513 -0.50236,-0.601067 -0.77475,-0.882034 -0.28883,-0.297931 -0.60465,-0.568454 -0.906968,-0.852683 -1.602618,-1.501545 -3.456344,-2.644188 -5.428022,-3.586914 -1.773745,-0.884034 -3.699793,-1.300078 -5.634733,-1.646467 0,0 -3.134434,2.197965 -3.134434,2.197965 v 0 c 1.913305,0.305178 3.81187,0.699084 5.563208,1.566 1.939362,0.927541 3.800954,2.001321 5.386292,3.473553 2.320256,2.178468 4.359537,4.651708 6.342477,7.1346 2.93383,3.982982 5.7937,8.062564 7.8,12.608611 1.73494,4.150095 3.42389,8.163808 3.02956,12.77608 -0.0679,0.794623 -0.26064,1.573602 -0.39096,2.360404 -0.27508,0.71365 -0.49154,1.452766 -0.82526,2.140952 -0.65895,1.358871 -1.78015,2.949983 -2.79496,4.045678 -0.63313,0.683588 -1.48196,1.163706 -2.04342,1.907283 -0.11739,0.155477 0.74249,-0.08748 0.5839,0.02567 -0.79717,0.568727 -1.72172,0.9335 -2.58257,1.400252 -2.41206,0.561035 -2.85868,0.738886 -5.40021,1.008914 -5.192759,0.551708 -10.516546,0.198768 -15.702022,-0.229195 -1.464922,-0.238107 -2.945318,-0.395259 -4.394761,-0.714322 -4.975918,-1.095349 -9.96197,-3.368202 -14.085097,-6.355837 -0.880837,-0.63826 -1.679852,-1.382419 -2.51978,-2.073629 -2.24994,-1.998068 -3.876974,-3.353941 -5.955461,-5.592662 -2.91964,-3.144719 -5.479341,-6.643881 -7.284736,-10.553745 -0.462844,-1.002358 -0.772522,-2.068573 -1.158785,-3.102859 -0.642901,-2.397045 -1.039466,-3.422155 -1.23974,-5.871731 -0.215722,-2.638536 0.16714,-5.71804 1.050483,-8.205578 0.357886,-1.007822 0.87955,-1.949755 1.319324,-2.924633 0.627674,-0.911894 1.4508,-1.716508 1.883024,-2.735678 0.08683,-0.204753 -0.831898,-0.118994 -0.631481,-0.215416 0.930288,-0.447564 1.951011,-0.695177 2.961682,-0.90565 4.570516,-0.951809 9.248341,-0.368154 13.859819,-0.253759 5.0296,0.383961 7.328525,0.460282 12.309483,1.234191 1.743274,0.270859 3.481036,0.590545 5.198023,0.995905 2.808211,0.662982 3.28635,0.668732 4.969568,2.350275 0,0 3.381965,-2.07247 3.381965,-2.07247 z" />
            <path
                style="fill:#000000;fill-opacity:1;fill-rule:nonzero;stroke:none;stroke-width:0.264583"
                id="path22-3-0"
                d="m 76.103767,103.58108 c 0.210476,1.18025 0.213352,1.25316 0.497803,2.55338 0.247941,1.13334 0.520745,2.26122 0.760609,3.39629 0.612539,2.89865 1.235162,6.25003 1.822971,9.14177 0.348834,1.7161 0.715415,3.42854 1.073121,5.14281 1.348512,6.77222 3.0032,13.47845 4.384773,20.24336 0.875532,4.28709 0.866563,4.41603 1.578289,8.55087 1.107549,6.50099 1.165646,13.11401 1.03205,19.68855 -0.02761,3.18474 -0.46414,6.34804 -0.906989,9.49656 -0.189854,1.52236 -0.441727,3.0377 -0.585121,4.56558 -0.118144,1.92291 -0.06692,3.85215 -0.055,5.77742 -0.01437,1.98704 0.04948,3.97773 7.94e-4,5.9645 -0.01254,0.51092 -0.125603,2.29405 -0.155784,2.79077 -0.07796,1.30688 -0.165156,2.61317 -0.252418,3.91945 0,0 3.420721,-1.71867 3.420721,-1.71867 v 0 c 0.06005,-1.30016 0.124069,-2.60017 0.215233,-3.89861 0.0595,-0.95095 0.12663,-1.85945 0.145905,-2.81209 0.04022,-1.98773 -0.06071,-3.97737 0.0034,-5.96518 0.02294,-1.9339 0.0326,-3.87137 0.180544,-5.80064 0.147428,-1.50597 0.359616,-3.0047 0.503065,-4.51121 0.362352,-3.14456 0.836158,-6.29685 0.750128,-9.47023 -0.06421,-3.98202 -0.150174,-7.96627 -0.42105,-11.94073 -0.08997,-1.32012 -0.16992,-2.64212 -0.323897,-3.95631 -0.145796,-1.24435 -0.383228,-2.47626 -0.574842,-3.71438 -0.666509,-3.4315 -0.952031,-4.99222 -1.710002,-8.49319 -1.459661,-6.74201 -3.044142,-13.45755 -4.422857,-20.21732 -0.9398,-4.79081 -1.909609,-9.57948 -2.652318,-14.40619 -0.181409,-1.17895 -0.313814,-2.36496 -0.483142,-3.5457 -0.38171,-2.6617 -0.128405,-0.42096 -0.354674,-2.59819 0,0 -3.471209,1.81733 -3.471209,1.81733 z" />
            <path
                style="fill:#000000;fill-opacity:1;fill-rule:nonzero;stroke:none;stroke-width:0.264583"
                id="path24-5-9"
                d="m 82.996504,207.18392 c -0.267956,0.23537 -0.532225,0.475 -0.803872,0.7061 -1.776611,1.51141 -0.50268,0.3832 -2.653012,2.14303 -2.322287,1.90055 -4.602885,3.85366 -6.874753,5.81374 -5.830755,5.13601 -11.888915,9.99651 -18.010838,14.77769 -2.223995,1.80588 -4.588047,3.43119 -6.819903,5.22687 -0.839155,0.67516 -1.651511,1.38299 -2.481723,2.06911 -0.314542,0.2481 -0.629084,0.49619 -0.943626,0.74429 0,0 3.548306,-1.42452 3.548306,-1.42452 v 0 c 0.299913,-0.24482 0.599827,-0.48965 0.89974,-0.73447 0.319891,-0.26942 2.181775,-1.83952 2.416868,-2.02855 2.197528,-1.76695 4.519623,-3.37495 6.689026,-5.17798 6.041403,-4.8194 12.045543,-9.68445 17.889583,-14.74324 2.881413,-2.43023 5.791165,-4.81415 8.740272,-7.16067 0.638325,-0.5079 1.397143,-1.14907 2.033719,-1.68236 0,0 -3.629787,1.47096 -3.629787,1.47096 z" />
            <path
                style="fill:#000000;fill-opacity:1;fill-rule:nonzero;stroke:none;stroke-width:0.264583"
                id="path26-6-3"
                d="m 85.917557,206.60792 c 3.665194,4.77033 7.243599,9.64237 11.348128,14.05314 0.936699,1.00658 1.935816,1.95322 2.903725,2.92983 0.97086,0.84103 1.92911,1.69685 2.9126,2.52308 1.91668,1.61023 3.89568,3.14499 5.82443,4.74075 2.87337,2.37732 5.7237,4.78145 8.6058,7.14847 2.18487,1.82649 4.37389,3.64857 6.597,5.42842 0,0 3.19616,-2.01773 3.19616,-2.01773 v 0 c -2.32615,-1.69345 -4.59658,-3.46189 -6.83709,-5.26706 -2.51443,-1.96751 -3.02196,-2.33897 -5.57873,-4.45416 -2.08366,-1.72379 -4.09865,-3.52976 -6.18967,-5.24462 -0.89308,-0.73242 -1.83305,-1.40626 -2.7285,-2.13578 -0.99281,-0.80884 -1.95686,-1.65234 -2.9353,-2.47852 -0.97629,-0.96335 -1.98496,-1.89496 -2.92888,-2.89005 -4.116779,-4.33996 -7.782523,-9.14704 -10.782937,-14.32228 0,0 -3.406736,1.98651 -3.406736,1.98651 z" />
            <path
                style="fill:#000000;fill-opacity:1;fill-rule:nonzero;stroke:none;stroke-width:0.264583"
                id="path28-2-6"
                d="m 42.0547,137.72493 c 9.361363,-0.24284 18.727499,-0.26895 28.091611,-0.25935 8.670026,-0.10817 17.34226,-0.12818 26.011277,-0.30631 3.994342,-0.0659 7.969822,-0.47893 11.959122,-0.65987 3.57813,-0.13795 7.15137,-0.36722 10.72494,-0.58886 0,0 2.98386,-2.1984 2.98386,-2.1984 v 0 c -3.57822,0.25495 -7.15906,0.49798 -10.74481,0.61525 -0.88945,0.0323 -3.13596,0.10637 -4.06294,0.1678 -2.65865,0.1762 -5.30684,0.54152 -7.976242,0.55572 -8.810239,0.3385 -17.627145,0.52476 -26.442892,0.63296 -9.126067,0.009 -18.254596,-0.009 -27.377678,-0.25935 0,0 -3.166248,2.30041 -3.166248,2.30041 z" />
            <path
                style="fill:#000000;fill-opacity:1;fill-rule:nonzero;stroke:none;stroke-width:0.264583"
                id="path30-9-0"
                d="m 42.231577,135.7964 c -1.810623,0.72743 -2.517611,0.99355 -4.446111,1.86569 -1.071044,0.48437 -2.165456,0.92608 -3.192598,1.49768 -2.603,1.44856 -5.154843,2.98887 -7.687551,4.5571 -2.43244,1.50614 -9.069153,6.00219 -11.392245,7.56434 -6.1433585,4.06379 -12.3655331,8.00666 -18.6476587,11.8518 0,0 3.1445553,-1.21768 3.1445553,-1.21768 v 0 c 6.1268653,-3.81367 12.1937834,-7.7226 18.2175474,-11.69723 5.960395,-3.99584 5.56538,-3.7798 11.585839,-7.6227 0.683438,-0.43624 1.351291,-0.90172 2.068836,-1.27924 2.324256,-1.22287 4.797136,-2.17276 7.246143,-3.10886 0,0 3.103243,-2.4109 3.103243,-2.4109 z" />
            <path
                style="fill:#000000;fill-opacity:1;fill-rule:nonzero;stroke:none;stroke-width:0.264583"
                id="path32-1-6"
                d="m 119.52312,137.24939 c 0.16763,0.49628 0.28128,1.0142 0.50288,1.48884 1.55026,3.32034 3.84494,6.18586 6.24779,8.9187 1.65349,1.88056 4.74269,5.10822 6.47089,6.93256 2.98111,3.03706 5.83926,6.20059 8.88202,9.17743 2.41967,2.36724 4.97155,4.59734 7.52917,6.81246 3.74346,3.2115 7.37436,6.54973 11.21578,9.6452 0.53911,0.39296 1.07822,0.78591 1.61733,1.17886 0,0 3.11689,-1.98381 3.11689,-1.98381 v 0 c -0.5514,-0.37756 -1.10279,-0.75511 -1.65419,-1.13267 -1.84349,-1.42299 -2.08674,-1.56865 -3.90437,-3.15611 -2.45781,-2.14657 -4.7464,-4.48662 -7.37318,-6.43727 -2.0231,-1.64824 -2.81211,-2.25425 -4.827,-4.06435 -4.13333,-3.71321 -7.92413,-7.77556 -11.80922,-11.74149 -2.27464,-2.3903 -4.27232,-4.42163 -6.40936,-6.94107 -2.33338,-2.75092 -4.5065,-5.61237 -5.79977,-9.01301 -0.18459,-0.48539 -0.25734,-1.00621 -0.38601,-1.50931 0,0 -3.41965,1.82504 -3.41965,1.82504 z" />
        </g>
    </g>
</svg>
