<?xml version="1.0" encoding="UTF-8" standalone="no"?>
<svg
   xmlns:dc="http://purl.org/dc/elements/1.1/"
   xmlns:cc="http://creativecommons.org/ns#"
   xmlns:rdf="http://www.w3.org/1999/02/22-rdf-syntax-ns#"
   xmlns:svg="http://www.w3.org/2000/svg"
   xmlns="http://www.w3.org/2000/svg"
   xmlns:xlink="http://www.w3.org/1999/xlink"
   xmlns:sodipodi="http://sodipodi.sourceforge.net/DTD/sodipodi-0.dtd"
   xmlns:inkscape="http://www.inkscape.org/namespaces/inkscape"
   width="79.492409mm"
   height="33.688168mm"
   viewBox="0 0 79.492407 33.688167"
   version="1.1"
   id="svg75"
   sodipodi:docname="sbpm-workflow.svg"
   inkscape:version="1.0.2 (e86c870879, 2021-01-15)">
  <title
     id="title52">SBPM Workflow</title>
  <defs
     id="defs69" />
  <sodipodi:namedview
     id="base"
     pagecolor="#ffffff"
     bordercolor="#666666"
     borderopacity="1.0"
     inkscape:pageopacity="0.0"
     inkscape:pageshadow="2"
     inkscape:zoom="5.260552"
     inkscape:cx="269.41149"
     inkscape:cy="79.209717"
     inkscape:document-units="px"
     inkscape:current-layer="layer1"
     inkscape:document-rotation="0"
     showgrid="false"
     inkscape:window-width="3840"
     inkscape:window-height="2068"
     inkscape:window-x="0"
     inkscape:window-y="37"
     inkscape:window-maximized="1" />
  <metadata
     id="metadata72">
    <rdf:RDF>
      <cc:Work
         rdf:about="">
        <dc:format>image/svg+xml</dc:format>
        <dc:type
           rdf:resource="http://purl.org/dc/dcmitype/StillImage" />
        <dc:title>SBPM Workflow</dc:title>
        <dc:creator>
          <cc:Agent>
            <dc:title>Stefan Sedelmaier</dc:title>
          </cc:Agent>
        </dc:creator>
      </cc:Work>
    </rdf:RDF>
  </metadata>
  <g
     inkscape:label="Ebene 1"
     inkscape:groupmode="layer"
     id="layer1"
     transform="translate(699.70594,587.98289)">
    <text
       xml:space="preserve"
       style="font-style:normal;font-weight:normal;font-size:1.5875px;line-height:1.25;font-family:sans-serif;fill:#000000;fill-opacity:1;stroke:none;stroke-width:0.0165364"
       x="-698.55975"
       y="-574.46869"
       id="text369"><tspan
         sodipodi:role="line"
         id="tspan367"
         x="-698.55975"
         y="-574.46869"
         style="font-size:1.5875px;stroke-width:0.0165364">Mitarbeiter</tspan></text>
    <text
       xml:space="preserve"
       style="font-style:normal;font-weight:normal;font-size:1.5875px;line-height:1.25;font-family:sans-serif;fill:#000000;fill-opacity:1;stroke:none;stroke-width:0.0165364"
       x="-699.31567"
       y="-554.62494"
       id="text373"><tspan
         sodipodi:role="line"
         id="tspan371"
         x="-699.31567"
         y="-554.62494"
         style="font-size:1.5875px;stroke-width:0.0165364">Vorgesetzter</tspan></text>
    <text
       xml:space="preserve"
       style="font-style:normal;font-weight:normal;font-size:1.5875px;line-height:1.25;font-family:sans-serif;fill:#000000;fill-opacity:1;stroke:none;stroke-width:0.0165364"
       x="-660.47864"
       y="-584.39056"
       id="text377"><tspan
         sodipodi:role="line"
         x="-660.47864"
         y="-584.39056"
         style="font-size:1.5875px;stroke-width:0.0165364"
         id="tspan442">Dienstreiseantrag</tspan></text>
    <text
       xml:space="preserve"
       style="font-style:normal;font-weight:normal;font-size:1.5875px;line-height:1.25;font-family:sans-serif;fill:#000000;fill-opacity:1;stroke:none;stroke-width:0.0165364"
       x="-675.08124"
       y="-577.82086"
       id="text381"><tspan
         sodipodi:role="line"
         id="tspan379"
         x="-675.08124"
         y="-577.82086"
         style="font-size:1.5875px;stroke-width:0.0165364">Antrag ausfüllen</tspan></text>
    <text
       xml:space="preserve"
       style="font-style:normal;font-weight:normal;font-size:1.5875px;line-height:1.25;font-family:sans-serif;fill:#000000;fill-opacity:1;stroke:none;stroke-width:0.0165364"
       x="-669.93671"
       y="-562.12909"
       id="text385"><tspan
         sodipodi:role="line"
         id="tspan383"
         x="-669.93671"
         y="-562.12909"
         style="font-size:1.5875px;stroke-width:0.0165364">Antrag prüfen</tspan></text>
    <path
       id="path420"
       d="m -663.69558,-565.51189 c -0.0894,-0.0308 -0.34297,-0.11969 -0.41974,-0.13765 -0.64386,-0.15057 -1.30948,-0.18056 -1.96316,-0.2195 -0.20331,-0.006 -0.40664,-0.0264 -0.60993,-0.0191 -0.78652,0.0282 -1.57861,0.23099 -2.31004,0.56477 -0.15757,0.0719 -0.30991,0.15835 -0.46486,0.23753 -0.49642,0.26435 -0.93765,0.64189 -1.3577,1.04224 -0.23668,0.22557 -0.41541,0.40262 -0.61959,0.66563 -0.0831,0.10702 -0.1563,0.22384 -0.23445,0.33576 -0.19594,0.31527 -0.31428,0.67517 -0.4049,1.04616 -0.0236,0.0965 -0.051,0.19286 -0.0615,0.29246 -0.0262,0.24679 0.005,0.37962 0.0365,0.62094 0.028,0.0933 0.0457,0.19153 0.0839,0.27982 0.1607,0.37217 0.4833,0.68117 0.81977,0.81761 0.13648,0.0553 0.27912,0.0875 0.41868,0.13132 0.43862,0.0933 0.70322,0.16366 1.16306,0.19496 0.30867,0.021 0.61821,0.0201 0.92741,0.0219 1.07585,0.006 2.14714,-0.0717 3.22062,-0.14389 1.52489,-0.12776 3.04668,-0.29631 4.57377,-0.38616 0.48982,-0.0405 0.98245,-0.0159 1.47133,-0.0726 0.2935,-0.034 0.29609,-0.0435 0.5855,-0.11198 0.11058,-0.0376 0.38383,-0.12358 0.49364,-0.18648 0.12786,-0.0732 0.24998,-0.15962 0.37081,-0.24747 0.0719,-0.0523 0.14275,-0.10755 0.2066,-0.17233 0.15136,-0.15354 0.20457,-0.26095 0.31972,-0.44658 0.10007,-0.274 0.19437,-0.57692 0.18658,-0.88088 -0.009,-0.36773 -0.12443,-0.70522 -0.24541,-1.03791 -0.26163,-0.4339 -0.59862,-0.81064 -0.97822,-1.10573 -0.22018,-0.17115 -0.32138,-0.21308 -0.55781,-0.34041 -0.56304,-0.26503 -1.1571,-0.43269 -1.751,-0.57495 -0.56993,-0.13509 -1.15035,-0.17035 -1.73012,-0.18968 -0.58017,-0.0109 -1.15878,-0.0539 -1.73328,-0.14864 -0.34622,-0.0818 -0.697,-0.12304 -1.04772,-0.16838 0,0 -0.12916,0.10632 -0.12916,0.10632 v 0 c 0.34849,0.0481 0.69734,0.0921 1.04172,0.17266 0.57493,0.0964 1.15424,0.13673 1.7349,0.14999 0.57937,0.0188 1.15953,0.0529 1.72933,0.18624 0.59304,0.14136 1.18558,0.30965 1.74851,0.57164 0.23721,0.12634 0.33548,0.16599 0.55635,0.33663 0.37799,0.29203 0.71423,0.66537 0.97323,1.09759 0.12177,0.33398 0.23303,0.66 0.24035,1.03006 0.006,0.30196 -0.0867,0.60161 -0.19048,0.87193 -0.0476,0.0756 -0.0906,0.15524 -0.14273,0.22667 -0.28601,0.39208 -0.54944,0.50396 -0.96486,0.6345 -0.28652,0.069 -0.29384,0.0797 -0.58486,0.1144 -0.49037,0.0585 -0.98486,0.0344 -1.47619,0.0774 -1.53146,0.0928 -3.05724,0.26674 -4.58649,0.39686 -1.07167,0.0727 -2.14162,0.15051 -3.21575,0.14144 -0.30686,-0.003 -0.61405,-0.004 -0.92033,-0.0258 -0.45826,-0.033 -0.71972,-0.10295 -1.15665,-0.19679 -0.1379,-0.0437 -0.27876,-0.0764 -0.4137,-0.13117 -0.33336,-0.1353 -0.65297,-0.43545 -0.8122,-0.80517 -0.0376,-0.0873 -0.0551,-0.18433 -0.0827,-0.2765 -0.0311,-0.24499 -0.0608,-0.36413 -0.0335,-0.6144 0.0108,-0.0989 0.0375,-0.19471 0.0609,-0.29062 0.0902,-0.36913 0.20984,-0.72597 0.40568,-1.0388 0.0781,-0.1112 0.15127,-0.22726 0.23421,-0.3336 0.29996,-0.38455 0.65603,-0.70407 1.00821,-1.02017 0.0954,-0.0856 0.1868,-0.17833 0.28922,-0.25219 0.13026,-0.0939 0.27112,-0.16642 0.40668,-0.24964 0.15495,-0.0798 0.30726,-0.16687 0.46486,-0.23935 0.73037,-0.3359 1.52183,-0.54229 2.30813,-0.57138 0.20322,-0.007 0.40652,0.0125 0.60978,0.0186 0.65015,0.0406 1.31268,0.0703 1.95269,0.22314 0.0845,0.0202 0.3206,0.10548 0.41571,0.13905 0,0 0.14073,-0.11033 0.14073,-0.11033 z"
       style="stroke-width:0.015349" />
    <path
       id="path420-7"
       d="m -667.2122,-581.92521 c -0.1038,-0.0308 -0.39809,-0.11969 -0.4872,-0.13765 -0.74733,-0.15057 -1.51992,-0.18056 -2.27865,-0.2195 -0.23598,-0.006 -0.47199,-0.0264 -0.70795,-0.0191 -0.91292,0.0282 -1.83229,0.23099 -2.68127,0.56477 -0.18289,0.0719 -0.35971,0.15836 -0.53957,0.23754 -0.57619,0.26434 -1.08833,0.64188 -1.57589,1.04223 -0.27471,0.22557 -0.48216,0.40262 -0.71916,0.66563 -0.0964,0.10702 -0.18141,0.22384 -0.27212,0.33576 -0.22743,0.31527 -0.36479,0.67517 -0.46997,1.04616 -0.0274,0.0965 -0.0592,0.19286 -0.0715,0.29246 -0.0304,0.24679 0.006,0.37962 0.0424,0.62094 0.0325,0.0933 0.0531,0.19153 0.0974,0.27982 0.18652,0.37217 0.56097,0.68117 0.9515,0.81761 0.15842,0.0553 0.32399,0.0875 0.48598,0.13132 0.5091,0.0933 0.81622,0.16366 1.34996,0.19496 0.35827,0.021 0.71756,0.0201 1.07644,0.0219 1.24875,0.006 2.49221,-0.0717 3.73819,-0.1439 1.76996,-0.12776 3.53631,-0.2963 5.30881,-0.38615 0.56853,-0.0405 1.14033,-0.0159 1.70777,-0.0727 0.34067,-0.0341 0.34367,-0.0436 0.67959,-0.11197 0.12836,-0.0376 0.44552,-0.12358 0.57298,-0.18648 0.1484,-0.0732 0.29015,-0.15962 0.4304,-0.24747 0.0834,-0.0523 0.16568,-0.10756 0.2398,-0.17233 0.17569,-0.15354 0.23744,-0.26095 0.3711,-0.44658 0.11615,-0.274 0.2256,-0.57692 0.21657,-0.88088 -0.0109,-0.36773 -0.14444,-0.70523 -0.28486,-1.03791 -0.30367,-0.4339 -0.69481,-0.81064 -1.13542,-1.10573 -0.25557,-0.17115 -0.37302,-0.21308 -0.64746,-0.34041 -0.65351,-0.26504 -1.34305,-0.43269 -2.03239,-0.57495 -0.66152,-0.13509 -1.33522,-0.17035 -2.00815,-0.18968 -0.67341,-0.0109 -1.34501,-0.0539 -2.01183,-0.14864 -0.40186,-0.0818 -0.80901,-0.12305 -1.21609,-0.16839 0,0 -0.14993,0.10633 -0.14993,0.10633 v 0 c 0.4045,0.0481 0.80942,0.0921 1.20914,0.17266 0.66732,0.0964 1.33973,0.13673 2.0137,0.14999 0.67249,0.0188 1.34588,0.0529 2.00725,0.18623 0.68834,0.14137 1.37611,0.30966 2.02951,0.57165 0.27532,0.12633 0.38938,0.16599 0.64575,0.33663 0.43874,0.29202 0.82901,0.66537 1.12963,1.09759 0.14134,0.33398 0.27048,0.66 0.27898,1.03006 0.007,0.30195 -0.10064,0.6016 -0.22109,0.87193 -0.0552,0.0756 -0.1052,0.15524 -0.16567,0.22667 -0.33197,0.39208 -0.63774,0.50396 -1.11992,0.6345 -0.33257,0.069 -0.34106,0.0797 -0.67885,0.1144 -0.56917,0.0585 -1.14313,0.0344 -1.71342,0.0774 -1.77758,0.0928 -3.54855,0.26674 -5.32356,0.39686 -1.2439,0.0727 -2.48579,0.15051 -3.73254,0.14144 -0.35617,-0.003 -0.71273,-0.004 -1.06823,-0.0258 -0.5319,-0.033 -0.83538,-0.10295 -1.34253,-0.1968 -0.16006,-0.0437 -0.32355,-0.0764 -0.48018,-0.13117 -0.38694,-0.13529 -0.75791,-0.43544 -0.94272,-0.80516 -0.0436,-0.0873 -0.064,-0.18433 -0.096,-0.2765 -0.0362,-0.245 -0.0706,-0.36413 -0.0389,-0.6144 0.0125,-0.0989 0.0435,-0.19471 0.0707,-0.29062 0.10469,-0.36914 0.24357,-0.72597 0.47088,-1.0388 0.0906,-0.1112 0.17557,-0.22726 0.27185,-0.3336 0.34816,-0.38455 0.76145,-0.70407 1.17023,-1.02017 0.11072,-0.0856 0.21682,-0.17833 0.3357,-0.25219 0.15119,-0.0939 0.31469,-0.16643 0.47203,-0.24964 0.17986,-0.0798 0.35665,-0.16687 0.53957,-0.23935 0.84775,-0.3359 1.7664,-0.54229 2.67906,-0.57139 0.23588,-0.008 0.47184,0.0125 0.70777,0.0186 0.75464,0.0407 1.52363,0.0703 2.2665,0.22314 0.0981,0.0201 0.37212,0.10548 0.48252,0.13905 0,0 0.16334,-0.11032 0.16334,-0.11032 z"
       style="stroke-width:0.0165364" />
    <text
       xml:space="preserve"
       style="font-style:normal;font-weight:normal;font-size:1.5875px;line-height:1.25;font-family:sans-serif;fill:#000000;fill-opacity:1;stroke:none;stroke-width:0.0165364"
       x="-656.77911"
       y="-570.37268"
       id="text381-5"><tspan
         sodipodi:role="line"
         id="tspan379-3"
         x="-656.77911"
         y="-570.37268"
         style="font-size:1.5875px;stroke-width:0.0165364">Konto aktualisieren</tspan></text>
    <path
       id="path420-7-5"
       d="m -648.10271,-573.8156 c -0.11633,-0.0308 -0.44616,-0.11969 -0.54604,-0.13765 -0.83759,-0.15057 -1.70349,-0.18056 -2.55385,-0.2195 -0.26448,-0.006 -0.529,-0.0264 -0.79345,-0.0191 -1.02317,0.0282 -2.05359,0.23099 -3.0051,0.56477 -0.20498,0.0719 -0.40316,0.15835 -0.60474,0.23753 -0.64578,0.26435 -1.21978,0.64189 -1.76622,1.04224 -0.30789,0.22557 -0.54039,0.40262 -0.80601,0.66563 -0.10809,0.10702 -0.20333,0.22384 -0.30499,0.33576 -0.2549,0.31527 -0.40884,0.67517 -0.52673,1.04616 -0.0307,0.0965 -0.0663,0.19286 -0.0801,0.29246 -0.034,0.24679 0.007,0.37962 0.0475,0.62094 0.0363,0.0933 0.0595,0.19153 0.10912,0.27982 0.20905,0.37217 0.62872,0.68117 1.06642,0.81761 0.17755,0.0553 0.36311,0.0875 0.54467,0.13132 0.57059,0.0933 0.9148,0.16366 1.51301,0.19496 0.40154,0.021 0.80422,0.0201 1.20645,0.0219 1.39956,0.006 2.7932,-0.0717 4.18966,-0.14389 1.98373,-0.12776 3.96341,-0.29631 5.94998,-0.38616 0.6372,-0.0405 1.27806,-0.0159 1.91403,-0.0726 0.38181,-0.034 0.38518,-0.0435 0.76167,-0.11198 0.14385,-0.0376 0.49932,-0.12358 0.64218,-0.18648 0.16632,-0.0732 0.32519,-0.15962 0.48238,-0.24747 0.0935,-0.0522 0.18569,-0.10755 0.26876,-0.17233 0.19691,-0.15354 0.26612,-0.26095 0.41592,-0.44658 0.13018,-0.274 0.25285,-0.57692 0.24273,-0.88088 -0.0122,-0.36773 -0.16188,-0.70522 -0.31927,-1.03791 -0.34035,-0.4339 -0.77872,-0.81064 -1.27255,-1.10573 -0.28643,-0.17115 -0.41807,-0.21308 -0.72565,-0.34041 -0.73244,-0.26503 -1.50526,-0.43269 -2.27786,-0.57495 -0.74141,-0.13509 -1.49647,-0.17035 -2.25068,-0.18968 -0.75474,-0.011 -1.50745,-0.0539 -2.25481,-0.14864 -0.45039,-0.0818 -0.90672,-0.12304 -1.36297,-0.16838 0,0 -0.16803,0.10632 -0.16803,0.10632 v 0 c 0.45336,0.048 0.90717,0.0921 1.35518,0.17266 0.74791,0.0964 1.50153,0.13673 2.2569,0.14999 0.75371,0.0188 1.50842,0.0529 2.24967,0.18624 0.77148,0.14136 1.54231,0.30965 2.27462,0.57164 0.30858,0.12634 0.43642,0.16599 0.72375,0.33663 0.49172,0.29203 0.92913,0.66537 1.26606,1.09759 0.15841,0.33398 0.30315,0.66 0.31267,1.03006 0.008,0.30196 -0.11279,0.60161 -0.24779,0.87193 -0.0619,0.0756 -0.1179,0.15524 -0.18568,0.22667 -0.37207,0.39208 -0.71476,0.50396 -1.25517,0.6345 -0.37274,0.069 -0.38226,0.0797 -0.76084,0.1144 -0.63792,0.0585 -1.2812,0.0344 -1.92036,0.0774 -1.99227,0.0928 -3.97713,0.26674 -5.96652,0.39686 -1.39413,0.0727 -2.78601,0.15051 -4.18333,0.14144 -0.39919,-0.003 -0.79882,-0.004 -1.19725,-0.0258 -0.59614,-0.033 -0.93628,-0.10295 -1.50467,-0.19679 -0.17939,-0.0437 -0.36263,-0.0764 -0.53817,-0.13117 -0.43367,-0.1353 -0.84945,-0.43545 -1.05658,-0.80517 -0.0489,-0.0873 -0.0717,-0.18433 -0.10756,-0.2765 -0.0405,-0.24499 -0.0791,-0.36413 -0.0436,-0.6144 0.014,-0.0989 0.0487,-0.19471 0.0792,-0.29062 0.11733,-0.36913 0.27298,-0.72597 0.52775,-1.0388 0.10156,-0.1112 0.19678,-0.22726 0.30468,-0.3336 0.39021,-0.38455 0.85342,-0.70407 1.31156,-1.02017 0.12409,-0.0856 0.24301,-0.17833 0.37625,-0.25219 0.16945,-0.0939 0.35269,-0.16642 0.52904,-0.24964 0.20158,-0.0798 0.39972,-0.16687 0.60473,-0.23935 0.95014,-0.3359 1.97974,-0.54229 3.00263,-0.57138 0.26437,-0.008 0.52883,0.0124 0.79325,0.0186 0.84578,0.0407 1.70765,0.0703 2.54023,0.22314 0.10991,0.0202 0.41707,0.10548 0.5408,0.13905 0,0 0.18307,-0.11033 0.18307,-0.11033 z"
       style="stroke-width:0.0175065" />
    <text
       xml:space="preserve"
       style="font-style:normal;font-weight:normal;font-size:1.5875px;line-height:1.25;font-family:sans-serif;fill:#000000;fill-opacity:1;stroke:none;stroke-width:0.0165364"
       x="-629.31451"
       y="-565.49866"
       id="text373-2"><tspan
         sodipodi:role="line"
         id="tspan371-9"
         x="-629.31451"
         y="-565.49866"
         style="font-size:1.5875px;stroke-width:0.0165364">Reisestelle</tspan></text>
    <path
       id="path583"
       d="m -681.77732,-585.30431 c 0.29731,3.38672 0.37518,6.78397 0.45847,10.17801 0.0818,3.82273 0.10997,7.64607 0.11608,11.46935 0.0276,1.66484 0.0205,3.33106 0.0903,4.99523 0.0393,0.13338 0.0443,0.2772 0.11785,0.40013 0.46054,0.76907 2.48692,0.69942 3.20663,0.72583 0.64783,0.0238 1.29634,0.0323 1.94451,0.0485 4.718,0.0944 9.43789,0.0968 14.157,0.10062 3.99767,0.005 7.99535,0.006 11.99302,0.009 1.85268,0.002 3.70536,0.003 5.55804,0.002 0.85725,10e-4 1.71449,-5e-4 2.57174,-5e-4 0.32861,2.5e-4 1.1603,0.0177 1.5146,-0.0418 0.19329,-0.0325 0.37093,-0.11138 0.5564,-0.16707 0.23016,-0.15132 0.49717,-0.27045 0.69049,-0.45397 0.41286,-0.39195 0.56364,-1.33617 0.6382,-1.82717 0.0602,-0.39615 0.4599,-3.46097 0.48215,-3.63051 0.56914,-4.47927 0.96613,-8.9716 1.25615,-13.46884 0.12484,-1.93064 0.16227,-3.86384 0.17069,-5.79688 0.003,-0.56138 2.5e-4,-1.12276 -10e-4,-1.68413 -5e-4,-0.20657 0.009,-0.63639 -0.0287,-0.85541 -0.0177,-0.10287 -0.0607,-0.2016 -0.0911,-0.30239 -0.0598,-0.0749 -0.0807,-0.18806 -0.17949,-0.22477 -0.29475,-0.10956 -0.62324,-0.14307 -0.94077,-0.19166 -0.50281,-0.0769 -2.21962,-0.24167 -2.68559,-0.29091 -0.61042,-0.0645 -1.22028,-0.13264 -1.83042,-0.19896 -0.64978,-0.0686 -1.29957,-0.13717 -1.94935,-0.20576 -1.01687,-0.0955 -2.85123,-0.2776 -3.87946,-0.33564 -0.79482,-0.0449 -1.59131,-0.0673 -2.38743,-0.0916 -2.18686,-0.0667 -4.37516,-0.0825 -6.56316,-0.0982 -3.50785,0.0361 -6.96628,0.5255 -10.39441,1.10056 -1.17919,0.23031 -2.33178,0.42869 -3.54962,0.39833 -0.67631,-0.0168 -1.07911,-0.075 -1.75188,-0.148 -1.75671,-0.25138 -3.53375,-0.36104 -5.31122,-0.44746 -0.75615,-0.0278 -1.51289,-0.0786 -2.26915,-0.0351 -0.36061,0.034 -0.71798,0.0827 -1.07188,0.14897 0,0 -0.2599,0.16449 -0.2599,0.16449 v 0 c 0.35343,-0.0676 0.71001,-0.11776 1.07035,-0.1532 0.7591,-0.0458 1.51885,-10e-4 2.27825,0.0254 1.77851,0.0812 3.55593,0.19212 5.31325,0.44392 0.68375,0.0754 1.06701,0.13229 1.75434,0.1509 0.63086,0.0171 1.12793,-0.001 1.75011,-0.082 0.1371,-0.0178 1.79814,-0.31568 1.81229,-0.3182 3.43031,-0.58387 6.89284,-1.07653 10.40498,-1.11322 4.28208,0.0214 8.57835,0.0359 12.82879,0.52282 0.64882,0.0691 1.29764,0.1382 1.94646,0.20731 0.60696,0.0683 1.21354,0.139 1.82089,0.20483 0.55496,0.0602 2.08888,0.20554 2.67287,0.2948 0.30799,0.0471 0.62673,0.0782 0.91321,0.18329 0.0956,0.0351 0.1169,0.14411 0.17536,0.21617 0.0302,0.099 0.0729,0.19592 0.0906,0.29698 0.0387,0.22062 0.0307,0.64392 0.0318,0.8524 0.003,0.56047 0.006,1.12095 0.007,1.68142 -0.002,1.92873 -0.0337,3.85767 -0.14439,5.78449 -0.26225,4.49603 -0.6436,8.98768 -1.24352,13.46209 -0.0937,0.68118 -0.18329,1.36275 -0.28103,2.04353 -0.0767,0.53463 -0.15461,1.0692 -0.24245,1.60265 -0.0683,0.41492 -0.16359,0.93893 -0.34795,1.33566 -0.11217,0.24138 -0.28862,0.45617 -0.45621,0.67162 -0.18447,0.0581 -0.36045,0.1402 -0.5534,0.17427 -0.35878,0.0634 -1.18341,0.0461 -1.51779,0.0462 -0.85684,2.5e-4 -1.71369,-10e-4 -2.57054,-2.5e-4 -1.8571,0 -3.71421,0.001 -5.57131,0.006 -4.00696,0.007 -8.01392,0.01 -12.02089,0.008 -4.71359,-0.01 -9.42795,-0.009 -14.14034,-0.10982 -0.64542,-0.0175 -1.29127,-0.0264 -1.93627,-0.0525 -0.67046,-0.0272 -2.72129,0.013 -3.15992,-0.71266 -0.0731,-0.12093 -0.0786,-0.26267 -0.11792,-0.39401 -0.0794,-1.65938 -0.0805,-3.32119 -0.12067,-4.98136 -0.0194,-3.81905 -0.0515,-7.63812 -0.14741,-11.45647 -0.0792,-3.40405 -0.15938,-6.80891 -0.38449,-10.20889 0,0 -0.29193,0.12365 -0.29193,0.12365 z"
       style="stroke-width:0.0176435" />
    <path
       id="path585"
       d="m -687.62467,-577.69414 c 1.2053,-0.006 2.41063,-0.005 3.61594,-0.005 1.70558,-10e-4 3.41085,-0.0432 5.11621,-0.0687 0.76805,-0.0244 0.40274,-0.0106 1.09597,-0.0401 0,0 0.20184,-0.15878 0.20184,-0.15878 v 0 c -0.69628,0.0327 -0.3295,0.0174 -1.10038,0.0444 -1.70489,0.0303 -3.40989,0.074 -5.11508,0.0683 -1.20154,5e-4 -2.40311,0.002 -3.60464,-0.005 0,0 -0.20986,0.16364 -0.20986,0.16364 z"
       style="stroke-width:0.015962" />
    <path
       id="path587"
       d="m -687.3031,-558.89964 c 1.50667,-0.1018 2.97267,-0.50219 4.43115,-0.85537 2.06498,-0.52189 4.1604,-0.91476 6.26517,-1.2538 0.98943,-0.15259 1.97805,-0.30995 2.97702,-0.39169 0.25216,-0.0371 0.54729,-0.0264 0.78252,-0.14127 0.26581,-0.1298 0.30111,-0.0629 0.22832,-0.16258 -0.11808,-5e-4 -0.23485,0.0302 -0.3504,0.0508 0,0 -0.19507,0.1413 -0.19507,0.1413 v 0 c 0.11278,-0.0194 0.22708,-0.0384 0.33824,-0.0617 -0.0172,-0.0851 -0.003,0.0187 0.17232,-0.11251 0.0264,-0.0199 -0.0626,0.0233 -0.0946,0.0329 -0.22385,0.0674 -0.45463,0.10546 -0.68914,0.1166 -1.00359,0.0835 -1.99648,0.24334 -2.99023,0.3989 -2.10718,0.34085 -4.20462,0.73752 -6.27281,1.25726 -1.44965,0.34874 -2.90723,0.75169 -4.40561,0.84122 0,0 -0.19685,0.13994 -0.19685,0.13994 z"
       style="stroke-width:0.0141753" />
    <path
       id="path589"
       d="m -630.70031,-569.08052 c -0.54828,-0.0448 -1.09808,-0.0627 -1.64819,-0.0716 -0.9991,0.0274 -1.98915,-0.10315 -2.97922,-0.20647 -0.82559,-0.0394 -1.6195,-0.25903 -2.40992,-0.46413 -0.65015,-0.1687 -0.73049,-0.1882 -1.37349,-0.35139 0,0 -0.23691,0.15018 -0.23691,0.15018 v 0 c 0.8412,0.2126 0.51693,0.12893 1.37194,0.35211 0.79043,0.20632 1.58506,0.42875 2.4109,0.46883 0.98926,0.10338 1.97818,0.2375 2.97653,0.21138 0.54751,0.0102 1.09504,0.0268 1.64058,0.0735 0,0 0.24778,-0.16241 0.24778,-0.16241 z"
       style="stroke-width:0.0172076" />
    <g
       inkscape:label="Actor"
       id="actor"
       transform="matrix(0.0625,0,0,0.0625,-699.51003,-590.94172)">
      <path
         style="fill:#000000;fill-opacity:1;fill-rule:nonzero;stroke:none;stroke-width:0.264583"
         id="path20"
         d="m 94.241688,52.760387 c -0.391602,-0.318344 -1.390992,-1.154472 -1.721718,-1.270526 -2.336758,-0.819997 -7.073255,-1.524429 -9.237506,-1.817085 -5.048086,-0.682611 -7.362524,-0.78991 -12.433213,-1.183584 -4.51762,-0.144894 -9.079394,-0.8343 -13.578898,-0.02861 -0.991238,0.177493 -2.026671,0.321003 -2.913885,0.797351 -1.927805,1.035044 -3.80509,2.221992 -5.432965,3.6841 -0.830323,0.745771 -1.204717,1.879121 -1.807075,2.818683 -1.481839,2.754154 -2.19569,5.714971 -2.38198,8.818973 -0.05099,0.849569 -0.09061,1.705655 -0.01357,2.553263 0.198006,2.178728 0.77408,3.811884 1.370898,5.911588 0.399685,1.039262 0.712036,2.116474 1.199052,3.117787 0.59521,1.223756 1.308839,2.388409 2.037914,3.537455 0.767699,1.209916 1.56682,2.403737 2.448507,3.533288 2.632985,3.373181 5.779444,6.275261 8.902602,9.176642 0.817065,0.710218 1.576853,1.492273 2.451195,2.130657 1.031473,0.75311 2.137341,1.401985 3.248806,2.031082 3.429899,1.941357 7.154439,3.538129 11.017342,4.380029 1.476311,0.32175 2.985077,0.47053 4.477615,0.7058 4.546341,0.36891 4.313698,0.41332 8.740902,0.53489 2.704341,0.0743 4.192199,0.10471 6.849594,-0.13248 2.543855,-0.22705 2.927315,-0.38234 5.347405,-0.9001 4.62081,-2.23099 8.90453,-4.651914 11.82287,-8.965289 1.29139,-1.908699 1.23131,-2.141781 2.01225,-4.272878 0.46168,-2.415225 0.54058,-4.9135 0.0166,-7.331223 -0.59065,-2.725597 -1.7816,-5.444799 -2.83261,-8.019494 -0.33828,-0.73996 -0.64313,-1.496132 -1.01482,-2.219886 -0.40371,-0.786122 -0.86166,-1.543344 -1.30916,-2.305394 -1.66753,-2.839667 -3.53542,-5.52469 -5.46648,-8.188642 -1.45784,-1.896711 -2.97962,-3.743434 -4.55038,-5.547466 -0.25697,-0.29513 -0.50236,-0.601067 -0.77475,-0.882034 -0.28883,-0.297931 -0.60465,-0.568454 -0.906968,-0.852683 -1.602618,-1.501545 -3.456344,-2.644188 -5.428022,-3.586914 -1.773745,-0.884034 -3.699793,-1.300078 -5.634733,-1.646467 0,0 -3.134434,2.197965 -3.134434,2.197965 v 0 c 1.913305,0.305178 3.81187,0.699084 5.563208,1.566 1.939362,0.927541 3.800954,2.001321 5.386292,3.473553 2.320256,2.178468 4.359537,4.651708 6.342477,7.1346 2.93383,3.982982 5.7937,8.062564 7.8,12.608611 1.73494,4.150095 3.42389,8.163808 3.02956,12.77608 -0.0679,0.794623 -0.26064,1.573602 -0.39096,2.360404 -0.27508,0.71365 -0.49154,1.452766 -0.82526,2.140952 -0.65895,1.358871 -1.78015,2.949983 -2.79496,4.045678 -0.63313,0.683588 -1.48196,1.163706 -2.04342,1.907283 -0.11739,0.155477 0.74249,-0.08748 0.5839,0.02567 -0.79717,0.568727 -1.72172,0.9335 -2.58257,1.400252 -2.41206,0.561035 -2.85868,0.738886 -5.40021,1.008914 -5.192759,0.551708 -10.516546,0.198768 -15.702022,-0.229195 -1.464922,-0.238107 -2.945318,-0.395259 -4.394761,-0.714322 -4.975918,-1.095349 -9.96197,-3.368202 -14.085097,-6.355837 -0.880837,-0.63826 -1.679852,-1.382419 -2.51978,-2.073629 -2.24994,-1.998068 -3.876974,-3.353941 -5.955461,-5.592662 -2.91964,-3.144719 -5.479341,-6.643881 -7.284736,-10.553745 -0.462844,-1.002358 -0.772522,-2.068573 -1.158785,-3.102859 -0.642901,-2.397045 -1.039466,-3.422155 -1.23974,-5.871731 -0.215722,-2.638536 0.16714,-5.71804 1.050483,-8.205578 0.357886,-1.007822 0.87955,-1.949755 1.319324,-2.924633 0.627674,-0.911894 1.4508,-1.716508 1.883024,-2.735678 0.08683,-0.204753 -0.831898,-0.118994 -0.631481,-0.215416 0.930288,-0.447564 1.951011,-0.695177 2.961682,-0.90565 4.570516,-0.951809 9.248341,-0.368154 13.859819,-0.253759 5.0296,0.383961 7.328525,0.460282 12.309483,1.234191 1.743274,0.270859 3.481036,0.590545 5.198023,0.995905 2.808211,0.662982 3.28635,0.668732 4.969568,2.350275 0,0 3.381965,-2.07247 3.381965,-2.07247 z" />
      <path
         style="fill:#000000;fill-opacity:1;fill-rule:nonzero;stroke:none;stroke-width:0.264583"
         id="path22"
         d="m 76.103767,103.58108 c 0.210476,1.18025 0.213352,1.25316 0.497803,2.55338 0.247941,1.13334 0.520745,2.26122 0.760609,3.39629 0.612539,2.89865 1.235162,6.25003 1.822971,9.14177 0.348834,1.7161 0.715415,3.42854 1.073121,5.14281 1.348512,6.77222 3.0032,13.47845 4.384773,20.24336 0.875532,4.28709 0.866563,4.41603 1.578289,8.55087 1.107549,6.50099 1.165646,13.11401 1.03205,19.68855 -0.02761,3.18474 -0.46414,6.34804 -0.906989,9.49656 -0.189854,1.52236 -0.441727,3.0377 -0.585121,4.56558 -0.118144,1.92291 -0.06692,3.85215 -0.055,5.77742 -0.01437,1.98704 0.04948,3.97773 7.94e-4,5.9645 -0.01254,0.51092 -0.125603,2.29405 -0.155784,2.79077 -0.07796,1.30688 -0.165156,2.61317 -0.252418,3.91945 0,0 3.420721,-1.71867 3.420721,-1.71867 v 0 c 0.06005,-1.30016 0.124069,-2.60017 0.215233,-3.89861 0.0595,-0.95095 0.12663,-1.85945 0.145905,-2.81209 0.04022,-1.98773 -0.06071,-3.97737 0.0034,-5.96518 0.02294,-1.9339 0.0326,-3.87137 0.180544,-5.80064 0.147428,-1.50597 0.359616,-3.0047 0.503065,-4.51121 0.362352,-3.14456 0.836158,-6.29685 0.750128,-9.47023 -0.06421,-3.98202 -0.150174,-7.96627 -0.42105,-11.94073 -0.08997,-1.32012 -0.16992,-2.64212 -0.323897,-3.95631 -0.145796,-1.24435 -0.383228,-2.47626 -0.574842,-3.71438 -0.666509,-3.4315 -0.952031,-4.99222 -1.710002,-8.49319 -1.459661,-6.74201 -3.044142,-13.45755 -4.422857,-20.21732 -0.9398,-4.79081 -1.909609,-9.57948 -2.652318,-14.40619 -0.181409,-1.17895 -0.313814,-2.36496 -0.483142,-3.5457 -0.38171,-2.6617 -0.128405,-0.42096 -0.354674,-2.59819 0,0 -3.471209,1.81733 -3.471209,1.81733 z" />
      <path
         style="fill:#000000;fill-opacity:1;fill-rule:nonzero;stroke:none;stroke-width:0.264583"
         id="path24"
         d="m 82.996504,207.18392 c -0.267956,0.23537 -0.532225,0.475 -0.803872,0.7061 -1.776611,1.51141 -0.50268,0.3832 -2.653012,2.14303 -2.322287,1.90055 -4.602885,3.85366 -6.874753,5.81374 -5.830755,5.13601 -11.888915,9.99651 -18.010838,14.77769 -2.223995,1.80588 -4.588047,3.43119 -6.819903,5.22687 -0.839155,0.67516 -1.651511,1.38299 -2.481723,2.06911 -0.314542,0.2481 -0.629084,0.49619 -0.943626,0.74429 0,0 3.548306,-1.42452 3.548306,-1.42452 v 0 c 0.299913,-0.24482 0.599827,-0.48965 0.89974,-0.73447 0.319891,-0.26942 2.181775,-1.83952 2.416868,-2.02855 2.197528,-1.76695 4.519623,-3.37495 6.689026,-5.17798 6.041403,-4.8194 12.045543,-9.68445 17.889583,-14.74324 2.881413,-2.43023 5.791165,-4.81415 8.740272,-7.16067 0.638325,-0.5079 1.397143,-1.14907 2.033719,-1.68236 0,0 -3.629787,1.47096 -3.629787,1.47096 z" />
      <path
         style="fill:#000000;fill-opacity:1;fill-rule:nonzero;stroke:none;stroke-width:0.264583"
         id="path26"
         d="m 85.917557,206.60792 c 3.665194,4.77033 7.243599,9.64237 11.348128,14.05314 0.936699,1.00658 1.935816,1.95322 2.903725,2.92983 0.97086,0.84103 1.92911,1.69685 2.9126,2.52308 1.91668,1.61023 3.89568,3.14499 5.82443,4.74075 2.87337,2.37732 5.7237,4.78145 8.6058,7.14847 2.18487,1.82649 4.37389,3.64857 6.597,5.42842 0,0 3.19616,-2.01773 3.19616,-2.01773 v 0 c -2.32615,-1.69345 -4.59658,-3.46189 -6.83709,-5.26706 -2.51443,-1.96751 -3.02196,-2.33897 -5.57873,-4.45416 -2.08366,-1.72379 -4.09865,-3.52976 -6.18967,-5.24462 -0.89308,-0.73242 -1.83305,-1.40626 -2.7285,-2.13578 -0.99281,-0.80884 -1.95686,-1.65234 -2.9353,-2.47852 -0.97629,-0.96335 -1.98496,-1.89496 -2.92888,-2.89005 -4.116779,-4.33996 -7.782523,-9.14704 -10.782937,-14.32228 0,0 -3.406736,1.98651 -3.406736,1.98651 z" />
      <path
         style="fill:#000000;fill-opacity:1;fill-rule:nonzero;stroke:none;stroke-width:0.264583"
         id="path28"
         d="m 42.0547,137.72493 c 9.361363,-0.24284 18.727499,-0.26895 28.091611,-0.25935 8.670026,-0.10817 17.34226,-0.12818 26.011277,-0.30631 3.994342,-0.0659 7.969822,-0.47893 11.959122,-0.65987 3.57813,-0.13795 7.15137,-0.36722 10.72494,-0.58886 0,0 2.98386,-2.1984 2.98386,-2.1984 v 0 c -3.57822,0.25495 -7.15906,0.49798 -10.74481,0.61525 -0.88945,0.0323 -3.13596,0.10637 -4.06294,0.1678 -2.65865,0.1762 -5.30684,0.54152 -7.976242,0.55572 -8.810239,0.3385 -17.627145,0.52476 -26.442892,0.63296 -9.126067,0.009 -18.254596,-0.009 -27.377678,-0.25935 0,0 -3.166248,2.30041 -3.166248,2.30041 z" />
      <path
         style="fill:#000000;fill-opacity:1;fill-rule:nonzero;stroke:none;stroke-width:0.264583"
         id="path30"
         d="m 42.231577,135.7964 c -1.810623,0.72743 -2.517611,0.99355 -4.446111,1.86569 -1.071044,0.48437 -2.165456,0.92608 -3.192598,1.49768 -2.603,1.44856 -5.154843,2.98887 -7.687551,4.5571 -2.43244,1.50614 -9.069153,6.00219 -11.392245,7.56434 -6.1433585,4.06379 -12.3655331,8.00666 -18.6476587,11.8518 0,0 3.1445553,-1.21768 3.1445553,-1.21768 v 0 c 6.1268653,-3.81367 12.1937834,-7.7226 18.2175474,-11.69723 5.960395,-3.99584 5.56538,-3.7798 11.585839,-7.6227 0.683438,-0.43624 1.351291,-0.90172 2.068836,-1.27924 2.324256,-1.22287 4.797136,-2.17276 7.246143,-3.10886 0,0 3.103243,-2.4109 3.103243,-2.4109 z" />
      <path
         style="fill:#000000;fill-opacity:1;fill-rule:nonzero;stroke:none;stroke-width:0.264583"
         id="path32"
         d="m 119.52312,137.24939 c 0.16763,0.49628 0.28128,1.0142 0.50288,1.48884 1.55026,3.32034 3.84494,6.18586 6.24779,8.9187 1.65349,1.88056 4.74269,5.10822 6.47089,6.93256 2.98111,3.03706 5.83926,6.20059 8.88202,9.17743 2.41967,2.36724 4.97155,4.59734 7.52917,6.81246 3.74346,3.2115 7.37436,6.54973 11.21578,9.6452 0.53911,0.39296 1.07822,0.78591 1.61733,1.17886 0,0 3.11689,-1.98381 3.11689,-1.98381 v 0 c -0.5514,-0.37756 -1.10279,-0.75511 -1.65419,-1.13267 -1.84349,-1.42299 -2.08674,-1.56865 -3.90437,-3.15611 -2.45781,-2.14657 -4.7464,-4.48662 -7.37318,-6.43727 -2.0231,-1.64824 -2.81211,-2.25425 -4.827,-4.06435 -4.13333,-3.71321 -7.92413,-7.77556 -11.80922,-11.74149 -2.27464,-2.3903 -4.27232,-4.42163 -6.40936,-6.94107 -2.33338,-2.75092 -4.5065,-5.61237 -5.79977,-9.01301 -0.18459,-0.48539 -0.25734,-1.00621 -0.38601,-1.50931 0,0 -3.41965,1.82504 -3.41965,1.82504 z" />
    </g>
    <use
       xlink:href="#actor"
       x="142"
       y="124"
       id="use43"
       width="100%"
       height="100%"
       transform="translate(-73.072721,-115.13688)" />
    <use
       xlink:href="#actor"
       x="142"
       y="124"
       id="use43-3"
       width="100%"
       height="100%"
       transform="translate(-141.62439,-104.37641)" />
  </g>
</svg>
