<?xml version="1.0" encoding="UTF-8" standalone="no"?>
<svg
   xmlns:dc="http://purl.org/dc/elements/1.1/"
   xmlns:cc="http://creativecommons.org/ns#"
   xmlns:rdf="http://www.w3.org/1999/02/22-rdf-syntax-ns#"
   xmlns:svg="http://www.w3.org/2000/svg"
   xmlns="http://www.w3.org/2000/svg"
   xmlns:xlink="http://www.w3.org/1999/xlink"
   xmlns:sodipodi="http://sodipodi.sourceforge.net/DTD/sodipodi-0.dtd"
   xmlns:inkscape="http://www.inkscape.org/namespaces/inkscape"
   width="167.72025mm"
   height="77.448257mm"
   viewBox="0 0 167.72024 77.448256"
   version="1.1"
   id="svg75"
   sodipodi:docname="sbpm-workflow.svg"
   inkscape:version="1.0.2 (e86c870879, 2021-01-15)">
  <title
     id="title52">SBPM Workflow</title>
  <defs
     id="defs69" />
  <sodipodi:namedview
     id="base"
     pagecolor="#ffffff"
     bordercolor="#666666"
     borderopacity="1.0"
     inkscape:pageopacity="0.0"
     inkscape:pageshadow="2"
     inkscape:zoom="1.859886"
     inkscape:cx="299.81921"
     inkscape:cy="257.67912"
     inkscape:document-units="px"
     inkscape:current-layer="layer1"
     inkscape:document-rotation="0"
     showgrid="false"
     inkscape:window-width="3840"
     inkscape:window-height="2068"
     inkscape:window-x="0"
     inkscape:window-y="37"
     inkscape:window-maximized="1" />
  <metadata
     id="metadata72">
    <rdf:RDF>
      <cc:Work
         rdf:about="">
        <dc:format>image/svg+xml</dc:format>
        <dc:type
           rdf:resource="http://purl.org/dc/dcmitype/StillImage" />
        <dc:title>SBPM Workflow</dc:title>
        <dc:creator>
          <cc:Agent>
            <dc:title>Stefan Sedelmaier</dc:title>
          </cc:Agent>
        </dc:creator>
      </cc:Work>
    </rdf:RDF>
  </metadata>
  <g
     inkscape:label="Ebene 1"
     inkscape:groupmode="layer"
     id="layer1"
     transform="translate(737.35066,609.5655)">
    <text
       xml:space="preserve"
       style="font-style:normal;font-variant:normal;font-weight:normal;font-stretch:normal;font-size:4.23333px;line-height:1.25;font-family:sans-serif;-inkscape-font-specification:'sans-serif, Normal';font-variant-ligatures:normal;font-variant-caps:normal;font-variant-numeric:normal;font-variant-east-asian:normal;fill:#000000;fill-opacity:1;stroke:none;stroke-width:0.0165364"
       x="-732.69836"
       y="-574.21411"
       id="text369"><tspan
         sodipodi:role="line"
         id="tspan367"
         x="-732.69836"
         y="-574.21411"
         style="font-style:normal;font-variant:normal;font-weight:normal;font-stretch:normal;font-size:4.23333px;font-family:sans-serif;-inkscape-font-specification:'sans-serif, Normal';font-variant-ligatures:normal;font-variant-caps:normal;font-variant-numeric:normal;font-variant-east-asian:normal;fill:#540804ff;fill-opacity:1;stroke-width:0.0165364">Mitarbeiter</tspan></text>
    <text
       xml:space="preserve"
       style="font-style:normal;font-variant:normal;font-weight:normal;font-stretch:normal;font-size:4.23333px;line-height:1.25;font-family:sans-serif;-inkscape-font-specification:'sans-serif, Normal';font-variant-ligatures:normal;font-variant-caps:normal;font-variant-numeric:normal;font-variant-east-asian:normal;fill:#000000;fill-opacity:1;stroke:none;stroke-width:0.0165364"
       x="-734.37183"
       y="-532.9978"
       id="text373"><tspan
         sodipodi:role="line"
         id="tspan371"
         x="-734.37183"
         y="-532.9978"
         style="font-style:normal;font-variant:normal;font-weight:normal;font-stretch:normal;font-size:4.23333px;font-family:sans-serif;-inkscape-font-specification:'sans-serif, Normal';font-variant-ligatures:normal;font-variant-caps:normal;font-variant-numeric:normal;font-variant-east-asian:normal;fill:#540804ff;fill-opacity:1;stroke-width:0.0165364">Vorgesetzter</tspan></text>
    <text
       xml:space="preserve"
       style="font-style:normal;font-variant:normal;font-weight:bold;font-stretch:normal;font-size:4.23333px;line-height:1.25;font-family:sans-serif;-inkscape-font-specification:'sans-serif, Bold';font-variant-ligatures:normal;font-variant-caps:normal;font-variant-numeric:normal;font-variant-east-asian:normal;fill:#000000;fill-opacity:1;stroke:none;stroke-width:0.0165364"
       x="-659.32507"
       y="-591.19202"
       id="text377"><tspan
         sodipodi:role="line"
         x="-659.32507"
         y="-591.19202"
         style="font-style:normal;font-variant:normal;font-weight:bold;font-stretch:normal;font-size:4.23333px;font-family:sans-serif;-inkscape-font-specification:'sans-serif, Bold';font-variant-ligatures:normal;font-variant-caps:normal;font-variant-numeric:normal;font-variant-east-asian:normal;fill:#540804ff;fill-opacity:1;stroke-width:0.0165364"
         id="tspan442">Dienstreiseantrag</tspan></text>
    <text
       xml:space="preserve"
       style="font-style:normal;font-variant:normal;font-weight:normal;font-stretch:normal;font-size:4.23333px;line-height:1.25;font-family:sans-serif;-inkscape-font-specification:'sans-serif, Normal';font-variant-ligatures:normal;font-variant-caps:normal;font-variant-numeric:normal;font-variant-east-asian:normal;fill:#000000;fill-opacity:1;stroke:none;stroke-width:0.0165364"
       x="-695.50134"
       y="-583.35339"
       id="text381"><tspan
         sodipodi:role="line"
         id="tspan379"
         x="-695.50134"
         y="-583.35339"
         style="font-style:normal;font-variant:normal;font-weight:normal;font-stretch:normal;font-size:4.23333px;font-family:sans-serif;-inkscape-font-specification:'sans-serif, Normal';font-variant-ligatures:normal;font-variant-caps:normal;font-variant-numeric:normal;font-variant-east-asian:normal;fill:#540804ff;fill-opacity:1;stroke-width:0.0165364">Antrag ausfüllen</tspan></text>
    <text
       xml:space="preserve"
       style="font-style:normal;font-variant:normal;font-weight:normal;font-stretch:normal;font-size:4.23333px;line-height:1.25;font-family:sans-serif;-inkscape-font-specification:'sans-serif, Normal';font-variant-ligatures:normal;font-variant-caps:normal;font-variant-numeric:normal;font-variant-east-asian:normal;fill:#000000;fill-opacity:1;stroke:none;stroke-width:0.0165364"
       x="-685.69806"
       y="-559.80334"
       id="text385"><tspan
         sodipodi:role="line"
         id="tspan383"
         x="-685.69806"
         y="-559.80334"
         style="font-style:normal;font-variant:normal;font-weight:normal;font-stretch:normal;font-size:4.23333px;font-family:sans-serif;-inkscape-font-specification:'sans-serif, Normal';font-variant-ligatures:normal;font-variant-caps:normal;font-variant-numeric:normal;font-variant-east-asian:normal;fill:#540804ff;fill-opacity:1;stroke-width:0.0165364">Antrag prüfen</tspan></text>
    <path
       id="path420"
       d="m -669.06188,-567.35219 c -0.19959,-0.0601 -0.76605,-0.23323 -0.93748,-0.26822 -1.43811,-0.29341 -2.92478,-0.35187 -4.38478,-0.42774 -0.45412,-0.0133 -0.90823,-0.0514 -1.36228,-0.0372 -1.75673,0.0548 -3.52584,0.45012 -5.15953,1.10058 -0.35191,0.14011 -0.69219,0.30858 -1.03824,0.46288 -1.1088,0.51514 -2.09429,1.25087 -3.03246,2.03101 -0.52865,0.4396 -0.92784,0.7846 -1.38388,1.29714 -0.18559,0.20856 -0.34909,0.43621 -0.52366,0.65431 -0.43761,0.61438 -0.70193,1.31571 -0.90433,2.03866 -0.053,0.18806 -0.11393,0.37583 -0.1373,0.56992 -0.0584,0.48092 0.008,0.73975 0.0813,1.21005 0.0626,0.18179 0.10212,0.37324 0.18742,0.54528 0.35892,0.72524 1.07946,1.32739 1.83097,1.59328 0.30481,0.1078 0.62341,0.17046 0.93513,0.25591 0.97965,0.18181 1.57066,0.31894 2.59768,0.37992 0.68946,0.0409 1.38079,0.039 2.07142,0.0427 2.40291,0.0133 4.79567,-0.13981 7.19331,-0.2804 3.40585,-0.24896 6.80479,-0.57741 10.21558,-0.75251 1.09404,-0.079 2.19431,-0.0309 3.28625,-0.14159 0.65553,-0.0662 0.66133,-0.0848 1.3077,-0.21822 0.24697,-0.0734 0.8573,-0.24081 1.10254,-0.36338 0.28561,-0.14261 0.55837,-0.31107 0.82822,-0.48225 0.16059,-0.10186 0.31886,-0.2096 0.46146,-0.33582 0.33808,-0.29921 0.4569,-0.50853 0.7141,-0.87027 0.22351,-0.53394 0.43412,-1.12425 0.41673,-1.71659 -0.0203,-0.71658 -0.27793,-1.37427 -0.54815,-2.02259 -0.58433,-0.84554 -1.33699,-1.57971 -2.18486,-2.15476 -0.49178,-0.3335 -0.71779,-0.41522 -1.24585,-0.66337 -1.25757,-0.51646 -2.58442,-0.84316 -3.91089,-1.1204 -1.27296,-0.26325 -2.56934,-0.33198 -3.86427,-0.36962 -1.29582,-0.0212 -2.58816,-0.10505 -3.8713,-0.28967 -0.77329,-0.15944 -1.55677,-0.23977 -2.34009,-0.32811 0,0 -0.28851,0.20717 -0.28851,0.20717 v 0 c 0.77837,0.0936 1.55752,0.17946 2.3267,0.33647 1.28412,0.18788 2.57806,0.26644 3.87495,0.2923 1.29404,0.0367 2.58982,0.10296 3.86246,0.36292 1.32458,0.27548 2.64803,0.60342 3.90535,1.11395 0.52981,0.24623 0.74929,0.32349 1.24262,0.65602 0.84425,0.56907 1.59522,1.29661 2.17369,2.13888 0.27199,0.65083 0.5205,1.28615 0.53685,2.00729 0.0152,0.58845 -0.19371,1.17237 -0.42544,1.69915 -0.10636,0.14737 -0.20243,0.30251 -0.31879,0.44172 -0.6388,0.76404 -1.2272,0.98207 -2.15503,1.23646 -0.63995,0.13453 -0.65631,0.15541 -1.30628,0.22292 -1.09525,0.11398 -2.19972,0.067 -3.29711,0.15075 -3.42052,0.18084 -6.82839,0.51983 -10.24399,0.77338 -2.39362,0.14173 -4.78335,0.29329 -7.18244,0.27561 -0.68539,-0.003 -1.37147,-0.004 -2.05556,-0.0503 -1.02354,-0.0642 -1.6075,-0.20061 -2.5834,-0.38349 -0.30801,-0.0851 -0.62261,-0.1488 -0.92401,-0.2556 -0.74456,-0.26366 -1.45842,-0.84859 -1.81407,-1.56906 -0.084,-0.17008 -0.12317,-0.3592 -0.18479,-0.53881 -0.0695,-0.47743 -0.13591,-0.70957 -0.0751,-1.19728 0.0241,-0.19273 0.0836,-0.37943 0.13606,-0.56634 0.20142,-0.71934 0.46869,-1.41471 0.9061,-2.02431 0.17442,-0.21672 0.33785,-0.4429 0.52311,-0.65012 0.66998,-0.74938 1.46528,-1.37203 2.25184,-1.98803 0.21309,-0.16688 0.41725,-0.3475 0.646,-0.49144 0.29093,-0.18299 0.60556,-0.32429 0.90833,-0.48647 0.34608,-0.15558 0.6863,-0.32517 1.03824,-0.46644 1.6313,-0.65459 3.39906,-1.05677 5.15526,-1.11345 0.45392,-0.0146 0.90798,0.0244 1.36195,0.0364 1.45215,0.0792 2.93192,0.13688 4.36138,0.43485 0.18863,0.0392 0.71605,0.20553 0.9285,0.27094 0,0 0.31432,-0.21498 0.31432,-0.21498 z"
       style="stroke-width:0.032022" />
    <path
       id="path420-7"
       d="m -675.62232,-591.4738 c -0.23561,-0.0601 -0.90353,-0.23324 -1.10579,-0.26823 -1.69622,-0.29341 -3.44978,-0.35187 -5.17185,-0.42773 -0.53563,-0.0133 -1.07129,-0.0515 -1.60687,-0.0372 -2.07206,0.0548 -4.15873,0.45012 -6.08568,1.10057 -0.41512,0.14012 -0.81643,0.30859 -1.22467,0.46289 -1.30779,0.51513 -2.47019,1.25086 -3.5768,2.03101 -0.62351,0.43959 -1.09436,0.78459 -1.63228,1.29713 -0.21879,0.20856 -0.41176,0.43621 -0.61762,0.65431 -0.5162,0.61438 -0.82797,1.31571 -1.06669,2.03866 -0.062,0.18806 -0.13445,0.37583 -0.16253,0.56992 -0.0688,0.48092 0.0155,0.73975 0.0961,1.21005 0.0738,0.1818 0.12056,0.37324 0.22109,0.54528 0.42332,0.72524 1.27322,1.32739 2.1596,1.59328 0.35959,0.1078 0.73537,0.17062 1.10304,0.25591 1.15549,0.18182 1.85259,0.31894 3.06401,0.37993 0.81318,0.0409 1.62866,0.039 2.44317,0.0427 2.83432,0.0133 5.65663,-0.13981 8.48462,-0.28042 4.01729,-0.24898 8.02637,-0.5774 12.04943,-0.75249 1.29039,-0.0788 2.58822,-0.031 3.87613,-0.14174 0.77323,-0.0664 0.78006,-0.085 1.54248,-0.21821 0.29132,-0.0733 1.0112,-0.2408 1.30049,-0.36338 0.33684,-0.14275 0.65856,-0.31107 0.97691,-0.48225 0.1892,-0.10197 0.37603,-0.20961 0.54424,-0.33582 0.3988,-0.29921 0.53893,-0.50853 0.84232,-0.87028 0.2636,-0.53393 0.51203,-1.12422 0.49155,-1.71656 -0.0247,-0.7166 -0.32785,-1.37431 -0.64656,-2.02261 -0.68925,-0.84554 -1.57703,-1.57969 -2.57708,-2.15474 -0.58008,-0.33352 -0.84661,-0.41524 -1.46952,-0.66335 -1.4833,-0.51652 -3.04834,-0.8432 -4.61295,-1.12043 -1.50144,-0.26326 -3.03054,-0.33195 -4.55791,-0.36962 -1.52844,-0.0213 -3.05275,-0.10505 -4.56625,-0.28966 -0.91211,-0.15944 -1.83624,-0.2398 -2.76014,-0.32815 0,0 -0.34033,0.20719 -0.34033,0.20719 v 0 c 0.9181,0.0936 1.83714,0.17946 2.7444,0.33648 1.5146,0.18787 3.04078,0.26643 4.57051,0.29229 1.52637,0.0367 3.05474,0.10296 4.55584,0.36291 1.56234,0.27549 3.12336,0.60343 4.60639,1.11398 0.6249,0.24618 0.88379,0.32347 1.46567,0.656 0.99581,0.56906 1.88161,1.29662 2.56394,2.13889 0.3208,0.65083 0.61389,1.28615 0.6332,2.00728 0.017,0.58844 -0.22845,1.17236 -0.50182,1.69915 -0.12543,0.14737 -0.23875,0.30252 -0.37603,0.44172 -0.75343,0.76406 -1.44747,0.98207 -2.54189,1.23645 -0.75483,0.13454 -0.77409,0.15542 -1.54078,0.22295 -1.29185,0.11398 -2.59456,0.067 -3.88896,0.15075 -4.03457,0.18082 -8.05417,0.51981 -12.0829,0.77336 -2.82329,0.14171 -5.642,0.29329 -8.47178,0.27561 -0.80836,-0.003 -1.61768,-0.004 -2.42455,-0.0503 -1.20728,-0.0642 -1.89608,-0.20061 -3.04716,-0.3835 -0.36331,-0.0851 -0.73438,-0.1488 -1.08985,-0.2556 -0.87823,-0.26364 -1.72024,-0.84858 -2.13971,-1.56903 -0.099,-0.17008 -0.1451,-0.35922 -0.2179,-0.53883 -0.0821,-0.47744 -0.16029,-0.70956 -0.0884,-1.19727 0.0283,-0.19274 0.0988,-0.37944 0.16064,-0.56633 0.23764,-0.71938 0.55282,-1.41473 1.06878,-2.02433 0.20571,-0.21672 0.39845,-0.4429 0.617,-0.65012 0.79023,-0.74939 1.72829,-1.37201 2.65608,-1.98803 0.25133,-0.16687 0.49212,-0.3475 0.76192,-0.49143 0.34316,-0.183 0.71426,-0.32431 1.07141,-0.48648 0.40821,-0.15558 0.80947,-0.32518 1.22462,-0.46644 1.92416,-0.65458 4.00922,-1.05677 6.08071,-1.11346 0.53535,-0.0161 1.07093,0.0243 1.60642,0.0364 1.71281,0.0794 3.45818,0.13688 5.1443,0.43485 0.22266,0.039 0.84458,0.20553 1.09515,0.27094 0,0 0.37076,-0.21496 0.37076,-0.21496 z"
       style="stroke-width:0.0347776" />
    <text
       xml:space="preserve"
       style="font-style:normal;font-variant:normal;font-weight:normal;font-stretch:normal;font-size:4.23333px;line-height:1.25;font-family:sans-serif;-inkscape-font-specification:'sans-serif, Normal';font-variant-ligatures:normal;font-variant-caps:normal;font-variant-numeric:normal;font-variant-east-asian:normal;fill:#000000;fill-opacity:1;stroke:none;stroke-width:0.0165364"
       x="-655.67267"
       y="-574.3963"
       id="text381-5"><tspan
         sodipodi:role="line"
         id="tspan379-3"
         x="-655.67267"
         y="-574.3963"
         style="font-style:normal;font-variant:normal;font-weight:normal;font-stretch:normal;font-size:4.23333px;font-family:sans-serif;-inkscape-font-specification:'sans-serif, Normal';font-variant-ligatures:normal;font-variant-caps:normal;font-variant-numeric:normal;font-variant-east-asian:normal;fill:#540804ff;fill-opacity:1;stroke-width:0.0165364">Konto aktualisieren</tspan></text>
    <path
       id="path420-7-5"
       d="m -632.68703,-582.05647 c -0.27331,-0.0601 -1.04828,-0.23323 -1.28295,-0.26822 -1.96802,-0.29343 -4.00256,-0.35188 -6.00059,-0.42775 -0.62142,-0.0133 -1.24295,-0.0514 -1.8643,-0.0372 -2.40406,0.0548 -4.82513,0.45013 -7.06085,1.10056 -0.48162,0.14011 -0.94725,0.30859 -1.4209,0.46289 -1.51731,0.51513 -2.86598,1.25087 -4.14993,2.03102 -0.72344,0.43957 -1.26972,0.7846 -1.89383,1.29711 -0.25396,0.20858 -0.47772,0.43624 -0.71659,0.65432 -0.59894,0.61439 -0.96063,1.31571 -1.23762,2.03868 -0.0721,0.18804 -0.15567,0.37582 -0.18817,0.56991 -0.0798,0.48092 0.0176,0.73976 0.11129,1.21004 0.0851,0.18181 0.13977,0.37323 0.2564,0.54529 0.4912,0.72524 1.47723,1.32739 2.50569,1.5933 0.41717,0.1078 0.85316,0.17042 1.27976,0.25589 1.34065,0.18181 2.14943,0.31892 3.55497,0.37994 0.94348,0.0409 1.88961,0.039 2.83472,0.0426 3.28842,0.0133 6.56296,-0.13983 9.84409,-0.28041 4.66099,-0.24898 9.31249,-0.57741 13.98018,-0.75252 1.49719,-0.0788 3.00297,-0.0309 4.49724,-0.14158 0.89708,-0.0662 0.90501,-0.0848 1.78963,-0.21823 0.33798,-0.0734 1.17322,-0.24081 1.50891,-0.36339 0.39076,-0.1426 0.76406,-0.31104 1.13338,-0.48225 0.21969,-0.10153 0.4363,-0.20957 0.63148,-0.33582 0.46267,-0.29922 0.62527,-0.50852 0.97725,-0.87025 0.30588,-0.53395 0.5941,-1.12426 0.57033,-1.71661 -0.0287,-0.71658 -0.38036,-1.37425 -0.75018,-2.02257 -0.79969,-0.84556 -1.82965,-1.57973 -2.98999,-2.15476 -0.67298,-0.33351 -0.9823,-0.41524 -1.70502,-0.66338 -1.72092,-0.51645 -3.53677,-0.84317 -5.35208,-1.1204 -1.74205,-0.26326 -3.51613,-0.33199 -5.28822,-0.36964 -1.77337,-0.0215 -3.54196,-0.10505 -5.29797,-0.28964 -1.05824,-0.15943 -2.13045,-0.23979 -3.20243,-0.32811 0,0 -0.39483,0.20716 -0.39483,0.20716 v 0 c 1.06521,0.0935 2.13151,0.17948 3.18415,0.33646 1.7573,0.18788 3.52803,0.26647 5.30286,0.29229 1.77092,0.0367 3.54421,0.10296 5.28587,0.36295 1.8127,0.27547 3.62385,0.60343 5.34449,1.11395 0.72505,0.24621 1.0254,0.32347 1.70054,0.656 1.15535,0.56907 2.18309,1.29662 2.97473,2.13889 0.3722,0.65082 0.71232,1.28615 0.7347,2.00729 0.0194,0.58844 -0.26504,1.17238 -0.58224,1.69917 -0.14546,0.14735 -0.27702,0.30251 -0.43627,0.44169 -0.87421,0.76405 -1.67941,0.98208 -2.94916,1.23647 -0.8758,0.13455 -0.89818,0.15541 -1.78772,0.22291 -1.49887,0.11399 -3.01033,0.067 -4.51207,0.15076 -4.68109,0.18084 -9.34476,0.51983 -14.01907,0.77338 -3.27566,0.14172 -6.54605,0.29331 -9.82925,0.27562 -0.93793,-0.003 -1.87689,-0.004 -2.81305,-0.0503 -1.40072,-0.0642 -2.19991,-0.2006 -3.5354,-0.38349 -0.42149,-0.0851 -0.85205,-0.14882 -1.26451,-0.25561 -1.01895,-0.26366 -1.99586,-0.84857 -2.48254,-1.56906 -0.11503,-0.17007 -0.16858,-0.35918 -0.25272,-0.53879 -0.095,-0.47743 -0.18583,-0.70961 -0.10249,-1.19732 0.033,-0.19271 0.11455,-0.37941 0.18602,-0.56632 0.27569,-0.71934 0.64139,-1.41472 1.24001,-2.02432 0.23863,-0.21671 0.46234,-0.44287 0.71588,-0.65011 0.91685,-0.74938 2.00522,-1.37204 3.08168,-1.98803 0.29157,-0.16687 0.57097,-0.3475 0.88403,-0.49145 0.39817,-0.18299 0.82871,-0.32428 1.24307,-0.48647 0.4736,-0.15557 0.93916,-0.32517 1.42086,-0.46641 2.23244,-0.65459 4.65164,-1.05679 7.05505,-1.11348 0.62118,-0.0161 1.24252,0.0241 1.86382,0.0364 1.98724,0.0794 4.01234,0.13691 5.96857,0.43485 0.25824,0.0392 0.97997,0.20556 1.27067,0.27094 0,0 0.43016,-0.21496 0.43016,-0.21496 z"
       style="stroke-width:0.0374604" />
    <text
       xml:space="preserve"
       style="font-style:normal;font-variant:normal;font-weight:normal;font-stretch:normal;font-size:4.23333px;line-height:1.25;font-family:sans-serif;-inkscape-font-specification:'sans-serif, Normal';font-variant-ligatures:normal;font-variant-caps:normal;font-variant-numeric:normal;font-variant-east-asian:normal;fill:#000000;fill-opacity:1;stroke:none;stroke-width:0.0165364"
       x="-594.66071"
       y="-558.10522"
       id="text373-2"><tspan
         sodipodi:role="line"
         id="tspan371-9"
         x="-594.66071"
         y="-558.10522"
         style="font-style:normal;font-variant:normal;font-weight:normal;font-stretch:normal;font-size:4.23333px;font-family:sans-serif;-inkscape-font-specification:'sans-serif, Normal';font-variant-ligatures:normal;font-variant-caps:normal;font-variant-numeric:normal;font-variant-east-asian:normal;fill:#540804ff;fill-opacity:1;stroke-width:0.0165364">Reisestelle</tspan></text>
    <path
       id="path583"
       d="m -699.33934,-595.33172 c 0.59962,5.99977 0.75668,12.0182 0.92467,18.03097 0.16502,6.77219 0.22176,13.54547 0.23411,20.31865 0.0556,2.94936 0.0413,5.90117 0.18208,8.84934 0.079,0.23628 0.0894,0.49109 0.23767,0.70886 0.92882,1.36244 5.01569,1.23907 6.46725,1.28585 1.30657,0.0422 2.61449,0.0571 3.92173,0.086 9.51544,0.16722 19.03468,0.1715 28.55235,0.17825 8.06265,0.005 16.12531,0.0121 24.18797,0.0161 3.73652,0.002 7.47309,0.003 11.20964,0.002 1.72895,10e-4 3.45784,-8.9e-4 5.18676,-8.9e-4 0.66277,4.6e-4 2.34016,0.0315 3.05472,-0.0741 0.3898,-0.0576 0.74811,-0.1973 1.12214,-0.29597 0.46421,-0.26806 1.00272,-0.47912 1.39263,-0.80424 0.83266,-0.69435 1.13677,-2.3671 1.28712,-3.23694 0.12135,-0.70179 0.92757,-6.13131 0.97244,-6.43168 1.14785,-7.93528 1.94852,-15.89373 2.53344,-23.86086 0.25179,-3.42025 0.32727,-6.84503 0.34426,-10.26952 0.003,-0.99453 5.1e-4,-1.98904 -10e-4,-2.98353 -10e-4,-0.36594 0.0183,-1.12739 -0.058,-1.51542 -0.0359,-0.18224 -0.12247,-0.35715 -0.18374,-0.53569 -0.12072,-0.1327 -0.16283,-0.33319 -0.36201,-0.3982 -0.59445,-0.19412 -1.25694,-0.25346 -1.89734,-0.33956 -1.0141,-0.1363 -4.47664,-0.42812 -5.41641,-0.51536 -1.23111,-0.11434 -2.4611,-0.23498 -3.69164,-0.35246 -1.31052,-0.12152 -2.62103,-0.243 -3.93154,-0.36452 -2.05087,-0.16918 -5.75046,-0.49179 -7.82424,-0.5946 -1.60301,-0.0795 -3.20941,-0.11907 -4.81506,-0.16226 -4.41052,-0.11822 -8.82396,-0.14613 -13.23681,-0.17397 -7.07475,0.064 -14.04984,0.93094 -20.96381,1.9497 -2.37822,0.40799 -4.70283,0.75945 -7.159,0.70566 -1.364,-0.0298 -2.17638,-0.13284 -3.53325,-0.26219 -3.543,-0.44533 -7.127,-0.63962 -10.71186,-0.79271 -1.52503,-0.0494 -3.05125,-0.13924 -4.5765,-0.0623 -0.72727,0.0602 -1.44803,0.14655 -2.1618,0.26392 0,0 -0.52416,0.29139 -0.52416,0.29139 v 0 c 0.71278,-0.11979 1.43196,-0.20862 2.1587,-0.27139 1.53098,-0.0811 3.06327,-10e-4 4.59485,0.045 3.58696,0.14378 7.17173,0.34034 10.71596,0.78643 1.379,0.13352 2.15199,0.23437 3.53822,0.26732 1.27234,0.0304 2.27483,-10e-4 3.52968,-0.14523 0.27651,-0.0317 3.62653,-0.55925 3.65509,-0.56371 6.91838,-1.03438 13.9017,-1.90713 20.98515,-1.97213 8.63623,0.0377 17.3011,0.0637 25.87355,0.92621 1.30856,0.12245 2.61713,0.24482 3.92566,0.36725 1.22417,0.121 2.44755,0.24624 3.67247,0.36286 1.11925,0.10659 4.21292,0.36414 5.39072,0.52226 0.62119,0.0835 1.264,0.13851 1.8418,0.32472 0.19281,0.0621 0.23576,0.25529 0.35365,0.38296 0.0609,0.17537 0.14698,0.34707 0.18281,0.52613 0.0783,0.39083 0.0619,1.14072 0.0642,1.51007 0.003,0.99289 0.0138,1.98583 0.0151,2.97874 -0.002,3.41685 -0.068,6.83409 -0.29119,10.24756 -0.52894,7.96498 -1.29802,15.92223 -2.50801,23.84893 -0.18895,1.20673 -0.36965,2.41418 -0.56677,3.62022 -0.15468,0.94712 -0.31183,1.89416 -0.48899,2.83918 -0.13775,0.73507 -0.32991,1.66338 -0.70175,2.36622 -0.22622,0.42764 -0.5821,0.80814 -0.92009,1.1898 -0.37206,0.10285 -0.72699,0.24838 -1.11613,0.30874 -0.7236,0.11229 -2.38673,0.0817 -3.06114,0.0818 -1.72809,4.4e-4 -3.45622,-10e-4 -5.18435,-4.5e-4 -3.74546,0 -7.49094,0.001 -11.2364,0.0121 -8.0814,0.0133 -16.16276,0.0177 -24.24416,0.0146 -9.50653,-0.0177 -19.01464,-0.0161 -28.51876,-0.19455 -1.30169,-0.031 -2.60427,-0.0467 -3.90512,-0.0932 -1.35221,-0.0482 -5.4884,0.023 -6.37305,-1.26251 -0.1473,-0.21424 -0.15852,-0.46533 -0.23783,-0.698 -0.16001,-2.9397 -0.16251,-5.8837 -0.24336,-8.8248 -0.0389,-6.7657 -0.10372,-13.53138 -0.29732,-20.29583 -0.15968,-6.03048 -0.32142,-12.0624 -0.77543,-18.08569 0,0 -0.58878,0.21907 -0.58878,0.21907 z"
       style="stroke-width:0.0333502" />
    <path
       id="path585"
       d="m -713.09248,-584.28256 c 1.96432,-0.0133 3.92867,-0.007 5.89302,-0.007 2.77961,-10e-4 5.55875,-0.0839 8.33805,-0.13396 1.25169,-0.0474 0.65635,-0.0208 1.78611,-0.0782 0,0 0.32895,-0.30943 0.32895,-0.30943 v 0 c -1.13475,0.0639 -0.53699,0.0338 -1.79331,0.0865 -2.77852,0.059 -5.55721,0.14406 -8.33621,0.1331 -1.95819,10e-4 -3.91642,0.002 -5.8746,-0.009 0,0 -0.34201,0.31891 -0.34201,0.31891 z"
       style="stroke-width:0.0284459" />
    <path
       id="path587"
       d="m -711.83644,-555.22185 c 2.52514,-0.13985 4.98217,-0.68986 7.4266,-1.17501 3.4609,-0.71691 6.97282,-1.25659 10.50043,-1.72231 1.65828,-0.20962 3.31519,-0.42577 4.98949,-0.53807 0.42262,-0.051 0.91726,-0.0362 1.31151,-0.19406 0.44548,-0.1783 0.50465,-0.0864 0.38266,-0.22333 -0.19791,-6.8e-4 -0.39361,0.0415 -0.58727,0.0698 0,0 -0.32694,0.1941 -0.32694,0.1941 v 0 c 0.18903,-0.0265 0.38059,-0.0527 0.56688,-0.0848 -0.0288,-0.11687 -0.003,0.0258 0.2888,-0.15453 0.0443,-0.0273 -0.10496,0.0319 -0.15855,0.0452 -0.37515,0.0926 -0.76195,0.14487 -1.15497,0.16016 -1.68205,0.11462 -3.34611,0.33429 -5.01164,0.54795 -3.53165,0.46824 -7.04693,1.01313 -10.51322,1.72708 -2.42964,0.47905 -4.87254,1.03258 -7.38383,1.15557 0,0 -0.32992,0.19224 -0.32992,0.19224 z"
       style="stroke-width:0.0215085" />
    <path
       id="path589"
       d="m -593.42624,-572.21395 c -1.27893,-0.0873 -2.56136,-0.12232 -3.84455,-0.13969 -2.33047,0.0532 -4.63984,-0.20102 -6.94925,-0.40234 -1.92575,-0.0767 -3.77761,-0.50477 -5.62134,-0.90445 -1.51653,-0.32876 -1.70393,-0.36675 -3.20377,-0.68478 0,0 -0.55262,0.29267 -0.55262,0.29267 v 0 c 1.96217,0.41431 1.20581,0.25124 3.20019,0.68617 1.84374,0.40205 3.69724,0.83552 5.62362,0.91362 2.30751,0.20145 4.61426,0.46281 6.94297,0.41194 1.27709,0.0198 2.55426,0.0521 3.82677,0.14317 0,0 0.57798,-0.31651 0.57798,-0.31651 z"
       style="stroke-width:0.036687" />
    <g
       inkscape:label="Actor"
       id="actor"
       transform="matrix(0.1783198,0,0,0.16210891,-736.7917,-617.23993)">
      <path
         style="fill:#000000;fill-opacity:1;fill-rule:nonzero;stroke:none;stroke-width:0.264583"
         id="path20"
         d="m 94.241688,52.760387 c -0.391602,-0.318344 -1.390992,-1.154472 -1.721718,-1.270526 -2.336758,-0.819997 -7.073255,-1.524429 -9.237506,-1.817085 -5.048086,-0.682611 -7.362524,-0.78991 -12.433213,-1.183584 -4.51762,-0.144894 -9.079394,-0.8343 -13.578898,-0.02861 -0.991238,0.177493 -2.026671,0.321003 -2.913885,0.797351 -1.927805,1.035044 -3.80509,2.221992 -5.432965,3.6841 -0.830323,0.745771 -1.204717,1.879121 -1.807075,2.818683 -1.481839,2.754154 -2.19569,5.714971 -2.38198,8.818973 -0.05099,0.849569 -0.09061,1.705655 -0.01357,2.553263 0.198006,2.178728 0.77408,3.811884 1.370898,5.911588 0.399685,1.039262 0.712036,2.116474 1.199052,3.117787 0.59521,1.223756 1.308839,2.388409 2.037914,3.537455 0.767699,1.209916 1.56682,2.403737 2.448507,3.533288 2.632985,3.373181 5.779444,6.275261 8.902602,9.176642 0.817065,0.710218 1.576853,1.492273 2.451195,2.130657 1.031473,0.75311 2.137341,1.401985 3.248806,2.031082 3.429899,1.941357 7.154439,3.538129 11.017342,4.380029 1.476311,0.32175 2.985077,0.47053 4.477615,0.7058 4.546341,0.36891 4.313698,0.41332 8.740902,0.53489 2.704341,0.0743 4.192199,0.10471 6.849594,-0.13248 2.543855,-0.22705 2.927315,-0.38234 5.347405,-0.9001 4.62081,-2.23099 8.90453,-4.651914 11.82287,-8.965289 1.29139,-1.908699 1.23131,-2.141781 2.01225,-4.272878 0.46168,-2.415225 0.54058,-4.9135 0.0166,-7.331223 -0.59065,-2.725597 -1.7816,-5.444799 -2.83261,-8.019494 -0.33828,-0.73996 -0.64313,-1.496132 -1.01482,-2.219886 -0.40371,-0.786122 -0.86166,-1.543344 -1.30916,-2.305394 -1.66753,-2.839667 -3.53542,-5.52469 -5.46648,-8.188642 -1.45784,-1.896711 -2.97962,-3.743434 -4.55038,-5.547466 -0.25697,-0.29513 -0.50236,-0.601067 -0.77475,-0.882034 -0.28883,-0.297931 -0.60465,-0.568454 -0.906968,-0.852683 -1.602618,-1.501545 -3.456344,-2.644188 -5.428022,-3.586914 -1.773745,-0.884034 -3.699793,-1.300078 -5.634733,-1.646467 0,0 -3.134434,2.197965 -3.134434,2.197965 v 0 c 1.913305,0.305178 3.81187,0.699084 5.563208,1.566 1.939362,0.927541 3.800954,2.001321 5.386292,3.473553 2.320256,2.178468 4.359537,4.651708 6.342477,7.1346 2.93383,3.982982 5.7937,8.062564 7.8,12.608611 1.73494,4.150095 3.42389,8.163808 3.02956,12.77608 -0.0679,0.794623 -0.26064,1.573602 -0.39096,2.360404 -0.27508,0.71365 -0.49154,1.452766 -0.82526,2.140952 -0.65895,1.358871 -1.78015,2.949983 -2.79496,4.045678 -0.63313,0.683588 -1.48196,1.163706 -2.04342,1.907283 -0.11739,0.155477 0.74249,-0.08748 0.5839,0.02567 -0.79717,0.568727 -1.72172,0.9335 -2.58257,1.400252 -2.41206,0.561035 -2.85868,0.738886 -5.40021,1.008914 -5.192759,0.551708 -10.516546,0.198768 -15.702022,-0.229195 -1.464922,-0.238107 -2.945318,-0.395259 -4.394761,-0.714322 -4.975918,-1.095349 -9.96197,-3.368202 -14.085097,-6.355837 -0.880837,-0.63826 -1.679852,-1.382419 -2.51978,-2.073629 -2.24994,-1.998068 -3.876974,-3.353941 -5.955461,-5.592662 -2.91964,-3.144719 -5.479341,-6.643881 -7.284736,-10.553745 -0.462844,-1.002358 -0.772522,-2.068573 -1.158785,-3.102859 -0.642901,-2.397045 -1.039466,-3.422155 -1.23974,-5.871731 -0.215722,-2.638536 0.16714,-5.71804 1.050483,-8.205578 0.357886,-1.007822 0.87955,-1.949755 1.319324,-2.924633 0.627674,-0.911894 1.4508,-1.716508 1.883024,-2.735678 0.08683,-0.204753 -0.831898,-0.118994 -0.631481,-0.215416 0.930288,-0.447564 1.951011,-0.695177 2.961682,-0.90565 4.570516,-0.951809 9.248341,-0.368154 13.859819,-0.253759 5.0296,0.383961 7.328525,0.460282 12.309483,1.234191 1.743274,0.270859 3.481036,0.590545 5.198023,0.995905 2.808211,0.662982 3.28635,0.668732 4.969568,2.350275 0,0 3.381965,-2.07247 3.381965,-2.07247 z" />
      <path
         style="fill:#000000;fill-opacity:1;fill-rule:nonzero;stroke:none;stroke-width:0.264583"
         id="path22"
         d="m 76.103767,103.58108 c 0.210476,1.18025 0.213352,1.25316 0.497803,2.55338 0.247941,1.13334 0.520745,2.26122 0.760609,3.39629 0.612539,2.89865 1.235162,6.25003 1.822971,9.14177 0.348834,1.7161 0.715415,3.42854 1.073121,5.14281 1.348512,6.77222 3.0032,13.47845 4.384773,20.24336 0.875532,4.28709 0.866563,4.41603 1.578289,8.55087 1.107549,6.50099 1.165646,13.11401 1.03205,19.68855 -0.02761,3.18474 -0.46414,6.34804 -0.906989,9.49656 -0.189854,1.52236 -0.441727,3.0377 -0.585121,4.56558 -0.118144,1.92291 -0.06692,3.85215 -0.055,5.77742 -0.01437,1.98704 0.04948,3.97773 7.94e-4,5.9645 -0.01254,0.51092 -0.125603,2.29405 -0.155784,2.79077 -0.07796,1.30688 -0.165156,2.61317 -0.252418,3.91945 0,0 3.420721,-1.71867 3.420721,-1.71867 v 0 c 0.06005,-1.30016 0.124069,-2.60017 0.215233,-3.89861 0.0595,-0.95095 0.12663,-1.85945 0.145905,-2.81209 0.04022,-1.98773 -0.06071,-3.97737 0.0034,-5.96518 0.02294,-1.9339 0.0326,-3.87137 0.180544,-5.80064 0.147428,-1.50597 0.359616,-3.0047 0.503065,-4.51121 0.362352,-3.14456 0.836158,-6.29685 0.750128,-9.47023 -0.06421,-3.98202 -0.150174,-7.96627 -0.42105,-11.94073 -0.08997,-1.32012 -0.16992,-2.64212 -0.323897,-3.95631 -0.145796,-1.24435 -0.383228,-2.47626 -0.574842,-3.71438 -0.666509,-3.4315 -0.952031,-4.99222 -1.710002,-8.49319 -1.459661,-6.74201 -3.044142,-13.45755 -4.422857,-20.21732 -0.9398,-4.79081 -1.909609,-9.57948 -2.652318,-14.40619 -0.181409,-1.17895 -0.313814,-2.36496 -0.483142,-3.5457 -0.38171,-2.6617 -0.128405,-0.42096 -0.354674,-2.59819 0,0 -3.471209,1.81733 -3.471209,1.81733 z" />
      <path
         style="fill:#000000;fill-opacity:1;fill-rule:nonzero;stroke:none;stroke-width:0.264583"
         id="path24"
         d="m 82.996504,207.18392 c -0.267956,0.23537 -0.532225,0.475 -0.803872,0.7061 -1.776611,1.51141 -0.50268,0.3832 -2.653012,2.14303 -2.322287,1.90055 -4.602885,3.85366 -6.874753,5.81374 -5.830755,5.13601 -11.888915,9.99651 -18.010838,14.77769 -2.223995,1.80588 -4.588047,3.43119 -6.819903,5.22687 -0.839155,0.67516 -1.651511,1.38299 -2.481723,2.06911 -0.314542,0.2481 -0.629084,0.49619 -0.943626,0.74429 0,0 3.548306,-1.42452 3.548306,-1.42452 v 0 c 0.299913,-0.24482 0.599827,-0.48965 0.89974,-0.73447 0.319891,-0.26942 2.181775,-1.83952 2.416868,-2.02855 2.197528,-1.76695 4.519623,-3.37495 6.689026,-5.17798 6.041403,-4.8194 12.045543,-9.68445 17.889583,-14.74324 2.881413,-2.43023 5.791165,-4.81415 8.740272,-7.16067 0.638325,-0.5079 1.397143,-1.14907 2.033719,-1.68236 0,0 -3.629787,1.47096 -3.629787,1.47096 z" />
      <path
         style="fill:#000000;fill-opacity:1;fill-rule:nonzero;stroke:none;stroke-width:0.264583"
         id="path26"
         d="m 85.917557,206.60792 c 3.665194,4.77033 7.243599,9.64237 11.348128,14.05314 0.936699,1.00658 1.935816,1.95322 2.903725,2.92983 0.97086,0.84103 1.92911,1.69685 2.9126,2.52308 1.91668,1.61023 3.89568,3.14499 5.82443,4.74075 2.87337,2.37732 5.7237,4.78145 8.6058,7.14847 2.18487,1.82649 4.37389,3.64857 6.597,5.42842 0,0 3.19616,-2.01773 3.19616,-2.01773 v 0 c -2.32615,-1.69345 -4.59658,-3.46189 -6.83709,-5.26706 -2.51443,-1.96751 -3.02196,-2.33897 -5.57873,-4.45416 -2.08366,-1.72379 -4.09865,-3.52976 -6.18967,-5.24462 -0.89308,-0.73242 -1.83305,-1.40626 -2.7285,-2.13578 -0.99281,-0.80884 -1.95686,-1.65234 -2.9353,-2.47852 -0.97629,-0.96335 -1.98496,-1.89496 -2.92888,-2.89005 -4.116779,-4.33996 -7.782523,-9.14704 -10.782937,-14.32228 0,0 -3.406736,1.98651 -3.406736,1.98651 z" />
      <path
         style="fill:#000000;fill-opacity:1;fill-rule:nonzero;stroke:none;stroke-width:0.264583"
         id="path28"
         d="m 42.0547,137.72493 c 9.361363,-0.24284 18.727499,-0.26895 28.091611,-0.25935 8.670026,-0.10817 17.34226,-0.12818 26.011277,-0.30631 3.994342,-0.0659 7.969822,-0.47893 11.959122,-0.65987 3.57813,-0.13795 7.15137,-0.36722 10.72494,-0.58886 0,0 2.98386,-2.1984 2.98386,-2.1984 v 0 c -3.57822,0.25495 -7.15906,0.49798 -10.74481,0.61525 -0.88945,0.0323 -3.13596,0.10637 -4.06294,0.1678 -2.65865,0.1762 -5.30684,0.54152 -7.976242,0.55572 -8.810239,0.3385 -17.627145,0.52476 -26.442892,0.63296 -9.126067,0.009 -18.254596,-0.009 -27.377678,-0.25935 0,0 -3.166248,2.30041 -3.166248,2.30041 z" />
      <path
         style="fill:#000000;fill-opacity:1;fill-rule:nonzero;stroke:none;stroke-width:0.264583"
         id="path30"
         d="m 42.231577,135.7964 c -1.810623,0.72743 -2.517611,0.99355 -4.446111,1.86569 -1.071044,0.48437 -2.165456,0.92608 -3.192598,1.49768 -2.603,1.44856 -5.154843,2.98887 -7.687551,4.5571 -2.43244,1.50614 -9.069153,6.00219 -11.392245,7.56434 -6.1433585,4.06379 -12.3655331,8.00666 -18.6476587,11.8518 0,0 3.1445553,-1.21768 3.1445553,-1.21768 v 0 c 6.1268653,-3.81367 12.1937834,-7.7226 18.2175474,-11.69723 5.960395,-3.99584 5.56538,-3.7798 11.585839,-7.6227 0.683438,-0.43624 1.351291,-0.90172 2.068836,-1.27924 2.324256,-1.22287 4.797136,-2.17276 7.246143,-3.10886 0,0 3.103243,-2.4109 3.103243,-2.4109 z" />
      <path
         style="fill:#000000;fill-opacity:1;fill-rule:nonzero;stroke:none;stroke-width:0.264583"
         id="path32"
         d="m 119.52312,137.24939 c 0.16763,0.49628 0.28128,1.0142 0.50288,1.48884 1.55026,3.32034 3.84494,6.18586 6.24779,8.9187 1.65349,1.88056 4.74269,5.10822 6.47089,6.93256 2.98111,3.03706 5.83926,6.20059 8.88202,9.17743 2.41967,2.36724 4.97155,4.59734 7.52917,6.81246 3.74346,3.2115 7.37436,6.54973 11.21578,9.6452 0.53911,0.39296 1.07822,0.78591 1.61733,1.17886 0,0 3.11689,-1.98381 3.11689,-1.98381 v 0 c -0.5514,-0.37756 -1.10279,-0.75511 -1.65419,-1.13267 -1.84349,-1.42299 -2.08674,-1.56865 -3.90437,-3.15611 -2.45781,-2.14657 -4.7464,-4.48662 -7.37318,-6.43727 -2.0231,-1.64824 -2.81211,-2.25425 -4.827,-4.06435 -4.13333,-3.71321 -7.92413,-7.77556 -11.80922,-11.74149 -2.27464,-2.3903 -4.27232,-4.42163 -6.40936,-6.94107 -2.33338,-2.75092 -4.5065,-5.61237 -5.79977,-9.01301 -0.18459,-0.48539 -0.25734,-1.00621 -0.38601,-1.50931 0,0 -3.41965,1.82504 -3.41965,1.82504 z" />
    </g>
    <use
       xlink:href="#actor"
       x="142"
       y="124"
       id="use43"
       width="100%"
       height="100%"
       transform="translate(-4.2803604,-108.24943)" />
    <use
       xlink:href="#actor"
       x="142"
       y="124"
       id="use43-3"
       width="100%"
       height="100%"
       transform="translate(-141.83778,-83.506747)" />
  </g>
</svg>
