<?xml version="1.0" encoding="UTF-8" standalone="no"?>
<svg
   xmlns:dc="http://purl.org/dc/elements/1.1/"
   xmlns:cc="http://creativecommons.org/ns#"
   xmlns:rdf="http://www.w3.org/1999/02/22-rdf-syntax-ns#"
   xmlns:svg="http://www.w3.org/2000/svg"
   xmlns="http://www.w3.org/2000/svg"
   xmlns:xlink="http://www.w3.org/1999/xlink"
   xmlns:sodipodi="http://sodipodi.sourceforge.net/DTD/sodipodi-0.dtd"
   xmlns:inkscape="http://www.inkscape.org/namespaces/inkscape"
   width="768"
   height="576"
   version="1.1"
   id="svg876"
   inkscape:version="1.0.2 (e86c870879, 2021-01-15)"
   sodipodi:docname="sbpm-workflow.svg">
  <defs
     id="defs870" />
  <sodipodi:namedview
     id="base"
     pagecolor="#ffffff"
     bordercolor="#666666"
     borderopacity="1.0"
     inkscape:pageopacity="0.0"
     inkscape:pageshadow="2"
     inkscape:zoom="1.979899"
     inkscape:cx="238.4755"
     inkscape:cy="240.35725"
     inkscape:document-units="px"
     inkscape:current-layer="layer1"
     inkscape:document-rotation="0"
     showgrid="false"
     units="px"
     inkscape:window-width="3840"
     inkscape:window-height="2068"
     inkscape:window-x="0"
     inkscape:window-y="37"
     inkscape:window-maximized="1" />
  <metadata
     id="metadata873">
    <rdf:RDF>
      <cc:Work
         rdf:about="">
        <dc:format>image/svg+xml</dc:format>
        <dc:type
           rdf:resource="http://purl.org/dc/dcmitype/StillImage" />
        <dc:title>SBPM Workflow</dc:title>
        <dc:creator>
          <cc:Agent>
            <dc:title>Stefan Sedelmaier</dc:title>
          </cc:Agent>
        </dc:creator>
      </cc:Work>
    </rdf:RDF>
  </metadata>
  <g
     inkscape:label="Layer 1"
     inkscape:groupmode="layer"
     id="layer1">
    <text
       xml:space="preserve"
       style="font-style:normal;font-variant:normal;font-weight:normal;font-stretch:normal;font-size:26px;line-height:1.25;font-family:sans-serif;-inkscape-font-specification:'sans-serif, Normal';;fill:#1c0c5b"
       x="371"
       y="134"
       id="text2087"><tspan>OpenSBPM</tspan></text>

         <text
       xml:space="preserve"
       style="font-style:normal;font-variant:normal;font-weight:normal;font-stretch:normal;font-size:18px;line-height:1.25;font-family:sans-serif;-inkscape-font-specification:'sans-serif, Normal';;fill:#1c0c5b"
       x="19.163881"
       y="257.17596"
       id="text369"
       ><tspan>Mitarbeiter</tspan></text>
    <text
       xml:space="preserve"
       style="font-style:normal;font-variant:normal;font-weight:normal;font-stretch:normal;font-size:18px;line-height:1.25;font-family:sans-serif;-inkscape-font-specification:'sans-serif, Normal';;fill:#1c0c5b"
       x="626.75378"
       y="361.71747"
       id="text373"><tspan>Vorgesetzter</tspan></text>
    <text
       xml:space="preserve"
       style="font-style:normal;font-variant:normal;font-weight:normal;font-stretch:normal;font-size:18px;line-height:1.25;font-family:sans-serif;-inkscape-font-specification:'sans-serif, Normal';;fill:#1c0c5b"
       x="203.98338"
       y="175.55054"
       id="text381"><tspan>Antrag ausfüllen</tspan></text>
    <text
       xml:space="preserve"
       style="font-style:normal;font-variant:normal;font-weight:normal;font-stretch:normal;font-size:18px;line-height:1.25;font-family:sans-serif;-inkscape-font-specification:'sans-serif, Normal';;fill:#1c0c5b"
       x="378.91312"
       y="261.45438"
       id="text385"><tspan
         >Antrag prüfen</tspan></text>
    <path
       id="path420"
       d="m 321.9528,321.95349 c -1.07865,-0.45214 -4.13999,-1.75473 -5.06646,-2.01799 -7.77206,-2.20748 -15.80653,-2.64732 -23.69688,-3.21812 -2.45422,-0.10009 -4.90839,-0.38671 -7.36224,-0.27985 -9.49397,0.41227 -19.05486,3.38648 -27.88389,8.28028 -1.90184,1.05412 -3.74084,2.32161 -5.61101,3.48251 -5.99234,3.87567 -11.31827,9.41098 -16.38847,15.28041 -2.85701,3.30736 -5.01437,5.90302 -7.47896,9.75913 -1.00299,1.5691 -1.88662,3.28185 -2.83005,4.92272 -2.36499,4.62236 -3.79346,9.89885 -4.88731,15.33802 -0.28643,1.41485 -0.61572,2.82757 -0.74201,4.28781 -0.31569,3.61823 0.0434,5.56556 0.43932,9.10388 0.33826,1.36771 0.55191,2.8081 1.01289,4.10245 1.93973,5.45639 5.83377,9.98666 9.8952,11.98712 1.64729,0.81105 3.36912,1.28249 5.05376,1.92536 5.29437,1.36785 8.4884,2.39955 14.03876,2.85837 3.72609,0.30736 7.46228,0.29343 11.19468,0.3213 12.98616,0.10033 25.91748,-1.05189 38.87515,-2.10963 18.4064,-1.87305 36.77546,-4.34418 55.20857,-5.66155 5.91255,-0.59438 11.85882,-0.23251 17.76001,-1.06526 3.54274,-0.49803 3.57404,-0.63806 7.06727,-1.64177 1.33468,-0.5523 4.63315,-1.81177 5.95849,-2.73395 1.54357,-1.07294 3.01763,-2.3403 4.476,-3.62825 0.86792,-0.76634 1.72325,-1.57695 2.49391,-2.52651 1.82713,-2.25113 2.46922,-3.82595 3.85924,-6.54756 1.20793,-4.0171 2.34614,-8.45833 2.25216,-12.91482 -0.10958,-5.39127 -1.50205,-10.33942 -2.96238,-15.21709 -3.15795,-6.3615 -7.22559,-11.88508 -11.80776,-16.2115 -2.65778,-2.5091 -3.8792,-3.12393 -6.73302,-4.9909 -6.79636,-3.88563 -13.96709,-6.34357 -21.13581,-8.42941 -6.87954,-1.98057 -13.8856,-2.49766 -20.88385,-2.78085 -7.00306,-0.15961 -13.98732,-0.79034 -20.92185,-2.17936 -4.17913,-1.19956 -8.41333,-1.80392 -12.64667,-2.46855 0,0 -1.55921,1.55865 -1.55921,1.55865 v 0 c 4.20658,0.70423 8.41739,1.3502 12.57431,2.53146 6.93983,1.41353 13.93272,2.00457 20.94158,2.19913 6.99344,0.27611 13.99629,0.77463 20.87406,2.73046 7.15853,2.07259 14.31088,4.53987 21.10585,8.38086 2.86333,1.85253 4.04947,2.43381 6.71555,4.93562 4.56264,4.28144 8.62117,9.75513 11.74737,16.09202 1.46992,4.89652 2.81299,9.67642 2.90135,15.10193 0.0823,4.42729 -1.04691,8.82043 -2.29919,12.78367 -0.5747,1.10874 -1.09407,2.27598 -1.72286,3.3233 -3.4523,5.74831 -6.63225,7.38864 -11.64658,9.30258 -3.45847,1.01215 -3.54689,1.16922 -7.05954,1.67713 -5.91912,0.85755 -11.8881,0.50412 -17.81874,1.13422 -18.48569,1.36056 -36.903,3.91093 -55.36209,5.81857 -12.93595,1.0663 -25.8509,2.20658 -38.8164,2.07352 -3.7041,-0.0239 -7.41191,-0.0279 -11.10897,-0.37824 -5.53157,-0.48282 -8.68749,-1.50926 -13.96159,-2.8852 -1.6646,-0.64017 -3.3648,-1.11949 -4.99367,-1.92301 -4.02386,-1.98365 -7.88182,-6.38442 -9.80388,-11.80493 -0.45398,-1.27958 -0.66564,-2.70242 -0.99866,-4.05373 -0.37558,-3.59199 -0.73451,-5.33848 -0.40585,-9.00781 0.13029,-1.45001 0.4518,-2.85465 0.73533,-4.26088 1.08854,-5.412 2.53296,-10.64365 4.89688,-15.23002 0.94262,-1.63051 1.82585,-3.33221 2.82706,-4.89124 3.62081,-5.63797 7.91888,-10.32254 12.16973,-14.95706 1.15161,-1.25553 2.25495,-2.61445 3.49121,-3.69738 1.57229,-1.37674 3.27265,-2.43981 4.90892,-3.65999 1.87035,-1.17051 3.70901,-2.44644 5.61102,-3.50929 8.81611,-4.92485 18.3697,-7.95067 27.86081,-8.3771 2.45315,-0.10985 4.90705,0.18358 7.36046,0.27384 7.84793,0.59589 15.84512,1.02981 23.57042,3.27162 1.01941,0.29486 3.86978,1.5463 5.01793,2.03843 0,0 1.69869,-1.61742 1.69869,-1.61742 z"
       style="fill:#000000;fill-opacity:1;stroke:#000000;stroke-width:1;stroke-linejoin:bevel;stroke-miterlimit:4;stroke-dasharray:none;stroke-opacity:1" />
    <path
       id="path420-7"
       d="m 273.2025,140.47307 c -1.01918,-0.45214 -3.9084,-1.75481 -4.7833,-2.01806 -7.33732,-2.20748 -14.92267,-2.64731 -22.37181,-3.21804 -2.31696,-0.10009 -4.63406,-0.38743 -6.9508,-0.27989 -8.96308,0.41228 -17.98936,3.38651 -26.32474,8.28021 -1.79569,1.05421 -3.53162,2.32171 -5.29754,3.48258 -5.65709,3.87562 -10.68527,9.41093 -15.47212,15.28044 -2.6971,3.30728 -4.73385,5.9029 -7.06073,9.75902 -0.94642,1.56913 -1.78114,3.28187 -2.67163,4.92275 -2.23292,4.62233 -3.58153,9.89883 -4.61416,15.33799 -0.26818,1.41487 -0.58159,2.82759 -0.70305,4.28782 -0.29763,3.61824 0.067,5.56555 0.41569,9.1039 0.31923,1.36778 0.52151,2.80809 0.95637,4.10245 1.83115,5.45638 5.50754,9.98669 9.34175,11.98713 1.55546,0.81105 3.18098,1.28367 4.7714,1.92535 4.99828,1.36794 8.01373,2.39956 13.25394,2.85843 3.51757,0.30772 7.04507,0.29347 10.56839,0.32122 12.26038,0.10009 24.4688,-1.05187 36.70179,-2.10977 17.37754,-1.87322 34.71957,-4.34409 52.12205,-5.6614 5.58182,-0.59287 11.19583,-0.23323 16.76692,-1.06639 3.34473,-0.49956 3.37431,-0.63953 6.67229,-1.64171 1.26017,-0.5515 4.37415,-1.81168 5.62551,-2.73391 1.45709,-1.074 2.8487,-2.34035 4.22583,-3.62825 0.81837,-0.76718 1.62654,-1.57701 2.35421,-2.52656 1.72504,-2.25111 2.33123,-3.82594 3.64358,-6.54761 1.14027,-4.01704 2.21487,-8.45813 2.12629,-12.91464 -0.10704,-5.39137 -1.41819,-10.3397 -2.79679,-15.21722 -2.98153,-6.36147 -6.82174,-11.88489 -11.14764,-16.21133 -2.50927,-2.50925 -3.66218,-3.12408 -6.35669,-4.99074 -6.41629,-3.88607 -13.18617,-6.34388 -19.95418,-8.42963 -6.49475,-1.98065 -13.10917,-2.49744 -19.71608,-2.78086 -6.61155,-0.16021 -13.20524,-0.79034 -19.75217,-2.17927 -3.9455,-1.19956 -7.943,-1.80415 -11.93949,-2.46886 0,0 -1.47216,1.5588 -1.47216,1.5588 v 0 c 3.97141,0.70423 7.94688,1.35018 11.87141,2.53154 6.55169,1.41344 13.15345,2.00449 19.77058,2.19905 6.60261,0.27611 13.21386,0.77463 19.70713,2.73038 6.7582,2.07266 13.51068,4.53994 19.92578,8.3811 2.70313,1.85214 3.82301,2.43364 6.34007,4.93546 4.30754,4.28135 8.13922,9.75519 11.09076,16.09206 1.3877,4.89656 2.65552,9.67644 2.73903,15.10189 0.0734,4.42718 -0.9882,8.82033 -2.17072,12.78368 -0.54257,1.10873 -1.03272,2.27602 -1.62659,3.32329 -3.25908,5.74845 -6.26128,7.38867 -10.99539,9.30251 -3.26517,1.01222 -3.3485,1.16931 -6.66494,1.67738 -5.58813,0.85755 -11.22325,0.50409 -16.82242,1.13418 -17.45228,1.36042 -34.8398,3.91082 -52.26682,5.81843 -12.21266,1.06614 -24.40553,2.20658 -36.64625,2.07355 -3.49672,-0.0227 -6.99759,-0.0299 -10.48785,-0.37847 -5.22232,-0.48303 -8.20185,-1.5093 -13.18105,-2.88527 -1.57157,-0.64029 -3.1767,-1.11953 -4.71435,-1.92304 -3.79895,-1.98351 -7.44122,-6.38433 -9.25572,-11.80468 -0.42823,-1.27962 -0.62765,-2.70262 -0.94257,-4.05394 -0.35511,-3.59203 -0.69336,-5.33841 -0.38236,-9.00772 0.12241,-1.45009 0.42736,-2.85474 0.69486,-4.26082 1.02796,-5.4123 2.39133,-10.64381 4.62322,-15.23018 0.88983,-1.6305 1.72357,-3.33217 2.66895,-4.89121 3.41827,-5.63808 7.47604,-10.32241 11.48937,-14.95706 1.08717,-1.25547 2.12875,-2.61443 3.29582,-3.6973 1.4844,-1.37682 3.08967,-2.43998 4.63458,-3.66007 1.76578,-1.17052 3.50152,-2.44651 5.29733,-3.5093 8.32331,-4.92476 17.34262,-7.95067 26.30323,-8.37717 2.31575,-0.12104 4.63251,0.18278 6.94887,0.2738 7.40908,0.5974 14.95899,1.02982 22.25262,3.27162 0.96315,0.29338 3.65339,1.54633 4.73727,2.03843 0,0 1.6038,-1.61726 1.6038,-1.61726 z"
       style="fill:#000000;fill-opacity:1;stroke:#000000;stroke-width:1;stroke-linejoin:bevel;stroke-miterlimit:4;stroke-dasharray:none;stroke-opacity:1" />
    
    <text
       xml:space="preserve"
       style="font-style:normal;font-variant:normal;font-weight:normal;font-stretch:normal;font-size:18px;line-height:1.25;font-family:sans-serif;-inkscape-font-specification:'sans-serif, Normal';;fill:#1c0c5b"
       x="237.42065"
       y="359.34375"
       id="text381-5"
       ><tspan>Konto aktualisieren</tspan></text>
    <path
       id="path420-7-5"
       d="m 458.92708,211.32492 c -1.18228,-0.45214 -4.53459,-1.75471 -5.54969,-2.01796 -8.513,-2.20764 -17.31376,-2.6474 -25.95665,-3.2182 -2.68804,-0.10009 -5.37662,-0.38671 -8.06434,-0.27989 -10.39921,0.41227 -20.87202,3.38658 -30.54306,8.28014 -2.0833,1.05412 -4.09748,2.3217 -6.14635,3.48259 -6.56338,3.8756 -12.3973,9.41098 -17.9513,15.28049 -3.12935,3.30713 -5.49242,5.90299 -8.1921,9.75889 -1.09855,1.56926 -2.06645,3.28208 -3.09972,4.92281 -2.59084,4.62241 -4.15543,9.89884 -5.35359,15.33815 -0.31186,1.41473 -0.67336,2.8275 -0.81394,4.28774 -0.34509,3.61824 0.0761,5.56563 0.48139,9.10381 0.36817,1.36787 0.60461,2.80803 1.10912,4.10253 2.12477,5.45639 6.39004,9.9867 10.8388,11.9873 1.80454,0.81102 3.69051,1.28216 5.53588,1.92519 5.79922,1.36785 9.29775,2.39942 15.37766,2.85851 4.08119,0.30772 8.17387,0.29339 12.26212,0.3205 14.22468,0.1001 28.38926,-1.05202 42.58243,-2.10968 20.16199,-1.87322 40.28288,-4.34417 60.47385,-5.66163 6.47641,-0.59287 12.98991,-0.23247 19.45365,-1.06519 3.88049,-0.49805 3.9148,-0.63802 7.74136,-1.64187 1.46204,-0.55226 5.07501,-1.81174 6.52707,-2.73399 1.69029,-1.07286 3.30509,-2.34011 4.90264,-3.62822 0.95032,-0.76387 1.88731,-1.57671 2.73164,-2.52657 2.00133,-2.25121 2.70468,-3.82588 4.22725,-6.54738 1.32313,-4.01721 2.56987,-8.45844 2.46707,-12.91503 -0.12401,-5.39122 -1.64536,-10.33925 -3.24503,-15.21691 -3.45924,-6.36164 -7.91451,-11.88521 -12.93379,-16.21148 -2.91106,-2.50918 -4.24913,-3.12409 -7.37538,-4.99098 -7.44416,-3.88555 -15.29897,-6.34364 -23.15139,-8.42939 -7.53558,-1.98066 -15.20967,-2.49776 -22.87522,-2.78101 -7.67101,-0.1618 -15.32136,-0.79036 -22.91734,-2.17914 -4.5776,-1.19948 -9.21561,-1.80407 -13.85272,-2.46855 0,0 -1.70788,1.55859 -1.70788,1.55859 v 0 c 4.60775,0.70347 9.22025,1.35033 13.77363,2.53138 7.60152,1.41351 15.26115,2.0048 22.93848,2.19905 7.66048,0.27611 15.33118,0.77463 22.86504,2.73067 7.84116,2.07253 15.67564,4.53995 23.1186,8.38087 3.13635,1.85239 4.43554,2.43366 7.35599,4.93546 4.99768,4.28143 9.44336,9.75521 12.86774,16.09208 1.61003,4.89648 3.08128,9.67643 3.17807,15.10197 0.0838,4.42716 -1.14648,8.82047 -2.51859,12.7838 -0.62922,1.1086 -1.19831,2.27596 -1.88715,3.32309 -3.78156,5.74838 -7.26459,7.38873 -12.75714,9.30266 -3.78846,1.01229 -3.88525,1.16923 -7.7331,1.67707 -6.48366,0.85762 -13.02177,0.50409 -19.51779,1.13426 -20.24892,1.36056 -40.4225,3.91098 -60.64209,5.81858 -14.1695,1.06622 -28.31614,2.20671 -42.51828,2.07364 -4.05718,-0.0227 -8.11881,-0.0299 -12.16835,-0.37847 -6.05906,-0.48303 -9.51611,-1.50922 -15.29305,-2.88522 -1.82322,-0.64021 -3.68566,-1.11964 -5.46985,-1.92311 -4.40765,-1.98365 -8.63348,-6.38426 -10.73869,-11.8049 -0.49758,-1.27953 -0.72923,-2.70231 -1.09321,-4.05363 -0.41107,-3.59197 -0.80383,-5.33878 -0.44337,-9.0081 0.14258,-1.44987 0.49551,-2.85452 0.80467,-4.26074 1.19258,-5.412 2.77446,-10.64374 5.36392,-15.23009 1.03221,-1.63043 1.99993,-3.33196 3.09669,-4.89116 3.96598,-5.638 8.67393,-10.32263 13.33035,-14.95706 1.26124,-1.25545 2.46983,-2.61444 3.82403,-3.69746 1.72237,-1.37672 3.58476,-2.43973 5.37712,-3.65999 2.04864,-1.17043 4.06255,-2.44642 6.14621,-3.50906 9.65683,-4.92484 20.12152,-7.95083 30.51792,-8.37734 2.68702,-0.12103 5.37474,0.18143 8.06231,0.27392 8.59618,0.59741 17.35615,1.03005 25.81818,3.27162 1.11703,0.29498 4.23903,1.54654 5.49649,2.03843 0,0 1.86075,-1.61726 1.86075,-1.61726 z"
       style="fill:#000000;fill-opacity:1;stroke:#000000;stroke-width:1;stroke-linejoin:bevel;stroke-miterlimit:4;stroke-dasharray:none;stroke-opacity:1" />
    <text
       xml:space="preserve"
       style="font-style:normal;font-variant:normal;font-weight:normal;font-stretch:normal;font-size:18px;line-height:1.25;font-family:sans-serif;-inkscape-font-specification:'sans-serif, Normal';;fill:#1c0c5b"
       x="10.469411"
       y="560.75372"
       id="text373-2"><tspan>Reisestelle</tspan></text>
    <path
       id="path583"
       d="m 170.61012,111.44776 c 2.59377,45.13964 3.27316,90.41967 3.99984,135.65711 0.71381,50.951 0.95926,101.91017 1.01268,152.86864 0.24049,22.18966 0.17864,44.39782 0.78763,66.57856 0.34173,1.77765 0.38669,3.69469 1.02808,5.33312 4.01778,10.25043 21.69629,9.32221 27.97529,9.67416 5.6518,0.31772 11.30946,0.4296 16.96417,0.64702 41.1608,1.25816 82.33804,1.29029 123.50851,1.3411 34.87647,0.0398 69.75299,0.0916 104.6295,0.12063 16.16303,0.0159 32.32626,0.0239 48.48941,0.0159 7.47891,0.008 14.95755,-0.004 22.4363,-0.004 2.86692,0.004 10.12277,0.23729 13.21372,-0.5572 1.68616,-0.43346 3.23614,-1.48439 4.85405,-2.22676 2.00804,-2.01674 4.33746,-3.60464 6.02409,-6.05073 3.60181,-5.22395 4.9173,-17.809 5.56766,-24.3533 0.52494,-5.27998 4.01237,-46.12929 4.2065,-48.38914 4.9652,-59.70158 8.42865,-119.57746 10.95882,-179.51865 1.08916,-25.73246 1.41572,-51.49902 1.48915,-77.26338 0.0156,-7.48239 0.002,-14.96467 -0.004,-22.44677 -0.004,-2.75317 0.0788,-8.48198 -0.25114,-11.40135 -0.1556,-1.37109 -0.52974,-2.68705 -0.7948,-4.03029 -0.52217,-0.99839 -0.70437,-2.50679 -1.56589,-2.9959 -2.57144,-1.46047 -5.43714,-1.90691 -8.20734,-2.55469 -4.38664,-1.02546 -19.36454,-3.220995 -23.42968,-3.877333 -5.32542,-0.860249 -10.64595,-1.767897 -15.96887,-2.651767 -5.66886,-0.914265 -11.33776,-1.828223 -17.00662,-2.742496 -8.87142,-1.272837 -24.87468,-3.700002 -33.84523,-4.473492 -6.93408,-0.598158 -13.88287,-0.895847 -20.82842,-1.220777 -19.07849,-0.889448 -38.16962,-1.099427 -57.25825,-1.308881 -30.60313,0.481531 -60.77521,7.00399 -90.68285,14.668696 -10.28743,3.06953 -20.34297,5.71376 -30.96758,5.30907 -5.90024,-0.22423 -9.41434,-0.99943 -15.28374,-1.9726 -15.3259,-3.35047 -30.82915,-4.81223 -46.33613,-5.964013 -6.59681,-0.371623 -13.19875,-1.047573 -19.7965,-0.468694 -3.14594,0.452908 -6.26373,1.102585 -9.35127,1.98562 0,0 -2.26735,2.192277 -2.26735,2.192277 v 0 c 3.08326,-0.90123 6.19421,-1.569559 9.33786,-2.041808 6.62254,-0.610158 13.25075,-0.0084 19.87587,0.338538 15.51606,1.08175 31.02265,2.56057 46.35388,5.91676 5.96511,1.00454 9.30883,1.7633 15.30522,2.0112 5.50375,0.22877 9.8402,-0.008 15.26829,-1.09265 1.1961,-0.23853 15.68722,-4.20755 15.81077,-4.24111 29.92675,-7.782214 60.1344,-14.348394 90.77517,-14.837437 37.35762,0.283635 74.83911,0.479253 111.92087,6.968392 5.66036,0.921268 11.32087,1.841919 16.98111,2.763028 5.29542,0.910359 10.58738,1.852609 15.88596,2.73001 4.84153,0.801937 18.22379,2.739617 23.31854,3.929247 2.6871,0.62821 5.46771,1.0421 7.96708,2.44305 0.83403,0.46725 1.01981,1.9207 1.52978,2.88123 0.26323,1.31941 0.63581,2.61119 0.79074,3.95837 0.3385,2.94043 0.26752,8.58228 0.27766,11.36111 0.0156,7.47008 0.0597,14.9405 0.0655,22.41073 -0.008,25.70687 -0.29404,51.4167 -1.25961,77.09815 -2.28804,59.92501 -5.61481,119.79188 -10.84885,179.42891 -0.81734,9.0789 -1.599,18.16322 -2.45168,27.23695 -0.66907,7.12571 -1.34887,14.25082 -2.11524,21.36072 -0.59584,5.53037 -1.4271,12.51454 -3.03554,17.80243 -0.97855,3.21733 -2.51797,6.08008 -3.98001,8.9515 -1.60937,0.77379 -3.14473,1.86867 -4.828,2.32279 -3.13011,0.84489 -10.32426,0.61457 -13.24156,0.61529 -7.47517,0.004 -14.95053,-0.008 -22.42585,-0.004 -16.20172,0 -32.40348,0.008 -48.60511,0.0916 -34.95763,0.0999 -69.91505,0.13258 -104.87263,0.10949 -41.12228,-0.13378 -82.25136,-0.12064 -123.3632,-1.46373 -5.6307,-0.23331 -11.26526,-0.35116 -16.89232,-0.70136 -5.84924,-0.36231 -23.74109,0.17279 -27.56781,-9.49858 -0.63718,-1.61183 -0.68571,-3.50089 -1.02878,-5.25143 -0.69216,-22.11699 -0.70296,-44.26635 -1.0527,-66.39389 -0.16827,-50.90218 -0.44868,-101.80419 -1.28612,-152.69695 -0.69071,-45.37069 -1.39035,-90.75221 -3.35426,-136.06879 0,0 -2.54688,1.64818 -2.54688,1.64818 z"
       style="fill:#000000;fill-opacity:1;stroke:#000000;stroke-width:1;stroke-linejoin:bevel;stroke-miterlimit:4;stroke-dasharray:none;stroke-opacity:1" />
    <path
       id="path585"
       d="m 111.11836,194.5768 c 8.49703,-0.10009 16.99419,-0.0528 25.49135,-0.0528 12.02373,-0.008 24.04541,-0.63122 36.0678,-1.00785 5.41441,-0.35661 2.83915,-0.15643 7.72614,-0.58835 0,0 1.42294,-2.32801 1.42294,-2.32801 v 0 c -4.90857,0.48076 -2.32286,0.25426 -7.7573,0.65078 -12.01901,0.44391 -24.03875,1.08385 -36.05982,1.00139 -8.47052,0.008 -16.94121,0.0159 -25.41168,-0.068 0,0 -1.47943,2.39934 -1.47943,2.39934 z"
       style="fill:#000000;fill-opacity:1;stroke:#000000;stroke-width:1;stroke-linejoin:bevel;stroke-miterlimit:4;stroke-dasharray:none;stroke-opacity:1" />
    <path
       id="path587"
       d="m 116.5516,413.2168 c 10.92296,-1.05216 21.5513,-5.19019 32.12513,-8.84022 14.97077,-5.39368 30.16223,-9.45403 45.42157,-12.95786 7.17319,-1.57711 14.34046,-3.20335 21.58296,-4.04825 1.82813,-0.38357 3.96777,-0.27232 5.67318,-1.46004 1.927,-1.34144 2.18296,-0.65002 1.65526,-1.6802 -0.85609,-0.005 -1.70262,0.31238 -2.54034,0.52517 0,0 -1.41424,1.46028 -1.41424,1.46028 v 0 c 0.81769,-0.19955 1.64631,-0.39663 2.45214,-0.63801 -0.12456,-0.87927 -0.0129,0.19422 1.24926,-1.16263 0.19167,-0.20532 -0.45403,0.24019 -0.68584,0.33997 -1.62278,0.69665 -3.29594,1.08994 -4.99603,1.20496 -7.27602,0.86238 -14.47422,2.51506 -21.67878,4.12259 -15.2768,3.52274 -30.4828,7.62227 -45.47688,12.99374 -10.50986,3.6042 -21.07709,7.7687 -31.94013,8.69402 0,0 -1.42713,1.44628 -1.42713,1.44628 z"
       style="fill:#000000;fill-opacity:1;stroke:#000000;stroke-width:1;stroke-linejoin:bevel;stroke-miterlimit:4;stroke-dasharray:none;stroke-opacity:1" />
    <path
       id="path589"
       d="m 628.75689,285.37573 c -5.53226,-0.65682 -11.07964,-0.92028 -16.6303,-1.05097 -10.08088,0.40027 -20.0705,-1.51239 -30.06029,-3.02702 -8.33018,-0.57709 -16.34078,-3.79767 -24.31616,-6.8047 -6.56002,-2.47343 -7.37062,-2.75926 -13.8585,-5.15198 0,0 -2.39044,2.20192 -2.39044,2.20192 v 0 c 8.48773,3.11709 5.21594,1.89023 13.84301,5.16245 7.97542,3.02485 15.99308,6.28607 24.32603,6.87368 9.98155,1.51561 19.95979,3.48198 30.03307,3.09924 5.5243,0.14903 11.04894,0.39197 16.55339,1.07716 0,0 2.50019,-2.38128 2.50019,-2.38128 z"
       style="fill:#000000;fill-opacity:1;stroke:#000000;stroke-width:1;stroke-linejoin:bevel;stroke-miterlimit:4;stroke-dasharray:none;stroke-opacity:1;image-rendering:auto" />
    <g
       inkscape:label="Actor"
       id="actor"
       transform="matrix(0.77135539,0,0,1.2196364,8.6029845,-53.38001)"
       style="stroke-width:1.031;stroke-miterlimit:4;stroke-dasharray:none">
      <path
         style="fill:#000000;fill-opacity:1;stroke:#000000;stroke-width:1.031;stroke-linecap:butt;stroke-linejoin:bevel;stroke-miterlimit:4;stroke-dasharray:none;stroke-opacity:1"
         id="path20"
         d="m 94.241688,52.760387 c -0.391602,-0.318344 -1.390992,-1.154472 -1.721718,-1.270526 -2.336758,-0.819997 -7.073255,-1.524429 -9.237506,-1.817085 -5.048086,-0.682611 -7.362524,-0.78991 -12.433213,-1.183584 -4.51762,-0.144894 -9.079394,-0.8343 -13.578898,-0.02861 -0.991238,0.177493 -2.026671,0.321003 -2.913885,0.797351 -1.927805,1.035044 -3.80509,2.221992 -5.432965,3.6841 -0.830323,0.745771 -1.204717,1.879121 -1.807075,2.818683 -1.481839,2.754154 -2.19569,5.714971 -2.38198,8.818973 -0.05099,0.849569 -0.09061,1.705655 -0.01357,2.553263 0.198006,2.178728 0.77408,3.811884 1.370898,5.911588 0.399685,1.039262 0.712036,2.116474 1.199052,3.117787 0.59521,1.223756 1.308839,2.388409 2.037914,3.537455 0.767699,1.209916 1.56682,2.403737 2.448507,3.533288 2.632985,3.373181 5.779444,6.275261 8.902602,9.176642 0.817065,0.710218 1.576853,1.492273 2.451195,2.130657 1.031473,0.75311 2.137341,1.401985 3.248806,2.031082 3.429899,1.941357 7.154439,3.538129 11.017342,4.380029 1.476311,0.32175 2.985077,0.47053 4.477615,0.7058 4.546341,0.36891 4.313698,0.41332 8.740902,0.53489 2.704341,0.0743 4.192199,0.10471 6.849594,-0.13248 2.543855,-0.22705 2.927315,-0.38234 5.347405,-0.9001 4.62081,-2.23099 8.90453,-4.651914 11.82287,-8.965289 1.29139,-1.908699 1.23131,-2.141781 2.01225,-4.272878 0.46168,-2.415225 0.54058,-4.9135 0.0166,-7.331223 -0.59065,-2.725597 -1.7816,-5.444799 -2.83261,-8.019494 -0.33828,-0.73996 -0.64313,-1.496132 -1.01482,-2.219886 -0.40371,-0.786122 -0.86166,-1.543344 -1.30916,-2.305394 -1.66753,-2.839667 -3.53542,-5.52469 -5.46648,-8.188642 -1.45784,-1.896711 -2.97962,-3.743434 -4.55038,-5.547466 -0.25697,-0.29513 -0.50236,-0.601067 -0.77475,-0.882034 -0.28883,-0.297931 -0.60465,-0.568454 -0.906968,-0.852683 -1.602618,-1.501545 -3.456344,-2.644188 -5.428022,-3.586914 -1.773745,-0.884034 -3.699793,-1.300078 -5.634733,-1.646467 0,0 -3.134434,2.197965 -3.134434,2.197965 v 0 c 1.913305,0.305178 3.81187,0.699084 5.563208,1.566 1.939362,0.927541 3.800954,2.001321 5.386292,3.473553 2.320256,2.178468 4.359537,4.651708 6.342477,7.1346 2.93383,3.982982 5.7937,8.062564 7.8,12.608611 1.73494,4.150095 3.42389,8.163808 3.02956,12.77608 -0.0679,0.794623 -0.26064,1.573602 -0.39096,2.360404 -0.27508,0.71365 -0.49154,1.452766 -0.82526,2.140952 -0.65895,1.358871 -1.78015,2.949983 -2.79496,4.045678 -0.63313,0.683588 -1.48196,1.163706 -2.04342,1.907283 -0.11739,0.155477 0.74249,-0.08748 0.5839,0.02567 -0.79717,0.568727 -1.72172,0.9335 -2.58257,1.400252 -2.41206,0.561035 -2.85868,0.738886 -5.40021,1.008914 -5.192759,0.551708 -10.516546,0.198768 -15.702022,-0.229195 -1.464922,-0.238107 -2.945318,-0.395259 -4.394761,-0.714322 -4.975918,-1.095349 -9.96197,-3.368202 -14.085097,-6.355837 -0.880837,-0.63826 -1.679852,-1.382419 -2.51978,-2.073629 -2.24994,-1.998068 -3.876974,-3.353941 -5.955461,-5.592662 -2.91964,-3.144719 -5.479341,-6.643881 -7.284736,-10.553745 -0.462844,-1.002358 -0.772522,-2.068573 -1.158785,-3.102859 -0.642901,-2.397045 -1.039466,-3.422155 -1.23974,-5.871731 -0.215722,-2.638536 0.16714,-5.71804 1.050483,-8.205578 0.357886,-1.007822 0.87955,-1.949755 1.319324,-2.924633 0.627674,-0.911894 1.4508,-1.716508 1.883024,-2.735678 0.08683,-0.204753 -0.831898,-0.118994 -0.631481,-0.215416 0.930288,-0.447564 1.951011,-0.695177 2.961682,-0.90565 4.570516,-0.951809 9.248341,-0.368154 13.859819,-0.253759 5.0296,0.383961 7.328525,0.460282 12.309483,1.234191 1.743274,0.270859 3.481036,0.590545 5.198023,0.995905 2.808211,0.662982 3.28635,0.668732 4.969568,2.350275 0,0 3.381965,-2.07247 3.381965,-2.07247 z" />
      <path
         style="fill:#000000;fill-opacity:1;stroke:#000000;stroke-width:1.031;stroke-linecap:butt;stroke-linejoin:bevel;stroke-miterlimit:4;stroke-dasharray:none;stroke-opacity:1"
         id="path22"
         d="m 76.103767,103.58108 c 0.210476,1.18025 0.213352,1.25316 0.497803,2.55338 0.247941,1.13334 0.520745,2.26122 0.760609,3.39629 0.612539,2.89865 1.235162,6.25003 1.822971,9.14177 0.348834,1.7161 0.715415,3.42854 1.073121,5.14281 1.348512,6.77222 3.0032,13.47845 4.384773,20.24336 0.875532,4.28709 0.866563,4.41603 1.578289,8.55087 1.107549,6.50099 1.165646,13.11401 1.03205,19.68855 -0.02761,3.18474 -0.46414,6.34804 -0.906989,9.49656 -0.189854,1.52236 -0.441727,3.0377 -0.585121,4.56558 -0.118144,1.92291 -0.06692,3.85215 -0.055,5.77742 -0.01437,1.98704 0.04948,3.97773 7.94e-4,5.9645 -0.01254,0.51092 -0.125603,2.29405 -0.155784,2.79077 -0.07796,1.30688 -0.165156,2.61317 -0.252418,3.91945 0,0 3.420721,-1.71867 3.420721,-1.71867 v 0 c 0.06005,-1.30016 0.124069,-2.60017 0.215233,-3.89861 0.0595,-0.95095 0.12663,-1.85945 0.145905,-2.81209 0.04022,-1.98773 -0.06071,-3.97737 0.0034,-5.96518 0.02294,-1.9339 0.0326,-3.87137 0.180544,-5.80064 0.147428,-1.50597 0.359616,-3.0047 0.503065,-4.51121 0.362352,-3.14456 0.836158,-6.29685 0.750128,-9.47023 -0.06421,-3.98202 -0.150174,-7.96627 -0.42105,-11.94073 -0.08997,-1.32012 -0.16992,-2.64212 -0.323897,-3.95631 -0.145796,-1.24435 -0.383228,-2.47626 -0.574842,-3.71438 -0.666509,-3.4315 -0.952031,-4.99222 -1.710002,-8.49319 -1.459661,-6.74201 -3.044142,-13.45755 -4.422857,-20.21732 -0.9398,-4.79081 -1.909609,-9.57948 -2.652318,-14.40619 -0.181409,-1.17895 -0.313814,-2.36496 -0.483142,-3.5457 -0.38171,-2.6617 -0.128405,-0.42096 -0.354674,-2.59819 0,0 -3.471209,1.81733 -3.471209,1.81733 z" />
      <path
         style="fill:#000000;fill-opacity:1;stroke:#000000;stroke-width:1.031;stroke-linecap:butt;stroke-linejoin:bevel;stroke-miterlimit:4;stroke-dasharray:none;stroke-opacity:1"
         id="path24"
         d="m 82.996504,207.18392 c -0.267956,0.23537 -0.532225,0.475 -0.803872,0.7061 -1.776611,1.51141 -0.50268,0.3832 -2.653012,2.14303 -2.322287,1.90055 -4.602885,3.85366 -6.874753,5.81374 -5.830755,5.13601 -11.888915,9.99651 -18.010838,14.77769 -2.223995,1.80588 -4.588047,3.43119 -6.819903,5.22687 -0.839155,0.67516 -1.651511,1.38299 -2.481723,2.06911 -0.314542,0.2481 -0.629084,0.49619 -0.943626,0.74429 0,0 3.548306,-1.42452 3.548306,-1.42452 v 0 c 0.299913,-0.24482 0.599827,-0.48965 0.89974,-0.73447 0.319891,-0.26942 2.181775,-1.83952 2.416868,-2.02855 2.197528,-1.76695 4.519623,-3.37495 6.689026,-5.17798 6.041403,-4.8194 12.045543,-9.68445 17.889583,-14.74324 2.881413,-2.43023 5.791165,-4.81415 8.740272,-7.16067 0.638325,-0.5079 1.397143,-1.14907 2.033719,-1.68236 0,0 -3.629787,1.47096 -3.629787,1.47096 z" />
      <path
         style="fill:#000000;fill-opacity:1;stroke:#000000;stroke-width:1.031;stroke-linecap:butt;stroke-linejoin:bevel;stroke-miterlimit:4;stroke-dasharray:none;stroke-opacity:1"
         id="path26"
         d="m 85.917557,206.60792 c 3.665194,4.77033 7.243599,9.64237 11.348128,14.05314 0.936699,1.00658 1.935816,1.95322 2.903725,2.92983 0.97086,0.84103 1.92911,1.69685 2.9126,2.52308 1.91668,1.61023 3.89568,3.14499 5.82443,4.74075 2.87337,2.37732 5.7237,4.78145 8.6058,7.14847 2.18487,1.82649 4.37389,3.64857 6.597,5.42842 0,0 3.19616,-2.01773 3.19616,-2.01773 v 0 c -2.32615,-1.69345 -4.59658,-3.46189 -6.83709,-5.26706 -2.51443,-1.96751 -3.02196,-2.33897 -5.57873,-4.45416 -2.08366,-1.72379 -4.09865,-3.52976 -6.18967,-5.24462 -0.89308,-0.73242 -1.83305,-1.40626 -2.7285,-2.13578 -0.99281,-0.80884 -1.95686,-1.65234 -2.9353,-2.47852 -0.97629,-0.96335 -1.98496,-1.89496 -2.92888,-2.89005 -4.116779,-4.33996 -7.782523,-9.14704 -10.782937,-14.32228 0,0 -3.406736,1.98651 -3.406736,1.98651 z" />
      <path
         style="fill:#000000;fill-opacity:1;stroke:#000000;stroke-width:1.031;stroke-linecap:butt;stroke-linejoin:bevel;stroke-miterlimit:4;stroke-dasharray:none;stroke-opacity:1"
         id="path28"
         d="m 42.0547,137.72493 c 9.361363,-0.24284 18.727499,-0.26895 28.091611,-0.25935 8.670026,-0.10817 17.34226,-0.12818 26.011277,-0.30631 3.994342,-0.0659 7.969822,-0.47893 11.959122,-0.65987 3.57813,-0.13795 7.15137,-0.36722 10.72494,-0.58886 0,0 2.98386,-2.1984 2.98386,-2.1984 v 0 c -3.57822,0.25495 -7.15906,0.49798 -10.74481,0.61525 -0.88945,0.0323 -3.13596,0.10637 -4.06294,0.1678 -2.65865,0.1762 -5.30684,0.54152 -7.976242,0.55572 -8.810239,0.3385 -17.627145,0.52476 -26.442892,0.63296 -9.126067,0.009 -18.254596,-0.009 -27.377678,-0.25935 0,0 -3.166248,2.30041 -3.166248,2.30041 z" />
      <path
         style="fill:#000000;fill-opacity:1;stroke:#000000;stroke-width:1.031;stroke-linecap:butt;stroke-linejoin:bevel;stroke-miterlimit:4;stroke-dasharray:none;stroke-opacity:1"
         id="path30"
         d="m 42.231577,135.7964 c -1.810623,0.72743 -2.517611,0.99355 -4.446111,1.86569 -1.071044,0.48437 -2.165456,0.92608 -3.192598,1.49768 -2.603,1.44856 -5.154843,2.98887 -7.687551,4.5571 -2.43244,1.50614 -9.069153,6.00219 -11.392245,7.56434 -6.1433585,4.06379 -12.3655331,8.00666 -18.6476587,11.8518 0,0 3.1445553,-1.21768 3.1445553,-1.21768 v 0 c 6.1268653,-3.81367 12.1937834,-7.7226 18.2175474,-11.69723 5.960395,-3.99584 5.56538,-3.7798 11.585839,-7.6227 0.683438,-0.43624 1.351291,-0.90172 2.068836,-1.27924 2.324256,-1.22287 4.797136,-2.17276 7.246143,-3.10886 0,0 3.103243,-2.4109 3.103243,-2.4109 z" />
      <path
         style="fill:#000000;fill-opacity:1;stroke:#000000;stroke-width:1.031;stroke-linecap:butt;stroke-linejoin:bevel;stroke-miterlimit:4;stroke-dasharray:none;stroke-opacity:1"
         id="path32"
         d="m 119.52312,137.24939 c 0.16763,0.49628 0.28128,1.0142 0.50288,1.48884 1.55026,3.32034 3.84494,6.18586 6.24779,8.9187 1.65349,1.88056 4.74269,5.10822 6.47089,6.93256 2.98111,3.03706 5.83926,6.20059 8.88202,9.17743 2.41967,2.36724 4.97155,4.59734 7.52917,6.81246 3.74346,3.2115 7.37436,6.54973 11.21578,9.6452 0.53911,0.39296 1.07822,0.78591 1.61733,1.17886 0,0 3.11689,-1.98381 3.11689,-1.98381 v 0 c -0.5514,-0.37756 -1.10279,-0.75511 -1.65419,-1.13267 -1.84349,-1.42299 -2.08674,-1.56865 -3.90437,-3.15611 -2.45781,-2.14657 -4.7464,-4.48662 -7.37318,-6.43727 -2.0231,-1.64824 -2.81211,-2.25425 -4.827,-4.06435 -4.13333,-3.71321 -7.92413,-7.77556 -11.80922,-11.74149 -2.27464,-2.3903 -4.27232,-4.42163 -6.40936,-6.94107 -2.33338,-2.75092 -4.5065,-5.61237 -5.79977,-9.01301 -0.18459,-0.48539 -0.25734,-1.00621 -0.38601,-1.50931 0,0 -3.41965,1.82504 -3.41965,1.82504 z" />
    </g>
    <use
       xlink:href="#actor"
       x="142"
       y="124"
       id="use43"
       width="100%"
       height="100%"
       transform="translate(473.30922,-34.626331)"
       style="fill:#000000;fill-opacity:1;stroke:#000000;stroke-width:1;stroke-linejoin:bevel;stroke-miterlimit:4;stroke-dasharray:none;stroke-dashoffset:0.105833;stroke-opacity:1" />
    <use
       xlink:href="#actor"
       x="142"
       y="124"
       id="use43-3"
       width="100%"
       height="100%"
       transform="translate(-134.15671,168.62555)"
       style="fill:#000000;fill-opacity:1;stroke:#000000;stroke-width:1;stroke-linejoin:bevel;stroke-miterlimit:4;stroke-dasharray:none;stroke-dashoffset:0.105833;stroke-opacity:1" />
  </g>
</svg>
