<?xml version="1.0" encoding="UTF-8" standalone="no"?>
<svg
   xmlns:dc="http://purl.org/dc/elements/1.1/"
   xmlns:cc="http://creativecommons.org/ns#"
   xmlns:rdf="http://www.w3.org/1999/02/22-rdf-syntax-ns#"
   xmlns:svg="http://www.w3.org/2000/svg"
   xmlns="http://www.w3.org/2000/svg"
   xmlns:sodipodi="http://sodipodi.sourceforge.net/DTD/sodipodi-0.dtd"
   xmlns:inkscape="http://www.inkscape.org/namespaces/inkscape"
   width="168.24046mm"
   height="196.09039mm"
   viewBox="0 0 168.24046 196.09039"
   version="1.1"
   id="svg8"
   inkscape:version="1.0.2 (e86c870879, 2021-01-15)"
   sodipodi:docname="actor.svg">
  <defs
     id="defs2" />
  <sodipodi:namedview
     id="base"
     pagecolor="#ffffff"
     bordercolor="#666666"
     borderopacity="1.0"
     inkscape:pageopacity="0.0"
     inkscape:pageshadow="2"
     inkscape:zoom="0.49497475"
     inkscape:cx="238.40508"
     inkscape:cy="514.92852"
     inkscape:document-units="mm"
     inkscape:current-layer="layer1"
     inkscape:document-rotation="0"
     showgrid="false"
     inkscape:window-width="2114"
     inkscape:window-height="1292"
     inkscape:window-x="1083"
     inkscape:window-y="492"
     inkscape:window-maximized="0" />
  <metadata
     id="metadata5">
    <rdf:RDF>
      <cc:Work
         rdf:about="">
        <dc:format>image/svg+xml</dc:format>
        <dc:type
           rdf:resource="http://purl.org/dc/dcmitype/StillImage" />
        <dc:title />
      </cc:Work>
    </rdf:RDF>
  </metadata>
  <g
     inkscape:label="Ebene 1"
     inkscape:groupmode="layer"
     id="layer1">
    <path
       style="fill:#000000;fill-opacity:1;fill-rule:nonzero;stroke:none;stroke-width:0.264583"
       id="path20"
       d="M 97.448922,4.6518724 C 97.05732,4.3335284 96.05793,3.4974004 95.727204,3.3813464 93.390446,2.5613494 88.653949,1.8569174 86.489698,1.5642614 81.441612,0.88165037 79.127174,0.77435137 74.056485,0.38067737 c -4.51762,-0.144894 -9.079394,-0.8343 -13.578898,-0.02861 -0.991238,0.177493 -2.026671,0.321003 -2.913885,0.79735103 -1.927805,1.035044 -3.80509,2.221992 -5.432965,3.6841 -0.830323,0.745771 -1.204717,1.879121 -1.807075,2.818683 -1.481839,2.7541536 -2.19569,5.7149706 -2.38198,8.8189726 -0.05099,0.849569 -0.09061,1.705655 -0.01357,2.553263 0.198006,2.178728 0.77408,3.811884 1.370898,5.911588 0.399685,1.039262 0.712036,2.116474 1.199052,3.117787 0.59521,1.223756 1.308839,2.388409 2.037914,3.537455 0.767699,1.209916 1.56682,2.403737 2.448507,3.533288 2.632985,3.373181 5.779444,6.275261 8.902602,9.176642 0.817065,0.710218 1.576853,1.492273 2.451195,2.130657 1.031473,0.75311 2.137341,1.401985 3.248806,2.031082 3.429899,1.941357 7.154439,3.538129 11.017342,4.380029 1.476311,0.32175 2.985077,0.47053 4.477615,0.7058 4.546341,0.36891 4.313698,0.41332 8.740902,0.53489 2.704341,0.0743 4.192199,0.10471 6.849595,-0.13248 2.54385,-0.22705 2.92731,-0.38234 5.3474,-0.9001 4.62081,-2.23099 8.90453,-4.651914 11.82287,-8.965289 1.29139,-1.908699 1.23131,-2.141781 2.01225,-4.272878 0.46168,-2.415225 0.54058,-4.9135 0.0166,-7.331223 -0.59065,-2.725597 -1.7816,-5.444799 -2.83261,-8.019494 -0.33828,-0.73996 -0.64313,-1.496132 -1.01482,-2.219886 -0.40371,-0.786122 -0.86166,-1.543344 -1.30916,-2.305394 -1.66753,-2.839667 -3.53542,-5.52469 -5.46648,-8.188642 -1.45784,-1.8967106 -2.97962,-3.7434336 -4.55038,-5.5474656 -0.25697,-0.29513 -0.50236,-0.601067 -0.77475,-0.882034 -0.28883,-0.297931 -0.60465,-0.568454 -0.90696,-0.852683 -1.60262,-1.501545 -3.456348,-2.644188 -5.428026,-3.58691403 -1.773745,-0.884034 -3.699793,-1.300078 -5.634733,-1.646467 0,0 -3.134434,2.19796503 -3.134434,2.19796503 v 0 c 1.913305,0.305178 3.81187,0.699084 5.563208,1.566 1.939362,0.927541 3.800954,2.001321 5.386292,3.473553 2.320253,2.178468 4.359533,4.6517076 6.342473,7.1345996 2.93383,3.982982 5.7937,8.062564 7.8,12.608611 1.73494,4.150095 3.42389,8.163808 3.02956,12.77608 -0.0679,0.794623 -0.26064,1.573602 -0.39096,2.360404 -0.27508,0.71365 -0.49154,1.452766 -0.82526,2.140952 -0.65895,1.358871 -1.78015,2.949983 -2.79496,4.045678 -0.63313,0.683588 -1.48196,1.163706 -2.04342,1.907283 -0.11739,0.155477 0.74249,-0.08748 0.5839,0.02567 -0.79717,0.568727 -1.72172,0.9335 -2.58257,1.400252 -2.41206,0.561035 -2.85868,0.738886 -5.40021,1.008914 -5.192755,0.551708 -10.516542,0.198768 -15.702018,-0.229195 -1.464922,-0.238107 -2.945318,-0.395259 -4.394761,-0.714322 -4.975918,-1.095349 -9.96197,-3.368202 -14.085097,-6.355837 -0.880837,-0.63826 -1.679852,-1.382419 -2.51978,-2.073629 -2.24994,-1.998068 -3.876974,-3.353941 -5.955461,-5.592662 -2.91964,-3.144719 -5.479341,-6.643881 -7.284736,-10.553745 -0.462844,-1.002358 -0.772522,-2.068573 -1.158785,-3.102859 -0.642901,-2.397045 -1.039466,-3.422155 -1.23974,-5.871731 -0.215722,-2.638536 0.16714,-5.71804 1.050483,-8.2055776 0.357886,-1.007822 0.87955,-1.949755 1.319324,-2.924633 0.627674,-0.911894 1.4508,-1.716508 1.883024,-2.735678 0.08683,-0.204753 -0.831898,-0.118994 -0.631481,-0.215416 0.930288,-0.447564 1.951011,-0.695177 2.961682,-0.90565 4.570516,-0.951809 9.248341,-0.368154 13.859819,-0.253759 5.0296,0.383961 7.328525,0.460282 12.309483,1.234191 1.743274,0.270859 3.481036,0.590545 5.198023,0.995905 2.808211,0.662982 3.28635,0.668732 4.969568,2.350275 0,0 3.381965,-2.07247 3.381965,-2.07247 z" />
    <path
       style="fill:#000000;fill-opacity:1;fill-rule:nonzero;stroke:none;stroke-width:0.264583"
       id="path22"
       d="m 79.311001,55.472565 c 0.210476,1.18025 0.213352,1.25316 0.497803,2.55338 0.247941,1.13334 0.520745,2.26122 0.760609,3.39629 0.612539,2.89865 1.235162,6.25003 1.822971,9.14177 0.348834,1.7161 0.715415,3.42854 1.073121,5.14281 1.348512,6.77222 3.0032,13.47845 4.384773,20.24336 0.875532,4.287095 0.866563,4.416035 1.578289,8.550875 1.107549,6.50099 1.165646,13.11401 1.03205,19.68855 -0.02761,3.18474 -0.46414,6.34804 -0.906989,9.49656 -0.189854,1.52236 -0.441727,3.0377 -0.585121,4.56558 -0.118144,1.92291 -0.06692,3.85215 -0.055,5.77742 -0.01437,1.98704 0.04948,3.97773 7.94e-4,5.9645 -0.01254,0.51092 -0.125603,2.29405 -0.155784,2.79077 -0.07796,1.30688 -0.165156,2.61317 -0.252418,3.91945 0,0 3.420721,-1.71867 3.420721,-1.71867 v 0 c 0.06005,-1.30016 0.124069,-2.60017 0.215233,-3.89861 0.0595,-0.95095 0.12663,-1.85945 0.145905,-2.81209 0.04022,-1.98773 -0.06071,-3.97737 0.0034,-5.96518 0.02294,-1.9339 0.0326,-3.87137 0.180544,-5.80064 0.147428,-1.50597 0.359616,-3.0047 0.503065,-4.51121 0.362352,-3.14456 0.836158,-6.29685 0.750128,-9.47023 -0.06421,-3.98202 -0.150174,-7.96627 -0.42105,-11.94073 -0.08997,-1.32012 -0.16992,-2.64212 -0.323897,-3.95631 -0.145796,-1.24435 -0.383228,-2.47626 -0.574842,-3.71438 -0.666509,-3.431505 -0.952031,-4.992225 -1.710002,-8.493195 -1.459661,-6.74201 -3.044142,-13.45755 -4.422857,-20.21732 -0.9398,-4.79081 -1.909609,-9.57948 -2.652318,-14.40619 -0.181409,-1.17895 -0.313814,-2.36496 -0.483142,-3.5457 -0.38171,-2.6617 -0.128405,-0.42096 -0.354674,-2.59819 0,0 -3.471209,1.81733 -3.471209,1.81733 z" />
    <path
       style="fill:#000000;fill-opacity:1;fill-rule:nonzero;stroke:none;stroke-width:0.264583"
       id="path24"
       d="m 86.203738,159.07541 c -0.267956,0.23537 -0.532225,0.475 -0.803872,0.7061 -1.776611,1.51141 -0.50268,0.3832 -2.653012,2.14303 -2.322287,1.90055 -4.602885,3.85366 -6.874753,5.81374 -5.830755,5.13601 -11.888915,9.99651 -18.010838,14.77769 -2.223995,1.80588 -4.588047,3.43119 -6.819903,5.22687 -0.839155,0.67516 -1.651511,1.38299 -2.481723,2.06911 -0.314542,0.2481 -0.629084,0.49619 -0.943626,0.74429 0,0 3.548306,-1.42452 3.548306,-1.42452 v 0 c 0.299913,-0.24482 0.599827,-0.48965 0.89974,-0.73447 0.319891,-0.26942 2.181775,-1.83952 2.416868,-2.02855 2.197528,-1.76695 4.519623,-3.37495 6.689026,-5.17798 6.041403,-4.8194 12.045543,-9.68445 17.889583,-14.74324 2.881413,-2.43023 5.791165,-4.81415 8.740272,-7.16067 0.638325,-0.5079 1.397143,-1.14907 2.033719,-1.68236 0,0 -3.629787,1.47096 -3.629787,1.47096 z" />
    <path
       style="fill:#000000;fill-opacity:1;fill-rule:nonzero;stroke:none;stroke-width:0.264583"
       id="path26"
       d="m 89.124791,158.49941 c 3.665194,4.77033 7.243599,9.64237 11.348129,14.05314 0.9367,1.00658 1.93582,1.95322 2.90372,2.92983 0.97086,0.84103 1.92911,1.69685 2.9126,2.52308 1.91668,1.61023 3.89568,3.14499 5.82443,4.74075 2.87337,2.37732 5.7237,4.78145 8.6058,7.14847 2.18487,1.82649 4.37389,3.64857 6.597,5.42842 0,0 3.19616,-2.01773 3.19616,-2.01773 v 0 c -2.32615,-1.69345 -4.59658,-3.46189 -6.83709,-5.26706 -2.51443,-1.96751 -3.02196,-2.33897 -5.57873,-4.45416 -2.08366,-1.72379 -4.09865,-3.52976 -6.18967,-5.24462 -0.89308,-0.73242 -1.83305,-1.40626 -2.7285,-2.13578 -0.99281,-0.80884 -1.95686,-1.65234 -2.9353,-2.47852 -0.97629,-0.96335 -1.98496,-1.89496 -2.92888,-2.89005 -4.116775,-4.33996 -7.782519,-9.14704 -10.782933,-14.32228 0,0 -3.406736,1.98651 -3.406736,1.98651 z" />
    <path
       style="fill:#000000;fill-opacity:1;fill-rule:nonzero;stroke:none;stroke-width:0.264583"
       id="path28"
       d="m 45.261934,89.616415 c 9.361363,-0.24284 18.727499,-0.26895 28.091611,-0.25935 8.670026,-0.10817 17.34226,-0.12818 26.011277,-0.30631 3.994338,-0.0659 7.969818,-0.47893 11.959118,-0.65987 3.57813,-0.13795 7.15137,-0.36722 10.72494,-0.58886 0,0 2.98386,-2.1984 2.98386,-2.1984 v 0 c -3.57822,0.25495 -7.15906,0.49798 -10.74481,0.61525 -0.88945,0.0323 -3.13596,0.10637 -4.06294,0.1678 -2.65865,0.1762 -5.30684,0.54152 -7.97624,0.55572 -8.810237,0.3385 -17.627143,0.52476 -26.44289,0.63296 -9.126067,0.009 -18.254596,-0.009 -27.377678,-0.25935 0,0 -3.166248,2.30041 -3.166248,2.30041 z" />
    <path
       style="fill:#000000;fill-opacity:1;fill-rule:nonzero;stroke:none;stroke-width:0.264583"
       id="path30"
       d="m 45.438811,87.687885 c -1.810623,0.72743 -2.517611,0.99355 -4.446111,1.86569 -1.071044,0.48437 -2.165456,0.92608 -3.192598,1.49768 -2.603,1.44856 -5.154843,2.98887 -7.687551,4.5571 -2.43244,1.50614 -9.069153,6.002195 -11.392245,7.564345 -6.143358,4.06379 -12.3655328,8.00666 -18.64765839,11.8518 0,0 3.14455529,-1.21768 3.14455529,-1.21768 v 0 c 6.1268653,-3.81367 12.1937831,-7.7226 18.2175471,-11.69723 5.960395,-3.995845 5.56538,-3.779805 11.585839,-7.622705 0.683438,-0.43624 1.351291,-0.90172 2.068836,-1.27924 2.324256,-1.22287 4.797136,-2.17276 7.246143,-3.10886 0,0 3.103243,-2.4109 3.103243,-2.4109 z" />
    <path
       style="fill:#000000;fill-opacity:1;fill-rule:nonzero;stroke:none;stroke-width:0.264583"
       id="path32"
       d="m 122.73035,89.140875 c 0.16763,0.49628 0.28128,1.0142 0.50288,1.48884 1.55026,3.32034 3.84494,6.18586 6.24779,8.9187 1.65349,1.880565 4.74269,5.108225 6.47089,6.932565 2.98111,3.03706 5.83926,6.20059 8.88202,9.17743 2.41967,2.36724 4.97155,4.59734 7.52917,6.81246 3.74346,3.2115 7.37436,6.54973 11.21578,9.6452 0.53911,0.39296 1.07822,0.78591 1.61733,1.17886 0,0 3.11689,-1.98381 3.11689,-1.98381 v 0 c -0.5514,-0.37756 -1.10279,-0.75511 -1.65419,-1.13267 -1.84349,-1.42299 -2.08674,-1.56865 -3.90437,-3.15611 -2.45781,-2.14657 -4.7464,-4.48662 -7.37318,-6.43727 -2.0231,-1.64824 -2.81211,-2.25425 -4.827,-4.06435 -4.13333,-3.71321 -7.92413,-7.77556 -11.80922,-11.74149 -2.27464,-2.3903 -4.27232,-4.42163 -6.40936,-6.941075 -2.33338,-2.75092 -4.5065,-5.61237 -5.79977,-9.01301 -0.18459,-0.48539 -0.25734,-1.00621 -0.38601,-1.50931 0,0 -3.41965,1.82504 -3.41965,1.82504 z" />
  </g>
</svg>
