<?xml version="1.0" encoding="UTF-8" standalone="no"?>
<svg
   xmlns:dc="http://purl.org/dc/elements/1.1/"
   xmlns:cc="http://creativecommons.org/ns#"
   xmlns:rdf="http://www.w3.org/1999/02/22-rdf-syntax-ns#"
   xmlns:svg="http://www.w3.org/2000/svg"
   xmlns="http://www.w3.org/2000/svg"
   xmlns:sodipodi="http://sodipodi.sourceforge.net/DTD/sodipodi-0.dtd"
   xmlns:inkscape="http://www.inkscape.org/namespaces/inkscape"
   width="128"
   height="128"
   viewBox="0 0 33.866667 33.866667"
   version="1.1"
   id="svg12"
   sodipodi:docname="actor.svg"
   inkscape:version="1.0.2 (e86c870879, 2021-01-15)">
  <metadata
     id="metadata18">
    <rdf:RDF>
      <cc:Work
         rdf:about="">
        <dc:format>image/svg+xml</dc:format>
        <dc:type
           rdf:resource="http://purl.org/dc/dcmitype/StillImage" />
      </cc:Work>
    </rdf:RDF>
  </metadata>
  <defs
     id="defs16" />
  <sodipodi:namedview
     pagecolor="#ffffff"
     bordercolor="#666666"
     borderopacity="1"
     objecttolerance="10"
     gridtolerance="10"
     guidetolerance="10"
     inkscape:pageopacity="0"
     inkscape:pageshadow="2"
     inkscape:window-width="2674"
     inkscape:window-height="1780"
     id="namedview14"
     showgrid="false"
     inkscape:zoom="6.4453125"
     inkscape:cx="64"
     inkscape:cy="64"
     inkscape:window-x="643"
     inkscape:window-y="130"
     inkscape:window-maximized="0"
     inkscape:current-layer="svg12" />
  <path
     style="fill:none;stroke:#000;stroke-width:1.32291668;stroke-linecap:round;stroke-linejoin:miter;stroke-miterlimit:4;stroke-dasharray:none;stroke-opacity:1"
     d="M24.0656 13.680355c.711264-.509992 1.768873-1.108487 2.396551-1.575109.921646-.803327 1.597061-1.531467 2.497914-2.3603835.147122-.099241.364561-.5906709 0 0M5.707481 9.5432043c.775663.7774067 1.5501036 1.3753807 2.3675717 2.1048207.8168248.394489 1.0735236.586782 1.8392123 1.065845.95924.559376 2.019896.899839 3.084439 1.176206.0839.05863.134473.16585.114992.268296m0 0c1.342445-.03984 2.690953-.357585 4.027153-.102856 1.324511.007 2.649529.03772 3.973312.04366.975265-.178756 1.988201-.114632 2.947537-.41433"
     id="path2" />
  <path
     style="fill:none;stroke:#000;stroke-width:1.32291668;stroke-linecap:round;stroke-linejoin:miter;stroke-miterlimit:4;stroke-dasharray:none;stroke-opacity:1"
     d="M17.321954 1.4740636c-1.729172.3139452-3.48989.5746246-5.19681.9259075-.850609.4553417-1.663523.9389318-2.6386711 1.3136288-1.494875.8173485-1.630364 2.2225308-.58186 3.2003564.587611.4850578 1.2816501.9274591 1.8883361 1.4051225.970805.6895431 2.376524 1.1613867 3.909223 1.3524617 2.034955.3067025 4.402568.1579094 6.005305-.6548685.778993-.4158428 1.538693-.844186 2.285532-1.2774374.737055-.44646 1.168123-1.0284381 1.212128-1.6333517.09186-.6112709.155964-1.2324378.06217-1.8427027-.245993-.6105091-1.182995-1.0632671-2.220901-1.2535838-.999622-.3401627-1.978827-.7326654-3.145985-.8725845-.910983-.170375-1.753496-.4575293-2.688013-.5826115"
     id="path4" />
  <path
     style="fill:none;stroke:#000;stroke-width:1.32291668;stroke-linecap:round;stroke-linejoin:miter;stroke-miterlimit:4;stroke-dasharray:none;stroke-opacity:1"
     d="M17.184799 9.749317c.147744 2.647937.812701 5.061567.922805 7.72057-.01804 2.250506.02356 4.505354-.031 6.753823-.02431.246648.323838.904365.123087 1.280723"
     id="path6" />
  <path
     style="fill:none;stroke:#000;stroke-width:1.32291668;stroke-linecap:round;stroke-linejoin:miter;stroke-miterlimit:4;stroke-dasharray:none;stroke-opacity:1"
     d="M18.153298 25.513235c-2.680523 1.331358-5.325548 2.737543-8.054547 3.968047-1.6654278.862777-3.2693337 1.853889-4.9833064 2.616611"
     id="path8" />
  <path
     style="fill:none;stroke:#000;stroke-width:1.32291668;stroke-linecap:round;stroke-linejoin:miter;stroke-miterlimit:4;stroke-dasharray:none;stroke-opacity:1"
     d="M18.19844 25.506051c1.049601.882121 1.99794 1.793816 3.138271 2.649508 1.28086.471997 2.657531.874987 3.998108 1.302788.809929.274551 1.607078.558138 2.392191.849499.528401.631964 1.761267 1.066105 2.13438 1.736193.140484.116237.118263-.07368.08958-.107597"
     id="path10" />
</svg>
