<?xml version="1.0" encoding="UTF-8" standalone="no"?>
<svg
   xmlns:dc="http://purl.org/dc/elements/1.1/"
   xmlns:cc="http://creativecommons.org/ns#"
   xmlns:rdf="http://www.w3.org/1999/02/22-rdf-syntax-ns#"
   xmlns:svg="http://www.w3.org/2000/svg"
   xmlns="http://www.w3.org/2000/svg"
   xmlns:sodipodi="http://sodipodi.sourceforge.net/DTD/sodipodi-0.dtd"
   xmlns:inkscape="http://www.inkscape.org/namespaces/inkscape"
   width="79.375mm"
   height="58.294495mm"
   viewBox="0 0 79.375 58.294495"
   version="1.1"
   id="svg86"
   inkscape:version="1.0.2 (e86c870879, 2021-01-15)"
   sodipodi:docname="function-state.svg">
  <defs
     id="defs80" />
  <sodipodi:namedview
     id="base"
     pagecolor="#ffffff"
     bordercolor="#666666"
     borderopacity="1.0"
     inkscape:pageopacity="0.0"
     inkscape:pageshadow="2"
     inkscape:zoom="0.35"
     inkscape:cx="1378.5714"
     inkscape:cy="978.73425"
     inkscape:document-units="mm"
     inkscape:current-layer="layer1"
     inkscape:document-rotation="0"
     showgrid="false"
     inkscape:window-width="1438"
     inkscape:window-height="1041"
     inkscape:window-x="668"
     inkscape:window-y="474"
     inkscape:window-maximized="0" />
  <metadata
     id="metadata83">
    <rdf:RDF>
      <cc:Work
         rdf:about="">
        <dc:format>image/svg+xml</dc:format>
        <dc:type
           rdf:resource="http://purl.org/dc/dcmitype/StillImage" />
        <dc:title></dc:title>
      </cc:Work>
    </rdf:RDF>
  </metadata>
  <g
     inkscape:label="Layer 1"
     inkscape:groupmode="layer"
     id="layer1"
     transform="translate(258.91369,110.7901)">
    <g
       id="g72"
       inkscape:label="rectangle"
       transform="matrix(0.26416403,0,0,0.26416403,-247.75325,-120.92171)"
       style="fill:#0000ff">
      <path
         style="fill:#0000ff;stroke-width:0.299885"
         id="path416"
         d="m 255.86583,39.473455 c -2.02646,-0.0567 -4.05014,0.0726 -6.07557,0.0721 -2.66851,-7.9e-4 -10.67824,-0.15747 -12.94874,-0.19288 -8.77766,-0.13692 -11.16889,-0.15538 -20.33728,-0.26307 -22.84751,-0.0222 -45.69845,0.1194 -68.53812,0.61286 -13.72829,0.29661 -21.87841,0.59454 -35.57364,1.03497 -5.49497,0.18438 -10.98985,0.37029 -16.48491,0.55313 -14.27339,0.47492 -28.54632,0.90481 -42.82893,1.17657 -10.74269,0.2044 -14.8483,0.22315 -25.54855,0.33263 -3.86499,0.0378 -7.7301,0.0697 -11.59499,0.11344 -7.8326598,0.0885 -11.3924098,0.11221 -19.0336798,0.37501 -6.21655,0.21379 -12.4080002,0.59432 -18.6050702,1.01714 -4.84439,0.30652 -9.66462,0.79131 -14.52041,0.97965 -1.14229,0.0296 -2.28583,-0.002 -3.42817,0.0169 -0.72758,-0.0397 -1.06242,-0.63995 1.40908,1.0121 0,0 -0.0472,-0.0711 -0.0472,-0.0711 v 0 c -0.21694,1.21853 -0.65968,1.10948 -0.0229,1.11153 1.12525,0.0406 2.25137,-0.0897 3.37222,-0.13671 4.81462,-0.24056 9.59804,-0.70073 14.37703,-1.21237 4.55416,-0.37922 6.21889,-0.54429 10.9954202,-0.81779 12.65193,-0.72445 25.3390698,-0.83527 38.0182998,-0.98904 12.96277,-0.22194 25.9208,-0.48083 38.87693,-0.88201 12.17656,-0.37705 16.97625,-0.58614 29.22151,-1.05851 5.47697,-0.21128 10.95396,-0.42247 16.43092,-0.63371 12.72643,-0.42067 22.79925,-0.78646 35.54447,-1.07507 22.91996,-0.51902 45.8599,-0.66863 68.78411,-0.2266 12.77704,0.22414 8.61823,0.13323 20.42713,0.40347 4.10828,0.094 8.82798,0.24312 12.98259,0.22521 2.51771,-0.0109 3.59444,-0.10502 5.96372,-0.2501 0,0 -0.81524,-1.22782 -0.81524,-1.22782 z"
         inkscape:label="rectangle-top" />
      <path
         style="fill:#0000ff;stroke-width:0.299885"
         id="path416-7"
         d="m 255.86583,251.14013 c -2.02646,-0.0567 -4.05014,0.0726 -6.07557,0.0721 -2.66851,-7.9e-4 -10.67824,-0.15747 -12.94874,-0.19288 -8.77766,-0.13692 -11.16889,-0.15538 -20.33728,-0.26307 -22.84751,-0.0222 -45.69845,0.1194 -68.53812,0.61286 -13.72829,0.29661 -21.87841,0.59454 -35.57364,1.03497 -5.49497,0.18438 -10.98985,0.37029 -16.48491,0.55313 -14.27339,0.47492 -28.54632,0.90481 -42.82893,1.17657 -10.74269,0.2044 -14.8483,0.22315 -25.54855,0.33263 -3.86499,0.0378 -7.7301,0.0697 -11.59499,0.11344 -7.8326598,0.0885 -11.3924098,0.11221 -19.0336798,0.37501 -6.21655,0.21379 -12.4080002,0.59432 -18.6050702,1.01714 -4.84439,0.30652 -9.66462,0.79131 -14.52041,0.97965 -1.14229,0.0296 -2.28583,-0.002 -3.42817,0.0169 -0.72758,-0.0397 -1.06242,-0.63995 1.40908,1.0121 0,0 -0.0472,-0.0711 -0.0472,-0.0711 v 0 c -0.21694,1.21853 -0.65968,1.10948 -0.0229,1.11153 1.12525,0.0406 2.25137,-0.0897 3.37222,-0.13671 4.81462,-0.24056 9.59804,-0.70073 14.37703,-1.21237 4.55416,-0.37922 6.21889,-0.54429 10.9954202,-0.81779 12.65193,-0.72445 25.3390698,-0.83527 38.0182998,-0.98904 12.96277,-0.22194 25.9208,-0.48083 38.87693,-0.88201 12.17656,-0.37705 16.97625,-0.58614 29.22151,-1.05851 5.47697,-0.21128 10.95396,-0.42247 16.43092,-0.63371 12.72643,-0.42067 22.79925,-0.78646 35.54447,-1.07507 22.91996,-0.51902 45.8599,-0.66863 68.78411,-0.2266 12.77704,0.22414 8.61823,0.13323 20.42713,0.40347 4.10828,0.094 8.82798,0.24312 12.98259,0.22521 2.51771,-0.0109 3.59444,-0.10502 5.96372,-0.2501 0,0 -0.81524,-1.22782 -0.81524,-1.22782 z"
         inkscape:label="rectangle-bottom" />
      <path
         style="fill:#0000ff;stroke-width:0.264583"
         id="path2593"
         d="m 257.2643,38.353471 c -0.0144,1.088651 -0.16699,2.168441 -0.32421,3.243788 -0.14393,0.911903 -0.29844,1.821444 -0.37116,2.742249 -0.087,1.275856 0.0314,2.546059 0.19149,3.810465 0.26543,1.761609 0.48632,3.529201 0.64011,5.304025 0.12121,1.562148 0.13607,3.129722 0.13231,4.695722 -0.0161,1.316408 -0.12448,2.628201 -0.24269,3.93851 -0.13666,1.596542 -0.32609,3.187657 -0.50142,4.780208 -0.1986,1.946484 -0.46907,3.884613 -0.72505,5.824119 -0.29236,2.29298 -0.39038,4.604383 -0.48199,6.912253 -0.11034,2.633848 -0.21441,5.267754 -0.33927,7.900974 -0.14117,2.888073 -0.20159,5.77908 -0.24838,8.669936 -0.0279,1.899769 -0.0378,3.799758 -0.0397,5.69972 0.006,2.23581 0.0173,4.47163 0.034,6.70739 0.0145,3.51797 0.0427,7.03601 -0.011,10.55374 -0.0365,2.01068 -0.18296,4.01667 -0.25985,6.02571 -0.0759,2.19555 -0.0506,4.39318 -0.012,6.58917 0.0771,3.65175 0.18981,7.30257 0.25838,10.9545 0.0526,2.79606 0.0579,5.59262 0.0614,8.38907 -0.0114,2.24942 0.0186,4.49873 0.0859,6.74712 0.079,2.2984 0.16604,4.59661 0.22452,6.89565 0.0503,1.93866 0.10601,3.87694 0.13441,5.81609 0.0228,2.07518 0.029,4.15046 0.0238,6.22575 0.008,1.98674 -0.10147,3.96995 -0.23103,5.95153 -0.13677,1.80985 -0.19936,3.62389 -0.22945,5.43829 -0.0371,1.62316 -0.0331,3.24546 0.0306,4.86767 0.0739,1.81069 0.23608,3.61586 0.33731,5.42499 0.0763,1.89697 0.25118,3.78753 0.38677,5.68065 0.12755,2.20058 0.23341,4.40245 0.34039,6.60414 0.10826,1.89435 0.17818,3.79026 0.21096,5.68733 0.0208,1.19522 0.0234,2.39064 0.0271,3.58601 0.003,1.37187 -0.002,2.74382 0.0169,4.11557 0.062,1.93112 0.10936,3.8625 0.12937,5.79452 0.01,1.43605 0.0524,2.87238 0.0313,4.30847 -0.003,1.13665 -0.0949,2.2679 -0.20873,3.3978 -0.14987,1.55092 -0.27511,3.10417 -0.40076,4.65723 -0.085,0.99936 -0.15744,1.99967 -0.19592,3.00195 -0.0111,0.42771 -0.0249,0.85534 -0.0325,1.28311 -0.0271,0.37025 0.0248,0.73077 0.10985,1.08984 0.0538,0.17424 0.0931,0.35403 0.15162,0.5268 0.0259,0.0886 0.0373,0.18146 0.0495,0.27304 0.0178,0.128 0.0177,0.25768 0.0198,0.38667 0.002,0.0917 -0.004,0.18356 -6.5e-4,0.27521 -4.9e-4,0.0388 3.2e-4,0.0776 -0.003,0.11626 -0.003,0.0701 0.009,0.10875 0.0406,0.1757 0.10349,0.18792 0.20699,0.37584 0.31048,0.56376 0,0 0.0443,0.0666 0.0443,0.0666 v 0 c 0.129,0.13019 0.258,0.26038 0.38699,0.39057 0.0693,0.0453 0.0312,-0.0152 0.0406,-0.0638 -0.003,-0.0414 -0.003,-0.0828 -0.003,-0.12421 0.004,-0.0933 -0.003,-0.18699 -10e-4,-0.28036 -6e-5,-0.13229 -0.001,-0.26455 -0.008,-0.3967 -0.0106,-0.0966 -0.0248,-0.19193 -0.0357,-0.2879 -0.0416,-0.1976 -0.1495,-0.37896 -0.19293,-0.5768 -0.0964,-0.36042 -0.17757,-0.72273 -0.15632,-1.09882 -0.009,-0.44316 -0.0177,-0.88636 -0.006,-1.32959 0.02,-1.01921 0.0714,-2.03706 0.15222,-3.05336 0.10895,-1.5616 0.2312,-3.12237 0.38134,-4.68059 0.1019,-1.13728 0.21292,-2.27453 0.20589,-3.41802 0.007,-1.45264 -0.0456,-2.90487 -0.0637,-4.35729 -0.0313,-1.92887 -0.0747,-3.85739 -0.12333,-5.7859 -0.0121,-1.36279 0.001,-2.72555 0.001,-4.08837 0.003,-1.1947 0.002,-2.38941 -0.0228,-3.5839 -0.0455,-1.90546 -0.11383,-3.81031 -0.22611,-5.71313 -0.10638,-2.20034 -0.21431,-4.40069 -0.33479,-6.60028 -0.12662,-1.88983 -0.29659,-3.77683 -0.37997,-5.66939 -0.10929,-1.80609 -0.26332,-3.60946 -0.3344,-5.41769 -0.0662,-1.6275 -0.0862,-3.25521 -0.0502,-4.88396 0.0337,-1.81445 0.0869,-3.62877 0.22282,-5.43895 0.12657,-1.98741 0.24016,-3.97613 0.22655,-5.96866 0.0108,-2.07112 0.004,-4.14241 -0.0127,-6.21349 -0.0202,-1.92563 -0.0623,-3.85087 -0.10328,-5.77616 -0.0675,-2.29253 -0.15334,-4.58446 -0.21122,-6.87728 -0.0519,-2.24329 -0.0725,-4.48699 -0.0773,-6.73086 -0.0137,-2.81777 -0.0454,-5.63548 -0.10526,-8.45267 -0.0842,-3.64336 -0.19545,-7.28623 -0.24197,-10.93035 -0.0138,-2.168 -0.002,-4.33618 0.0672,-6.50331 0.0738,-2.03427 0.18895,-4.06715 0.20768,-6.10315 0.0209,-3.50985 0.005,-7.01984 0.03,-10.5297 0.0161,-2.20679 0.0259,-4.41363 0.0292,-6.62047 -0.003,-1.91683 -0.0109,-3.833677 10e-4,-5.750499 0.0236,-2.900063 0.0784,-5.800283 0.22343,-8.697148 0.13245,-2.627434 0.25505,-5.255228 0.3526,-7.88421 0.0931,-2.297207 0.20174,-4.596646 0.49245,-6.879034 0.2543,-1.942409 0.51104,-3.885057 0.72198,-5.832673 0.17736,-1.588678 0.36239,-3.176483 0.51261,-4.768051 0.12768,-1.319989 0.22641,-2.64329 0.23374,-3.970225 -0.006,-1.582649 -0.036,-3.16668 -0.15628,-4.745304 -0.15637,-1.772559 -0.37484,-3.538823 -0.63165,-5.299608 -0.1508,-1.231326 -0.27001,-2.465973 -0.14524,-3.706292 0.0711,-0.921999 0.20782,-1.835985 0.35708,-2.748362 0.14916,-1.072415 0.3085,-2.145112 0.35207,-3.228535 0,0 -0.73972,-1.024818 -0.73972,-1.024818 z"
         inkscape:label="rectangle-right" />
      <path
         style="display:inline;fill:#0000ff;stroke-width:0.264583"
         id="path2593-7"
         d="m -39.65223,45.992872 c -0.0144,1.088651 -0.167,2.168441 -0.32422,3.243788 -0.14392,0.911902 -0.29843,1.821444 -0.37116,2.742249 -0.087,1.275856 0.0314,2.546058 0.19149,3.810465 0.26543,1.761609 0.48632,3.529201 0.64011,5.304025 0.12121,1.562148 0.13607,3.129722 0.13231,4.695722 -0.0161,1.316408 -0.12448,2.628201 -0.24269,3.93851 -0.13666,1.596542 -0.32608,3.187657 -0.50142,4.780208 -0.19859,1.946484 -0.46907,3.884613 -0.72505,5.824119 -0.29235,2.29298 -0.39038,4.604383 -0.48198,6.912253 -0.11035,2.633848 -0.21442,5.267754 -0.33928,7.900974 -0.14117,2.888073 -0.20159,5.779085 -0.24837,8.669935 -0.0279,1.89977 -0.0378,3.79976 -0.0397,5.69972 0.006,2.23581 0.0173,4.47163 0.034,6.70739 0.0145,3.51797 0.0427,7.03601 -0.011,10.55374 -0.0365,2.01068 -0.18295,4.01667 -0.25984,6.02571 -0.0759,2.19555 -0.0507,4.39318 -0.012,6.58918 0.077,3.65175 0.1898,7.30256 0.25837,10.95449 0.0526,2.79606 0.0579,5.59262 0.0614,8.38907 -0.0114,2.24942 0.0186,4.49873 0.0858,6.74712 0.079,2.2984 0.16604,4.59661 0.22452,6.89565 0.0503,1.93866 0.10602,3.87694 0.13441,5.81609 0.0228,2.07518 0.0291,4.15046 0.0238,6.22575 0.008,1.98674 -0.10146,3.96995 -0.23103,5.95153 -0.13677,1.80985 -0.19936,3.62389 -0.22945,5.43829 -0.0371,1.62316 -0.0331,3.24546 0.0306,4.86767 0.0739,1.81069 0.23609,3.61586 0.33731,5.42499 0.0763,1.89697 0.25118,3.78753 0.38677,5.68065 0.12756,2.20058 0.23342,4.40245 0.34039,6.60414 0.10826,1.89435 0.17819,3.79026 0.21096,5.68733 0.0208,1.19522 0.0234,2.39064 0.0271,3.58601 0.003,1.37187 -0.002,2.74382 0.0169,4.11557 0.062,1.93112 0.10937,3.8625 0.12937,5.79452 0.01,1.43605 0.0524,2.87238 0.0313,4.30847 -0.003,1.13665 -0.0949,2.2679 -0.20873,3.3978 -0.14987,1.55092 -0.2751,3.10417 -0.40076,4.65723 -0.0849,0.99936 -0.15744,1.99967 -0.19592,3.00195 -0.0111,0.42771 -0.0249,0.85534 -0.0325,1.28311 -0.0271,0.37025 0.0248,0.73077 0.10986,1.08984 0.0538,0.17424 0.0931,0.35403 0.15161,0.5268 0.0259,0.0886 0.0373,0.18146 0.0495,0.27304 0.0178,0.128 0.0177,0.25768 0.0198,0.38667 0.002,0.0917 -0.004,0.18356 -6.5e-4,0.27521 -4.9e-4,0.0388 3.2e-4,0.0776 -0.003,0.11626 -0.003,0.0701 0.009,0.10875 0.0406,0.1757 0.1035,0.18792 0.20699,0.37584 0.31049,0.56376 0,0 0.0443,0.0666 0.0443,0.0666 v 0 c 0.12899,0.13019 0.25799,0.26038 0.38699,0.39057 0.0693,0.0453 0.0312,-0.0152 0.0406,-0.0638 -0.003,-0.0414 -0.003,-0.0828 -0.003,-0.12421 0.004,-0.0933 -0.003,-0.18699 -0.001,-0.28036 -5e-5,-0.13229 -10e-4,-0.26455 -0.008,-0.3967 -0.0106,-0.0966 -0.0248,-0.19193 -0.0357,-0.2879 -0.0416,-0.1976 -0.14951,-0.37896 -0.19294,-0.5768 -0.0964,-0.36042 -0.17757,-0.72273 -0.15631,-1.09882 -0.009,-0.44316 -0.0177,-0.88636 -0.006,-1.32959 0.02,-1.01921 0.0714,-2.03706 0.15221,-3.05336 0.10895,-1.5616 0.23121,-3.12237 0.38135,-4.68059 0.10189,-1.13728 0.21291,-2.27453 0.20588,-3.41802 0.007,-1.45264 -0.0456,-2.90487 -0.0637,-4.35729 -0.0313,-1.92887 -0.0747,-3.85739 -0.12333,-5.7859 -0.0121,-1.36279 10e-4,-2.72555 10e-4,-4.08837 0.003,-1.1947 0.002,-2.38941 -0.0228,-3.5839 -0.0455,-1.90546 -0.11384,-3.81031 -0.22612,-5.71313 -0.10638,-2.20034 -0.21431,-4.40069 -0.33479,-6.60028 -0.12662,-1.88983 -0.29659,-3.77683 -0.37997,-5.66939 -0.10929,-1.80609 -0.26332,-3.60946 -0.3344,-5.41769 -0.0661,-1.6275 -0.0862,-3.25521 -0.0502,-4.88396 0.0337,-1.81445 0.0869,-3.62877 0.22283,-5.43895 0.12656,-1.98741 0.24016,-3.97613 0.22654,-5.96866 0.0108,-2.07112 0.004,-4.14241 -0.0127,-6.21349 -0.0202,-1.92563 -0.0623,-3.85087 -0.10329,-5.77616 -0.0675,-2.29253 -0.15334,-4.58446 -0.21122,-6.87728 -0.0519,-2.24329 -0.0725,-4.48699 -0.0773,-6.73086 -0.0137,-2.81777 -0.0454,-5.63548 -0.10526,-8.45267 -0.0842,-3.64336 -0.19544,-7.28622 -0.24196,-10.93035 -0.0139,-2.168 -0.002,-4.33618 0.0672,-6.50331 0.0738,-2.03426 0.18894,-4.06715 0.20767,-6.10315 0.0209,-3.50985 0.005,-7.01984 0.03,-10.5297 0.0161,-2.20678 0.0259,-4.41363 0.0292,-6.62047 -0.003,-1.91683 -0.0109,-3.83368 10e-4,-5.7505 0.0236,-2.90006 0.0784,-5.800281 0.22343,-8.697146 0.13244,-2.627434 0.25504,-5.255228 0.35259,-7.88421 0.0931,-2.297207 0.20174,-4.596646 0.49246,-6.879034 0.2543,-1.942409 0.51103,-3.885057 0.72197,-5.832673 0.17736,-1.588678 0.36239,-3.176483 0.51261,-4.768051 0.12768,-1.319989 0.22642,-2.64329 0.23374,-3.970225 -0.006,-1.582649 -0.036,-3.16668 -0.15627,-4.745304 -0.15638,-1.772559 -0.37485,-3.538823 -0.63166,-5.299608 -0.1508,-1.231326 -0.27001,-2.465973 -0.14523,-3.706292 0.0711,-0.922 0.20781,-1.835985 0.35707,-2.748363 0.14916,-1.072414 0.3085,-2.145111 0.35207,-3.228535 0,0 -0.73971,-1.024817 -0.73971,-1.024817 z"
         inkscape:label="rectangle-left" />
    </g>
    <g
       id="g78"
       inkscape:label="function-state"
       transform="matrix(0.26416403,0,0,0.26416403,-258.9137,-110.79008)"
       style="display:inline;fill:#0000ff">
      <path
         style="fill:#0000ff;stroke-width:0.261597"
         id="path4242"
         d="m 42.834912,37.330391 c 0.01093,0.852795 0.02182,1.705588 0.03274,2.558381 0,0 0.07042,-0.03593 0.07042,-0.03593 v 0 c 0.01177,-0.863359 0.02352,-1.726717 0.03529,-2.590077 0,0 -0.138441,0.06764 -0.138441,0.06764 z" />
      <path
         style="fill:#0000ff;stroke-width:0.261597"
         id="path4244"
         d="m 131.65954,28.930801 c -4.04719,0.390023 -7.86435,1.742868 -11.57951,3.321553 -5.97772,3.00353 -11.59835,6.662629 -17.2292,10.26219 -4.603458,2.943783 -8.945134,6.272176 -13.374512,9.468277 -5.454688,4.023147 -10.760833,8.270944 -15.677966,12.942489 -3.974277,3.978577 -5.965407,9.284698 -7.944739,14.432753 -2.457206,7.048324 -4.382222,14.26946 -6.294946,21.480777 -1.585292,5.94176 -3.18321,11.89164 -4.16304,17.9708 -0.560018,3.47451 -0.751261,5.63619 -1.128578,9.10798 -0.46668,5.29509 -0.522604,10.7023 0.668236,15.91669 0.784166,3.43365 1.333158,4.42124 2.650955,7.70752 2.430127,5.26773 5.684261,10.11748 9.612683,14.38216 2.34334,2.54392 3.475577,3.44446 6.015581,5.70659 4.770573,4.12645 10.302905,7.12266 16.375469,8.81786 1.28107,0.35762 2.589688,0.6076 3.884533,0.9114 6.467005,1.17181 13.080514,1.79778 19.636244,1.02367 1.49894,-0.17701 2.98195,-0.47017 4.47292,-0.70525 9.60853,-1.9152 18.86784,-5.15297 28.02706,-8.56958 8.66673,-3.31465 17.34033,-6.61417 25.95044,-10.07433 8.57601,-3.44874 16.73659,-7.79226 24.42667,-12.92429 1.85469,-1.23775 3.63362,-2.58576 5.45044,-3.87864 7.87144,-5.98322 10.66224,-14.33028 17.30117,-21.68352 3.9233,-4.34544 5.04633,-6.05068 8.49819,-10.65113 3.99526,-5.70717 7.06212,-11.3024 7.11029,-18.440615 0.0244,-3.61072 -0.46662,-4.815039 -1.26641,-8.322265 -2.15174,-7.320334 -5.88884,-14.001319 -10.11461,-20.29988 -3.78931,-5.367142 -3.64637,-8.190453 -8.28458,-12.809815 -4.44663,-4.329445 -9.07197,-8.447243 -14.06384,-12.133417 -3.20327,-2.23677 -6.59616,-4.225248 -10.21215,-5.71792 -2.07092,-0.854874 -2.96893,-1.092116 -5.09179,-1.767104 -5.54801,-1.518164 -11.28333,-2.172264 -16.97893,-2.867843 -4.04509,-0.467801 -8.08784,-0.965401 -12.14416,-1.326506 -2.91608,-0.257238 -5.8406,-0.387945 -8.76711,-0.425649 -1.92654,-0.02089 -3.85323,-0.01696 -5.77986,-0.0195 -1.18777,-5.23e-4 -2.3755,0.0087 -3.56327,0.01335 -1.48787,-7.85e-4 -2.97585,0.0063 -4.46371,-0.0038 -0.69333,-0.04347 -1.37537,0.05017 -2.05495,0.178766 -0.51109,0.116061 -1.0184,0.24909 -1.51935,0.403325 -0.24885,0.07663 -0.13214,0.03519 -0.37603,0.407784 l 0.0693,-0.05429 v 0 c -1.93228,1.224526 -1.36764,0.77465 -0.94981,0.622339 0.49313,-0.166508 0.99832,-0.295597 1.50476,-0.414119 0.66613,-0.147476 1.32294,-0.214956 2.0052,-0.182504 1.49183,-0.0099 2.98378,-0.0034 4.47563,-0.0048 1.18091,0.0037 2.36184,0.01171 3.54275,0.0021 1.93229,-0.01244 3.86469,-0.01503 5.79696,0.0034 2.93489,0.05393 5.86925,0.152558 8.79591,0.390733 4.06168,0.352304 8.10729,0.863153 12.15938,1.309417 5.69467,0.68021 11.42781,1.314936 16.97346,2.836836 2.19496,0.683591 2.95232,0.866538 5.08962,1.746698 3.60733,1.485534 6.99405,3.473249 10.19871,5.687722 0.87594,0.647751 1.7693,1.272507 2.62782,1.943253 4.01537,3.137122 7.66864,6.715335 11.37586,10.201029 4.64566,4.600763 4.48052,7.428791 8.28859,12.77115 4.22079,6.276996 8.01736,12.895909 10.19585,20.190673 0.78426,3.475767 1.27432,4.705806 1.24916,8.28125 -0.0497,7.061652 -3.07152,12.635342 -6.99539,18.303842 -3.48933,4.66402 -4.48809,6.21405 -8.46891,10.62186 -6.63587,7.34764 -9.41784,15.6937 -17.29721,21.65728 -3.43088,2.43656 -6.0508,4.40555 -9.56645,6.55532 -5.79374,3.5428 -11.93619,6.42796 -18.1999,9.02951 -8.61518,3.47288 -17.29607,6.78038 -25.97261,10.09575 -9.15486,3.41527 -18.40283,6.67378 -28.00828,8.58583 -1.48605,0.23555 -2.96409,0.52906 -4.45815,0.70666 -6.53893,0.77731 -13.13763,0.1619 -19.588216,-1.01143 -3.343562,-0.7775 -4.383933,-0.90496 -7.594946,-2.10279 -4.648588,-1.7341 -8.852851,-4.37739 -12.640502,-7.56797 -2.570132,-2.27783 -3.644512,-3.11843 -6.011577,-5.68883 -3.917543,-4.25408 -7.172754,-9.09178 -9.572543,-14.35803 -1.305149,-3.2817 -1.848899,-4.26567 -2.621305,-7.69265 -1.173294,-5.2056 -1.106946,-10.59809 -0.658071,-15.88214 0.404799,-3.72155 0.534806,-5.36922 1.147057,-9.10632 0.995858,-6.07857 2.586084,-12.03193 4.188469,-17.97183 1.92917,-7.212851 3.853298,-14.442188 6.340691,-21.48627 1.998349,-5.148955 4.002588,-10.447402 8.021184,-14.398969 4.91248,-4.663491 10.205125,-8.914104 15.66457,-12.916531 4.444272,-3.196985 8.803734,-6.521457 13.415169,-9.475878 4.86783,-3.119128 9.7056,-6.325516 14.87199,-8.934503 3.75571,-1.610533 7.62297,-2.98952 11.70696,-3.464472 l 0.89121,-0.663153 z"
         sodipodi:nodetypes="cccccccscscscscscccscscsccccsccccccccsccscccccccccscscccscscscccscscscscsccccccccc" />
      <path
         style="fill:#0000ff;stroke-width:0.261597"
         id="path4246"
         d="m 60.289398,57.214114 c 4.494835,1.977836 8.939164,4.067821 13.413203,6.092629 7.115558,3.39342 14.391455,6.427677 21.677955,9.428581 6.821224,2.703462 13.608214,5.484339 20.290024,8.518332 4.57997,2.238014 9.10012,4.650505 13.32492,7.516842 2.70703,1.836602 3.52195,2.574237 6.06214,4.613764 6.04094,4.906241 11.33101,10.622908 16.64714,16.282608 4.95857,5.29738 9.11434,11.26963 13.81502,16.78252 0.94923,1.11324 1.9413,2.18912 2.91195,3.28367 5.8651,6.18038 12.47541,11.57407 19.21272,16.7602 4.236,3.10331 8.42191,6.27479 12.64989,9.38887 2.03312,1.41588 3.84948,3.09367 5.6577,4.7786 1.40396,1.15296 2.69027,2.63397 4.39478,3.3457 0.24119,-0.007 0.48237,-0.0139 0.72355,-0.021 0,0 0.11699,-0.0754 0.11699,-0.0754 v 0 c 0.01,-0.15415 0.0195,-0.30829 0.0291,-0.46244 -1.23174,-1.27318 -2.99174,-2.09767 -4.16463,-3.46736 -1.81222,-1.69437 -3.62616,-3.38813 -5.69416,-4.77379 -4.25531,-3.08636 -8.42387,-6.29174 -12.69496,-9.35695 -6.75406,-5.15898 -13.36439,-10.5489 -19.23388,-16.72013 -0.96384,-1.09697 -1.94629,-2.17781 -2.89152,-3.29091 -4.69329,-5.52677 -8.90281,-11.46262 -13.86907,-16.75903 -5.32766,-5.66879 -10.73921,-11.292013 -16.76863,-16.224861 -2.60791,-2.093607 -3.29631,-2.733175 -6.07933,-4.615654 -4.23035,-2.861459 -8.7447,-5.290266 -13.32502,-7.533289 -6.68367,-3.045053 -13.48452,-5.812888 -20.316704,-8.505212 -7.33058,-2.951931 -14.613242,-6.018506 -21.777839,-9.358186 -4.533557,-2.008206 -9.065701,-4.013255 -13.631758,-5.945689 0,0 -0.479601,0.317545 -0.479601,0.317545 z" />
      <path
         style="fill:#0000ff;stroke-width:0.261597"
         id="path4248"
         d="m 59.39093,159.59006 c 7.538972,-5.25446 14.863786,-10.81473 22.1788,-16.37598 6.369997,-4.961 12.64465,-10.0665 18.60373,-15.52083 4.11168,-3.7634 5.70545,-5.44546 9.72084,-9.45355 9.83562,-9.95785 19.30123,-20.271558 28.8658,-30.488218 1.21274,-1.26938 2.41984,-2.544187 3.63823,-3.808143 1.71221,-1.776266 4.25096,-4.384219 6.06045,-6.128276 3.0236,-2.914277 6.20219,-5.658239 9.36566,-8.416988 5.6915,-4.797571 11.2234,-9.777281 16.7399,-14.773977 2.89202,-2.473693 5.48387,-5.260438 7.9846,-8.121975 2.54754,-2.875213 4.64433,-6.09773 6.78488,-9.276454 0.66974,-1.08221 1.47517,-2.079127 2.14896,-3.157975 0.089,-0.1357 0.0936,-0.246122 0.079,-0.396061 -0.007,-0.03736 -0.0166,-0.07919 -0.0231,-0.111645 0,0 -1.64008,0.988135 -1.64008,0.988135 v 0 c 0.0105,0.0026 0.0276,-0.0026 0.0315,0.0075 -0.002,0.08129 -0.0246,0.162104 -0.0917,0.242035 -0.61303,1.073189 -1.38908,2.047829 -2.03707,3.098807 -2.12887,3.173624 -4.22707,6.38228 -6.76996,9.246964 -2.50214,2.851123 -5.10316,5.616471 -7.9774,8.098756 -5.48058,5.000401 -10.99591,9.962151 -16.67066,14.742143 -3.16801,2.761168 -6.35069,5.50795 -9.37282,8.431165 -1.78094,1.722646 -4.33601,4.361504 -6.01757,6.114782 -1.20909,1.260659 -2.40696,2.532055 -3.61045,3.798084 -9.54215,10.218767 -18.99286,20.527951 -28.82822,30.466901 -4.01208,3.989 -5.65424,5.71041 -9.757609,9.45921 -5.954633,5.4401 -12.21503,10.54213 -18.573751,15.49704 -7.289514,5.54593 -14.601276,11.07219 -22.099804,16.3325 0,0 1.267838,-0.49396 1.267838,-0.49396 z" />
    </g>
  </g>
</svg>
