<?xml version="1.0" encoding="UTF-8" standalone="no"?>
<svg
   xmlns:dc="http://purl.org/dc/elements/1.1/"
   xmlns:cc="http://creativecommons.org/ns#"
   xmlns:rdf="http://www.w3.org/1999/02/22-rdf-syntax-ns#"
   xmlns:svg="http://www.w3.org/2000/svg"
   xmlns="http://www.w3.org/2000/svg"
   xmlns:sodipodi="http://sodipodi.sourceforge.net/DTD/sodipodi-0.dtd"
   xmlns:inkscape="http://www.inkscape.org/namespaces/inkscape"
   width="300"
   height="289.4837"
   viewBox="0 0 49.374 47.643228"
   version="1.1"
   id="svg379"
   inkscape:version="1.0.2 (e86c870879, 2021-01-15)"
   sodipodi:docname="toolset.svg">
  <metadata
     id="metadata55">
    <rdf:RDF>
      <cc:Work
         rdf:about="">
        <dc:format>image/svg+xml</dc:format>
        <dc:type
           rdf:resource="http://purl.org/dc/dcmitype/StillImage" />
        <dc:title></dc:title>
      </cc:Work>
    </rdf:RDF>
  </metadata>
  <sodipodi:namedview
     id="namedview381"
     pagecolor="#ffffff"
     bordercolor="#666666"
     borderopacity="1.0"
     inkscape:pageshadow="2"
     inkscape:pageopacity="0.0"
     inkscape:pagecheckerboard="0"
     inkscape:document-units="px"
     showgrid="true"
     inkscape:zoom="2.8284271"
     inkscape:cx="-111.46342"
     inkscape:cy="125.79771"
     inkscape:window-width="3840"
     inkscape:window-height="2068"
     inkscape:window-x="0"
     inkscape:window-y="37"
     inkscape:window-maximized="1"
     inkscape:current-layer="g116"
     inkscape:document-rotation="0"
     units="px"
     scale-x="0.16458">
    <inkscape:grid
       type="xygrid"
       id="grid514"
       originx="-48.164966"
       originy="-77.336063" />
  </sodipodi:namedview>
  <defs
     id="defs376" />
  <g
     inkscape:label="Base Rectangle"
     inkscape:groupmode="layer"
     id="layer1"
     transform="translate(-83.302942,-129.99338)">
    <g
       id="g72"
       inkscape:label="rectangle"
       transform="matrix(0.16431918,0,0,0.16431918,90.245123,128.54025)"
       style="fill:#0000ff">
      <path
         style="fill:#0000ff;stroke-width:0.299885"
         id="path416"
         d="m 255.86583,39.473455 c -2.02646,-0.0567 -4.05014,0.0726 -6.07557,0.0721 -2.66851,-7.9e-4 -10.67824,-0.15747 -12.94874,-0.19288 -8.77766,-0.13692 -11.16889,-0.15538 -20.33728,-0.26307 -22.84751,-0.0222 -45.69845,0.1194 -68.53812,0.61286 -13.72829,0.29661 -21.87841,0.59454 -35.57364,1.03497 -5.49497,0.18438 -10.98985,0.37029 -16.48491,0.55313 -14.27339,0.47492 -28.54632,0.90481 -42.82893,1.17657 -10.74269,0.2044 -14.8483,0.22315 -25.54855,0.33263 -3.86499,0.0378 -7.7301,0.0697 -11.59499,0.11344 -7.8326598,0.0885 -11.3924098,0.11221 -19.0336798,0.37501 -6.21655,0.21379 -12.4080002,0.59432 -18.6050702,1.01714 -4.84439,0.30652 -9.66462,0.79131 -14.52041,0.97965 -1.14229,0.0296 -2.28583,-0.002 -3.42817,0.0169 -0.72758,-0.0397 -1.06242,-0.63995 1.40908,1.0121 0,0 -0.0472,-0.0711 -0.0472,-0.0711 v 0 c -0.21694,1.21853 -0.65968,1.10948 -0.0229,1.11153 1.12525,0.0406 2.25137,-0.0897 3.37222,-0.13671 4.81462,-0.24056 9.59804,-0.70073 14.37703,-1.21237 4.55416,-0.37922 6.21889,-0.54429 10.9954202,-0.81779 12.65193,-0.72445 25.3390698,-0.83527 38.0182998,-0.98904 12.96277,-0.22194 25.9208,-0.48083 38.87693,-0.88201 12.17656,-0.37705 16.97625,-0.58614 29.22151,-1.05851 5.47697,-0.21128 10.95396,-0.42247 16.43092,-0.63371 12.72643,-0.42067 22.79925,-0.78646 35.54447,-1.07507 22.91996,-0.51902 45.8599,-0.66863 68.78411,-0.2266 12.77704,0.22414 8.61823,0.13323 20.42713,0.40347 4.10828,0.094 8.82798,0.24312 12.98259,0.22521 2.51771,-0.0109 3.59444,-0.10502 5.96372,-0.2501 0,0 -0.81524,-1.22782 -0.81524,-1.22782 z"
         inkscape:label="rectangle-top" />
      <path
         style="fill:#0000ff;stroke-width:0.299885"
         id="path416-7"
         d="m 255.86583,251.14013 c -2.02646,-0.0567 -4.05014,0.0726 -6.07557,0.0721 -2.66851,-7.9e-4 -10.67824,-0.15747 -12.94874,-0.19288 -8.77766,-0.13692 -11.16889,-0.15538 -20.33728,-0.26307 -22.84751,-0.0222 -45.69845,0.1194 -68.53812,0.61286 -13.72829,0.29661 -21.87841,0.59454 -35.57364,1.03497 -5.49497,0.18438 -10.98985,0.37029 -16.48491,0.55313 -14.27339,0.47492 -28.54632,0.90481 -42.82893,1.17657 -10.74269,0.2044 -14.8483,0.22315 -25.54855,0.33263 -3.86499,0.0378 -7.7301,0.0697 -11.59499,0.11344 -7.8326598,0.0885 -11.3924098,0.11221 -19.0336798,0.37501 -6.21655,0.21379 -12.4080002,0.59432 -18.6050702,1.01714 -4.84439,0.30652 -9.66462,0.79131 -14.52041,0.97965 -1.14229,0.0296 -2.28583,-0.002 -3.42817,0.0169 -0.72758,-0.0397 -1.06242,-0.63995 1.40908,1.0121 0,0 -0.0472,-0.0711 -0.0472,-0.0711 v 0 c -0.21694,1.21853 -0.65968,1.10948 -0.0229,1.11153 1.12525,0.0406 2.25137,-0.0897 3.37222,-0.13671 4.81462,-0.24056 9.59804,-0.70073 14.37703,-1.21237 4.55416,-0.37922 6.21889,-0.54429 10.9954202,-0.81779 12.65193,-0.72445 25.3390698,-0.83527 38.0182998,-0.98904 12.96277,-0.22194 25.9208,-0.48083 38.87693,-0.88201 12.17656,-0.37705 16.97625,-0.58614 29.22151,-1.05851 5.47697,-0.21128 10.95396,-0.42247 16.43092,-0.63371 12.72643,-0.42067 22.79925,-0.78646 35.54447,-1.07507 22.91996,-0.51902 45.8599,-0.66863 68.78411,-0.2266 12.77704,0.22414 8.61823,0.13323 20.42713,0.40347 4.10828,0.094 8.82798,0.24312 12.98259,0.22521 2.51771,-0.0109 3.59444,-0.10502 5.96372,-0.2501 0,0 -0.81524,-1.22782 -0.81524,-1.22782 z"
         inkscape:label="rectangle-bottom" />
      <path
         style="fill:#0000ff;stroke-width:0.264583"
         id="path2593"
         d="m 257.2643,38.353471 c -0.0144,1.088651 -0.16699,2.168441 -0.32421,3.243788 -0.14393,0.911903 -0.29844,1.821444 -0.37116,2.742249 -0.087,1.275856 0.0314,2.546059 0.19149,3.810465 0.26543,1.761609 0.48632,3.529201 0.64011,5.304025 0.12121,1.562148 0.13607,3.129722 0.13231,4.695722 -0.0161,1.316408 -0.12448,2.628201 -0.24269,3.93851 -0.13666,1.596542 -0.32609,3.187657 -0.50142,4.780208 -0.1986,1.946484 -0.46907,3.884613 -0.72505,5.824119 -0.29236,2.29298 -0.39038,4.604383 -0.48199,6.912253 -0.11034,2.633848 -0.21441,5.267754 -0.33927,7.900974 -0.14117,2.888073 -0.20159,5.77908 -0.24838,8.669936 -0.0279,1.899769 -0.0378,3.799758 -0.0397,5.69972 0.006,2.23581 0.0173,4.47163 0.034,6.70739 0.0145,3.51797 0.0427,7.03601 -0.011,10.55374 -0.0365,2.01068 -0.18296,4.01667 -0.25985,6.02571 -0.0759,2.19555 -0.0506,4.39318 -0.012,6.58917 0.0771,3.65175 0.18981,7.30257 0.25838,10.9545 0.0526,2.79606 0.0579,5.59262 0.0614,8.38907 -0.0114,2.24942 0.0186,4.49873 0.0859,6.74712 0.079,2.2984 0.16604,4.59661 0.22452,6.89565 0.0503,1.93866 0.10601,3.87694 0.13441,5.81609 0.0228,2.07518 0.029,4.15046 0.0238,6.22575 0.008,1.98674 -0.10147,3.96995 -0.23103,5.95153 -0.13677,1.80985 -0.19936,3.62389 -0.22945,5.43829 -0.0371,1.62316 -0.0331,3.24546 0.0306,4.86767 0.0739,1.81069 0.23608,3.61586 0.33731,5.42499 0.0763,1.89697 0.25118,3.78753 0.38677,5.68065 0.12755,2.20058 0.23341,4.40245 0.34039,6.60414 0.10826,1.89435 0.17818,3.79026 0.21096,5.68733 0.0208,1.19522 0.0234,2.39064 0.0271,3.58601 0.003,1.37187 -0.002,2.74382 0.0169,4.11557 0.062,1.93112 0.10936,3.8625 0.12937,5.79452 0.01,1.43605 0.0524,2.87238 0.0313,4.30847 -0.003,1.13665 -0.0949,2.2679 -0.20873,3.3978 -0.14987,1.55092 -0.27511,3.10417 -0.40076,4.65723 -0.085,0.99936 -0.15744,1.99967 -0.19592,3.00195 -0.0111,0.42771 -0.0249,0.85534 -0.0325,1.28311 -0.0271,0.37025 0.0248,0.73077 0.10985,1.08984 0.0538,0.17424 0.0931,0.35403 0.15162,0.5268 0.0259,0.0886 0.0373,0.18146 0.0495,0.27304 0.0178,0.128 0.0177,0.25768 0.0198,0.38667 0.002,0.0917 -0.004,0.18356 -6.5e-4,0.27521 -4.9e-4,0.0388 3.2e-4,0.0776 -0.003,0.11626 -0.003,0.0701 0.009,0.10875 0.0406,0.1757 0.10349,0.18792 0.20699,0.37584 0.31048,0.56376 0,0 0.0443,0.0666 0.0443,0.0666 v 0 c 0.129,0.13019 0.258,0.26038 0.38699,0.39057 0.0693,0.0453 0.0312,-0.0152 0.0406,-0.0638 -0.003,-0.0414 -0.003,-0.0828 -0.003,-0.12421 0.004,-0.0933 -0.003,-0.18699 -10e-4,-0.28036 -6e-5,-0.13229 -0.001,-0.26455 -0.008,-0.3967 -0.0106,-0.0966 -0.0248,-0.19193 -0.0357,-0.2879 -0.0416,-0.1976 -0.1495,-0.37896 -0.19293,-0.5768 -0.0964,-0.36042 -0.17757,-0.72273 -0.15632,-1.09882 -0.009,-0.44316 -0.0177,-0.88636 -0.006,-1.32959 0.02,-1.01921 0.0714,-2.03706 0.15222,-3.05336 0.10895,-1.5616 0.2312,-3.12237 0.38134,-4.68059 0.1019,-1.13728 0.21292,-2.27453 0.20589,-3.41802 0.007,-1.45264 -0.0456,-2.90487 -0.0637,-4.35729 -0.0313,-1.92887 -0.0747,-3.85739 -0.12333,-5.7859 -0.0121,-1.36279 0.001,-2.72555 0.001,-4.08837 0.003,-1.1947 0.002,-2.38941 -0.0228,-3.5839 -0.0455,-1.90546 -0.11383,-3.81031 -0.22611,-5.71313 -0.10638,-2.20034 -0.21431,-4.40069 -0.33479,-6.60028 -0.12662,-1.88983 -0.29659,-3.77683 -0.37997,-5.66939 -0.10929,-1.80609 -0.26332,-3.60946 -0.3344,-5.41769 -0.0662,-1.6275 -0.0862,-3.25521 -0.0502,-4.88396 0.0337,-1.81445 0.0869,-3.62877 0.22282,-5.43895 0.12657,-1.98741 0.24016,-3.97613 0.22655,-5.96866 0.0108,-2.07112 0.004,-4.14241 -0.0127,-6.21349 -0.0202,-1.92563 -0.0623,-3.85087 -0.10328,-5.77616 -0.0675,-2.29253 -0.15334,-4.58446 -0.21122,-6.87728 -0.0519,-2.24329 -0.0725,-4.48699 -0.0773,-6.73086 -0.0137,-2.81777 -0.0454,-5.63548 -0.10526,-8.45267 -0.0842,-3.64336 -0.19545,-7.28623 -0.24197,-10.93035 -0.0138,-2.168 -0.002,-4.33618 0.0672,-6.50331 0.0738,-2.03427 0.18895,-4.06715 0.20768,-6.10315 0.0209,-3.50985 0.005,-7.01984 0.03,-10.5297 0.0161,-2.20679 0.0259,-4.41363 0.0292,-6.62047 -0.003,-1.91683 -0.0109,-3.833677 10e-4,-5.750499 0.0236,-2.900063 0.0784,-5.800283 0.22343,-8.697148 0.13245,-2.627434 0.25505,-5.255228 0.3526,-7.88421 0.0931,-2.297207 0.20174,-4.596646 0.49245,-6.879034 0.2543,-1.942409 0.51104,-3.885057 0.72198,-5.832673 0.17736,-1.588678 0.36239,-3.176483 0.51261,-4.768051 0.12768,-1.319989 0.22641,-2.64329 0.23374,-3.970225 -0.006,-1.582649 -0.036,-3.16668 -0.15628,-4.745304 -0.15637,-1.772559 -0.37484,-3.538823 -0.63165,-5.299608 -0.1508,-1.231326 -0.27001,-2.465973 -0.14524,-3.706292 0.0711,-0.921999 0.20782,-1.835985 0.35708,-2.748362 0.14916,-1.072415 0.3085,-2.145112 0.35207,-3.228535 0,0 -0.73972,-1.024818 -0.73972,-1.024818 z"
         inkscape:label="rectangle-right" />
      <path
         style="display:inline;fill:#0000ff;stroke-width:0.264583"
         id="path2593-7"
         d="m -39.65223,45.992872 c -0.0144,1.088651 -0.167,2.168441 -0.32422,3.243788 -0.14392,0.911902 -0.29843,1.821444 -0.37116,2.742249 -0.087,1.275856 0.0314,2.546058 0.19149,3.810465 0.26543,1.761609 0.48632,3.529201 0.64011,5.304025 0.12121,1.562148 0.13607,3.129722 0.13231,4.695722 -0.0161,1.316408 -0.12448,2.628201 -0.24269,3.93851 -0.13666,1.596542 -0.32608,3.187657 -0.50142,4.780208 -0.19859,1.946484 -0.46907,3.884613 -0.72505,5.824119 -0.29235,2.29298 -0.39038,4.604383 -0.48198,6.912253 -0.11035,2.633848 -0.21442,5.267754 -0.33928,7.900974 -0.14117,2.888073 -0.20159,5.779085 -0.24837,8.669935 -0.0279,1.89977 -0.0378,3.79976 -0.0397,5.69972 0.006,2.23581 0.0173,4.47163 0.034,6.70739 0.0145,3.51797 0.0427,7.03601 -0.011,10.55374 -0.0365,2.01068 -0.18295,4.01667 -0.25984,6.02571 -0.0759,2.19555 -0.0507,4.39318 -0.012,6.58918 0.077,3.65175 0.1898,7.30256 0.25837,10.95449 0.0526,2.79606 0.0579,5.59262 0.0614,8.38907 -0.0114,2.24942 0.0186,4.49873 0.0858,6.74712 0.079,2.2984 0.16604,4.59661 0.22452,6.89565 0.0503,1.93866 0.10602,3.87694 0.13441,5.81609 0.0228,2.07518 0.0291,4.15046 0.0238,6.22575 0.008,1.98674 -0.10146,3.96995 -0.23103,5.95153 -0.13677,1.80985 -0.19936,3.62389 -0.22945,5.43829 -0.0371,1.62316 -0.0331,3.24546 0.0306,4.86767 0.0739,1.81069 0.23609,3.61586 0.33731,5.42499 0.0763,1.89697 0.25118,3.78753 0.38677,5.68065 0.12756,2.20058 0.23342,4.40245 0.34039,6.60414 0.10826,1.89435 0.17819,3.79026 0.21096,5.68733 0.0208,1.19522 0.0234,2.39064 0.0271,3.58601 0.003,1.37187 -0.002,2.74382 0.0169,4.11557 0.062,1.93112 0.10937,3.8625 0.12937,5.79452 0.01,1.43605 0.0524,2.87238 0.0313,4.30847 -0.003,1.13665 -0.0949,2.2679 -0.20873,3.3978 -0.14987,1.55092 -0.2751,3.10417 -0.40076,4.65723 -0.0849,0.99936 -0.15744,1.99967 -0.19592,3.00195 -0.0111,0.42771 -0.0249,0.85534 -0.0325,1.28311 -0.0271,0.37025 0.0248,0.73077 0.10986,1.08984 0.0538,0.17424 0.0931,0.35403 0.15161,0.5268 0.0259,0.0886 0.0373,0.18146 0.0495,0.27304 0.0178,0.128 0.0177,0.25768 0.0198,0.38667 0.002,0.0917 -0.004,0.18356 -6.5e-4,0.27521 -4.9e-4,0.0388 3.2e-4,0.0776 -0.003,0.11626 -0.003,0.0701 0.009,0.10875 0.0406,0.1757 0.1035,0.18792 0.20699,0.37584 0.31049,0.56376 0,0 0.0443,0.0666 0.0443,0.0666 v 0 c 0.12899,0.13019 0.25799,0.26038 0.38699,0.39057 0.0693,0.0453 0.0312,-0.0152 0.0406,-0.0638 -0.003,-0.0414 -0.003,-0.0828 -0.003,-0.12421 0.004,-0.0933 -0.003,-0.18699 -0.001,-0.28036 -5e-5,-0.13229 -10e-4,-0.26455 -0.008,-0.3967 -0.0106,-0.0966 -0.0248,-0.19193 -0.0357,-0.2879 -0.0416,-0.1976 -0.14951,-0.37896 -0.19294,-0.5768 -0.0964,-0.36042 -0.17757,-0.72273 -0.15631,-1.09882 -0.009,-0.44316 -0.0177,-0.88636 -0.006,-1.32959 0.02,-1.01921 0.0714,-2.03706 0.15221,-3.05336 0.10895,-1.5616 0.23121,-3.12237 0.38135,-4.68059 0.10189,-1.13728 0.21291,-2.27453 0.20588,-3.41802 0.007,-1.45264 -0.0456,-2.90487 -0.0637,-4.35729 -0.0313,-1.92887 -0.0747,-3.85739 -0.12333,-5.7859 -0.0121,-1.36279 10e-4,-2.72555 10e-4,-4.08837 0.003,-1.1947 0.002,-2.38941 -0.0228,-3.5839 -0.0455,-1.90546 -0.11384,-3.81031 -0.22612,-5.71313 -0.10638,-2.20034 -0.21431,-4.40069 -0.33479,-6.60028 -0.12662,-1.88983 -0.29659,-3.77683 -0.37997,-5.66939 -0.10929,-1.80609 -0.26332,-3.60946 -0.3344,-5.41769 -0.0661,-1.6275 -0.0862,-3.25521 -0.0502,-4.88396 0.0337,-1.81445 0.0869,-3.62877 0.22283,-5.43895 0.12656,-1.98741 0.24016,-3.97613 0.22654,-5.96866 0.0108,-2.07112 0.004,-4.14241 -0.0127,-6.21349 -0.0202,-1.92563 -0.0623,-3.85087 -0.10329,-5.77616 -0.0675,-2.29253 -0.15334,-4.58446 -0.21122,-6.87728 -0.0519,-2.24329 -0.0725,-4.48699 -0.0773,-6.73086 -0.0137,-2.81777 -0.0454,-5.63548 -0.10526,-8.45267 -0.0842,-3.64336 -0.19544,-7.28622 -0.24196,-10.93035 -0.0139,-2.168 -0.002,-4.33618 0.0672,-6.50331 0.0738,-2.03426 0.18894,-4.06715 0.20767,-6.10315 0.0209,-3.50985 0.005,-7.01984 0.03,-10.5297 0.0161,-2.20678 0.0259,-4.41363 0.0292,-6.62047 -0.003,-1.91683 -0.0109,-3.83368 10e-4,-5.7505 0.0236,-2.90006 0.0784,-5.800281 0.22343,-8.697146 0.13244,-2.627434 0.25504,-5.255228 0.35259,-7.88421 0.0931,-2.297207 0.20174,-4.596646 0.49246,-6.879034 0.2543,-1.942409 0.51103,-3.885057 0.72197,-5.832673 0.17736,-1.588678 0.36239,-3.176483 0.51261,-4.768051 0.12768,-1.319989 0.22642,-2.64329 0.23374,-3.970225 -0.006,-1.582649 -0.036,-3.16668 -0.15627,-4.745304 -0.15638,-1.772559 -0.37485,-3.538823 -0.63166,-5.299608 -0.1508,-1.231326 -0.27001,-2.465973 -0.14523,-3.706292 0.0711,-0.922 0.20781,-1.835985 0.35707,-2.748363 0.14916,-1.072414 0.3085,-2.145111 0.35207,-3.228535 0,0 -0.73971,-1.024817 -0.73971,-1.024817 z"
         inkscape:label="rectangle-left" />
    </g>
  </g>
  <g
     inkscape:groupmode="layer"
     id="layer2"
     inkscape:label="Start"
     style="display:inline"
     transform="translate(-125.55109,-91.639907)">
    <g
       id="g86"
       inkscape:label="start-mark"
       transform="matrix(0.16431918,0,0,0.16431918,125.55109,96.488997)"
       style="fill:#0000ff">
      <path
         style="fill:#0000ff;stroke-width:0.305172"
         id="path2915"
         d="M 5.7089832,22.411581 C 9.5825631,18.208278 14.05935,14.611868 18.517345,11.045927 20.779189,9.5368493 29.490372,2.1347084 23.165517,6.9937471 21.224805,8.4654839 19.310741,9.9723853 17.405814,11.489353 12.86159,15.132464 8.2662103,18.766029 4.2831705,23.025791 Z"
         sodipodi:nodetypes="cccccc" />
      <path
         style="fill:#0000ff;stroke-width:0.191325"
         id="path2915-9"
         d="m 4.6434802,17.11007 c 2.5357993,-2.523725 5.4664818,-4.683064 8.3848638,-6.824107 1.274058,-0.9268204 2.55797,-1.8440891 3.86581,-2.7312619 0.440552,-0.3130625 0.840321,-0.6697104 1.254677,-1.0105764 0.175438,-0.1866635 0.50085,-0.2562089 0.02223,-0.1830125 0,0 -0.176135,0.065857 -0.176135,0.065857 v 0 c -0.255205,0.1247667 -0.525656,0.2249554 -0.708336,0.4390769 -0.39168,0.3422628 -0.783526,0.6862676 -1.21537,0.9869281 -1.270467,0.8836527 -2.52349,1.7884181 -3.770531,2.6992278 -2.97483,2.187378 -5.9831482,4.369025 -8.5906047,6.926649 0,0 0.9333939,-0.368781 0.9333939,-0.368781 z" />
      <path
         style="fill:#0000ff;stroke-width:0.264583"
         id="path2917"
         d="m 5.2790527,28.213739 c 4.4306055,-3.289827 8.5322163,-6.976114 12.5969723,-10.699593 2.81935,-2.674871 5.747318,-5.237859 8.536249,-7.9448087 4.156482,-3.6345221 4.987955,-5.0603083 2.36783,-2.7496341 -1.134742,1.0478723 -2.250487,2.1160107 -3.381723,3.1676761 -2.725165,2.6309807 -5.406195,5.3086977 -8.24371,7.8214897 -4.22366,3.800216 -8.5144511,7.526933 -13.0961078,10.894888 l 1.2204965,-0.490018 z"
         sodipodi:nodetypes="ccccccccc" />
      <path
         style="fill:#0000ff;stroke-width:0.264583"
         id="path2919"
         d="M 3.9678297,37.049535 C 8.507868,32.450084 13.147929,27.957036 17.870164,23.545337 c 4.603077,-4.209 9.145731,-8.484316 13.596081,-12.854612 1.209593,-1.1801674 2.338017,-2.4312772 3.357319,-3.7781408 0.239717,-0.3244976 0.511418,-0.6203262 0.71035,-0.9720452 0,0 -0.913537,0.3872727 -0.913537,0.3872727 v 0 c -0.330097,0.3161406 -0.59994,0.6632141 -0.858785,1.04165 -1.00675,1.3206481 -2.106401,2.5600906 -3.285625,3.7307643 -4.408548,4.384945 -8.946467,8.636567 -13.539151,12.827898 -4.793956,4.460995 -9.4990333,9.010543 -14.1550125,13.615184 0,0 1.1860262,-0.493773 1.1860262,-0.493773 z" />
      <path
         style="fill:#0000ff;stroke-width:0.264583"
         id="path2921"
         d="M 4.1248099,42.036366 C 9.0037966,36.522703 14.46146,31.571701 19.892638,26.616415 c 5.383814,-4.891853 10.663585,-9.913522 15.572273,-15.286059 1.647277,-1.8578667 3.197,-3.800913 4.701011,-5.7758876 0.113101,-0.1520873 0.226203,-0.3041746 0.339307,-0.4562618 0.0849,-0.1106757 0.170939,-0.2204874 0.254703,-0.3320267 0.175731,-0.2340036 0.245912,-0.3430558 0.230535,-0.3498405 -0.07062,-0.031157 -0.14894,0.040609 -0.223409,0.060913 0,0 -0.566238,0.2395053 -0.566238,0.2395053 v 0 c -0.111336,0.063126 -0.231341,0.1129644 -0.334012,0.189379 -0.359553,0.2675961 -0.439799,0.8551354 -0.800717,1.122227 -1.456132,1.9683198 -2.995755,3.8754836 -4.602845,5.7225113 -4.864087,5.381548 -10.149007,10.360861 -15.504938,15.247487 -5.52575,5.029775 -11.0834638,10.040152 -16.1128212,15.578548 0,0 1.2793231,-0.540544 1.2793231,-0.540544 z" />
      <path
         style="fill:#0000ff;stroke-width:0.264583"
         id="path2923"
         d="m 2.5995485,49.251868 c 4.4075913,-5.430589 9.3110445,-10.426054 14.2608165,-15.35717 3.86761,-3.839083 7.792709,-7.622166 11.564675,-11.556493 2.124501,-2.215949 2.709987,-2.888226 4.739786,-5.1203 2.615575,-2.993876 5.186577,-6.033396 7.609303,-9.1866922 0.559702,-0.6865485 1.028938,-1.4460008 1.65345,-2.0778078 0.498356,-0.3721764 -0.06599,-0.092746 -0.301662,-0.00175 0,0 -0.24765,0.1003487 -0.24765,0.1003487 v 0 C 41.618194,6.1656392 41.285859,6.2371688 41.134811,6.4985403 40.627362,7.1669151 40.1104,7.8281348 39.636174,8.5212635 37.307082,11.671388 34.769987,14.665756 32.202322,17.621931 26.960169,23.381519 21.442328,28.876892 15.862126,34.307941 10.857462,39.288738 5.8984698,44.331889 1.3906408,49.774112 c 0,0 1.2089077,-0.522235 1.2089077,-0.522235 z" />
    </g>
  </g>
  <g
     inkscape:groupmode="layer"
     id="g4206"
     inkscape:label="End"
     style="display:inline"
     transform="translate(-125.55109,-91.639907)">
    <g
       id="g94"
       inkscape:label="end-mark"
       transform="matrix(0.16431918,0,0,0.16431918,125.55109,96.488997)"
       style="fill:#0000ff">
      <path
         style="fill:#0000ff;stroke-width:0.305172"
         id="path4194"
         d="m 295.18264,197.11585 c -3.87358,4.2033 -8.35036,7.79971 -12.80836,11.36565 -2.26184,1.50908 -10.97303,8.91122 -4.64817,4.05218 1.94071,-1.47173 3.85477,-2.97863 5.7597,-4.4956 4.54423,-3.64311 9.13961,-7.27668 13.12264,-11.53644 z"
         sodipodi:nodetypes="cccccc" />
      <path
         style="fill:#0000ff;stroke-width:0.191325"
         id="path4196"
         d="m 296.24815,202.41736 c -2.5358,2.52373 -5.46649,4.68307 -8.38487,6.82411 -1.27406,0.92682 -2.55797,1.84409 -3.86581,2.73126 -0.44055,0.31306 -0.84032,0.66971 -1.25468,1.01058 -0.17543,0.18666 -0.50085,0.25621 -0.0222,0.18301 0,0 0.17614,-0.0659 0.17614,-0.0659 v 0 c 0.2552,-0.12477 0.52566,-0.22496 0.70834,-0.43908 0.39168,-0.34226 0.78352,-0.68626 1.21537,-0.98693 1.27046,-0.88365 2.52349,-1.78841 3.77053,-2.69922 2.97483,-2.18738 5.98314,-4.36903 8.5906,-6.92665 0,0 -0.93339,0.36878 -0.93339,0.36878 z" />
      <path
         style="fill:#0000ff;stroke-width:0.264583"
         id="path4198"
         d="m 295.61257,191.31369 c -4.4306,3.28983 -8.53221,6.97612 -12.59697,10.6996 -2.81935,2.67487 -5.74732,5.23785 -8.53625,7.9448 -4.15648,3.63453 -4.98795,5.06031 -2.36783,2.74964 1.13474,-1.04787 2.25049,-2.11601 3.38172,-3.16768 2.72517,-2.63098 5.4062,-5.30869 8.24371,-7.82149 4.22366,-3.80021 8.51446,-7.52693 13.09611,-10.89488 z"
         sodipodi:nodetypes="ccccccccc" />
      <path
         style="fill:#0000ff;stroke-width:0.264583"
         id="path4200"
         d="m 296.9238,182.4779 c -4.54004,4.59945 -9.1801,9.0925 -13.90234,13.5042 -4.60308,4.209 -9.14573,8.48431 -13.59608,12.85461 -1.20959,1.18016 -2.33802,2.43127 -3.35732,3.77814 -0.23971,0.3245 -0.51142,0.62032 -0.71035,0.97204 0,0 0.91354,-0.38727 0.91354,-0.38727 v 0 c 0.3301,-0.31614 0.59994,-0.66321 0.85878,-1.04165 1.00675,-1.32065 2.1064,-2.56009 3.28563,-3.73076 4.40855,-4.38495 8.94647,-8.63657 13.53915,-12.8279 4.79396,-4.461 9.49903,-9.01054 14.15501,-13.61519 0,0 -1.18602,0.49378 -1.18602,0.49378 z" />
      <path
         style="fill:#0000ff;stroke-width:0.264583"
         id="path4202"
         d="m 296.76682,177.49107 c -4.87899,5.51366 -10.33665,10.46466 -15.76783,15.41995 -5.38382,4.89185 -10.66359,9.91352 -15.57227,15.28606 -1.64728,1.85786 -3.197,3.80091 -4.70102,5.77588 -0.1131,0.15209 -0.2262,0.30418 -0.3393,0.45627 -0.0849,0.11067 -0.17094,0.22048 -0.25471,0.33202 -0.17573,0.23401 -0.24591,0.34306 -0.23053,0.34984 0.0706,0.0312 0.14894,-0.0406 0.22341,-0.0609 0,0 0.56624,-0.2395 0.56624,-0.2395 v 0 c 0.11133,-0.0631 0.23134,-0.11297 0.33401,-0.18938 0.35955,-0.2676 0.4398,-0.85514 0.80072,-1.12223 1.45613,-1.96832 2.99575,-3.87549 4.60284,-5.72251 4.86409,-5.38155 10.14901,-10.36086 15.50494,-15.24749 5.52575,-5.02977 11.08346,-10.04015 16.11282,-15.57855 0,0 -1.27932,0.54055 -1.27932,0.54055 z" />
      <path
         style="fill:#0000ff;stroke-width:0.264583"
         id="path4204"
         d="m 298.29208,170.27556 c -4.40759,5.43059 -9.31105,10.42606 -14.26082,15.35717 -3.86761,3.83909 -7.79271,7.62217 -11.56467,11.5565 -2.12451,2.21595 -2.70999,2.88822 -4.73979,5.1203 -2.61557,2.99387 -5.18658,6.03339 -7.6093,9.18669 -0.55971,0.68655 -1.02894,1.446 -1.65345,2.07781 -0.49836,0.37217 0.066,0.0927 0.30166,0.002 0,0 0.24765,-0.10035 0.24765,-0.10035 v 0 c 0.26007,-0.11364 0.59241,-0.18517 0.74345,-0.44654 0.50745,-0.66837 1.02442,-1.32959 1.49864,-2.02272 2.32909,-3.15013 4.86619,-6.14449 7.43385,-9.10067 5.24216,-5.75959 10.76,-11.25496 16.3402,-16.68601 5.00466,-4.9808 9.96366,-10.02395 14.47148,-15.46617 0,0 -1.2089,0.52223 -1.2089,0.52223 z" />
    </g>
  </g>
  <g
     inkscape:groupmode="layer"
     id="layer3"
     inkscape:label="Function"
     style="display:inline"
     transform="translate(-125.55109,-91.639907)">
    <g
       id="g78"
       inkscape:label="function-state"
       transform="matrix(0.16431918,0,0,0.16431918,125.55109,96.488997)"
       style="fill:#0000ff">
      <path
         style="fill:#0000ff;stroke-width:0.261597"
         id="path4242"
         d="m 42.834912,37.330391 c 0.01093,0.852795 0.02182,1.705588 0.03274,2.558381 0,0 0.07042,-0.03593 0.07042,-0.03593 v 0 c 0.01177,-0.863359 0.02352,-1.726717 0.03529,-2.590077 0,0 -0.138441,0.06764 -0.138441,0.06764 z" />
      <path
         style="fill:#0000ff;stroke-width:0.261597"
         id="path4244"
         d="m 131.65954,28.930801 c -4.04719,0.390023 -7.86435,1.742868 -11.57951,3.321553 -5.97772,3.00353 -11.59835,6.662629 -17.2292,10.26219 -4.603458,2.943783 -8.945134,6.272176 -13.374512,9.468277 -5.454688,4.023147 -10.760833,8.270944 -15.677966,12.942489 -3.974277,3.978577 -5.965407,9.284698 -7.944739,14.432753 -2.457206,7.048324 -4.382222,14.26946 -6.294946,21.480777 -1.585292,5.94176 -3.18321,11.89164 -4.16304,17.9708 -0.560018,3.47451 -0.751261,5.63619 -1.128578,9.10798 -0.46668,5.29509 -0.522604,10.7023 0.668236,15.91669 0.784166,3.43365 1.333158,4.42124 2.650955,7.70752 2.430127,5.26773 5.684261,10.11748 9.612683,14.38216 2.34334,2.54392 3.475577,3.44446 6.015581,5.70659 4.770573,4.12645 10.302905,7.12266 16.375469,8.81786 1.28107,0.35762 2.589688,0.6076 3.884533,0.9114 6.467005,1.17181 13.080514,1.79778 19.636244,1.02367 1.49894,-0.17701 2.98195,-0.47017 4.47292,-0.70525 9.60853,-1.9152 18.86784,-5.15297 28.02706,-8.56958 8.66673,-3.31465 17.34033,-6.61417 25.95044,-10.07433 8.57601,-3.44874 16.73659,-7.79226 24.42667,-12.92429 1.85469,-1.23775 3.63362,-2.58576 5.45044,-3.87864 7.87144,-5.98322 10.66224,-14.33028 17.30117,-21.68352 3.9233,-4.34544 5.04633,-6.05068 8.49819,-10.65113 3.99526,-5.70717 7.06212,-11.3024 7.11029,-18.440615 0.0244,-3.61072 -0.46662,-4.815039 -1.26641,-8.322265 -2.15174,-7.320334 -5.88884,-14.001319 -10.11461,-20.29988 -3.78931,-5.367142 -3.64637,-8.190453 -8.28458,-12.809815 -4.44663,-4.329445 -9.07197,-8.447243 -14.06384,-12.133417 -3.20327,-2.23677 -6.59616,-4.225248 -10.21215,-5.71792 -2.07092,-0.854874 -2.96893,-1.092116 -5.09179,-1.767104 -5.54801,-1.518164 -11.28333,-2.172264 -16.97893,-2.867843 -4.04509,-0.467801 -8.08784,-0.965401 -12.14416,-1.326506 -2.91608,-0.257238 -5.8406,-0.387945 -8.76711,-0.425649 -1.92654,-0.02089 -3.85323,-0.01696 -5.77986,-0.0195 -1.18777,-5.23e-4 -2.3755,0.0087 -3.56327,0.01335 -1.48787,-7.85e-4 -2.97585,0.0063 -4.46371,-0.0038 -0.69333,-0.04347 -1.37537,0.05017 -2.05495,0.178766 -0.51109,0.116061 -1.0184,0.24909 -1.51935,0.403325 -0.24885,0.07663 -0.13214,0.03519 -0.37603,0.407784 l 0.0693,-0.05429 v 0 c -1.93228,1.224526 -1.36764,0.77465 -0.94981,0.622339 0.49313,-0.166508 0.99832,-0.295597 1.50476,-0.414119 0.66613,-0.147476 1.32294,-0.214956 2.0052,-0.182504 1.49183,-0.0099 2.98378,-0.0034 4.47563,-0.0048 1.18091,0.0037 2.36184,0.01171 3.54275,0.0021 1.93229,-0.01244 3.86469,-0.01503 5.79696,0.0034 2.93489,0.05393 5.86925,0.152558 8.79591,0.390733 4.06168,0.352304 8.10729,0.863153 12.15938,1.309417 5.69467,0.68021 11.42781,1.314936 16.97346,2.836836 2.19496,0.683591 2.95232,0.866538 5.08962,1.746698 3.60733,1.485534 6.99405,3.473249 10.19871,5.687722 0.87594,0.647751 1.7693,1.272507 2.62782,1.943253 4.01537,3.137122 7.66864,6.715335 11.37586,10.201029 4.64566,4.600763 4.48052,7.428791 8.28859,12.77115 4.22079,6.276996 8.01736,12.895909 10.19585,20.190673 0.78426,3.475767 1.27432,4.705806 1.24916,8.28125 -0.0497,7.061652 -3.07152,12.635342 -6.99539,18.303842 -3.48933,4.66402 -4.48809,6.21405 -8.46891,10.62186 -6.63587,7.34764 -9.41784,15.6937 -17.29721,21.65728 -3.43088,2.43656 -6.0508,4.40555 -9.56645,6.55532 -5.79374,3.5428 -11.93619,6.42796 -18.1999,9.02951 -8.61518,3.47288 -17.29607,6.78038 -25.97261,10.09575 -9.15486,3.41527 -18.40283,6.67378 -28.00828,8.58583 -1.48605,0.23555 -2.96409,0.52906 -4.45815,0.70666 -6.53893,0.77731 -13.13763,0.1619 -19.588216,-1.01143 -3.343562,-0.7775 -4.383933,-0.90496 -7.594946,-2.10279 -4.648588,-1.7341 -8.852851,-4.37739 -12.640502,-7.56797 -2.570132,-2.27783 -3.644512,-3.11843 -6.011577,-5.68883 -3.917543,-4.25408 -7.172754,-9.09178 -9.572543,-14.35803 -1.305149,-3.2817 -1.848899,-4.26567 -2.621305,-7.69265 -1.173294,-5.2056 -1.106946,-10.59809 -0.658071,-15.88214 0.404799,-3.72155 0.534806,-5.36922 1.147057,-9.10632 0.995858,-6.07857 2.586084,-12.03193 4.188469,-17.97183 1.92917,-7.212851 3.853298,-14.442188 6.340691,-21.48627 1.998349,-5.148955 4.002588,-10.447402 8.021184,-14.398969 4.91248,-4.663491 10.205125,-8.914104 15.66457,-12.916531 4.444272,-3.196985 8.803734,-6.521457 13.415169,-9.475878 4.86783,-3.119128 9.7056,-6.325516 14.87199,-8.934503 3.75571,-1.610533 7.62297,-2.98952 11.70696,-3.464472 l 0.89121,-0.663153 z"
         sodipodi:nodetypes="cccccccscscscscscccscscsccccsccccccccsccscccccccccscscccscscscccscscscscsccccccccc" />
      <path
         style="fill:#0000ff;stroke-width:0.261597"
         id="path4246"
         d="m 60.289398,57.214114 c 4.494835,1.977836 8.939164,4.067821 13.413203,6.092629 7.115558,3.39342 14.391455,6.427677 21.677955,9.428581 6.821224,2.703462 13.608214,5.484339 20.290024,8.518332 4.57997,2.238014 9.10012,4.650505 13.32492,7.516842 2.70703,1.836602 3.52195,2.574237 6.06214,4.613764 6.04094,4.906241 11.33101,10.622908 16.64714,16.282608 4.95857,5.29738 9.11434,11.26963 13.81502,16.78252 0.94923,1.11324 1.9413,2.18912 2.91195,3.28367 5.8651,6.18038 12.47541,11.57407 19.21272,16.7602 4.236,3.10331 8.42191,6.27479 12.64989,9.38887 2.03312,1.41588 3.84948,3.09367 5.6577,4.7786 1.40396,1.15296 2.69027,2.63397 4.39478,3.3457 0.24119,-0.007 0.48237,-0.0139 0.72355,-0.021 0,0 0.11699,-0.0754 0.11699,-0.0754 v 0 c 0.01,-0.15415 0.0195,-0.30829 0.0291,-0.46244 -1.23174,-1.27318 -2.99174,-2.09767 -4.16463,-3.46736 -1.81222,-1.69437 -3.62616,-3.38813 -5.69416,-4.77379 -4.25531,-3.08636 -8.42387,-6.29174 -12.69496,-9.35695 -6.75406,-5.15898 -13.36439,-10.5489 -19.23388,-16.72013 -0.96384,-1.09697 -1.94629,-2.17781 -2.89152,-3.29091 -4.69329,-5.52677 -8.90281,-11.46262 -13.86907,-16.75903 -5.32766,-5.66879 -10.73921,-11.292013 -16.76863,-16.224861 -2.60791,-2.093607 -3.29631,-2.733175 -6.07933,-4.615654 -4.23035,-2.861459 -8.7447,-5.290266 -13.32502,-7.533289 -6.68367,-3.045053 -13.48452,-5.812888 -20.316704,-8.505212 -7.33058,-2.951931 -14.613242,-6.018506 -21.777839,-9.358186 -4.533557,-2.008206 -9.065701,-4.013255 -13.631758,-5.945689 0,0 -0.479601,0.317545 -0.479601,0.317545 z" />
      <path
         style="fill:#0000ff;stroke-width:0.261597"
         id="path4248"
         d="m 59.39093,159.59006 c 7.538972,-5.25446 14.863786,-10.81473 22.1788,-16.37598 6.369997,-4.961 12.64465,-10.0665 18.60373,-15.52083 4.11168,-3.7634 5.70545,-5.44546 9.72084,-9.45355 9.83562,-9.95785 19.30123,-20.271558 28.8658,-30.488218 1.21274,-1.26938 2.41984,-2.544187 3.63823,-3.808143 1.71221,-1.776266 4.25096,-4.384219 6.06045,-6.128276 3.0236,-2.914277 6.20219,-5.658239 9.36566,-8.416988 5.6915,-4.797571 11.2234,-9.777281 16.7399,-14.773977 2.89202,-2.473693 5.48387,-5.260438 7.9846,-8.121975 2.54754,-2.875213 4.64433,-6.09773 6.78488,-9.276454 0.66974,-1.08221 1.47517,-2.079127 2.14896,-3.157975 0.089,-0.1357 0.0936,-0.246122 0.079,-0.396061 -0.007,-0.03736 -0.0166,-0.07919 -0.0231,-0.111645 0,0 -1.64008,0.988135 -1.64008,0.988135 v 0 c 0.0105,0.0026 0.0276,-0.0026 0.0315,0.0075 -0.002,0.08129 -0.0246,0.162104 -0.0917,0.242035 -0.61303,1.073189 -1.38908,2.047829 -2.03707,3.098807 -2.12887,3.173624 -4.22707,6.38228 -6.76996,9.246964 -2.50214,2.851123 -5.10316,5.616471 -7.9774,8.098756 -5.48058,5.000401 -10.99591,9.962151 -16.67066,14.742143 -3.16801,2.761168 -6.35069,5.50795 -9.37282,8.431165 -1.78094,1.722646 -4.33601,4.361504 -6.01757,6.114782 -1.20909,1.260659 -2.40696,2.532055 -3.61045,3.798084 -9.54215,10.218767 -18.99286,20.527951 -28.82822,30.466901 -4.01208,3.989 -5.65424,5.71041 -9.757609,9.45921 -5.954633,5.4401 -12.21503,10.54213 -18.573751,15.49704 -7.289514,5.54593 -14.601276,11.07219 -22.099804,16.3325 0,0 1.267838,-0.49396 1.267838,-0.49396 z" />
    </g>
  </g>
  <g
     inkscape:groupmode="layer"
     id="layer4"
     inkscape:label="Send"
     style="display:inline"
     transform="translate(-125.55109,-91.639907)">
    <g
       id="g105"
       inkscape:label="send-state"
       transform="matrix(0.16431918,0,0,0.16431918,125.55109,96.488997)"
       style="fill:#0000ff">
      <path
         style="fill:#0000ff;stroke-width:0.249723"
         id="path4459"
         d="m 63.808585,187.45755 c 7.690204,6.11721 16.812124,10.52173 25.414102,15.49454 2.989782,1.72839 5.921742,3.5349 8.882612,5.30235 11.535531,7.01035 22.716051,14.47656 33.453451,22.42992 4.93738,3.65719 6.93111,5.28024 11.62723,8.97914 6.85018,5.51724 13.58166,11.15405 20.56301,16.54068 1.94441,1.43183 3.89561,2.90369 6.08878,4.03201 0.87696,0.39581 0.61287,0.22452 1.90015,-0.78807 0.29711,-0.2337 0.52673,-0.52772 0.7901,-0.79159 4.61363,-4.47759 8.20065,-9.6372 11.64992,-14.85108 5.04701,-7.52158 8.50766,-15.73017 11.79345,-23.9526 2.45829,-6.52732 5.92703,-12.67063 9.6944,-18.66073 3.37777,-5.04098 6.83099,-10.04678 10.38204,-14.99288 1.24861,-1.76868 2.6718,-3.42978 4.06491,-5.10788 0.54673,-0.67192 1.15297,-1.30079 1.68128,-1.98488 0.036,-0.0515 0.0799,-0.0981 0.12106,-0.1459 0,0 -1.06203,0.41512 -1.06203,0.41512 v 0 c -0.0276,0.0412 -0.0591,0.0945 -0.0964,0.13183 -0.5133,0.62407 -0.96586,1.28244 -1.48019,1.90555 -1.38333,1.67322 -2.79351,3.33173 -4.0261,5.09877 -3.52217,4.95149 -6.94359,9.96282 -10.34266,14.9817 -3.82533,5.97821 -7.24808,12.15533 -9.7289,18.68889 -3.34714,8.22283 -6.80431,16.45344 -11.89441,23.97639 -3.48897,5.2306 -7.12799,10.40153 -11.78839,14.88455 -0.26869,0.26653 -0.72964,0.44789 -0.80607,0.79958 -0.0438,0.20147 0.44217,-0.11646 0.66717,-0.1604 0.0586,-0.0116 -0.12459,0.0137 -0.1798,-0.007 -0.0735,-0.0277 -0.14443,-0.0608 -0.21664,-0.0911 -2.24394,-1.06658 -4.22504,-2.52045 -6.18151,-3.95188 -7.02801,-5.35738 -13.81351,-10.96041 -20.69252,-16.46758 -4.78434,-3.73325 -6.66008,-5.24943 -11.69402,-8.94632 -10.79333,-7.92655 -22.05137,-15.33309 -33.608211,-22.35134 -2.97572,-1.75972 -5.92973,-3.54892 -8.92716,-5.27914 -8.563821,-4.94333 -17.597045,-9.42332 -25.138596,-15.62506 0,0 -0.910068,0.49464 -0.910068,0.49464 z" />
      <path
         style="fill:#0000ff;stroke-width:0.267621"
         id="path4461"
         d="m 71.236451,191.11708 c 7.98749,-0.0509 15.974333,-0.13028 23.960903,-0.25257 12.038786,-0.0857 23.980066,-1.4373 35.875196,-2.96756 10.24347,-1.4419 20.48697,-2.86971 30.77839,-4.01085 7.98576,-0.87014 15.97959,-1.68072 23.96419,-2.55921 6.55659,-0.73443 13.12878,-1.32553 19.71363,-1.81197 4.38045,-0.29084 8.7632,-0.55306 13.15171,-0.7233 1.15503,-0.10319 0.62031,0.007 1.61238,-0.29579 0,0 0.1648,-0.10937 0.1648,-0.10937 v 0 c -0.3536,-0.29125 -0.0909,-0.13555 -0.93016,-0.15095 -4.40491,0.21302 -8.80661,0.4719 -13.20651,0.75592 -6.54917,0.4479 -13.08776,0.98453 -19.60368,1.73416 -7.98346,0.85227 -15.96955,1.68475 -23.95127,2.55028 -10.31084,1.13857 -20.56906,2.58949 -30.82958,4.04257 -11.88308,1.5337 -23.81482,2.87347 -35.84167,2.96076 -7.982581,0.12272 -15.965535,0.16929 -23.948714,0.2446 0,0 -0.909615,0.59328 -0.909615,0.59328 z" />
      <path
         style="fill:#0000ff;stroke-width:0.289803"
         id="path4463"
         d="m 89.593796,201.18011 c 10.955364,-1.5719 22.037114,-2.50659 33.120774,-3.3563 13.23343,-0.82054 26.43515,-1.83912 39.56871,-3.32822 11.56109,-1.35895 23.04251,-3.0628 34.49684,-4.86337 5.15658,-0.77539 10.29636,-1.61466 15.45799,-2.3705 0.48654,-0.0739 0.97429,-0.14375 1.46007,-0.22063 0,0 1.22217,-0.70687 1.22217,-0.70687 v 0 c -0.50223,0.0793 -1.00278,0.16487 -1.50439,0.2464 -5.21032,0.87334 -10.43985,1.67903 -15.66695,2.49129 -11.45851,1.81033 -22.9443,3.52347 -34.51301,4.87919 -13.07933,1.47259 -26.23115,2.39745 -39.40359,3.24003 -11.06989,0.85401 -22.14681,1.75957 -33.08985,3.32814 0,0 -1.148764,0.66084 -1.148764,0.66084 z" />
      <path
         style="fill:#0000ff;stroke-width:0.290753"
         id="path4465"
         d="m 107.76118,214.05909 c 7.7268,-0.73125 15.48529,-1.19044 23.19799,-2.01118 10.52724,-1.31376 20.79813,-3.52639 31.03196,-5.76732 7.86129,-1.73439 15.62846,-3.70192 23.36696,-5.72551 4.65582,-1.21349 9.31067,-2.43306 14.04561,-3.45885 2.44879,-0.52704 4.9517,-0.8876 7.46935,-1.16114 1.02828,-0.20506 0.55345,-0.0722 1.43287,-0.3809 0,0 0.30997,-0.17674 0.30997,-0.17674 v 0 c 0.0291,-0.25666 0.0783,-0.13629 -0.43677,-0.18265 -2.52487,0.26001 -5.03172,0.62616 -7.48628,1.14926 -4.75164,1.0271 -9.41991,2.25655 -14.09009,3.47661 -7.72963,2.02347 -15.49062,3.9824 -23.34232,5.71888 -10.20711,2.23145 -20.44876,4.4371 -30.94888,5.74165 -7.68636,0.82084 -15.41717,1.28 -23.12379,1.97127 0,0 -1.42658,0.80662 -1.42658,0.80662 z" />
      <path
         style="fill:#0000ff;stroke-width:0.262049"
         id="path4467"
         d="m 130.34499,226.83439 c 7.3201,-0.63622 14.61138,-1.51333 21.9009,-2.39615 6.67408,-0.80968 13.27425,-2.1677 19.68564,-4.07969 3.55047,-1.05881 5.24133,-1.70662 8.68542,-2.92866 5.0958,-1.88458 10.1182,-3.93812 15.25499,-5.72541 1.11683,-0.35098 2.21758,-0.70166 3.27415,-1.18547 0,0 0.35501,-0.25607 0.35501,-0.25607 v 0 c -0.57783,-0.27507 -2.08166,0.70482 -2.67594,0.74536 -5.16157,1.81644 -10.21668,3.87807 -15.33934,5.78631 -3.45587,1.23169 -5.1288,1.87638 -8.69163,2.94293 -6.37416,1.90815 -12.93591,3.25322 -19.57885,4.0256 -7.27168,0.87985 -14.54581,1.74898 -21.8502,2.36169 0,0 -1.02015,0.70956 -1.02015,0.70956 z" />
      <path
         style="fill:#0000ff;stroke-width:0.281393"
         id="path4469"
         d="m 141.13837,236.79811 c 8.0069,-2.2355 15.94768,-4.59901 23.7852,-7.19871 7.31027,-2.50771 14.51797,-5.2098 21.70038,-7.94787 1.1497,-0.53618 2.67056,-0.79997 3.38208,-1.77279 0,0 -0.0873,0.0295 -0.0873,0.0295 v 0 c -1.12853,0.7477 -0.67472,0.47098 -2.16766,1.01732 -7.21226,2.75894 -14.4293,5.5177 -21.789,8.01207 -7.80758,2.58804 -15.71139,4.95599 -23.70143,7.14995 0,0 -1.12225,0.71061 -1.12225,0.71061 z" />
      <path
         style="fill:#0000ff;stroke-width:0.30184"
         id="path4471"
         d="m 147.82561,241.97938 c 9.88021,-2.1046 19.72748,-4.28287 29.57472,-6.46203 2.97484,-0.63593 5.91822,-1.34077 8.87757,-2.01058 1.27722,-0.28908 2.43027,-0.50845 3.60778,-0.95512 0,0 0.69277,-0.38702 0.69277,-0.38702 v 0 c -4.09753,0.80691 -8.03322,2.0018 -12.14143,2.78824 -9.81893,2.18703 -19.63744,4.37449 -29.515,6.42834 0,0 -1.09641,0.59817 -1.09641,0.59817 z" />
      <path
         style="fill:#0000ff;stroke-width:0.300505"
         id="path4473"
         d="m 152.99957,245.20421 c 7.94984,-0.53444 15.82067,-1.50364 23.59188,-2.79246 3.94281,-0.87951 8.25743,-1.25438 11.94847,-2.64024 0,0 0.65756,-0.37017 0.65756,-0.37017 v 0 c -3.83853,0.81324 -7.5858,1.85899 -11.52786,2.42722 -7.73544,1.29889 -15.57662,2.27768 -23.50269,2.76271 0,0 -1.16736,0.61294 -1.16736,0.61294 z" />
      <path
         style="fill:#0000ff;stroke-width:0.333822"
         id="path4475"
         d="m 155.4637,250.63942 c 7.17057,-0.63108 14.35432,-1.22148 21.49991,-1.94199 1.71723,-0.11373 3.33542,-0.40938 4.9396,-0.75982 0,0 0.14526,-0.0636 0.14526,-0.0636 v 0 c -1.27236,-0.0855 -2.50544,0.0908 -3.74942,0.24475 -7.13479,0.74067 -14.31261,1.34071 -21.48629,1.94122 0,0 -1.34914,0.5795 -1.34914,0.5795 z" />
    </g>
  </g>
  <g
     inkscape:groupmode="layer"
     id="g4575"
     inkscape:label="Retrieve"
     style="display:inline"
     transform="translate(-125.55109,-91.639907)">
    <g
       id="g116"
       inkscape:label="retrieve-state"
       style="display:inline"
       inkscape:groupmode="layer">
      <path
         style="fill:#0000ff;stroke-width:0.0410343"
         id="path4557"
         d="m 163.97798,103.63121 c -1.26364,-1.00517 -2.76255,-1.72893 -4.17602,-2.54606 -0.49128,-0.28401 -0.97307,-0.58085 -1.45958,-0.87127 -1.89552,-1.15194 -3.73269,-2.37878 -5.49705,-3.68566 -0.81131,-0.600948 -1.13892,-0.867655 -1.91058,-1.475455 -1.12561,-0.906582 -2.23173,-1.832816 -3.37889,-2.717954 -0.3195,-0.235272 -0.64012,-0.477117 -1.00051,-0.662535 -0.14411,-0.06507 -0.10073,-0.03697 -0.31224,0.129483 -0.0488,0.03845 -0.0866,0.08676 -0.12981,0.130141 -0.7581,0.735756 -1.34751,1.583577 -1.9143,2.440321 -0.82932,1.235943 -1.39796,2.584757 -1.93788,3.935871 -0.40395,1.072561 -0.97394,2.082028 -1.59298,3.066308 -0.55504,0.82834 -1.12246,1.65089 -1.70598,2.46362 -0.20517,0.29064 -0.43902,0.56359 -0.66794,0.83933 -0.0899,0.11042 -0.18944,0.21375 -0.27627,0.32614 -0.007,0.008 -0.0131,0.0164 -0.0199,0.024 0,0 0.17451,-0.0682 0.17451,-0.0682 v 0 c 0.005,-0.007 0.01,-0.0148 0.0164,-0.0217 0.0843,-0.10254 0.15873,-0.21072 0.24322,-0.31313 0.22731,-0.27494 0.45903,-0.54746 0.66157,-0.83781 0.57876,-0.81363 1.14097,-1.63708 1.6995,-2.46178 0.62857,-0.98234 1.19099,-1.997368 1.59865,-3.070947 0.54999,-1.351164 1.11808,-2.703626 1.95448,-3.939783 0.57329,-0.859488 1.17126,-1.709166 1.93706,-2.445825 0.0442,-0.04387 0.11995,-0.07362 0.13244,-0.131291 0.007,-0.03319 -0.0726,0.01906 -0.1096,0.02629 -0.01,0.0016 0.0205,-0.0016 0.0296,0.0012 0.0115,0.0049 0.0237,0.0099 0.0357,0.01479 0.36872,0.175246 0.69425,0.41415 1.01574,0.649357 1.15484,0.880323 2.26982,1.80102 3.40018,2.705942 0.78616,0.613453 1.09438,0.862594 1.92156,1.470049 1.77355,1.302492 3.62345,2.519522 5.52247,3.672768 0.48897,0.28915 0.97437,0.58315 1.4669,0.86745 1.40719,0.8123 2.89154,1.54843 4.13075,2.56751 0,0 0.14953,-0.0813 0.14953,-0.0813 z" />
      <path
         style="fill:#0000ff;stroke-width:0.0439753"
         id="path4559"
         d="m 162.75744,103.02987 c -1.3125,0.008 -2.62489,0.0214 -3.93724,0.0416 -1.9782,0.0148 -3.94039,0.23618 -5.89498,0.48764 -1.68321,0.23693 -3.36641,0.47154 -5.05748,0.65905 -1.31221,0.14296 -2.62576,0.27617 -3.93778,0.42052 -1.07738,0.12078 -2.1573,0.21782 -3.23932,0.29775 -0.71979,0.0478 -1.43997,0.0909 -2.16108,0.1188 -0.18979,0.0169 -0.10188,-10e-4 -0.26495,0.0486 0,0 -0.0271,0.0179 -0.0271,0.0179 v 0 c 0.0582,0.0478 0.0148,0.0223 0.15282,0.0248 0.72381,-0.035 1.44709,-0.0775 2.17008,-0.12422 1.07616,-0.0736 2.15056,-0.16169 3.22126,-0.28496 1.31183,-0.14 2.6241,-0.27683 3.93564,-0.41905 1.69428,-0.18709 3.3799,-0.42551 5.0659,-0.66428 1.95262,-0.25201 3.91323,-0.47217 5.88948,-0.48651 1.31169,-0.0202 2.62343,-0.0278 3.93523,-0.0403 0,0 0.14953,-0.0974 0.14953,-0.0974 z" />
      <path
         style="fill:#0000ff;stroke-width:0.0476202"
         id="path4561"
         d="m 159.74098,101.37633 c -1.80018,0.25829 -3.62112,0.41188 -5.44238,0.5515 -2.1745,0.13491 -4.34381,0.3022 -6.5019,0.54689 -1.89971,0.22331 -3.78632,0.50327 -5.6685,0.79915 -0.84731,0.12734 -1.69188,0.26532 -2.54003,0.38952 -0.08,0.0115 -0.16005,0.0237 -0.23992,0.0363 0,0 -0.20083,0.11617 -0.20083,0.11617 v 0 c 0.0825,-0.0131 0.16478,-0.0271 0.2472,-0.0404 0.85615,-0.14345 1.71547,-0.27589 2.57439,-0.40937 1.88285,-0.29746 3.77019,-0.57898 5.67114,-0.80174 2.14918,-0.24198 4.31028,-0.39394 6.47477,-0.5324 1.81898,-0.14033 3.63915,-0.28913 5.43729,-0.54687 0,0 0.18877,-0.10861 0.18877,-0.10861 z" />
      <path
         style="fill:#0000ff;stroke-width:0.0477763"
         id="path4563"
         d="m 156.75573,99.260059 c -1.26966,0.120118 -2.54453,0.195622 -3.81188,0.330479 -1.72982,0.215882 -3.41752,0.579452 -5.09915,0.947682 -1.29176,0.28499 -2.56805,0.60831 -3.83963,0.94081 -0.76504,0.1994 -1.52993,0.3998 -2.30796,0.56836 -0.40239,0.0866 -0.81366,0.14591 -1.22737,0.19079 -0.16897,0.0337 -0.0909,0.0115 -0.23545,0.0626 0,0 -0.0509,0.0291 -0.0509,0.0291 v 0 c -0.005,0.0422 -0.0131,0.0224 0.0718,0.0301 0.41489,-0.0427 0.82682,-0.10286 1.23014,-0.18883 0.7808,-0.16878 1.54787,-0.37081 2.31527,-0.57128 1.27013,-0.3325 2.54541,-0.65438 3.83559,-0.93972 1.67722,-0.36668 3.36013,-0.729103 5.0855,-0.943474 1.26302,-0.134906 2.53334,-0.210328 3.79968,-0.323905 0,0 0.23442,-0.132606 0.23442,-0.132606 z" />
      <path
         style="fill:#0000ff;stroke-width:0.0430597"
         id="path4565"
         d="m 153.04478,97.160832 c -1.20284,0.104507 -2.40094,0.248681 -3.59874,0.393742 -1.09668,0.133099 -2.18122,0.356195 -3.23474,0.670373 -0.5834,0.173981 -0.86125,0.280427 -1.42718,0.481225 -0.83733,0.309676 -1.66261,0.647122 -2.50669,0.940793 -0.18351,0.05768 -0.36439,0.115352 -0.53799,0.194801 0,0 -0.0583,0.04206 -0.0583,0.04206 v 0 c 0.095,0.04519 0.34205,-0.115845 0.4397,-0.122418 0.84815,-0.298469 1.6788,-0.637229 2.52055,-0.9508 0.56787,-0.202392 0.84276,-0.308328 1.42821,-0.483575 1.04739,-0.313553 2.12562,-0.534563 3.21717,-0.661483 1.19488,-0.144601 2.39016,-0.287394 3.59041,-0.388072 0,0 0.16764,-0.116667 0.16764,-0.116667 z" />
      <path
         style="fill:#0000ff;stroke-width:0.0462383"
         id="path4567"
         d="m 151.27121,95.523605 c -1.31568,0.367336 -2.62051,0.755704 -3.90836,1.182885 -1.20122,0.412063 -2.38559,0.85607 -3.56579,1.305992 -0.18892,0.08807 -0.43882,0.131456 -0.55575,0.291305 0,0 0.0148,-0.0049 0.0148,-0.0049 v 0 c 0.18545,-0.122911 0.11092,-0.07739 0.3562,-0.167162 1.18512,-0.453357 2.37101,-0.906664 3.58035,-1.316542 1.28294,-0.425258 2.58168,-0.814366 3.89459,-1.174882 0,0 0.18442,-0.116831 0.18442,-0.116831 z" />
      <path
         style="fill:#0000ff;stroke-width:0.0495981"
         id="path4569"
         d="m 150.17238,94.672218 c -1.62352,0.345826 -3.24161,0.703763 -4.85971,1.061847 -0.48881,0.104507 -0.97247,0.220303 -1.45874,0.33038 -0.20989,0.04749 -0.39935,0.08347 -0.59283,0.156925 0,0 -0.11388,0.06359 -0.11388,0.06359 v 0 c 0.6733,-0.132606 1.32001,-0.328934 1.99507,-0.458155 1.61345,-0.359382 3.22682,-0.718814 4.84988,-1.056309 0,0 0.18018,-0.09826 0.18018,-0.09826 z" />
      <path
         style="fill:#0000ff;stroke-width:0.0493787"
         id="path4571"
         d="m 149.32219,94.142322 c -1.3063,0.08775 -2.59964,0.247087 -3.8766,0.458861 -0.64788,0.144601 -1.35685,0.206122 -1.96337,0.433836 0,0 -0.10796,0.0608 -0.10796,0.0608 v 0 c 0.63074,-0.133592 1.2465,-0.30547 1.89424,-0.398836 1.27109,-0.213434 2.55955,-0.37427 3.86195,-0.453964 0,0 0.19182,-0.100728 0.19182,-0.100728 z" />
      <path
         style="display:inline;fill:#0000ff;stroke-width:0.0548534"
         id="path4573"
         d="m 148.91729,93.249214 c -1.17826,0.103686 -2.3587,0.200716 -3.53284,0.319108 -0.28219,0.01873 -0.54809,0.06721 -0.81167,0.124883 0,0 -0.0238,0.0099 -0.0238,0.0099 v 0 c 0.20908,0.01479 0.41168,-0.01479 0.6161,-0.04026 1.17238,-0.121761 2.35183,-0.220303 3.53061,-0.318993 0,0 0.22168,-0.09514 0.22168,-0.09514 z" />
    </g>
  </g>
</svg>
