<?xml version="1.0" encoding="UTF-8" standalone="no"?>
<svg
   xmlns:dc="http://purl.org/dc/elements/1.1/"
   xmlns:cc="http://creativecommons.org/ns#"
   xmlns:rdf="http://www.w3.org/1999/02/22-rdf-syntax-ns#"
   xmlns:svg="http://www.w3.org/2000/svg"
   xmlns="http://www.w3.org/2000/svg"
   xmlns:xlink="http://www.w3.org/1999/xlink"
   xmlns:sodipodi="http://sodipodi.sourceforge.net/DTD/sodipodi-0.dtd"
   xmlns:inkscape="http://www.inkscape.org/namespaces/inkscape"
   width="387.5079mm"
   height="315.62134mm"
   viewBox="0 0 387.5079 315.62134"
   version="1.1"
   id="svg8"
   inkscape:version="1.0.2 (e86c870879, 2021-01-15)"
   sodipodi:docname="background.svg">
  <defs
     id="defs2">
    <linearGradient
       inkscape:collect="always"
       id="linearGradient973">
      <stop
         style="stop-color:#c996cc;stop-opacity:1;"
         offset="0"
         id="stop969" />
      <stop
         style="stop-color:#c996cc;stop-opacity:0;"
         offset="1"
         id="stop971" />
    </linearGradient>
    <filter
       inkscape:collect="always"
       style="color-interpolation-filters:sRGB"
       id="filter947"
       x="-0.0010964136"
       width="1.0021929"
       y="-0.0019546349"
       height="1.0039093">
      <feGaussianBlur
         inkscape:collect="always"
         stdDeviation="0.35490983"
         id="feGaussianBlur949" />
    </filter>
    <filter
       inkscape:collect="always"
       style="color-interpolation-filters:sRGB"
       id="filter951"
       x="-0.0017023326"
       width="1.0034047"
       y="-0.001895818"
       height="1.0037916">
      <feGaussianBlur
         inkscape:collect="always"
         stdDeviation="0.35490983"
         id="feGaussianBlur953" />
    </filter>
    <linearGradient
       inkscape:collect="always"
       xlink:href="#linearGradient973"
       id="linearGradient975"
       x1="-402.55701"
       y1="245.17752"
       x2="376.02817"
       y2="245.17752"
       gradientUnits="userSpaceOnUse" />
    <linearGradient
       inkscape:collect="always"
       xlink:href="#linearGradient973"
       id="linearGradient977"
       x1="-561.87646"
       y1="46.537708"
       x2="-59.810215"
       y2="46.537708"
       gradientUnits="userSpaceOnUse" />
  </defs>
  <sodipodi:namedview
     id="base"
     pagecolor="#ffffff"
     bordercolor="#666666"
     borderopacity="1.0"
     inkscape:pageopacity="0.0"
     inkscape:pageshadow="2"
     inkscape:zoom="0.35"
     inkscape:cx="443.5077"
     inkscape:cy="-0.62002712"
     inkscape:document-units="mm"
     inkscape:current-layer="layer1"
     inkscape:document-rotation="0"
     showgrid="false"
     inkscape:window-width="3840"
     inkscape:window-height="2068"
     inkscape:window-x="0"
     inkscape:window-y="37"
     inkscape:window-maximized="1" />
  <metadata
     id="metadata5">
    <rdf:RDF>
      <cc:Work
         rdf:about="">
        <dc:format>image/svg+xml</dc:format>
        <dc:type
           rdf:resource="http://purl.org/dc/dcmitype/StillImage" />
        <dc:title></dc:title>
      </cc:Work>
    </rdf:RDF>
  </metadata>
  <g
     inkscape:label="Layer 1"
     inkscape:groupmode="layer"
     id="layer1"
     transform="translate(11.511409,-148.33072)">
    <path
       style="opacity:0.03;fill:url(#linearGradient977);fill-opacity:1;fill-rule:nonzero;stroke:#000000;stroke-width:1.079;stroke-linecap:round;stroke-linejoin:bevel;stroke-miterlimit:4;stroke-dasharray:none;stroke-dashoffset:0.4;filter:url(#filter951)"
       id="path927"
       d="m -487.46319,68.858272 c 10.71136,-23.951935 26.93871,-45.005319 44.3213,-64.45549 28.19559,-31.549333 51.87532,-52.966208 84.86161,-79.765364 14.81691,-12.037727 30.38049,-23.126057 45.57072,-34.689088 30.13832,-17.65056 57.56715,-35.8677 90.7726,-47.42329 13.05651,-4.5437 26.74315,-7.23448 40.40274,-9.36355 11.35144,-1.76932 31.08525,-13.2972 34.38905,-2.29401 11.55716,38.49067 -77.67189,-19.23533 -13.4961,18.10711 4.71796,4.44448 10.18844,8.20625 14.15386,13.33342 4.1416,5.35497 7.25589,11.50325 9.88116,17.74317 2.61185,6.20803 4.28734,12.79662 5.73496,19.3743 4.05945,18.445343 3.25493,37.559277 3.26527,56.285723 -1.66958,17.143114 -2.50078,29.755629 -6.03406,46.9864907 -1.80557,8.8052923 -3.52101,17.7092593 -6.67449,26.1264323 -4.32423,11.542104 -9.59749,22.765588 -15.66279,33.495514 -17.83792,31.556513 -31.19029,44.66747 -54.97198,73.20172 -40.39076,42.46984 -85.3714,80.30241 -132.30432,115.30265 -6.72037,5.01172 -13.60303,9.80207 -20.40454,14.70312 0,0 63.40375,5.65864 63.40375,5.65864 v 0 c 46.975,-43.22789 93.41701,-87.04758 138.69158,-132.05988 38.8466,-40.861152 33.04763,-30.9066 61.55503,-74.005728 7.520268,-11.369582 15.834061,-22.372796 21.60134,-34.724332 3.858776,-8.264176 4.706753,-17.624012 6.967384,-26.4600926 8.120322,-31.7397254 5.755974,-18.6635744 8.763849,-47.9180464 0.670518,-7.183321 1.953618,-14.335646 2.011553,-21.54996 0.04687,-5.835896 -0.896006,-11.645027 -1.698545,-17.425667 -1.80825,-13.024707 -4.684347,-27.800514 -9.418907,-40.089024 -2.663622,-6.91341 -5.247315,-14.06613 -9.660329,-20.01722 -4.290552,-5.78593 -10.649892,-9.70171 -15.974838,-14.55257 -7.212957,-4.28995 -13.389487,-11.32774 -21.638867,-12.86985 -51.6333,-9.65214 -105.21383,-12.94688 -154.59014,7.19519 -27.47877,11.20943 -61.46183,33.82578 -85.98476,48.97281 -51.27538,41.249664 -38.26997,30.132997 -90.03006,74.564963 -15.56182,13.358602 -31.46274,26.344117 -46.50365,40.28663615 -11.37578,10.54505285 -21.53314,22.34178085 -32.68715,33.12114285 -33.61124,32.482293 -19.25061,13.838894 -32.1737,31.403282 0,0 73.56147,3.800848 73.56147,3.800848 z"
       transform="matrix(0.41316343,0,0,0.49094936,220.63539,236.19205)" />
    <path
       style="opacity:0.03;fill:url(#linearGradient975);fill-opacity:1;fill-rule:nonzero;stroke:#000000;stroke-width:1.079;stroke-linecap:round;stroke-linejoin:bevel;stroke-miterlimit:4;stroke-dasharray:none;stroke-dashoffset:0.4;filter:url(#filter947)"
       id="path929"
       d="m -327.34392,296.91163 c 4.87603,-4.28064 9.41038,-8.98512 14.62809,-12.84192 6.21263,-4.59224 59.72721,-39.01456 61.48317,-40.20708 19.10588,-12.97522 37.49192,-27.00517 56.8038,-39.67175 50.80289,-33.32139 91.36818,-56.02169 143.865327,-86.6105 42.9562924,-20.96937 109.47652,-55.743525 156.109363,-69.671274 23.17518,-6.92169 47.27316,-10.865662 71.34424,-13.228235 20.083,-1.971143 40.57043,-2.634104 60.53782,0.284028 2.92049,0.426815 -6.12837,6.239444 -3.76875,8.012483 8.95678,6.73019 20.77938,8.384211 31.16906,12.576317 7.30039,4.925357 15.85632,8.371777 21.90113,14.776066 13.7709,14.589887 22.21026,37.743295 26.35813,56.723455 5.33641,24.41885 5.77157,47.57112 4.52012,72.38283 -0.53708,10.6479 -2.1217,21.21705 -3.18257,31.82558 -1.50646,8.92159 -2.45192,17.95627 -4.51938,26.76478 -2.01842,8.59971 -4.61742,17.07969 -7.71316,25.35287 -6.41037,17.13145 -12.57318,29.05604 -25.30684,42.46432 -15.01765,15.81328 -26.15851,21.12249 -44.4859,32.55746 -10.28686,4.38428 -20.38618,9.23769 -30.86057,13.15286 -25.17846,9.41131 -45.03277,14.10388 -70.89476,21.4481 -42.279849,12.00656 -54.570787,16.44373 -98.681829,26.63275 -19.42539,4.48699 -39.0197794,8.20804 -58.529669,12.31207 -53.949808,9.3354 -57.723939,10.46797 -110.001472,17.75746 -14.43877,2.01332 -28.91833,3.7225 -43.37749,5.58376 0,0 54.11866,7.77761 54.11866,7.77761 v 0 c 12.97594,-2.10095 25.965272,-4.1208 38.927828,-6.30282 43.086435,-7.25286 60.20199,-10.56328 104.676406,-18.70117 83.533166,-16.40777 38.031339,-6.5749 116.223146,-25.23485 17.58787,-4.19724 35.26497,-8.02952 52.78579,-12.49841 12.24865,-3.12412 24.41108,-6.59339 36.50362,-10.27579 35.76661,-10.89157 35.59582,-11.6745 70.16932,-25.51686 17.69515,-11.61391 31.2138,-18.98142 45.85663,-34.69013 14.72385,-15.79563 18.15386,-24.77754 24.86578,-44.67564 2.9282,-8.68087 6.02948,-17.38 7.66136,-26.39493 1.61432,-8.91803 1.34979,-18.0756 2.02469,-27.1134 0.94766,-26.91244 1.92342,-41.22178 0.81852,-68.68609 -1.17364,-29.17269 -1.23751,-43.07516 -11.90964,-69.986351 -3.99235,-10.067247 -7.6617,-20.856503 -15.00306,-28.818437 -6.82644,-7.40343 -17.26925,-10.364179 -25.90388,-15.546266 -12.08235,-4.316407 -23.57837,-10.919623 -36.24704,-12.949216 -31.14103,-4.98897 -62.77087,-6.5821 -94.27881,-7.961765 -42.92517,-1.8796 -78.67832,2.30886 -120.116502,16.143018 -29.66739,9.90447 -129.755107,58.358177 -154.933185,70.263797 -42.286493,24.98278 -105.453913,62.72738 -148.170373,86.20098 -23.91304,13.14072 -48.41437,25.18348 -72.48711,38.02925 -6.20033,3.30862 -61.36484,33.97688 -71.87396,39.12163 -8.30167,4.06408 -16.97823,7.31281 -25.46736,10.96922 0,0 74.36131,8.47019 74.36131,8.47019 z"
       transform="matrix(0.41316343,0,0,0.49094936,220.63539,236.19205)" />
  </g>
</svg>
