<?xml version="1.0" encoding="UTF-8" standalone="no"?>
<svg
   xmlns:dc="http://purl.org/dc/elements/1.1/"
   xmlns:cc="http://creativecommons.org/ns#"
   xmlns:rdf="http://www.w3.org/1999/02/22-rdf-syntax-ns#"
   xmlns:svg="http://www.w3.org/2000/svg"
   xmlns="http://www.w3.org/2000/svg"
   xmlns:sodipodi="http://sodipodi.sourceforge.net/DTD/sodipodi-0.dtd"
   xmlns:inkscape="http://www.inkscape.org/namespaces/inkscape"
   width="270"
   height="198.21892"
   viewBox="0 0 71.4375 52.445423"
   version="1.1"
   id="svg8"
   inkscape:version="1.0.2 (e86c870879, 2021-01-15)"
   sodipodi:docname="logo.svg">
  <defs
     id="defs2" />
  <sodipodi:namedview
     id="base"
     pagecolor="#ffffff"
     bordercolor="#666666"
     borderopacity="1.0"
     inkscape:pageopacity="0.0"
     inkscape:pageshadow="2"
     inkscape:zoom="3.9750497"
     inkscape:cx="191.37522"
     inkscape:cy="167.26525"
     inkscape:document-units="px"
     inkscape:current-layer="layer1"
     inkscape:document-rotation="0"
     showgrid="false"
     inkscape:window-width="3840"
     inkscape:window-height="2068"
     inkscape:window-x="0"
     inkscape:window-y="37"
     inkscape:window-maximized="1"
     units="px"
     fit-margin-top="0"
     fit-margin-left="0"
     fit-margin-right="0"
     fit-margin-bottom="0"
     scale-x="1" />
  <metadata
     id="metadata5">
    <rdf:RDF>
      <cc:Work
         rdf:about="">
        <dc:format>image/svg+xml</dc:format>
        <dc:type
           rdf:resource="http://purl.org/dc/dcmitype/StillImage" />
        <dc:title />
      </cc:Work>
    </rdf:RDF>
  </metadata>
  <g
     inkscape:label="Ebene 1"
     inkscape:groupmode="layer"
     id="layer1"
     transform="translate(-36.591666,-61.284849)">
    <path
       style="fill:#ca02bb;stroke-width:0.181494"
       id="path877"
       d="m 36.618772,61.285958 c -0.0081,14.306836 -0.02868,28.613397 -0.02701,42.920332 l 3.704677,0.005 v 0 c 0.09349,-14.30988 -0.197031,-24.050277 0.02847,-38.353561 l -3.706138,-4.57288 z"
       sodipodi:nodetypes="cccsccc" />
    <path
       style="fill:#ca02bb;stroke-width:0.192921"
       id="path879"
       d="m 36.591763,104.20629 c 3.041834,1.25207 6.238754,2.70813 9.509712,3.33225 5.336121,1.01816 15.2954,1.66495 20.55797,1.96969 7.351437,0.42569 12.531414,0.52809 19.799731,0.73922 4.669986,-0.0617 9.339972,-0.12327 14.009964,-0.18491 0,0 -6.284728,-0.91748 -6.284728,-0.91748 v 0 c -0.510554,0.0667 -1.021108,0.13343 -1.531662,0.20016 -10.214923,-0.27187 -20.449588,-0.50616 -30.626995,-1.44481 -3.175717,-0.29289 -6.36826,-0.53863 -9.49801,-1.12229 -3.38084,-0.63048 -6.216624,-1.97581 -9.298278,-3.27148 0,0 -6.637704,0.69965 -6.637704,0.69965 z" />
    <path
       style="fill:#ca02bb;stroke-width:0.189239"
       id="path881"
       d="m 44.28362,62.966741 c 0.328156,-8.3e-4 3.194683,0.189563 4.281612,-0.0069 0.321456,0.117756 -4.613909,-0.06461 -4.281612,0.0069 2.431273,0.523466 8.329719,1.117465 10.793579,1.395125 7.221452,0.813802 7.654722,0.858072 14.661374,1.632536 9.860189,1.061082 19.777641,1.611624 29.676265,0.941233 2.945392,-0.143415 5.806332,-0.89716 8.614332,-1.841626 l -6.03563,-0.863237 v 0 c -2.784388,0.914012 -5.63286,1.554272 -8.542396,1.695458 -0.668699,0.0426 -1.336897,0.09636 -2.006099,0.127801 -0.881554,0.04142 -1.831607,-0.287136 -2.645772,0.09075 -0.740891,0.343876 3.209497,0.08484 2.408735,0.01927 -1.433768,-0.11743 -2.874398,-0.09154 -4.310091,-0.174986 -3.730894,-0.216856 -7.788666,-0.604168 -11.491208,-0.928792 -5.851865,-0.636166 -8.743457,-0.941391 -14.68069,-1.625881 -7.460695,-0.860129 -15.211463,-1.46069 -22.725475,-1.259678 z"
       sodipodi:nodetypes="ccccccccscsscscsccc" />
    <path
       style="fill:#ca02bb;stroke-width:0.230931"
       id="path883"
       d="m 101.99354,64.230805 c -0.70995,14.528994 -1.33066,29.575032 -1.83264,44.394425 l 4.75624,5.10504 v 0 c 0.43821,-14.887607 1.09019,-29.489823 1.95014,-43.784293 l -4.87374,-5.715133 z"
       sodipodi:nodetypes="cccsccc" />
    <path
       style="fill:#ca02bb;stroke-width:0.189239"
       id="path885"
       d="m 69.172944,82.72291 c -2.995563,0.148422 -6.015443,-0.0032 -8.986688,0.445265 -1.173145,0.177089 -2.264527,0.808778 -3.316663,1.411938 -2.621174,1.502641 -4.936265,3.926018 -6.02953,7.022717 -0.242312,0.686348 -0.288187,1.439344 -0.432279,2.159018 0.19873,1.204318 0.188524,2.336554 1.063152,3.253278 1.898622,1.989988 5.768684,2.707315 8.25341,3.265824 5.197624,0.63672 10.662026,0.74015 15.681477,-1.105774 1.64635,-0.605453 2.820665,-1.308728 4.369994,-2.145424 1.595576,-1.064612 3.531819,-2.298693 4.281962,-4.348575 0.418885,-1.144678 0.493415,-3.289214 0.323707,-4.492281 -0.11364,-0.805605 -0.392238,-1.571572 -0.588361,-2.357357 -0.694585,-1.712152 -1.49421,-4.150773 -2.997671,-5.254812 -2.226629,-1.635083 -5.081298,-1.79915 -7.6344,-2.107455 -2.862255,0.05405 -5.735416,-0.120406 -8.586771,0.162141 -0.898472,0.08903 -1.7317,0.571839 -2.569476,0.943358 -1.866196,0.827586 -3.70367,2.006421 -5.04605,3.700654 -0.306517,0.386857 -0.537037,0.840561 -0.805555,1.260839 0,0 6.0621,0.427855 6.0621,0.427855 v 0 c 0.260258,-0.378199 0.487052,-0.787974 0.780773,-1.134599 1.331217,-1.571007 3.140327,-2.690781 4.953487,-3.407684 0.831278,-0.328678 3.107066,-0.02681 2.55039,-0.787445 -0.687352,-0.939193 -2.176024,-0.125115 -3.264035,-0.187671 2.28136,0.217044 5.47443,0.373432 7.52445,1.656453 1.503896,0.941223 2.328419,3.305389 3.008541,4.913719 0.191742,0.730952 0.463612,1.441657 0.575225,2.192856 0.165105,1.111216 0.111179,2.990535 -0.320726,4.051888 -0.782243,1.922272 -2.697173,3.016461 -4.223525,4.017234 -2.239524,1.162177 -4.377282,2.163854 -6.820599,2.69344 -0.817112,0.177104 -3.206442,-0.03649 -2.471668,0.398381 1.018539,0.602822 2.304062,0.196163 3.458045,0.185405 0.759016,-0.0068 -1.513504,-0.130987 -2.270255,-0.19648 -2.18335,-0.447129 -4.366181,-0.893399 -6.44027,-1.811708 -0.592344,-0.262267 -1.215246,-0.494423 -1.723384,-0.922424 -0.857063,-0.721899 -0.865366,-1.665542 -1.085276,-2.716325 0.132227,-0.656401 0.170105,-1.345447 0.396676,-1.969203 1.074301,-2.95758 3.372593,-5.212796 5.923611,-6.554273 1.059473,-0.557134 3.026513,-0.0035 3.327878,-1.262172 0.252928,-1.056298 -1.952382,-0.270289 -2.928575,-0.405433 0,0 6.006879,-0.995168 6.006879,-0.995168 z" />
    <path
       style="fill:#ca02bb;stroke-width:0.189239"
       id="path887"
       d="m 96.268243,67.548546 c 0.565421,0.6715 1.033186,1.432024 1.536503,2.158611 0.496611,0.7169 0.793764,1.094824 1.321552,1.793617 0.888562,1.164987 0.442944,0.56187 1.334552,1.811451 0,0 1.46313,-0.108567 1.46313,-0.108567 v 0 c -0.88491,-1.258217 -0.43954,-0.653597 -1.3331,-1.816639 -0.597828,-0.792438 -0.749316,-0.97214 -1.300998,-1.78373 -0.49735,-0.731654 -0.964918,-1.490455 -1.510624,-2.180622 0,0 -1.511015,0.125879 -1.511015,0.125879 z" />
    <path
       style="fill:#ca02bb;stroke-width:0.258464"
       id="path889"
       d="m 92.165293,67.914475 c 2.322939,3.688279 4.991352,6.924451 7.547967,10.305025 0,0 1.76672,-0.325717 1.76672,-0.325717 v 0 c -0.17347,-0.229113 -2.529758,-3.34238 -2.693109,-3.552893 -0.380457,-0.490311 -0.77715,-0.957278 -1.155843,-1.450093 -1.285452,-1.672869 -2.500661,-3.439722 -3.651742,-5.282508 0,0 -1.813993,0.306186 -1.813993,0.306186 z" />
    <path
       style="fill:#ca02bb;stroke-width:0.189239"
       id="path891"
       d="m 87.325006,68.218113 c 0.941284,1.082132 1.522143,1.737346 2.461451,2.875547 0.476317,0.577173 0.928738,1.178601 1.412058,1.748539 0.580762,0.684843 1.184261,1.345447 1.779401,2.014879 5.048941,5.679197 -1.277003,-1.46884 3.325489,3.737048 1.20471,1.39186 2.38839,2.80582 3.579334,4.212151 0,0 1.444911,-0.122502 1.444911,-0.122502 v 0 c -1.21537,-1.398047 -2.420601,-2.806757 -3.630598,-4.210554 -1.704027,-1.906619 -3.447989,-3.77885 -5.097112,-5.744753 -0.479708,-0.571858 -0.930572,-1.172829 -1.402633,-1.75249 -0.453412,-0.556757 -1.880462,-2.261388 -2.402743,-2.886373 0,0 -1.469558,0.128508 -1.469558,0.128508 z" />
    <path
       style="fill:#ca02bb;stroke-width:0.216043"
       id="path893"
       d="m 83.604521,67.759609 c 2.520385,2.428414 4.578364,5.343361 6.658542,8.196321 1.409386,2.20457 3.074182,4.191629 4.758359,6.15175 1.161089,1.351331 2.344763,2.676661 3.543941,3.988704 0.30133,0.304535 0.602659,0.609072 0.903988,0.91361 0,0 1.697809,-0.150583 1.697809,-0.150583 v 0 c -0.30602,-0.301609 -0.61204,-0.603218 -0.91805,-0.904827 -1.216097,-1.306509 -2.41218,-2.631648 -3.589768,-3.978536 -1.700928,-1.945455 -3.377037,-3.923245 -4.780953,-6.135035 -1.927687,-2.694113 -1.162164,-1.666045 -3.000258,-4.088267 -0.420125,-0.553637 -0.830963,-1.115683 -1.263186,-1.658443 -0.705288,-0.885666 -1.501221,-1.681296 -2.278108,-2.491935 0,0 -1.732316,0.157241 -1.732316,0.157241 z" />
  </g>
</svg>
