<?xml version="1.0" encoding="UTF-8" standalone="no"?>
<svg
   xmlns:dc="http://purl.org/dc/elements/1.1/"
   xmlns:cc="http://creativecommons.org/ns#"
   xmlns:rdf="http://www.w3.org/1999/02/22-rdf-syntax-ns#"
   xmlns:svg="http://www.w3.org/2000/svg"
   xmlns="http://www.w3.org/2000/svg"
   xmlns:sodipodi="http://sodipodi.sourceforge.net/DTD/sodipodi-0.dtd"
   xmlns:inkscape="http://www.inkscape.org/namespaces/inkscape"
   width="120"
   height="120"
   version="1.1"
   id="svg10"
   sodipodi:docname="logo.svg"
   inkscape:version="1.0.2 (e86c870879, 2021-01-15)">
  <metadata
     id="metadata16">
    <rdf:RDF>
      <cc:Work
         rdf:about="">
        <dc:format>image/svg+xml</dc:format>
        <dc:type
           rdf:resource="http://purl.org/dc/dcmitype/StillImage" />
      </cc:Work>
    </rdf:RDF>
  </metadata>
  <defs
     id="defs14" />
  <sodipodi:namedview
     pagecolor="#ffffff"
     bordercolor="#666666"
     borderopacity="1"
     objecttolerance="10"
     gridtolerance="10"
     guidetolerance="10"
     inkscape:pageopacity="0"
     inkscape:pageshadow="2"
     inkscape:window-width="2087"
     inkscape:window-height="1254"
     id="namedview12"
     showgrid="false"
     showguides="true"
     inkscape:guide-bbox="true"
     inkscape:zoom="6.875"
     inkscape:cx="28.926973"
     inkscape:cy="75.569033"
     inkscape:window-x="1300"
     inkscape:window-y="577"
     inkscape:window-maximized="0"
     inkscape:current-layer="svg10">
    <sodipodi:guide
       position="4.8,113.45455"
       orientation="1,0"
       id="guide841" />
    <sodipodi:guide
       position="-12.363636,114.90909"
       orientation="0,-1"
       id="guide843" />
    <sodipodi:guide
       position="-8,5.2363636"
       orientation="0,-1"
       id="guide845" />
    <sodipodi:guide
       position="114.90909,67.490909"
       orientation="1,0"
       id="guide847" />
  </sodipodi:namedview>
  <path
     style="fill:none;stroke:#1c0c5b;stroke-width:5;stroke-linecap:butt;stroke-linejoin:miter;stroke-miterlimit:4;stroke-dasharray:none;stroke-opacity:1"
     d="M 109.58104,9.3317602 C 106.6045,8.7832521 113.28947,11.54197 106.15185,8.5296817 105.90284,8.4244813 104.93882,8.205973 104.66847,8.205973"
     id="path2" />
  <path
     style="fill:none;stroke:#1c0c5b;stroke-width:5;stroke-linecap:butt;stroke-linejoin:miter;stroke-miterlimit:4;stroke-dasharray:none;stroke-opacity:1"
     d="m 10.10686,110.73436 c 4.568404,0.38666 8.968728,-2.99431 13.988905,-1.38384 8.112318,-0.0925 16.172166,0.92165 24.280039,0.95943 5.73963,1.35777 11.842101,3.06622 17.681334,1.00709 7.130516,-1.68868 14.371309,0.35698 21.567634,0.41635 7.143855,0.46486 14.291268,0.47835 21.375538,1.66619 l 1.23438,0.11867 0.474,0.008 M 109.58104,6.3068829 c -1.0485,6.9651281 0.37796,13.9698231 2.45272,20.5914601 0.88754,4.318809 -1.81687,8.405631 -1.18457,12.799075 -0.72213,12.579672 1.1152,25.235776 -0.43308,37.793872 -0.66966,8.509934 -0.57627,17.097194 1.2148,25.46687 0.57271,4.08681 -0.0827,8.45779 -2.58613,11.80548 M 7.3277544,7.5010078 C 10.459028,8.9262237 14.372897,7.7536801 17.808315,8.1538205 22.971674,7.974882 28.065659,7.5064028 33.20945,7.9497049 44.074194,7.2789077 54.904256,9.9477045 65.738764,8.2877995 c 6.700979,-0.5278252 13.417074,0.03956 20.103823,0.3120186 6.579144,-0.4262159 13.117375,-1.3613728 19.733883,-1.0160855 1.09385,-0.082729 2.18147,-0.2454785 3.2771,-0.3057231 M 7.3277544,7.5001086 c -1.5385128,5.7925844 0.2152134,11.9106764 0.148508,17.8489274 -0.2561222,8.776099 3.5118996,17.08102 2.8502506,25.890388 0.133397,8.644817 0.783485,17.279744 0.395744,25.937145 0.613627,11.435007 -2.267749,22.825951 -0.615405,34.229491 v -0.67259"
     id="path4" />
  <path
     style="fill:none;stroke:#1c0c5b;stroke-width:5;stroke-linecap:butt;stroke-linejoin:miter;stroke-miterlimit:4;stroke-dasharray:none;stroke-opacity:1"
     d="m 92.256317,8.3687267 c 0.617184,0.3353969 2.605691,1.7390343 3.197083,2.1202913 6.30613,4.067936 -1.590095,-0.5790803 4.63243,3.100408 1.67191,0.988211 3.39273,1.872113 5.09577,2.800978 1.4558,0.794884 4.48036,2.782995 6.1336,3.80088 M 82.772677,8.5845315 c 0.231221,0.3111191 0.420645,0.6600074 0.695442,0.9333598 1.041389,1.0376667 2.14058,2.0159857 3.242438,2.9880097 1.646121,1.453991 4.524828,3.924066 6.484875,5.080425 1.303736,0.76791 3.660418,1.559199 5.095773,2.27765 0.771032,0.386652 1.516273,0.827256 2.257965,1.269656 0.55138,0.330006 1.08051,0.697772 1.62122,1.045758 0.57805,0.361477 1.15076,0.733742 1.73682,1.083525 1.21036,0.722049 1.39802,0.721151 2.54788,1.493557 0.51225,0.345288 0.98893,0.743627 1.50472,1.083523 a 36.159492,36.561081 0 0 0 2.6635,1.568188 c 2.1219,1.141072 -0.56204,-0.338994 0.98447,0.374062 0.4171,0.191528 0.7826,0.422621 1.21569,0.597065 M 76.879195,14.654966 c 0.174305,0.06205 0.373513,0.07463 0.521138,0.186133 0.517581,0.392946 0.957792,0.880308 1.447802,1.307424 0.552265,0.481964 -13.378835,-11.1077 1.679023,1.41892 1.100972,0.916276 1.938706,1.9989 2.836913,3.100409 1.227251,1.503446 1.047611,1.474672 2.316661,2.651712 0.969353,0.899192 1.979612,1.75522 2.952521,2.652613 0.735464,0.677089 2.045421,1.924266 2.895606,2.576179 0.682105,0.524227 2.056982,1.334398 2.721298,1.755221 1.109865,0.704065 2.064102,1.320011 3.126825,2.054648 7.314608,5.122689 -2.408258,-1.663503 3.647078,2.502448 0.62252,0.428015 1.20413,0.921669 1.85334,1.307422 1.33751,0.793986 2.78354,1.196823 4.11129,2.016886 0.9071,0.140273 1.27616,1.024177 1.96805,1.456687 0.38329,0.239183 0.82972,0.362373 1.21657,0.597062 0.27303,0.166351 0.49802,0.402837 0.75238,0.597962 0.20186,0.153761 0.26144,0.111496 0,0.223898 M 29.318704,93.187554 c 3.672864,-3.557196 6.068676,-8.238383 9.995885,-11.555496 1.453135,-1.070036 3.856952,-3.758615 5.640024,-5.474268 3.772469,-3.639926 7.980702,-6.863523 11.13243,-11.111298 2.595906,-2.447595 4.334512,-5.603753 6.71076,-8.218599 4.17266,-3.735236 7.772601,-8.07473 11.36543,-12.366566 2.34334,-2.858524 4.075722,-6.127081 6.414617,-8.944245 0.618073,-0.585374 0.928445,-2.214706 1.985837,-2.027675 M 28.57168,36.785838 c 2.899161,2.466481 5.828559,4.901488 8.675253,7.426415 3.105483,1.897292 5.937948,4.19742 8.145224,7.133276 3.322476,2.872015 6.585367,5.802477 9.702413,8.90828 3.454984,3.304524 7.040697,6.465178 11.148433,8.925362 4.233135,3.203817 7.460453,7.554997 10.987473,11.500647 3.364271,4.47617 6.776569,8.954137 10.544591,13.09131"
     id="path6" />
  <path
     style="fill:none;stroke:#1c0c5b;stroke-width:5;stroke-linecap:butt;stroke-linejoin:miter;stroke-miterlimit:4;stroke-dasharray:none;stroke-opacity:1"
     d="m 69.0728,32.705313 c -6.541791,0.742731 -13.052456,1.801077 -19.628931,2.166151 -4.645772,0.425318 -9.106571,1.858625 -13.72033,2.459286 -3.317139,0.584472 -6.6325,2.327103 -7.897106,5.664897 -2.267751,4.768408 -1.576753,10.213003 -1.444245,15.322205 0.228553,2.383754 0.808385,5.347483 1.49227,8.015384 0.996919,5.456286 4.628876,9.845234 6.733881,14.861816 1.963605,4.691975 6.426182,7.472274 10.840734,9.438801 6.834373,1.3353 13.807484,3.370164 20.818833,2.262363 4.318505,-1.050252 8.781971,-2.804572 11.605542,-6.445395 4.313171,-3.834149 5.141121,-9.882103 6.159387,-15.275448 0.419755,-3.358475 0.407306,-6.796979 0.0827,-10.157253 C 83.7109,58.446437 82.880281,56.47631 82.292446,54.136617 81.480505,50.661246 80.489808,47.239826 78.947739,44.019825 77.291836,39.985158 75.333567,35.743676 71.909709,32.929214 71.08087,32.722399 69.578818,31.112846 68.661047,31.090367"
     id="path8" />
</svg>
