<svg xmlns="http://www.w3.org/2000/svg" width="120" height="120">
    <path style="fill:none;stroke:#1c0c5b;stroke-width:5;stroke-linecap:butt;stroke-linejoin:miter;stroke-miterlimit:4;stroke-dasharray:none;stroke-opacity:1" d="M118.225 2.54c-3.347-.61 4.17 2.458-3.856-.892-.28-.117-1.364-.36-1.668-.36"/>
    <path style="fill:none;stroke:#1c0c5b;stroke-width:5;stroke-linecap:butt;stroke-linejoin:miter;stroke-miterlimit:4;stroke-dasharray:none;stroke-opacity:1" d="M6.37 115.311c5.137.43 10.085-3.33 15.73-1.539 9.122-.103 18.185 1.025 27.302 1.067 6.454 1.51 13.316 3.41 19.882 1.12 8.018-1.878 16.16.397 24.252.463 8.033.517 16.07.532 24.036 1.853l1.388.132.533.01M118.225-.824c-1.179 7.746.425 15.536 2.758 22.9.998 4.803-2.043 9.348-1.332 14.234-.812 13.99 1.254 28.065-.487 42.031-.753 9.464-.648 19.014 1.366 28.322.644 4.545-.093 9.406-2.908 13.129M3.245.504c3.521 1.585 7.922.281 11.785.726 5.806-.199 11.534-.72 17.318-.227 12.217-.746 24.395 2.222 36.578.376 7.535-.587 15.087.044 22.606.347 7.398-.474 14.75-1.514 22.19-1.13 1.23-.092 2.453-.273 3.685-.34M3.245.503c-1.73 6.442.242 13.246.167 19.85-.288 9.76 3.949 18.996 3.205 28.793.15 9.614.881 19.217.445 28.845.69 12.717-2.55 25.385-.692 38.067v-.748"/>
    <path style="fill:none;stroke:#1c0c5b;stroke-width:5;stroke-linecap:butt;stroke-linejoin:miter;stroke-miterlimit:4;stroke-dasharray:none;stroke-opacity:1" d="M98.744 1.469c.694.373 2.93 1.934 3.595 2.358 7.091 4.524-1.788-.644 5.209 3.448 1.88 1.099 3.815 2.082 5.73 3.115 1.637.884 5.038 3.095 6.897 4.227M88.08 1.709c.26.346.473.734.782 1.038 1.171 1.154 2.407 2.242 3.646 3.323 1.851 1.617 5.088 4.364 7.292 5.65 1.466.854 4.116 1.734 5.73 2.533.867.43 1.705.92 2.539 1.412.62.367 1.215.776 1.823 1.163.65.402 1.294.816 1.953 1.205 1.361.803 1.572.802 2.865 1.661.576.384 1.112.827 1.692 1.205a40.66 40.66 0 0 0 2.995 1.744c2.386 1.269-.632-.377 1.107.416.469.213.88.47 1.367.664M81.453 8.46c.196.069.42.083.586.207.582.437 1.077.979 1.628 1.454.621.536-15.044-12.353 1.888 1.578 1.238 1.019 2.18 2.223 3.19 3.448 1.38 1.672 1.178 1.64 2.605 2.949 1.09 1 2.226 1.952 3.32 2.95.827.753 2.3 2.14 3.256 2.865.767.583 2.313 1.484 3.06 1.952 1.248.783 2.321 1.468 3.516 2.285 8.225 5.697-2.708-1.85 4.101 2.783.7.476 1.354 1.025 2.084 1.454 1.504.883 3.13 1.331 4.623 2.243 1.02.156 1.435 1.139 2.213 1.62.431.266.933.403 1.368.664.307.185.56.448.846.665.227.171.294.124 0 .249M27.973 95.797c4.13-3.956 6.824-9.162 11.24-12.851 1.634-1.19 4.337-4.18 6.342-6.088 4.242-4.048 8.974-7.633 12.518-12.357 2.919-2.722 4.874-6.232 7.546-9.14 4.692-4.154 8.74-8.98 12.78-13.753 2.635-3.179 4.583-6.814 7.213-9.947.695-.651 1.044-2.463 2.233-2.255m-60.712 3.666c3.26 2.743 6.554 5.451 9.755 8.259 3.492 2.11 6.677 4.668 9.159 7.933 3.736 3.194 7.405 6.453 10.91 9.907 3.885 3.675 7.917 7.19 12.536 9.926 4.76 3.563 8.389 8.402 12.355 12.79 3.783 4.978 7.62 9.958 11.857 14.559"/>
    <path style="fill:none;stroke:#1c0c5b;stroke-width:5;stroke-linecap:butt;stroke-linejoin:miter;stroke-miterlimit:4;stroke-dasharray:none;stroke-opacity:1" d="M72.675 28.534c-7.356.826-14.677 2.003-22.072 2.409-5.224.473-10.24 2.067-15.428 2.735-3.73.65-7.458 2.588-8.88 6.3-2.55 5.303-1.773 11.358-1.624 17.04.257 2.651.909 5.947 1.678 8.914C27.47 72 31.554 76.881 33.921 82.46c2.208 5.218 7.226 8.31 12.19 10.497 7.685 1.485 15.526 3.748 23.41 2.516 4.856-1.168 9.875-3.119 13.05-7.168 4.85-4.264 5.781-10.99 6.926-16.988.472-3.735.458-7.559.093-11.296-.455-2.86-1.389-5.051-2.05-7.653-.913-3.865-2.027-7.67-3.761-11.251-1.862-4.487-4.064-9.204-7.914-12.334-.932-.23-2.621-2.02-3.653-2.045"/>
</svg>