<?xml version="1.0" encoding="UTF-8" standalone="no"?>
<svg
   xmlns:dc="http://purl.org/dc/elements/1.1/"
   xmlns:cc="http://creativecommons.org/ns#"
   xmlns:rdf="http://www.w3.org/1999/02/22-rdf-syntax-ns#"
   xmlns:svg="http://www.w3.org/2000/svg"
   xmlns="http://www.w3.org/2000/svg"
   xmlns:sodipodi="http://sodipodi.sourceforge.net/DTD/sodipodi-0.dtd"
   xmlns:inkscape="http://www.inkscape.org/namespaces/inkscape"
   width="79.998589"
   height="80.008904"
   version="1.1"
   id="svg10"
   sodipodi:docname="logo.svg"
   inkscape:version="1.0.2 (e86c870879, 2021-01-15)">
  <metadata
     id="metadata16">
    <rdf:RDF>
      <cc:Work
         rdf:about="">
        <dc:format>image/svg+xml</dc:format>
        <dc:type
           rdf:resource="http://purl.org/dc/dcmitype/StillImage" />
        <dc:title></dc:title>
      </cc:Work>
    </rdf:RDF>
  </metadata>
  <defs
     id="defs14" />
  <sodipodi:namedview
     pagecolor="#ffffff"
     bordercolor="#666666"
     borderopacity="1"
     objecttolerance="10"
     gridtolerance="10"
     guidetolerance="10"
     inkscape:pageopacity="0"
     inkscape:pageshadow="2"
     inkscape:window-width="2252"
     inkscape:window-height="1254"
     id="namedview12"
     showgrid="false"
     showguides="true"
     inkscape:guide-bbox="true"
     inkscape:zoom="6.875"
     inkscape:cx="9.4908803"
     inkscape:cy="55.050746"
     inkscape:window-x="148"
     inkscape:window-y="524"
     inkscape:window-maximized="0"
     inkscape:current-layer="svg10"
     inkscape:document-rotation="0"
     fit-margin-top="0"
     fit-margin-left="0"
     fit-margin-right="0"
     fit-margin-bottom="0">
    <sodipodi:guide
       position="-14.636093,93.981741"
       orientation="1,0"
       id="guide841" />
    <sodipodi:guide
       position="-31.799729,95.436281"
       orientation="0,-1"
       id="guide843" />
    <sodipodi:guide
       position="-27.436093,-14.236445"
       orientation="0,-1"
       id="guide845" />
    <sodipodi:guide
       position="95.472997,48.0181"
       orientation="1,0"
       id="guide847" />
  </sodipodi:namedview>
  <path
     style="fill:none;stroke:#1c0c5b;stroke-width:3.603;stroke-linecap:butt;stroke-linejoin:miter;stroke-miterlimit:4;stroke-dasharray:none;stroke-opacity:1"
     d="m 76.287677,3.2724776 c -2.154042,-0.393577 2.683692,1.585916 -2.481612,-0.575524 -0.180202,-0.07549 -0.877838,-0.232274 -1.073483,-0.232274"
     id="path2" />
  <path
     style="fill:none;stroke:#1c0c5b;stroke-width:3.603;stroke-linecap:butt;stroke-linejoin:miter;stroke-miterlimit:4;stroke-dasharray:none;stroke-opacity:1"
     d="m 4.3008853,76.032972 c 3.306031,0.277444 6.4904267,-2.14854 10.1233947,-0.992962 5.870667,-0.06637 11.703362,0.661322 17.570811,0.68843 4.153617,0.974256 8.569811,2.200138 12.795507,0.722629 5.160163,-1.211697 10.40013,0.256147 15.607918,0.298748 5.169816,0.333556 10.342207,0.343235 15.468903,1.195559 l 0.893288,0.08515 0.34302,0.0058 M 76.287677,1.1020046 c -0.758771,4.997764 0.27352,10.0239184 1.774968,14.7752124 0.642289,3.09892 -1.31482,6.031382 -0.857242,9.183857 -0.522586,9.026427 0.80704,18.107696 -0.313408,27.118642 -0.484615,6.106224 -0.417032,12.267932 0.879118,18.273516 0.414455,2.932452 -0.05985,6.068809 -1.871512,8.470912 M 2.2897203,1.9588386 c 2.266019,1.02265 5.098381,0.181302 7.584501,0.46842 3.7365837,-0.128396 7.4229637,-0.464549 11.1453867,-0.146462 7.862524,-0.481324 15.699949,1.433646 23.540592,0.242597 4.849318,-0.378736 9.709576,0.02838 14.548596,0.223886 4.76115,-0.305827 9.492692,-0.97684 14.280881,-0.729083 0.79159,-0.05936 1.578672,-0.176141 2.37155,-0.219368 M 2.2897203,1.9581926 c -1.11338,4.156415 0.155745,8.5463964 0.107472,12.8073334 -0.185349,6.297208 2.541468,12.256326 2.06265,18.577407 0.09653,6.203009 0.566986,12.39892 0.286389,18.610958 0.444065,8.205083 -1.641109,16.378549 -0.445352,24.561054 v -0.482611"
     id="path4" />
  <path
     style="fill:none;stroke:#1c0c5b;stroke-width:3.603;stroke-linecap:butt;stroke-linejoin:miter;stroke-miterlimit:4;stroke-dasharray:none;stroke-opacity:1"
     d="m 63.75024,2.5814626 c 0.44664,0.24066 1.885669,1.247827 2.313643,1.521394 4.563577,2.918911 -1.150708,-0.415513 3.352366,2.22467 1.209916,0.709081 2.455228,1.343317 3.687672,2.009816 1.053524,0.570361 3.242316,1.9969114 4.438721,2.7272864 M 56.887185,2.7363106 c 0.167329,0.22324 0.304409,0.473582 0.503273,0.669724 0.753625,0.744568 1.54908,1.446551 2.346465,2.144018 1.191253,1.043298 3.274496,2.815678 4.692929,3.645412 0.943479,0.551007 2.648947,1.1187894 3.687675,1.6343064 0.557975,0.27744 1.097286,0.593591 1.634029,0.91103 0.399019,0.236793 0.781935,0.50068 1.173233,0.750375 0.418319,0.259375 0.832774,0.526489 1.256889,0.777473 0.875906,0.5181 1.01171,0.517455 1.843833,1.071688 0.370702,0.247758 0.715663,0.533582 1.088926,0.777472 a 26.167653,26.234064 0 0 0 1.927503,1.125238 c 1.535563,0.818766 -0.406733,-0.243242 0.712435,0.268405 0.301843,0.13743 0.566346,0.303248 0.879761,0.428419 M 52.622231,7.0920946 c 0.126139,0.04453 0.2703,0.05355 0.377133,0.133558 0.374559,0.281955 0.693128,0.631657 1.047736,0.93813 0.399659,0.345829 -9.681904,-7.97022701 1.215063,1.018133 0.796744,0.657465 1.402989,1.4342924 2.052998,2.2246704 0.888128,1.078784 0.758128,1.058137 1.676506,1.902711 0.701494,0.645207 1.432591,1.259442 2.136659,1.903357 0.532236,0.48584 1.480217,1.38074 2.095473,1.848514 0.493621,0.376155 1.488582,0.957485 1.96933,1.259442 0.80318,0.505196 1.493735,0.947162 2.262799,1.474294 5.293385,3.675738 -1.742791,-1.193631 2.639293,1.795608 0.4505,0.307118 0.871397,0.661335 1.341212,0.938129 0.96792,0.569718 2.014373,0.858769 2.975231,1.447198 0.656443,0.100652 0.923521,0.734888 1.424225,1.045232 0.277375,0.171624 0.600445,0.260018 0.880399,0.428416 0.197584,0.119364 0.360403,0.289052 0.544477,0.429063 0.14608,0.110329 0.189196,0.08 0,0.160655 M 18.20398,63.442424 c 2.657953,-2.552433 4.391738,-5.911375 7.233754,-8.291539 1.051595,-0.767794 2.791173,-2.696959 4.081533,-3.92801 2.730035,-2.611794 5.77542,-4.924857 8.056242,-7.972809 1.878586,-1.756249 3.136769,-4.02092 4.856396,-5.897179 3.019642,-2.680184 5.624823,-5.793947 8.224856,-8.873514 1.695813,-2.051108 2.949491,-4.39643 4.642086,-6.41786 0.447283,-0.42003 0.671891,-1.589142 1.437097,-1.454939 m -39.072565,2.365323 c 2.098045,1.769801 4.217971,3.517017 6.278047,5.328755 2.247355,1.361384 4.297134,3.011819 5.89448,5.118416 2.404387,2.060788 4.765654,4.163514 7.021376,6.392054 2.500279,2.37113 5.095164,4.639028 8.067822,6.40431 3.063406,2.298869 5.398929,5.421018 7.951339,8.252183 2.434632,3.211834 4.904021,6.424958 7.630837,9.393547"
     id="path6" />
  <path
     style="fill:none;stroke:#1c0c5b;stroke-width:3.603;stroke-linecap:butt;stroke-linejoin:miter;stroke-miterlimit:4;stroke-dasharray:none;stroke-opacity:1"
     d="m 46.972952,20.043954 c -4.734119,0.53294 -9.445712,1.292346 -14.204931,1.554301 -3.36202,0.305184 -6.59018,1.33364 -9.929034,1.764638 -2.400524,0.419382 -4.799762,1.669791 -5.714923,4.064795 -1.64111,3.421527 -1.141054,7.328245 -1.045161,10.994305 0.165397,1.710441 0.585006,3.837037 1.079915,5.751365 0.721443,3.915107 3.349793,7.064357 4.873129,10.663958 1.421008,3.366683 4.650455,5.361661 7.845148,6.772724 4.945852,0.958132 9.992106,2.41823 15.06603,1.623338 3.125187,-0.753599 6.355277,-2.012395 8.398619,-4.624834 3.121326,-2.751157 3.720492,-7.090811 4.457383,-10.960756 0.303766,-2.409842 0.294757,-4.877109 0.05985,-7.288242 -0.292826,-1.845287 -0.893922,-3.258934 -1.319323,-4.937759 -0.587579,-2.49372 -1.30452,-4.948728 -2.420474,-7.25921 -1.198332,-2.895038 -2.615479,-5.938474 -5.093233,-7.957965 -0.599809,-0.148398 -1.686804,-1.303318 -2.350969,-1.319448"
     id="path8" />
</svg>
