<?xml version="1.0" encoding="UTF-8" standalone="no"?>
<svg
    xmlns:dc="http://purl.org/dc/elements/1.1/"
    xmlns:cc="http://creativecommons.org/ns#"
    xmlns:rdf="http://www.w3.org/1999/02/22-rdf-syntax-ns#"
    xmlns:svg="http://www.w3.org/2000/svg"
    xmlns="http://www.w3.org/2000/svg"
    xmlns:sodipodi="http://sodipodi.sourceforge.net/DTD/sodipodi-0.dtd"
    xmlns:inkscape="http://www.inkscape.org/namespaces/inkscape"
    width="120"
    height="120"
    viewBox="0 0 120 120"
    version="1.1"
    id="svg5"
    inkscape:version="1.0.2 (e86c870879, 2021-01-15)"
    sodipodi:docname="logo.svg">
    <metadata
        id="metadata23">
        <rdf:RDF>
            <cc:Work
                rdf:about="">
                <dc:format>image/svg+xml</dc:format>
                <dc:type
                    rdf:resource="http://purl.org/dc/dcmitype/StillImage" />
            </cc:Work>
        </rdf:RDF>
    </metadata>
    <sodipodi:namedview
        id="namedview7"
        pagecolor="#ffffff"
        bordercolor="#666666"
        borderopacity="1.0"
        inkscape:pageshadow="2"
        inkscape:pageopacity="0.0"
        inkscape:pagecheckerboard="0"
        inkscape:document-units="px"
        showgrid="false"
        inkscape:zoom="5.1442018"
        inkscape:cx="-17.009441"
        inkscape:cy="99.432335"
        inkscape:window-width="3840"
        inkscape:window-height="2068"
        inkscape:window-x="0"
        inkscape:window-y="37"
        inkscape:window-maximized="1"
        inkscape:current-layer="layer1"
        inkscape:document-rotation="0" />
  
    <g
        inkscape:label="Ebene 1"
        inkscape:groupmode="layer"
        id="layer1">
        <path
            style="fill:none;stroke:#c996cc;stroke-width:5;stroke-linecap:butt;stroke-linejoin:miter;stroke-miterlimit:4;stroke-dasharray:none;stroke-opacity:1"
            d="m 118.22545,2.5395916 c -3.34768,-0.6102021 4.16954,2.4582056 -3.85658,-0.8915773 -0.28039,-0.1170262 -1.36369,-0.3608248 -1.66753,-0.3608248"
            id="path861"
            sodipodi:nodetypes="csc" />
        <path
            id="path887"
            style="fill:none;stroke:#c996cc;stroke-width:5;stroke-linecap:butt;stroke-linejoin:miter;stroke-miterlimit:4;stroke-dasharray:none;stroke-opacity:1"
            d="m 6.3700188,115.31144 c 5.1366612,0.42965 10.0845152,-3.33051 15.7291282,-1.53939 9.122922,-0.10354 18.186039,1.02534 27.303309,1.06671 6.453928,1.51017 13.315581,3.41035 19.881502,1.12106 8.017879,-1.87878 16.160931,0.39573 24.251868,0.4617 8.033054,0.51771 16.070804,0.5326 24.035924,1.85334 l 1.38832,0.13251 0.53268,0.0103 m -1.2673,-119.24252248 c -1.17947,7.74541118 0.42443,15.53611448 2.75786,22.90007648 0.9974,4.80282 -2.04344,9.347458 -1.33246,14.233412 -0.8117,13.990364 1.25378,28.065766 -0.4869,42.031737 -0.75272,9.463527 -0.64755,19.01349 1.36577,28.321887 0.64468,4.54464 -0.0931,9.40547 -2.908,13.12832 M 3.2448377,0.50429852 C 6.7662138,2.0889736 11.167258,0.7852686 15.030106,1.2300615 20.835571,1.0310162 26.563999,0.50966277 32.348085,1.0027375 44.565173,0.25741108 56.742642,3.2254729 68.925888,1.379412 76.460622,0.79211566 84.012843,1.422518 91.531728,1.7261062 98.930298,1.2521994 106.28196,0.21238718 113.72206,0.59566085 114.95254,0.50423065 116.1748,0.3227843 117.40722,0.25523674 M 3.2448377,0.50429852 C 1.5152136,6.9458606 3.4871284,13.750033 3.4117302,20.353576 3.1237638,30.113528 7.361047,39.349901 6.6170412,49.147168 6.767877,58.761065 7.4982798,68.364464 7.0615859,77.991544 7.7522832,90.709014 4.51276,103.37665 6.3700188,116.0591 c 0,-0.24922 0,-0.49844 0,-0.74766" />
        <path
            style="fill:none;stroke:#c996cc;stroke-width:5;stroke-linecap:butt;stroke-linejoin:miter;stroke-miterlimit:4;stroke-dasharray:none;stroke-opacity:1"
            d="m 98.743633,1.4686246 c 0.69449,0.3738293 2.930567,1.9344068 3.595487,2.3586014 7.09113,4.5238973 -1.78845,-0.6443648 5.20863,3.4475373 1.87958,1.099182 3.81499,2.0817577 5.7295,3.1152447 1.63784,0.884133 5.03825,3.094958 6.89801,4.227433"
            id="path893"
            sodipodi:nodetypes="csssc" />
        <path
            style="fill:none;stroke:#c996cc;stroke-width:5;stroke-linecap:butt;stroke-linejoin:miter;stroke-miterlimit:4;stroke-dasharray:none;stroke-opacity:1"
            d="m 88.080479,1.7088597 c 0.260432,0.3461383 0.472707,0.734426 0.781295,1.0384149 1.171442,1.1539791 2.407309,2.2415046 3.646045,3.3229275 1.851673,1.61652 5.087914,4.3633199 7.292089,5.6489769 1.466032,0.855112 4.115982,1.734616 5.729502,2.533732 0.86789,0.429836 1.70519,0.919879 2.53921,1.412244 0.62071,0.36644 1.21534,0.77535 1.82302,1.163025 0.65108,0.40152 1.29437,0.815951 1.95324,1.204561 1.36125,0.802892 1.57257,0.802024 2.86475,1.661464 0.57664,0.383534 1.11255,0.826505 1.6928,1.204561 0.92609,0.603383 2.01025,1.221027 2.99497,1.744537 2.38575,1.268359 -0.63234,-0.377156 1.10683,0.415366 0.46851,0.213495 0.87943,0.47007 1.36727,0.664585"
            id="path895" />
        <path
            style="fill:none;stroke:#c996cc;stroke-width:5;stroke-linecap:butt;stroke-linejoin:miter;stroke-miterlimit:4;stroke-dasharray:none;stroke-opacity:1"
            d="m 81.453457,8.4594949 c 0.195324,0.069228 0.420231,0.083288 0.585971,0.207683 0.581821,0.4366843 1.076807,0.978673 1.627699,1.4537811 0.621207,0.535751 -15.043649,-12.3531131 1.88813,1.57839 1.237592,1.018293 2.180027,2.222965 3.190289,3.447537 1.379689,1.672369 1.176985,1.640128 2.604317,2.949099 1.091025,1.000551 2.226381,1.951937 3.320505,2.949098 0.826767,0.753498 2.299551,2.140077 3.255397,2.866025 0.767556,0.582945 2.312865,1.483472 3.060075,1.95222 1.24828,0.783088 2.3214,1.46808 3.51583,2.284512 8.22505,5.697065 -2.70731,-1.850616 4.1018,2.782952 0.70011,0.476425 1.35324,1.024905 2.08345,1.453781 1.50365,0.883146 3.13038,1.331465 4.62266,2.242976 1.02029,0.156605 1.43587,1.139222 2.21367,1.619927 0.43107,0.266409 0.93283,0.403729 1.36727,0.664586 0.30753,0.184655 0.56048,0.447972 0.8464,0.664585 0.22675,0.171777 0.29431,0.124046 0,0.24922"
            id="path897"
            sodipodi:nodetypes="csssssssscsscsssc" />
        <path
            id="path4830"
            style="fill:none;stroke:#c996cc;stroke-width:5;stroke-linecap:butt;stroke-linejoin:miter;stroke-miterlimit:4;stroke-dasharray:none;stroke-opacity:1"
            d="m 27.972851,95.797472 c 4.130063,-3.956753 6.824301,-9.16223 11.239331,-12.851536 1.63441,-1.189261 4.338249,-4.180152 6.342628,-6.087478 4.24172,-4.048632 8.974439,-7.633192 12.518301,-12.357603 2.918452,-2.721627 4.873601,-6.23169 7.545538,-9.139557 4.691887,-4.154463 8.740805,-8.981163 12.780102,-13.753576 2.635507,-3.17852 4.582886,-6.814008 7.213404,-9.946816 0.695206,-0.650967 1.043957,-2.462842 2.232768,-2.254987 m -60.712182,3.665594 c 3.261205,2.743241 6.554566,5.451704 9.754833,8.259233 3.492256,2.109784 6.677195,4.668369 9.159325,7.93277 3.736322,3.194806 7.404615,6.453858 10.909319,9.907926 3.885736,3.674463 7.917537,7.189757 12.536371,9.925329 4.760769,3.563173 8.389209,8.402134 12.355215,12.790002 3.783108,4.978088 7.620931,9.958374 11.856833,14.559205" />
        <path
            style="fill:none;stroke:#c996cc;stroke-width:5;stroke-linecap:butt;stroke-linejoin:miter;stroke-miterlimit:4;stroke-dasharray:none;stroke-opacity:1"
            d="m 72.674774,28.533647 c -7.355288,0.826383 -14.677145,2.003655 -22.071591,2.409123 -5.223941,0.472835 -10.241132,2.06682 -15.42868,2.735193 -3.730233,0.64945 -7.457602,2.587732 -8.880282,6.300846 -2.550134,5.302654 -1.77228,11.357263 -1.622928,17.038612 0.256535,2.651715 0.908634,5.948019 1.677984,8.914816 1.119817,6.068194 5.20499,10.948331 7.571274,16.52793 2.208502,5.218023 7.226886,8.309416 12.190188,10.496737 7.684871,1.485259 15.526375,3.748337 23.410389,2.516385 4.855594,-1.168032 9.874875,-3.119259 13.050056,-7.168483 4.849935,-4.263973 5.780801,-10.990294 6.925385,-16.987859 0.472288,-3.735189 0.458784,-7.558993 0.0935,-11.295778 -0.455473,-2.860691 -1.389117,-5.051288 -2.049899,-7.65323 -0.912766,-3.865026 -2.027202,-7.67088 -3.76132,-11.25135 -1.861473,-4.486231 -4.063882,-9.203827 -7.913789,-12.333722 -0.932065,-0.23081 -2.621442,-2.019647 -3.653347,-2.045145"
            id="path4832"
            sodipodi:nodetypes="cccccccccccccccc" />
    </g>
</svg>
