<?xml version="1.0" encoding="UTF-8" standalone="no"?>
<svg
   xmlns:dc="http://purl.org/dc/elements/1.1/"
   xmlns:cc="http://creativecommons.org/ns#"
   xmlns:rdf="http://www.w3.org/1999/02/22-rdf-syntax-ns#"
   xmlns:svg="http://www.w3.org/2000/svg"
   xmlns="http://www.w3.org/2000/svg"
   xmlns:sodipodi="http://sodipodi.sourceforge.net/DTD/sodipodi-0.dtd"
   xmlns:inkscape="http://www.inkscape.org/namespaces/inkscape"
   width="300"
   height="189.70454"
   viewBox="0 0 79.375 50.192662"
   version="1.1"
   id="svg8"
   inkscape:version="1.0.2 (e86c870879, 2021-01-15)"
   sodipodi:docname="logo.svg">
  <defs
     id="defs2" />
  <sodipodi:namedview
     id="base"
     pagecolor="#ffffff"
     bordercolor="#666666"
     borderopacity="1.0"
     inkscape:pageopacity="0.0"
     inkscape:pageshadow="2"
     inkscape:zoom="1.4053923"
     inkscape:cx="63.081719"
     inkscape:cy="104.65283"
     inkscape:document-units="px"
     inkscape:current-layer="layer1"
     inkscape:document-rotation="0"
     showgrid="false"
     inkscape:window-width="3840"
     inkscape:window-height="2068"
     inkscape:window-x="0"
     inkscape:window-y="37"
     inkscape:window-maximized="1"
     units="px"
     fit-margin-top="0"
     fit-margin-left="0"
     fit-margin-right="0"
     fit-margin-bottom="0"
     scale-x="1" />
  <metadata
     id="metadata5">
    <rdf:RDF>
      <cc:Work
         rdf:about="">
        <dc:format>image/svg+xml</dc:format>
        <dc:type
           rdf:resource="http://purl.org/dc/dcmitype/StillImage" />
        <dc:title></dc:title>
      </cc:Work>
    </rdf:RDF>
  </metadata>
  <g
     inkscape:label="Ebene 1"
     inkscape:groupmode="layer"
     id="layer1"
     transform="translate(-32.622892,-61.879157)">
    <path
       style="fill:#ca02bb;stroke-width:0.223576"
       id="path877"
       d="m 32.667742,64.84822 c -0.01344,13.119411 -0.04746,26.23857 -0.04469,39.35807 0,0 6.130637,0.005 6.130637,0.005 v 0 c 0.154717,-13.122203 0.268743,-26.24752 0.641908,-39.363674 0,0 -6.727851,0 -6.727851,0 z" />
    <path
       style="fill:#ca02bb;stroke-width:0.203356"
       id="path879"
       d="m 32.62305,104.20629 c 3.379814,1.25207 6.931945,2.70813 10.56634,3.33225 5.929019,1.01816 16.994878,1.66495 22.842174,1.96969 8.168257,0.42569 13.923784,0.52809 21.999686,0.73922 5.18887,-0.0617 10.377739,-0.12327 15.56662,-0.18491 0,0 -6.98303,-0.91748 -6.98303,-0.91748 v 0 c -0.567282,0.0667 -1.134564,0.13343 -1.701846,0.20016 -11.349907,-0.27187 -22.721749,-0.50616 -34.029971,-1.44481 -3.528573,-0.29289 -7.07584,-0.53863 -10.553338,-1.12229 -3.756486,-0.63048 -6.907355,-1.97581 -10.331413,-3.27148 0,0 -7.375222,0.69965 -7.375222,0.69965 z" />
    <path
       style="fill:#ca02bb;stroke-width:0.199475"
       id="path881"
       d="m 41.169552,62.966741 c 0.364618,-8.3e-4 4.747744,-0.01012 4.757344,-0.0069 0.357173,0.117756 -1.346097,0.49296 -0.976879,0.564504 2.701413,0.523466 5.474773,0.559894 8.212393,0.837554 8.02383,0.813802 8.505241,0.858072 16.290404,1.632536 10.955759,1.061082 21.975142,1.611624 32.973606,0.941233 3.27266,-0.143415 6.45148,-0.89716 9.57147,-1.841626 0,0 -6.70625,-0.863237 -6.70625,-0.863237 v 0 c -3.09376,0.914012 -6.258727,1.554272 -9.491542,1.695458 -0.742999,0.0426 -1.48544,0.09636 -2.228997,0.127801 -0.979504,0.04142 -2.035118,-0.287136 -2.939745,0.09075 -0.823212,0.343876 3.566105,0.08484 2.67637,0.01927 -1.593074,-0.11743 -3.193773,-0.09154 -4.788987,-0.174986 -4.145434,-0.216856 -8.654067,-0.604168 -12.768,-0.928792 -6.502068,-0.636166 -9.714945,-0.941391 -16.311867,-1.625881 -8.289655,-0.860129 -16.602089,-1.726934 -24.950985,-1.525922 0,0 6.681665,1.058271 6.681665,1.058271 z" />
    <path
       style="fill:#ca02bb;stroke-width:0.270124"
       id="path883"
       d="m 105.30765,65.911658 c -0.97138,15.339896 -1.95459,30.674223 -2.6414,46.066962 0,0 6.64155,0.0932 6.64155,0.0932 v 0 c 0.59957,-15.388121 1.49163,-30.735024 2.66824,-46.01172 0,0 -6.66839,-0.148403 -6.66839,-0.148403 z" />
    <path
       style="fill:#ca02bb;stroke-width:0.199475"
       id="path885"
       d="m 68.824338,82.72291 c -3.328401,0.148422 -6.683821,-0.0032 -9.985202,0.445265 -1.303493,0.177089 -2.516139,0.808778 -3.685179,1.411938 -2.912413,1.502641 -5.484735,3.926018 -6.699473,7.022717 -0.269235,0.686348 -0.320207,1.439344 -0.48031,2.159018 0.220812,1.204318 0.209472,2.336554 1.18128,3.253278 2.109578,1.989988 6.409644,2.707315 9.170449,3.265824 5.775134,0.63672 11.846688,0.74015 17.423852,-1.105774 1.829276,-0.605453 3.13407,-1.308728 4.855545,-2.145424 1.772861,-1.064612 3.924241,-2.298693 4.757733,-4.348575 0.465427,-1.144678 0.548238,-3.289214 0.359674,-4.492281 -0.126267,-0.805605 -0.43582,-1.571572 -0.653734,-2.357357 -0.771761,-1.712152 -1.660232,-4.150773 -3.330743,-5.254812 -2.474031,-1.635083 -5.645883,-1.79915 -8.482661,-2.107455 -3.180282,0.05405 -6.372681,-0.120406 -9.540851,0.162141 -0.998301,0.08903 -1.924109,0.571839 -2.854971,0.943358 -2.07355,0.827586 -4.115186,2.006421 -5.606718,3.700654 -0.340575,0.386857 -0.596708,0.840561 -0.895061,1.260839 0,0 6.735662,0.427855 6.735662,0.427855 v 0 c 0.289176,-0.378199 0.541169,-0.787974 0.867525,-1.134599 1.479129,-1.571007 3.48925,-2.690781 5.503871,-3.407684 0.923642,-0.328678 3.452293,-0.02681 2.833765,-0.787445 -0.763724,-0.939193 -2.417803,-0.125115 -3.626704,-0.187671 2.534843,0.217044 6.082696,0.373432 8.360495,1.656453 1.670994,0.941223 2.58713,3.305389 3.342821,4.913719 0.213046,0.730952 0.515124,1.441657 0.639138,2.192856 0.18345,1.111216 0.123533,2.990535 -0.356361,4.051888 -0.869159,1.922272 -2.996857,3.016461 -4.692803,4.017234 -2.488358,1.162177 -4.863643,2.163854 -7.578438,2.69344 -0.907902,0.177104 -3.562711,-0.03649 -2.746296,0.398381 1.131709,0.602822 2.560067,0.196163 3.842269,0.185405 0.843351,-0.0068 -1.68167,-0.130987 -2.522503,-0.19648 -2.425943,-0.447129 -4.851309,-0.893399 -7.155851,-1.811708 -0.65816,-0.262267 -1.350272,-0.494423 -1.91487,-0.922424 -0.952292,-0.721899 -0.961517,-1.665542 -1.205861,-2.716325 0.146918,-0.656401 0.189005,-1.345447 0.440751,-1.969203 1.193666,-2.95758 3.747322,-5.212796 6.581785,-6.554273 1.177192,-0.557134 3.36279,-0.0035 3.69764,-1.262172 0.281031,-1.056298 -2.169312,-0.270289 -3.25397,-0.405433 0,0 6.674305,-0.995168 6.674305,-0.995168 z" />
    <path
       style="fill:#ca02bb;stroke-width:0.199475"
       id="path887"
       d="m 98.930206,67.548546 c 0.628245,0.6715 1.147984,1.432024 1.707224,2.158611 0.55179,0.7169 0.88196,1.094824 1.46839,1.793617 0.98729,1.164987 0.49216,0.56187 1.48283,1.811451 0,0 1.6257,-0.108567 1.6257,-0.108567 v 0 c -0.98323,-1.258217 -0.48837,-0.653597 -1.48122,-1.816639 -0.66425,-0.792438 -0.83257,-0.97214 -1.44555,-1.78373 -0.55261,-0.731654 -1.07213,-1.490455 -1.67847,-2.180622 0,0 -1.678904,0.125879 -1.678904,0.125879 z" />
    <path
       style="fill:#ca02bb;stroke-width:0.272445"
       id="path889"
       d="m 94.371376,67.914475 c 2.581041,3.688279 5.545942,6.924451 8.386624,10.305025 0,0 1.96302,-0.325717 1.96302,-0.325717 v 0 c -0.19274,-0.229113 -2.81084,-3.34238 -2.99234,-3.552893 -0.42273,-0.490311 -0.8635,-0.957278 -1.28427,-1.450093 -1.428279,-1.672869 -2.77851,-3.439722 -4.057488,-5.282508 0,0 -2.015546,0.306186 -2.015546,0.306186 z" />
    <path
       style="fill:#ca02bb;stroke-width:0.199475"
       id="path891"
       d="m 88.993283,68.218113 c 1.04587,1.082132 1.691268,1.737346 2.734943,2.875547 0.529241,0.577173 1.031931,1.178601 1.568952,1.748539 0.645291,0.684843 1.315845,1.345447 1.977111,2.014879 5.609931,5.679197 -1.418891,-1.46884 3.694986,3.737048 1.338565,1.39186 2.653765,2.80582 3.977035,4.212151 0,0 1.60545,-0.122502 1.60545,-0.122502 v 0 c -1.35041,-1.398047 -2.68955,-2.806757 -4.03399,-4.210554 -1.893362,-1.906619 -3.831096,-3.77885 -5.663454,-5.744753 -0.533008,-0.571858 -1.033968,-1.172829 -1.55848,-1.75249 -0.503791,-0.556757 -2.0894,-2.261388 -2.669712,-2.886373 0,0 -1.632841,0.128508 -1.632841,0.128508 z" />
    <path
       style="fill:#ca02bb;stroke-width:0.227729"
       id="path893"
       d="m 84.859413,67.759609 c 2.800426,2.428414 5.087068,5.343361 7.398375,8.196321 1.565983,2.20457 3.415756,4.191629 5.287062,6.15175 1.290098,1.351331 2.60529,2.676661 3.93771,3.988704 0.33481,0.304535 0.66962,0.609072 1.00443,0.91361 0,0 1.88645,-0.150583 1.88645,-0.150583 v 0 c -0.34002,-0.301609 -0.68004,-0.603218 -1.02005,-0.904827 -1.35122,-1.306509 -2.6802,-2.631648 -3.98863,-3.978536 -1.889919,-1.945455 -3.752261,-3.923245 -5.312166,-6.135035 -2.141874,-2.694113 -1.291293,-1.666045 -3.333618,-4.088267 -0.466806,-0.553637 -0.923292,-1.115683 -1.403539,-1.658443 -0.783653,-0.885666 -1.668022,-1.681296 -2.53123,-2.491935 0,0 -1.924794,0.157241 -1.924794,0.157241 z" />
  </g>
</svg>
