<?xml version="1.0" encoding="UTF-8" standalone="no"?>
<svg
   xmlns:dc="http://purl.org/dc/elements/1.1/"
   xmlns:cc="http://creativecommons.org/ns#"
   xmlns:rdf="http://www.w3.org/1999/02/22-rdf-syntax-ns#"
   xmlns:svg="http://www.w3.org/2000/svg"
   xmlns="http://www.w3.org/2000/svg"
   xmlns:xlink="http://www.w3.org/1999/xlink"
   xmlns:sodipodi="http://sodipodi.sourceforge.net/DTD/sodipodi-0.dtd"
   xmlns:inkscape="http://www.inkscape.org/namespaces/inkscape"
   width="768"
   height="576"
   viewBox="0 0 768 576"
   version="1.1"
   id="svg876"
   inkscape:version="1.0.2 (e86c870879, 2021-01-15)"
   sodipodi:docname="sbpm-workflow.svg">
  <defs
     id="defs870" />
  <sodipodi:namedview
     id="base"
     pagecolor="#ffffff"
     bordercolor="#666666"
     borderopacity="1.0"
     inkscape:pageopacity="0.0"
     inkscape:pageshadow="2"
     inkscape:zoom="1.979899"
     inkscape:cx="-67.83529"
     inkscape:cy="263.29585"
     inkscape:document-units="px"
     inkscape:current-layer="layer1"
     inkscape:document-rotation="0"
     showgrid="false"
     units="px"
     inkscape:window-width="3840"
     inkscape:window-height="2068"
     inkscape:window-x="0"
     inkscape:window-y="37"
     inkscape:window-maximized="1" />
  <metadata
     id="metadata873">
    <rdf:RDF>
      <cc:Work
         rdf:about="">
        <dc:format>image/svg+xml</dc:format>
        <dc:type
           rdf:resource="http://purl.org/dc/dcmitype/StillImage" />
        <dc:title>SBPM Workflow</dc:title>
        <dc:creator>
          <cc:Agent>
            <dc:title>Stefan Sedelmaier</dc:title>
          </cc:Agent>
        </dc:creator>
      </cc:Work>
    </rdf:RDF>
  </metadata>
  <g
     inkscape:label="Layer 1"
     inkscape:groupmode="layer"
     id="layer1">
    <path
       id="path420-3"
       d="m 279.11626,142.68683 c -8.11268,0.93501 -15.05143,-0.15182 -23.41577,-0.661 -2.60165,-0.0893 -5.20325,-0.34497 -7.80451,-0.24964 -10.06429,0.36776 -20.19952,3.0209 -29.55893,7.3864 -2.01609,0.94033 -3.96556,2.07099 -5.94807,3.10657 -6.35231,3.45728 -11.99818,8.39504 -17.37296,13.63085 -3.02864,2.95033 -5.31559,5.26578 -7.92824,8.70562 -1.06324,1.39971 -1.99995,2.92756 -3.00005,4.3913 -2.50706,4.12336 -4.02135,8.83024 -5.18091,13.68224 -0.30363,1.26212 -0.6527,2.52233 -0.78658,3.82494 -0.33465,3.22763 0.046,4.96474 0.46571,8.12109 0.35858,1.22007 0.58507,2.50496 1.07374,3.65958 2.05625,4.86737 6.18421,8.90858 10.48962,10.69309 1.74625,0.72349 3.57151,1.14404 5.35735,1.71751 5.61242,1.22019 8.99832,2.14052 14.8821,2.54981 3.94992,0.27418 7.91055,0.26175 11.86717,0.28661 13.76626,0.0895 27.47439,-0.93834 41.21046,-1.88189 19.51211,-1.67085 38.98463,-3.87522 58.52506,-5.05037 6.26773,-0.53022 12.5712,-0.20741 18.82689,-0.95027 3.75556,-0.44426 3.78874,-0.56918 7.49181,-1.46453 1.41486,-0.49268 4.91147,-1.61619 6.31643,-2.43882 1.6363,-0.95711 3.19891,-2.08766 4.74488,-3.23657 0.92006,-0.68361 1.82677,-1.40672 2.64373,-2.25377 1.93689,-2.00811 2.61755,-3.41293 4.09107,-5.84074 1.28049,-3.58344 2.48708,-7.54523 2.38745,-11.52063 -0.11616,-4.80927 -1.59228,-9.22326 -3.14034,-13.57438 -3.34765,-5.67476 -7.65964,-10.60206 -12.51707,-14.46143 -2.81744,-2.23824 -4.11223,-2.78669 -7.13749,-4.45212 -7.20463,-3.46617 -14.80612,-5.65877 -22.40548,-7.51944 -7.29281,-1.76676 -14.71973,-2.22803 -22.13838,-2.48065 -7.42375,-0.14238 -14.82757,-0.70502 -22.17867,-1.94409 -4.43018,-1.07007 -8.91874,-2.74561 -13.40638,-3.33849"
       style="fill:none;fill-opacity:1;stroke:#9c5ee8;stroke-width:0.97244;stroke-linejoin:bevel;stroke-miterlimit:4;stroke-dasharray:none;stroke-opacity:1"
       sodipodi:nodetypes="cccscsccccccccccccccccsccccccccc" />
    <text
       xml:space="preserve"
       style="font-style:normal;font-variant:normal;font-weight:normal;font-stretch:normal;font-size:26px;line-height:1.25;font-family:sans-serif;-inkscape-font-specification:'sans-serif, Normal';fill:#1c0c5b"
       x="371"
       y="134"
       id="text2087"><tspan
         id="tspan5">OpenSBPM</tspan></text>
    <text
       xml:space="preserve"
       style="font-style:normal;font-variant:normal;font-weight:normal;font-stretch:normal;font-size:18px;line-height:1.25;font-family:sans-serif;-inkscape-font-specification:'sans-serif, Normal';fill:#1c0c5b"
       x="19.163881"
       y="257.17596"
       id="text369"><tspan
         id="tspan8">Mitarbeiter</tspan></text>
    <text
       xml:space="preserve"
       style="font-style:normal;font-variant:normal;font-weight:normal;font-stretch:normal;font-size:18px;line-height:1.25;font-family:sans-serif;-inkscape-font-specification:'sans-serif, Normal';fill:#1c0c5b"
       x="626.75378"
       y="361.71747"
       id="text373"><tspan
         id="tspan11">Vorgesetzter</tspan></text>
    <text
       xml:space="preserve"
       style="font-style:normal;font-variant:normal;font-weight:normal;font-stretch:normal;font-size:18px;line-height:1.25;font-family:sans-serif;-inkscape-font-specification:'sans-serif, Normal';fill:#1c0c5b"
       x="188.98338"
       y="194.83626"
       id="text381"><tspan
         id="tspan14">Antrag ausfüllen</tspan></text>
    <text
       xml:space="preserve"
       style="font-style:normal;font-variant:normal;font-weight:normal;font-stretch:normal;font-size:18px;line-height:1.25;font-family:sans-serif;-inkscape-font-specification:'sans-serif, Normal';fill:#1c0c5b"
       x="385.69882"
       y="263.59723"
       id="text385"><tspan
         id="tspan17">Antrag prüfen</tspan></text>
    <path
       id="path420"
       d="m 321.00879,327.24258 c -8.11268,0.93501 -15.05143,-0.15182 -23.41577,-0.661 -2.60165,-0.0893 -5.20325,-0.34497 -7.80451,-0.24964 -10.06429,0.36776 -20.19952,3.0209 -29.55893,7.3864 -2.01609,0.94033 -3.96556,2.07099 -5.94807,3.10657 -6.35231,3.45728 -11.99818,8.39504 -17.37296,13.63085 -3.02864,2.95033 -5.31559,5.26578 -7.92824,8.70562 -1.06324,1.39971 -1.99995,2.92756 -3.00005,4.3913 -2.50706,4.12336 -4.02135,8.83024 -5.18091,13.68224 -0.30363,1.26212 -0.6527,2.52233 -0.78658,3.82494 -0.33465,3.22763 0.046,4.96474 0.46571,8.12109 0.35858,1.22007 0.58507,2.50496 1.07374,3.65958 2.05625,4.86737 6.18421,8.90858 10.48962,10.69309 1.74625,0.72349 3.57151,1.14404 5.35735,1.71751 5.61242,1.22019 8.99832,2.14052 14.8821,2.54981 3.94992,0.27418 7.91055,0.26175 11.86717,0.28661 13.76626,0.0895 27.47439,-0.93834 41.21046,-1.88189 19.51211,-1.67085 38.98463,-3.87522 58.52506,-5.05037 6.26773,-0.53022 12.5712,-0.20741 18.82689,-0.95027 3.75556,-0.44426 3.78874,-0.56918 7.49181,-1.46453 1.41486,-0.49268 4.91147,-1.61619 6.31643,-2.43882 1.6363,-0.95711 3.19891,-2.08766 4.74488,-3.23657 0.92006,-0.68361 1.82677,-1.40672 2.64373,-2.25377 1.93689,-2.00811 2.61755,-3.41293 4.09107,-5.84074 1.28049,-3.58344 2.48708,-7.54523 2.38745,-11.52063 -0.11616,-4.80927 -1.59228,-9.22326 -3.14034,-13.57438 -3.34765,-5.67476 -7.65964,-10.60206 -12.51707,-14.46143 -2.81744,-2.23824 -4.11223,-2.78669 -7.13749,-4.45212 -7.20463,-3.46617 -14.80612,-5.65877 -22.40548,-7.51944 -7.29281,-1.76676 -14.71973,-2.22803 -22.13838,-2.48065 -7.42375,-0.14238 -14.82757,-0.70502 -22.17867,-1.94409 -4.43018,-1.07007 -8.91874,-2.74561 -13.40638,-3.33849"
       style="fill:none;fill-opacity:1;stroke:#9c5ee8;stroke-width:0.97244;stroke-linejoin:bevel;stroke-miterlimit:4;stroke-dasharray:none;stroke-opacity:1"
       sodipodi:nodetypes="cccscsccccccccccccccccsccccccccc" />
    <text
       xml:space="preserve"
       style="font-style:normal;font-variant:normal;font-weight:normal;font-stretch:normal;font-size:18px;line-height:1.25;font-family:sans-serif;-inkscape-font-specification:'sans-serif, Normal';fill:#1c0c5b"
       x="227.42065"
       y="380.41519"
       id="text381-5"><tspan
         id="tspan22">Konto aktualisieren</tspan></text>
    <text
       xml:space="preserve"
       style="font-style:normal;font-variant:normal;font-weight:normal;font-stretch:normal;font-size:18px;line-height:1.25;font-family:sans-serif;-inkscape-font-specification:'sans-serif, Normal';fill:#1c0c5b"
       x="33.326553"
       y="557.18231"
       id="text373-2"><tspan
         id="tspan26">Reisestelle</tspan></text>
    <path
       id="path583"
       d="m 172.03869,99.483474 c 2.59377,45.139636 1.84459,102.383956 2.57127,147.621396 0.71381,50.951 0.95926,101.91017 1.01268,152.86864 0.24049,22.18966 0.17864,44.39782 0.78763,66.57856 0.34173,1.77765 0.38669,3.69469 1.02808,5.33312 4.01778,10.25043 21.69629,9.32221 27.97529,9.67416 5.6518,0.31772 11.30946,0.4296 16.96417,0.64702 41.1608,1.25816 82.33804,1.29029 123.50851,1.3411 34.87647,0.0398 69.75299,0.0916 104.6295,0.12063 16.16303,0.0159 32.32626,0.0239 48.48941,0.0159 7.47891,0.008 14.95755,-0.004 22.4363,-0.004 2.86692,0.004 10.12277,0.23729 13.21372,-0.5572 1.68616,-0.43346 3.23614,-1.48439 4.85405,-2.22676 2.00804,-2.01674 4.33746,-3.60464 6.02409,-6.05073 3.60181,-5.22395 4.9173,-17.809 5.56766,-24.3533 0.52494,-5.27998 4.01237,-46.12929 4.2065,-48.38914 4.9652,-59.70158 8.42865,-119.57746 10.95882,-179.51865 1.08916,-25.73246 1.41572,-51.49902 1.48915,-77.26338 0.0156,-7.48239 0.002,-14.96467 -0.004,-22.44677 -0.004,-2.75317 0.0788,-8.48198 -0.25114,-11.40135 -0.1556,-1.37109 -0.52974,-2.68705 -0.7948,-4.03029 -0.52217,-0.99839 -0.70437,-2.50679 -1.56589,-2.9959 -2.57144,-1.46047 -5.43714,-1.90691 -8.20734,-2.55469 -4.38664,-1.02546 -19.36454,-3.220995 -23.42968,-3.877333 -5.32542,-0.860249 -10.64595,-1.767897 -15.96887,-2.651767 -5.66886,-0.914265 -11.33776,-1.828223 -17.00662,-2.742496 -8.87142,-1.272837 -24.87468,-3.700002 -33.84523,-4.473492 -6.93408,-0.598158 -13.88287,-0.895847 -20.82842,-1.220777 -19.07849,-0.889448 -38.16962,-1.099427 -57.25825,-1.308881 -30.60313,0.481531 -60.77521,7.00399 -90.68285,14.668696 -10.28743,3.06953 -20.34297,5.71376 -30.96758,5.30907 -5.90024,-0.22423 -9.41434,-0.99943 -15.28374,-1.9726 -15.3259,-3.35047 -30.82915,-4.81223 -46.33613,-5.964013 -6.59681,-0.371623 -13.19875,-1.047573 -19.7965,-0.468694 -3.14594,0.452908 -6.26373,1.102585 -9.35127,1.98562 l -2.26735,2.192277 v 0"
       style="fill:none;fill-opacity:1;stroke:#9c5ee8;stroke-width:1;stroke-linejoin:bevel;stroke-miterlimit:4;stroke-dasharray:none;stroke-opacity:1"
       sodipodi:nodetypes="cccccccccccsccccccccccccccccccccccccc" />
    <path
       id="path585"
       d="m 111.11836,194.5768 c 8.49703,-0.10009 16.99419,-0.0528 25.49135,-0.0528 12.02373,-0.008 24.04541,-0.63122 36.0678,-1.00785 5.41441,-0.35661 2.83915,-0.15643 7.72614,-0.58835"
       style="fill:none;fill-opacity:1;stroke:#9c5ee8;stroke-width:1;stroke-linejoin:bevel;stroke-miterlimit:4;stroke-dasharray:none;stroke-opacity:1"
       sodipodi:nodetypes="cccc" />
    <path
       id="path587"
       d="m 116.5516,413.2168 c 10.92296,-1.05216 21.5513,-5.19019 32.12513,-8.84022 14.97077,-5.39368 30.16223,-9.45403 45.42157,-12.95786 7.17319,-1.57711 14.34046,-3.20335 21.58296,-4.04825 1.82813,-0.38357 3.96777,-0.27232 5.67318,-1.46004"
       style="fill:none;fill-opacity:1;stroke:#9c5ee8;stroke-width:1;stroke-linejoin:bevel;stroke-miterlimit:4;stroke-dasharray:none;stroke-opacity:1"
       sodipodi:nodetypes="ccccc" />
    <path
       id="path589"
       d="m 628.75689,285.37573 c -5.53226,-0.65682 -11.07964,-0.92028 -16.6303,-1.05097 -2.44829,0.0972 -4.89121,0.058 -7.33004,-0.0788 -7.60311,-0.42649 -15.16663,-1.80144 -22.73025,-2.94822 -8.33018,-0.57709 -16.34078,-3.79767 -24.31616,-6.8047 -6.56002,-2.47343 -7.77241,-2.62533 -14.26029,-5.01805"
       style="fill:none;fill-opacity:1;stroke:#9c5ee8;stroke-width:1;stroke-linejoin:bevel;stroke-miterlimit:4;stroke-dasharray:none;stroke-opacity:1;image-rendering:auto"
       sodipodi:nodetypes="ccscsc" />
    <g
       inkscape:label="Actor"
       id="actor"
       transform="matrix(0.77135539,0,0,1.2196364,8.6029845,-53.38001)"
       style="stroke-width:1.031;stroke-miterlimit:4;stroke-dasharray:none">
      <path
         style="fill:none;fill-opacity:1;stroke:#9c5ee8;stroke-width:1.031;stroke-linecap:butt;stroke-linejoin:bevel;stroke-miterlimit:4;stroke-dasharray:none;stroke-opacity:1"
         d="m 86.761039,48.715123 c -5.048086,-0.682611 -10.841099,0.167743 -15.911788,-0.225931 -4.51762,-0.144894 -9.079394,-0.8343 -13.578898,-0.02861 -0.991238,0.177493 -2.026671,0.321003 -2.913885,0.797351 -1.927805,1.035044 -3.80509,2.221992 -5.432965,3.6841 -0.830323,0.745771 -1.204717,1.879121 -1.807075,2.818683 -1.481839,2.754154 -2.19569,5.714971 -2.38198,8.818973 -0.05099,0.849569 -0.09061,1.705655 -0.01357,2.553263 0.198006,2.178728 0.77408,3.811884 1.370898,5.911588 0.399685,1.039262 0.712036,2.116474 1.199052,3.117787 0.59521,1.223756 1.308839,2.388409 2.037914,3.537455 0.767699,1.209916 1.56682,2.403737 2.448507,3.533288 2.632985,3.373181 5.779444,6.275261 8.902602,9.176642 0.817065,0.710218 1.576853,1.492273 2.451195,2.130657 1.031473,0.75311 2.137341,1.401985 3.248806,2.031082 3.429899,1.941357 7.154439,3.538129 11.017342,4.380029 1.476311,0.32175 2.985077,0.47053 4.477615,0.7058 4.546341,0.36891 4.313698,0.41332 8.740902,0.53489 2.704341,0.0743 4.192199,0.10471 6.849594,-0.13248 2.543855,-0.22705 2.927315,-0.38234 5.347405,-0.9001 4.62081,-2.23099 8.90453,-4.651914 11.82287,-8.965289 1.29139,-1.908699 1.23131,-2.141781 2.01225,-4.272878 0.46168,-2.415225 0.54058,-4.9135 0.0166,-7.331223 -0.59065,-2.725597 -1.7816,-5.444799 -2.83261,-8.019494 -0.33828,-0.73996 -0.64313,-1.496132 -1.01482,-2.219886 -0.40371,-0.786122 -0.86166,-1.543344 -1.30916,-2.305394 -1.66753,-2.839667 -3.53542,-5.52469 -5.46648,-8.188642 -1.45784,-1.896711 -2.97962,-3.743434 -4.55038,-5.547466 -0.25697,-0.29513 -0.50236,-0.601067 -0.77475,-0.882034 C 100.4274,53.129353 100.11158,52.85883 99.809262,52.574601 98.206644,51.073056 96.352918,49.930413 94.38124,48.987687 92.607495,48.103653 90.681447,47.687609 88.746507,47.34122 L 84.179718,46.8474"
         id="path20"
         sodipodi:nodetypes="ccssscsccssscsssccscscccsscsscccc" />
      <path
         style="fill:none;fill-opacity:1;stroke:#9c5ee8;stroke-width:1.031;stroke-linecap:butt;stroke-linejoin:bevel;stroke-miterlimit:4;stroke-dasharray:none;stroke-opacity:1"
         id="path22"
         d="m 88.719586,203.09372 v 0 c 0.06005,-1.30016 0.124069,-2.60017 0.215233,-3.89861 0.0595,-0.95095 0.12663,-1.85945 0.145905,-2.81209 0.04022,-1.98773 -0.06071,-3.97737 0.0034,-5.96518 0.02294,-1.9339 0.0326,-3.87137 0.180544,-5.80064 0.147428,-1.50597 0.359616,-3.0047 0.503065,-4.51121 0.362352,-3.14456 0.836158,-6.29685 0.750128,-9.47023 -0.06421,-3.98202 -0.150174,-7.96627 -0.42105,-11.94073 -0.08997,-1.32012 -0.16992,-2.64212 -0.323897,-3.95631 -0.145796,-1.24435 -0.383228,-2.47626 -0.574842,-3.71438 -0.666509,-3.4315 -0.952031,-4.99222 -1.710002,-8.49319 -1.459661,-6.74201 -3.044142,-13.45755 -4.422857,-20.21732 -0.9398,-4.79081 -1.909609,-9.57948 -2.652318,-14.40619 -0.181409,-1.17895 -0.313814,-2.36496 -0.483142,-3.5457 -0.38171,-2.6617 -0.128405,-0.42096 -0.354674,-2.59819"
         sodipodi:nodetypes="cscsccccsscscssc" />
      <path
         style="fill:none;fill-opacity:1;stroke:#9c5ee8;stroke-width:1.031;stroke-linecap:butt;stroke-linejoin:bevel;stroke-miterlimit:4;stroke-dasharray:none;stroke-opacity:1"
         id="path24"
         d="m 47.881329,233.54027 3.548306,-1.42452 v 0 c 0.299913,-0.24482 0.599827,-0.48965 0.89974,-0.73447 0.319891,-0.26942 2.181775,-1.83952 2.416868,-2.02855 2.197528,-1.76695 4.519623,-3.37495 6.689026,-5.17798 6.041403,-4.8194 12.045543,-9.68445 17.889583,-14.74324 2.881413,-2.43023 5.791165,-4.81415 8.740272,-7.16067 0.638325,-0.5079 1.397143,-1.14907 2.033719,-1.68236"
         sodipodi:nodetypes="ccscsccsc" />
      <path
         style="fill:none;fill-opacity:1;stroke:#9c5ee8;stroke-width:1.031;stroke-linecap:butt;stroke-linejoin:bevel;stroke-miterlimit:4;stroke-dasharray:none;stroke-opacity:1"
         id="path26"
         d="m 89.390109,201.48344 c 3.665194,4.77033 7.243599,9.64237 11.348131,14.05314 0.9367,1.00658 1.93581,1.95322 2.90372,2.92983 0.97086,0.84103 1.92911,1.69685 2.9126,2.52308 1.91668,1.61023 3.89568,3.14499 5.82443,4.74075 2.87337,2.37732 5.7237,4.78145 8.6058,7.14847 2.18487,1.82649 4.37389,3.64857 6.597,5.42842"
         sodipodi:nodetypes="cscsscc" />
      <path
         style="fill:none;fill-opacity:1;stroke:#9c5ee8;stroke-width:1.031;stroke-linecap:butt;stroke-linejoin:bevel;stroke-miterlimit:4;stroke-dasharray:none;stroke-opacity:1"
         id="path28"
         d="m 42.0547,137.72493 c 9.361363,-0.24284 18.727499,-0.26895 28.091611,-0.25935 8.670026,-0.10817 17.34226,-0.12818 26.011277,-0.30631 3.994342,-0.0659 7.969822,-0.47893 11.959122,-0.65987 3.57813,-0.13795 7.15137,-0.36722 10.72494,-0.58886"
         sodipodi:nodetypes="ccccc" />
      <path
         style="fill:none;fill-opacity:1;stroke:#9c5ee8;stroke-width:1.031;stroke-linecap:butt;stroke-linejoin:bevel;stroke-miterlimit:4;stroke-dasharray:none;stroke-opacity:1"
         id="path30"
         d="m 45.472625,137.9926 c -1.810623,0.72743 -2.517611,0.99355 -4.446111,1.86569 -1.071044,0.48437 -2.165456,0.92608 -3.192598,1.49768 -2.603,1.44856 -5.154843,2.98887 -7.687551,4.5571 -2.43244,1.50614 -9.069153,6.00219 -11.392245,7.56434 -6.143358,4.06379 -12.3655329,8.00666 -18.64765849,11.8518"
         sodipodi:nodetypes="cssscc" />
      <path
         style="fill:none;fill-opacity:1;stroke:#9c5ee8;stroke-width:1.031;stroke-linecap:butt;stroke-linejoin:bevel;stroke-miterlimit:4;stroke-dasharray:none;stroke-opacity:1"
         id="path32"
         d="m 119.52312,134.61394 c 0.16763,0.49628 0.28128,1.0142 0.50288,1.48884 1.55026,3.32034 3.84494,6.18586 6.24779,8.9187 1.65349,1.88056 4.74269,5.10822 6.47089,6.93256 2.98111,3.03706 5.83926,6.20059 8.88202,9.17743 2.41967,2.36724 4.97155,4.59734 7.52917,6.81246 3.74346,3.2115 7.37436,6.54973 11.21578,9.6452 0.53911,0.39296 1.07822,0.78591 1.61733,1.17886"
         sodipodi:nodetypes="ccscsccc" />
    </g>
    <use
       xlink:href="#actor"
       x="142"
       y="124"
       id="use43"
       width="100%"
       height="100%"
       transform="translate(473.30922,-34.626331)"
       style="fill:#1c0c5b;fill-opacity:1;stroke:#9c5ee8;stroke-width:1;stroke-linejoin:bevel;stroke-miterlimit:4;stroke-dasharray:none;stroke-dashoffset:0.105833;stroke-opacity:1" />
    <use
       xlink:href="#actor"
       x="142"
       y="124"
       id="use43-3"
       width="100%"
       height="100%"
       transform="translate(-134.15671,168.62555)"
       style="fill:#1c0c5b;fill-opacity:1;stroke:#9c5ee8;stroke-width:1;stroke-linejoin:bevel;stroke-miterlimit:4;stroke-dasharray:none;stroke-dashoffset:0.105833;stroke-opacity:1" />
    <path
       id="path420-3-6"
       d="m 447.30665,218.44827 c -8.11268,0.93501 -15.05143,-0.15182 -23.41577,-0.661 -2.60165,-0.0893 -5.20325,-0.34497 -7.80451,-0.24964 -10.06429,0.36776 -20.19952,3.0209 -29.55893,7.3864 -2.01609,0.94033 -3.96556,2.07099 -5.94807,3.10657 -6.35231,3.45728 -11.99818,8.39504 -17.37296,13.63085 -3.02864,2.95033 -5.31559,5.26578 -7.92824,8.70562 -1.06324,1.39971 -1.99995,2.92756 -3.00005,4.3913 -2.50706,4.12336 -4.02135,8.83024 -5.18091,13.68224 -0.30363,1.26212 -0.6527,2.52233 -0.78658,3.82494 -0.33465,3.22763 0.046,4.96474 0.46571,8.12109 0.35858,1.22007 0.58507,2.50496 1.07374,3.65958 2.05625,4.86737 6.18421,8.90858 10.48962,10.69309 1.74625,0.72349 3.57151,1.14404 5.35735,1.71751 5.61242,1.22019 8.99832,2.14052 14.8821,2.54981 3.94992,0.27418 7.91055,0.26175 11.86717,0.28661 13.76626,0.0895 27.47439,-0.93834 41.21046,-1.88189 19.51211,-1.67085 38.98463,-3.87522 58.52506,-5.05037 6.26773,-0.53022 12.5712,-0.20741 18.82689,-0.95027 3.75556,-0.44426 3.78874,-0.56918 7.49181,-1.46453 1.41486,-0.49268 4.91147,-1.61619 6.31643,-2.43882 1.6363,-0.95711 3.19891,-2.08766 4.74488,-3.23657 0.92006,-0.68361 1.82677,-1.40672 2.64373,-2.25377 1.93689,-2.00811 2.61755,-3.41293 4.09107,-5.84074 1.28049,-3.58344 2.48708,-7.54523 2.38745,-11.52063 -0.11616,-4.80927 -1.59228,-9.22326 -3.14034,-13.57438 -3.34765,-5.67476 -7.65964,-10.60206 -12.51707,-14.46143 -2.81744,-2.23824 -4.11223,-2.78669 -7.13749,-4.45212 -7.20463,-3.46617 -14.80612,-5.65877 -22.40548,-7.51944 -7.29281,-1.76676 -14.71973,-2.22803 -22.13838,-2.48065 -7.42375,-0.14238 -14.82757,-0.70502 -22.17867,-1.94409 -4.43018,-1.07007 -8.91874,-2.74561 -13.40638,-3.33849"
       style="fill:none;fill-opacity:1;stroke:#9c5ee8;stroke-width:0.97244;stroke-linejoin:bevel;stroke-miterlimit:4;stroke-dasharray:none;stroke-opacity:1"
       sodipodi:nodetypes="cccscsccccccccccccccccsccccccccc" />
  </g>
</svg>
